<?xml version="1.0" encoding="UTF-8" standalone="no"?>
<!-- Created with Inkscape (http://www.inkscape.org/) -->

<svg
   width="210mm"
   height="297mm"
   viewBox="0 0 210 297"
   version="1.1"
   id="svg1"
   sodipodi:docname="bone1.svg"
   inkscape:version="1.3.2 (091e20e, 2023-11-25, custom)"
   xmlns:inkscape="http://www.inkscape.org/namespaces/inkscape"
   xmlns:sodipodi="http://sodipodi.sourceforge.net/DTD/sodipodi-0.dtd"
   xmlns="http://www.w3.org/2000/svg"
   xmlns:svg="http://www.w3.org/2000/svg">
  <sodipodi:namedview
     id="namedview1"
     pagecolor="#ffffff"
     bordercolor="#000000"
     borderopacity="0.25"
     inkscape:showpageshadow="2"
     inkscape:pageopacity="0.0"
     inkscape:pagecheckerboard="0"
     inkscape:deskcolor="#d1d1d1"
     inkscape:document-units="cm"
     inkscape:zoom="1.4142136"
     inkscape:cx="481.53972"
     inkscape:cy="288.14601"
     inkscape:window-width="1920"
     inkscape:window-height="1017"
     inkscape:window-x="-8"
     inkscape:window-y="-8"
     inkscape:window-maximized="1"
     inkscape:current-layer="layer1" />
  <defs
     id="defs1">
    <clipPath
       clipPathUnits="userSpaceOnUse"
       id="clipPath798">
      <path
         id="path799"
         style="fill:#ff0000;fill-opacity:1;fill-rule:nonzero;stroke:none;stroke-width:0.264583"
         d="m 50.000048,54.999745 v 25.000024 h 9.891387 c -0.04686,-0.0052 -0.09375,-0.0088 -0.14056,-0.01447 -0.247422,-0.02896 -0.493196,-0.07094 -0.735356,-0.129191 -0.203033,-0.04933 -0.390726,-0.135675 -0.56224,-0.25373 -0.09728,-0.07632 -0.178993,-0.168624 -0.261482,-0.259934 -0.01624,-0.0056 -0.03298,-0.0095 -0.04909,-0.0155 -0.06818,-0.02424 -0.135896,-0.05006 -0.203089,-0.077 -0.02707,-0.004 -0.05422,-0.0079 -0.08113,-0.01188 -0.141576,-0.02122 -0.235524,-0.07747 -0.288354,-0.144693 -0.05146,-0.02349 -0.102753,-0.04738 -0.154511,-0.07028 -0.07537,-0.03215 -0.149392,-0.0664 -0.223242,-0.101801 -0.09146,-0.03922 -0.181502,-0.08266 -0.269751,-0.128675 -0.09933,-0.0526 -0.195879,-0.109516 -0.292489,-0.166915 -0.07417,-0.04559 -0.149148,-0.08985 -0.224276,-0.133842 -0.05137,-0.03089 -0.10295,-0.06126 -0.15503,-0.09095 -0.0596,-0.02944 -0.119243,-0.05906 -0.176734,-0.0925 -0.07162,-0.04146 -0.143169,-0.08276 -0.21549,-0.122989 -0.03974,-0.02432 -0.07898,-0.04946 -0.11834,-0.07441 -0.101656,0.281627 -0.492895,0.302355 -0.708483,-0.157097 -5.29e-4,-0.0011 -0.0011,-0.0024 -0.0016,-0.0036 -0.03632,-0.01048 -0.07316,-0.01897 -0.109038,-0.031 -0.202843,-0.07287 -0.405828,-0.152067 -0.588076,-0.268719 -0.140901,-0.09082 -0.276664,-0.190505 -0.395327,-0.309541 -0.1015,-0.111223 -0.201041,-0.226404 -0.282152,-0.353468 -0.06745,-0.113676 -0.124767,-0.23183 -0.164849,-0.358116 -0.03622,-0.113453 -0.07141,-0.227232 -0.07906,-0.34675 -0.04859,-0.0063 -0.101616,-0.03928 -0.139525,-0.120406 -0.01347,-0.02882 -0.02678,-0.05779 -0.03979,-0.08682 -0.0059,-0.01042 -0.01199,-0.02069 -0.01707,-0.03153 -0.01251,-0.02614 -0.0245,-0.05219 -0.03411,-0.07958 -0.0011,-0.0032 -0.0019,-0.0066 -0.0031,-0.0098 -0.0036,-0.0079 -0.0072,-0.01535 -0.01085,-0.02379 -0.0016,-0.0031 -0.003,-0.0062 -0.0047,-0.0093 0.0055,0.02708 0.01209,0.05377 0.02066,0.0801 0.0027,0.0095 0.0066,0.01871 0.01035,0.02791 0.03316,0.08317 -0.05114,0.116779 -0.08423,0.03359 -0.0044,-0.01103 -0.0085,-0.0222 -0.01188,-0.03359 -0.01029,-0.03204 -0.01892,-0.06464 -0.02532,-0.09767 -0.0013,-0.007 -0.0028,-0.01413 -0.0041,-0.02119 -0.0034,-0.01008 -0.0076,-0.01992 -0.0093,-0.03049 -0.0011,-0.0055 -0.0016,-0.01103 -0.0026,-0.01654 -0.02117,0.02463 -0.06405,0.01495 -0.07907,-0.04186 -7.94e-4,-0.0028 -0.0013,-0.0055 -0.0021,-0.0083 -0.0045,-0.01945 -0.0073,-0.03938 -0.0062,-0.05943 2.9e-5,-0.0078 -6.1e-5,-0.01553 0,-0.02326 -0.0059,-0.0021 -0.01236,-0.0074 -0.0098,-0.01963 0.0019,-0.01609 0.0039,-0.03231 0.0078,-0.04806 2.64e-4,-0.0021 5.29e-4,-0.0042 0.0011,-0.0062 -0.0042,-0.0028 -0.0071,-0.0085 -0.0078,-0.01707 0,0.02798 -0.02842,0.02798 -0.02842,0 v -0.0072 -0.0036 c -0.0077,0.0019 -0.0168,-0.0043 -0.01757,-0.01963 -2.54e-4,-0.0069 2.64e-4,-0.0035 -5.29e-4,-0.01035 -5.3e-4,-0.0067 -0.0013,-0.01352 -0.0021,-0.02016 -0.0016,-0.0033 -0.0038,-0.0065 -0.0052,-0.0098 -0.0024,-0.0065 -0.0046,-0.01288 -0.0062,-0.01963 -0.0071,0.0049 -0.01633,0.0033 -0.02016,-0.01291 -5.29e-4,-0.0019 -0.0026,-0.0034 -0.0031,-0.0052 -0.0031,-0.01246 -0.0039,-0.02535 -0.0031,-0.03824 v -0.0016 c -0.0084,0.0053 -0.0186,0.0031 -0.0186,-0.01497 v -0.09353 -0.09302 -0.0677 c 5.29e-4,-0.01185 0.0021,-0.02347 0.0036,-0.03514 -0.0013,-0.0067 -0.0029,-0.01323 -0.0026,-0.02016 v -0.03514 -0.03824 c -0.0019,-0.0091 -0.0052,-0.0182 -0.0062,-0.02739 -0.0011,-0.0118 -0.0016,-0.02331 -0.0016,-0.03514 1.6e-5,-0.01191 -9e-5,-0.02373 0,-0.03566 1.27e-4,-0.01426 0.0011,-0.02863 0.0016,-0.04289 7.94e-4,-0.01971 5.29e-4,-0.03933 0.0031,-0.05891 0.0024,-0.01524 0.0062,-0.03056 0.01188,-0.04496 h 0.0011 c 0.0039,-0.0097 0.0098,-0.01495 0.01551,-0.01603 0.0096,-0.0019 0.01823,0.0075 0.01188,0.02379 -0.0053,0.01336 -0.0087,0.0272 -0.01085,0.04134 -0.0013,0.01042 -0.0026,0.02098 -0.0031,0.03153 2.62e-4,-3.2e-5 0.0011,-0.0011 0.0016,-0.0011 0.0071,0 0.01344,0.0067 0.01344,0.02066 v 0.01138 c 5.29e-4,-0.0055 0.0041,-0.0055 0.0062,-0.0088 v -5.29e-4 c 0.0011,-0.0096 0.0065,-0.01519 0.01188,-0.01654 0.0019,-5.29e-4 0.0043,-5.29e-4 0.0062,0 -0.01839,-0.152466 0.106453,-0.302572 0.39791,-0.309026 h 5.29e-4 5.29e-4 5.29e-4 5.3e-4 5.29e-4 5.29e-4 5.29e-4 5.29e-4 v 5.3e-4 5.29e-4 5.29e-4 5.29e-4 5.29e-4 5.29e-4 c 0.01852,-5.29e-4 0.03759,-2.64e-4 0.05736,5.3e-4 0.02379,0.0011 0.04714,0.0053 0.0708,0.0072 v -0.03824 c 0,-0.358116 0.180858,-0.537434 0.361735,-0.537434 0.180877,0 0.361733,0.179318 0.361733,0.537434 v 0.239779 c 0.03992,0.03716 0.07193,0.07707 0.0894,0.119372 0.03653,-0.0053 0.07568,-0.0083 0.117825,-0.0083 h 0.108518 c 0.07435,-0.03691 0.163809,-0.06408 0.283189,-0.06408 h 2.573486 c 0.741942,0 0.38001,0.0024 1.086239,-0.0052 0.08187,-7.93e-4 0.152498,0.0099 0.213423,0.02791 0.05168,-0.0016 0.10355,-7.94e-4 0.155546,0.0016 -0.01183,-0.127262 0.09847,-0.250886 0.318326,-0.249595 0.02789,1.59e-4 0.05754,0.0024 0.08888,0.0067 0.1759,0.02487 0.351292,0.055 0.526066,0.08682 0.161398,0.03298 0.323897,0.05589 0.487825,0.07131 0.207984,0.01746 0.416711,0.02005 0.625285,0.02326 0.233222,0.0031 0.46646,0.0039 0.699698,0.0047 0.205743,5.29e-4 0.411792,0.0011 0.617535,0.0011 0.225454,8.2e-5 0.450988,-1.6e-5 0.676444,0 0.186458,1.3e-5 0.372682,0 0.559139,0 h 0.590661 c 0.139065,0.0041 0.276855,-5.29e-4 0.414962,-0.01601 0.133509,-0.01712 0.265941,-0.03999 0.399976,-0.05323 0.155276,-0.01341 0.31088,-0.01842 0.466638,-0.0217 0.230087,-0.0037 0.46029,-0.0037 0.690398,-0.0041 0.14505,-2.65e-4 0.290081,-5.29e-4 0.435115,-5.29e-4 -0.01421,-0.314743 -0.03068,-0.629375 -0.05478,-0.943613 -0.05138,-0.620471 -0.121346,-1.238477 -0.218075,-1.853634 -0.118208,-0.751763 0.231357,-1.154477 0.618567,-1.154967 0.05518,-6.8e-5 0.11095,0.0089 0.166396,0.02532 0.113483,-0.174532 0.274542,-0.279188 0.450104,-0.291454 0.311531,-0.02178 0.658339,0.233211 0.818036,0.839223 0.153506,0.582515 0.259694,1.175727 0.349335,1.770952 0.07705,0.543922 0.122621,1.091033 0.154511,1.639178 0.0655,-0.0064 0.130567,-0.0168 0.196371,-0.02066 0.116224,-0.0064 0.232966,-0.0079 0.349332,-0.0093 0.100981,-7.94e-4 0.201933,-0.0027 0.302824,0.0021 0.09587,0.0026 0.189645,0.0222 0.283705,0.03876 0.08635,0.01416 0.172354,0.02666 0.259416,0.03566 0.07892,0.0078 0.158469,0.01135 0.237709,0.01394 0.07998,0.0024 0.15997,0.0013 0.239779,0.0072 0.05743,0.0034 0.111543,0.01749 0.164333,0.03617 2.9e-5,-0.0031 9.2e-5,-0.0083 5.29e-4,-0.01085 7.93e-4,-0.01384 0.0075,-0.02109 0.01447,-0.02223 0.0089,-0.0013 0.01847,0.007 0.01757,0.02479 -1.3e-4,0.0027 -5.29e-4,0.0098 -5.29e-4,0.01138 1.27e-4,0.0037 0.0011,0.0076 0.0021,0.01138 0.01498,0.0062 0.03025,0.01151 0.04496,0.0186 -0.01251,-0.07393 0.02508,-0.121827 0.0739,-0.119372 0.0091,5.29e-4 0.01855,0.0074 0.02791,0.01138 -0.03009,-0.08632 0.0091,-0.146262 0.06201,-0.147278 0.0021,-3.9e-5 0.0042,-6e-5 0.0062,5.3e-4 -0.0099,-0.05233 0.0043,-0.09145 0.04031,-0.09612 0.02585,-0.0034 0.06154,0.0099 0.10387,0.04651 0.0088,0.0076 0.01855,0.01455 0.02635,0.02326 0.02889,0.03189 0.04856,0.06453 0.06924,0.102317 0.02392,0.04364 0.04397,0.08874 0.06305,0.134361 -0.01908,-0.09186 -0.03688,-0.184063 -0.06201,-0.274402 -0.027,-0.09704 0.0154,-0.157562 0.06615,-0.161232 7.93e-4,-6.1e-5 0.0019,2.9e-5 0.0026,0 0.01344,-0.02836 0.03714,-0.04481 0.06356,-0.04599 0.04006,-0.0019 0.0856,0.0302 0.107487,0.105421 0.02101,0.07225 0.04706,0.142539 0.07493,0.212389 0.01868,0.04888 0.03776,0.09766 0.05736,0.146246 -0.01,-0.06586 0.02405,-0.109519 0.0677,-0.113689 0.01172,-0.0011 0.02426,0.0013 0.03669,0.0062 -0.02394,-0.08952 -0.04536,-0.179861 -0.07751,-0.266649 -0.03496,-0.09446 0.003,-0.155983 0.05426,-0.161748 h 5.29e-4 5.29e-4 5.29e-4 c 0.03985,-0.0045 0.08795,0.02477 0.11524,0.09818 0.0145,0.03904 0.0227,0.08013 0.03514,0.119891 0.01161,-0.02487 0.03369,-0.03995 0.06046,-0.04031 0.0325,-5.29e-4 0.07172,0.02085 0.106969,0.07131 0.03802,0.05443 0.05951,0.117834 0.0801,0.18035 0.01363,0.0427 0.02058,0.08669 0.02739,0.130744 0.003,-0.0062 0.0079,-0.0093 0.01291,-0.0093 0.0075,0 0.01407,0.0084 0.01497,0.02223 -0.0011,-0.0097 -0.0026,-0.01926 -0.0047,-0.02894 -0.0037,-0.01744 0.0047,-0.02708 0.01394,-0.02635 0.0072,5.29e-4 0.01468,0.0076 0.01757,0.02119 0.0035,0.01651 0.0054,0.03332 0.0067,0.05012 0.0016,0.02323 0.0021,0.04649 0.0026,0.06976 2.65e-4,0.01632 5.3e-4,0.03234 5.3e-4,0.04857 7.1e-5,0.01384 -8e-6,0.02803 0,0.04186 1.5e-5,0.01408 0,0.02777 0,0.04186 7e-6,0.01437 0,0.02905 0,0.04341 2.64e-4,0.01564 -5.3e-4,0.03088 -0.0011,0.04651 -2.64e-4,0.01143 -5.29e-4,0.02307 -5.29e-4,0.03462 0.0013,0.0083 0.0026,0.01654 0.0041,0.02482 0.0021,0.01106 0.0038,0.02188 0.0052,0.03307 0.0013,0.0098 0.0019,0.01966 0.0021,0.02946 1.98e-4,0.0086 2.64e-4,0.01775 0,0.02635 -2.65e-4,0.0071 -7.94e-4,0.01408 -0.0011,0.02119 -2.56e-4,0.0055 -5.29e-4,0.01053 -5.29e-4,0.01603 -5.8e-5,0.0061 1.6e-5,0.01251 0,0.0186 -8e-6,0.0063 3e-6,0.0123 0,0.0186 0,0.0068 3e-6,0.01386 0,0.02066 8.2e-5,0.0061 2.65e-4,0.01191 -5.29e-4,0.0181 -5.29e-4,0.0066 -0.0019,0.01312 -0.0031,0.01963 -0.0011,0.0058 -0.0024,0.01188 -0.0036,0.01757 -0.0011,0.0042 -0.0016,0.0086 -0.0021,0.01291 -2.01e-4,0.0052 -0.0013,0.0099 -0.0021,0.01498 -7.94e-4,0.0046 -0.0021,0.0094 -0.0031,0.01394 -0.0044,0.01929 -0.01884,0.02313 -0.02687,0.01601 v 0.01138 0.0031 c 8e-6,0.0059 -0.0044,0.0051 -0.0062,0.0088 5.29e-4,0.01291 7.94e-4,0.02582 0.0011,0.03876 1.85e-4,0.01828 -3.5e-5,0.03651 0,0.05478 5.29e-4,0.02233 5.29e-4,0.0446 -0.0031,0.06666 -0.0033,0.01405 -0.0021,0.0076 -0.0052,0.01963 -0.01352,0.05271 -0.04391,0.07686 -0.07183,0.07752 -2.16e-4,2.24e-4 -1.4e-4,7.93e-4 -5.29e-4,0.0011 2.1e-5,0.04828 -5.29e-4,0.09647 -0.0047,0.144695 -0.0059,0.05049 -0.01408,0.100653 -0.02687,0.149863 -0.0089,0.03524 -0.02379,0.06897 -0.03669,0.102835 -0.01169,0.03225 -0.02003,0.0655 -0.02842,0.0987 -0.01196,0.0555 -0.02529,0.110477 -0.03773,0.165881 -0.0074,0.03249 -0.0141,0.065 -0.02066,0.09767 -0.03557,0.17549 -0.212886,0.139893 -0.177252,-0.03566 0.0069,-0.03386 0.014,-0.0676 0.0217,-0.101285 0.01249,-0.05572 0.02551,-0.111641 0.03772,-0.167431 -0.01812,-0.0223 -0.03042,-0.05678 -0.03049,-0.103354 -3.7e-5,-0.02633 5.5e-5,-0.05271 -5.3e-4,-0.07906 -0.0086,0.05819 -0.01423,0.116808 -0.02479,0.174665 -0.02138,0.112244 -0.04447,0.224232 -0.06615,0.336415 -0.0254,0.129296 -0.06163,0.256217 -0.09922,0.382405 -0.04281,0.13009 -0.08339,0.26072 -0.128159,0.390157 -0.04072,0.120073 -0.08792,0.237596 -0.134358,0.355534 -0.02429,0.06172 -0.06175,0.08328 -0.09715,0.08785 -0.0075,0.0518 -0.019,0.102783 -0.03669,0.152445 -0.01773,0.04977 -0.04445,0.09572 -0.06666,0.143661 -0.08112,0.124606 -0.189442,0.219829 -0.307991,0.302824 -0.101264,0.18207 -0.247375,0.259336 -0.377757,0.252182 -0.0024,0.05662 -0.0058,0.113274 -0.01241,0.170013 -0.0087,0.0403 -0.01725,0.08062 -0.02585,0.120923 -0.126445,0.589947 -0.671452,0.561647 -0.729671,0.124542 -0.06224,0.03199 -0.124235,0.06451 -0.187068,0.09508 -0.0072,0.0035 -0.01302,0.0034 -0.02016,0.0067 -0.06681,0.504333 -0.640768,0.503645 -0.718302,-0.127122 -0.01008,-0.08212 -0.01212,-0.100065 -0.0155,-0.124023 0.0013,0.12075 0.0041,0.241448 0.0052,0.362249 0.0013,0.141835 0.0019,0.283982 0.0026,0.425815 5.29e-4,0.09525 -0.01228,0.177501 -0.03411,0.247531 h 6.347934 V 54.999932 Z m 8.783961,20.419941 c -0.07851,0.05765 -0.192617,0.0976 -0.346231,0.09922 -0.09305,0.0011 -0.08141,-2.64e-4 -0.142627,5.3e-4 -0.167886,0.07047 -0.303281,0.05701 -0.38654,0.0021 -0.094,5.29e-4 -0.179898,0.0031 -0.56379,0.0031 h -2.349212 c -0.07544,0.03953 -0.175109,0.06408 -0.299207,0.06408 h -0.316775 c -0.09098,0 -0.166827,-0.01447 -0.23151,-0.03721 -0.007,0.121181 -0.01236,0.242466 -0.0155,0.363802 0.0044,0.09241 -0.0099,0.187267 -0.0016,0.279569 0.0076,0.0064 0.01511,0.0088 0.02273,0.01654 0.04172,0.0424 0.08533,0.08281 0.128674,0.123507 -0.04,-0.24969 0.09109,-0.409982 0.265618,-0.421164 0.153382,-0.0098 0.339522,0.09533 0.470771,0.355018 0.130958,0.259109 0.260133,0.519205 0.386024,0.780831 0.04344,0.09243 0.08709,0.184705 0.130741,0.276984 0.0042,7.94e-4 0.0082,0.0024 0.01241,0.0031 0.124693,0.01672 0.248444,0.03784 0.371039,0.06614 0.157012,0.03075 0.297534,0.104574 0.437697,0.178285 0.178009,0.09928 0.361345,0.187396 0.551389,0.260966 0.29867,0.107823 0.604782,0.194673 0.909506,0.283702 0.273066,0.07232 0.539152,0.166447 0.805635,0.259416 0.140644,0.05015 0.279479,0.105709 0.401008,0.194305 0.07199,0.05248 0.11793,0.10096 0.180869,0.161745 0.105433,0.101367 0.205353,0.20832 0.302823,0.317294 0.05309,0.0728 0.125111,0.109783 0.205671,0.144179 0.103841,0.03095 0.211754,0.04508 0.31936,0.05478 0.174681,0.0075 0.348615,0.02477 0.522968,0.03721 0.205713,0.01389 0.411948,0.0181 0.618048,0.02119 0.233894,0.003 0.46786,0.0038 0.701768,0.0047 0.202718,5.29e-4 0.405511,7.94e-4 0.608232,0.0011 0.382563,1.27e-4 0.765143,-1.9e-5 1.147733,0 0.317998,8e-6 0.635963,0 0.953947,0 0.02786,-0.006 0.05585,-0.01159 0.08371,-0.01757 0.121816,-0.02421 0.243403,-0.04904 0.363802,-0.07958 0.120314,-0.0265 0.241199,-0.05101 0.362251,-0.0739 0.120555,-0.02508 0.240567,-0.05082 0.360186,-0.0801 0.09818,-0.02053 0.194897,-0.04941 0.287837,-0.08733 0.111601,-0.04407 0.225163,-0.08363 0.33383,-0.134877 0.03046,-0.01397 0.06012,-0.02953 0.09095,-0.04289 -2.65e-4,-0.09767 -8.5e-5,-0.195334 -5.29e-4,-0.293005 -0.0038,-0.733965 -0.0087,-1.468073 -0.02223,-2.201934 -0.0061,-0.288896 -0.01344,-0.577766 -0.02222,-0.866614 -0.137367,0.01336 -0.274794,0.02641 -0.41083,0.05064 -0.17767,0.02881 -0.355581,0.05702 -0.534849,0.0739 -0.171715,0.02064 -0.343321,0.04379 -0.516248,0.05219 -0.251885,0.0094 -0.503994,0.0075 -0.756028,0.0072 -0.384344,-2.7e-5 -0.768517,-5.29e-4 -1.152901,-5.29e-4 -0.29133,-9.3e-5 -0.582996,7.7e-5 -0.874363,-5.29e-4 -0.301876,-5.3e-4 -0.603509,-0.0011 -0.905372,-0.0041 -0.298501,-0.0031 -0.597461,-0.0058 -0.895554,-0.02326 -0.301278,-0.01823 -0.602324,-0.04201 -0.901237,-0.08526 -0.230291,-0.03163 -0.460407,-0.06608 -0.691946,-0.08733 z m 9.924976,0.05943 c 0.0053,0.192053 0.01005,0.384098 0.01291,0.576191 0.05002,-0.05926 0.113512,-0.100386 0.187585,-0.106453 -0.03063,-0.191341 0.0277,-0.339338 0.131259,-0.409794 -0.007,-0.0016 -0.01418,-0.0021 -0.02119,-0.0036 -0.09759,-0.02323 -0.194693,-0.04524 -0.295074,-0.05374 -0.0052,-7.94e-4 -0.01035,-0.0016 -0.0155,-0.0026 z m 0.731739,0.118856 c 0.04216,0.03712 0.08239,0.08864 0.120923,0.147278 0.0049,-2.6e-4 0.0099,-5.3e-4 0.01498,-5.3e-4 0.107831,-2.64e-4 0.24543,0.05477 0.399973,0.183968 0.112784,0.09428 0.198692,0.209497 0.27027,0.334346 -0.04749,-0.175223 -0.0984,-0.349554 -0.158647,-0.520899 -0.01495,-0.04254 -0.02551,-0.08286 -0.03359,-0.121954 -0.01,-1.48e-4 -0.02005,2.65e-4 -0.02997,-5.29e-4 -0.08625,-5.29e-4 -0.17268,-0.0016 -0.2589,-0.0041 -0.10849,-0.0033 -0.216847,-0.0091 -0.325043,-0.01757 z m 1.871202,1.329118 c -0.01024,0.03177 -0.02037,0.06373 -0.03152,0.09508 -0.02697,0.07697 -0.06825,0.146222 -0.113689,0.212907 0.0039,0.03811 0.0084,0.07605 0.01188,0.114205 0.0011,0.04458 0.0031,0.09027 0.0052,0.135909 0.01775,-0.04703 0.03709,-0.09349 0.05323,-0.141076 0.03745,-0.108069 0.07204,-0.21689 0.107487,-0.325562 -0.02392,-0.0149 -0.03348,-0.04949 -0.03256,-0.09147 z m -3.394109,2.654618 c 2.64e-4,0.136591 7.94e-4,0.273164 0.0011,0.409795 6e-6,0.0057 -5e-6,0.003 0,0.0083 h 0.07958 c -0.02193,-0.06913 -0.03517,-0.150109 -0.03566,-0.243915 -2.64e-4,-0.05514 -7.93e-4,-0.110251 -0.0011,-0.165364 -0.01479,-0.0013 -0.02922,-0.0063 -0.04393,-0.0088 z m -1.446422,0.377756 c -0.04604,0.01447 -0.09181,0.03039 -0.139009,0.04031 h 0.139009 c -5e-6,-0.004 6e-6,-0.0019 0,-0.0062 -1.6e-5,-0.01138 1.6e-5,-0.02273 0,-0.0341 z" />
    </clipPath>
    <clipPath
       clipPathUnits="userSpaceOnUse"
       id="clipPath1204">
      <path
         id="path1205"
         style="fill:#ff0000;fill-opacity:1;fill-rule:nonzero;stroke:none;stroke-width:0.264583"
         d="m 52.833469,74.999557 -0.333315,5.29e-4 V 225.00023 h 0.360702 v -0.0129 -0.0124 -0.0109 -0.01 -0.006 c -0.0011,-10e-4 -0.0016,-0.003 -0.0021,-0.005 -5.29e-4,-0.003 -0.0011,-0.005 -0.0011,-0.007 1.3e-5,-0.003 -5.3e-5,-0.005 0,-0.007 6.8e-5,-0.002 -1.43e-4,-0.005 5.29e-4,-0.007 2.09e-4,-0.003 5.29e-4,-0.005 5.29e-4,-0.008 -3e-6,-0.004 8e-6,-0.007 0,-0.01 -1.3e-5,-0.004 5.3e-5,-0.007 0,-0.0114 -2.9e-5,-0.002 9e-5,-0.003 0,-0.005 -5.3e-5,-0.001 -5.29e-4,-0.002 -5.29e-4,-0.003 -1.19e-4,-7.9e-4 1.27e-4,-10e-4 0,-0.002 -8.2e-5,-0.001 -5.29e-4,-0.002 -5.29e-4,-0.003 -1.94e-4,-8e-4 1.72e-4,-0.002 -5.3e-4,-0.003 -0.0011,-0.005 -0.0016,-0.009 -0.0026,-0.0145 -7.94e-4,-0.004 -0.0013,-0.008 -0.0016,-0.0124 -2.64e-4,-0.005 -5.29e-4,-0.009 -5.29e-4,-0.015 v -0.016 -0.0165 -0.0139 -0.0145 -0.0155 -0.0227 c 0,-0.006 8e-6,-0.0121 0,-0.0181 -5e-6,-0.006 3.2e-5,-0.0105 0,-0.0165 -4e-5,-0.006 1.85e-4,-0.0131 -5.29e-4,-0.0191 -2.01e-4,-0.007 -5.29e-4,-0.013 -0.0016,-0.0201 -7.93e-4,-0.007 -0.0021,-0.0129 -0.0031,-0.0202 -7.94e-4,-0.004 -0.0031,-0.008 -0.0031,-0.0134 v -0.0103 -0.009 -0.009 -0.009 c 0,-0.003 -3e-6,-0.005 0,-0.008 3e-6,-0.003 -1.3e-5,-0.005 0,-0.008 1.6e-5,-0.003 -7.1e-5,-0.006 0,-0.009 8.2e-5,-0.003 7.94e-4,-0.006 0.0011,-0.009 2.07e-4,-0.003 5.3e-4,-0.006 5.3e-4,-0.009 -2.31e-4,-0.008 0.0051,-0.0124 0.0093,-0.0124 7.94e-4,0 0.0013,2.4e-4 0.0021,5.2e-4 5.29e-4,-0.006 0.0011,-0.0121 0.0021,-0.0181 0.0021,-0.0134 0.0036,-0.0268 0.0052,-0.0403 0.0019,-0.0136 0.0027,-0.0271 0.0031,-0.0408 7.94e-4,-0.0143 0.0016,-0.0287 0.0026,-0.0429 5.29e-4,-0.0125 -1.16e-4,-0.0247 0,-0.0372 l 5.29e-4,-5.3e-4 c 2.65e-4,-0.0316 0.01611,-0.047 0.03204,-0.047 0.0027,0 0.0052,7.9e-4 0.0078,0.002 0.0051,-0.004 0.006,-0.0181 0.01188,-0.0181 2.64e-4,0 7.93e-4,-3e-5 0.0011,0 7.94e-4,-0.017 0.0011,-0.0341 0.0026,-0.0512 0.0024,-0.0253 0.01421,-0.0395 0.02687,-0.0434 0.02029,-0.0745 0.06054,-0.12351 0.109553,-0.12351 0.0038,0 0.0076,0 0.01138,5.2e-4 0.02379,-0.0548 0.05821,-0.0925 0.100251,-0.0925 0.007,0 0.01378,-0.001 0.02066,0.003 0.0013,-0.0103 0.0016,-0.0207 0.0031,-0.031 0.01289,-0.0959 0.02768,-0.19221 0.04806,-0.28681 0.0186,-0.0856 0.03785,-0.17103 0.05581,-0.25683 0.0227,-0.10843 0.08321,-0.15951 0.140041,-0.16226 0.0061,-2.6e-4 0.0096,0.008 0.0155,0.009 -0.0046,-0.10664 -0.0093,-0.21309 -0.01138,-0.31989 v -5.2e-4 c -0.0024,-0.12659 0.06013,-0.18965 0.124023,-0.18965 0.06389,0 0.129122,0.0631 0.131776,0.18965 0.0019,0.0851 0.0061,0.1702 0.0098,0.25529 0.01773,-0.0176 0.03933,-0.0274 0.06201,-0.0284 -0.0079,-0.0433 -0.01543,-0.0866 -0.02429,-0.1297 -0.02085,-0.0972 -0.03953,-0.19444 -0.06356,-0.29094 -0.01579,-0.0736 -0.03028,-0.14748 -0.04547,-0.22118 -0.02715,-0.13175 0.03037,-0.20252 0.0987,-0.20257 0.06029,-3e-5 0.128916,0.0547 0.15503,0.17053 0.0149,0.0661 0.02763,0.13316 0.04186,0.19947 0.02403,0.0965 0.04268,0.19374 0.06356,0.29094 0.01921,0.0926 0.03447,0.18613 0.05219,0.27905 0.02604,-0.0467 0.05154,-0.0937 0.07441,-0.14211 0.03787,-0.0787 0.07459,-0.15808 0.111622,-0.23719 0.02201,-0.047 0.04887,-0.0791 0.077,-0.0992 -0.0343,-0.18987 -0.06692,-0.38009 -0.109038,-0.56844 -0.08727,-0.49111 -0.190698,-0.98202 -0.213939,-1.48156 -0.03328,-0.71546 0.29904,-1.07272 0.654224,-1.07229 0.145841,1.8e-4 0.295286,0.0618 0.425297,0.18242 -0.0019,-0.37555 -0.0026,-0.75102 -0.01241,-1.12655 -0.01334,-0.45514 -0.03283,-0.91062 -0.07234,-1.36426 -0.03853,-0.41302 -0.08803,-0.82481 -0.166915,-1.23248 h -5.29e-4 c -0.144553,-0.74714 0.191158,-1.14764 0.579294,-1.14825 0.342466,-5.3e-4 0.725961,0.31075 0.856795,0.96893 0.08382,0.42191 0.131752,0.849 0.172083,1.27693 0.04261,0.48449 0.06367,0.97033 0.07803,1.45624 0.01257,0.4769 0.01402,0.95387 0.01603,1.43092 5.29e-4,0.17407 -2.64e-4,0.34829 5.29e-4,0.52245 0.161722,-0.0941 0.329512,-0.17814 0.501777,-0.25425 0.661049,-0.23217 1.346005,-0.38493 2.025201,-0.55294 0.745421,-0.17247 1.493324,-0.33553 2.241724,-0.49454 0.209659,-0.0425 0.418608,-0.0877 0.628386,-0.12919 0.166534,-0.0866 0.381193,-0.14425 0.644921,-0.154 0.03704,-0.001 0.07407,-0.002 0.111104,-0.002 0.167085,-0.0352 0.335317,-0.0648 0.501777,-0.10336 0.390835,-0.0955 0.78703,-0.16889 1.188559,-0.19637 0.402751,-0.009 0.786328,0.11246 1.158068,0.25374 0.321879,0.1226 0.606653,0.31827 0.890902,0.50901 0.240885,0.15578 0.473263,0.3245 0.706935,0.49092 0.245309,0.17272 0.470363,0.37097 0.691947,0.57258 0.198426,0.18451 0.391331,0.37456 0.595312,0.55294 0.162057,0.1354 0.350017,0.23342 0.535884,0.33124 0.107636,0.0626 0.219044,0.11818 0.331764,0.17053 v -0.85731 -1.65778 -1.59783 c 0,-0.7162 0.361715,-1.07436 0.723469,-1.07436 0.361757,0 0.723471,0.35816 0.723471,1.07436 v 1.59783 1.65778 0.24237 c 0.08781,0.0255 0.176721,0.10954 0.231511,0.26561 0.08237,0.23466 0.138573,0.47679 0.194302,0.71882 0.01283,0.0556 0.02268,0.11184 0.03566,0.16743 0.09455,0.0233 0.189489,0.11539 0.236677,0.29042 0.05153,0.19115 0.08785,0.3864 0.118341,0.58188 0.02328,0.15897 0.03772,0.31889 0.04857,0.47904 0.0021,0.006 0.0071,0.004 0.0088,0.01 0.01757,0.0635 0.03086,0.12784 0.04496,0.19224 0.01617,0.075 0.02058,0.15187 0.02635,0.22841 0.01064,-0.0678 0.01892,-0.13588 0.0217,-0.20464 1.43e-4,-0.004 7.94e-4,-0.007 0.0011,-0.0103 -0.01098,-0.0825 -0.02175,-0.16519 -0.04961,-0.24391 -0.01842,-0.0521 0.0038,-0.0846 0.03256,-0.0863 0.02236,-0.001 0.04849,0.0155 0.06201,0.0563 0.02093,0.0631 0.03409,0.12832 0.04548,0.19378 0.0273,0.0137 0.04956,0.0503 0.04754,0.10749 -5.29e-4,0.0187 -0.0021,0.0372 -0.0036,0.0558 0.02117,0.005 0.04483,0.0163 0.05116,0.0568 0.01114,0.071 0.01545,0.14272 0.01963,0.21445 0.0033,-0.042 0.02304,-0.0677 0.04599,-0.0677 0.02479,0 0.04961,0.0248 0.04961,0.0739 v 0.13075 c 0.007,-0.0103 0.01648,-0.0155 0.02532,-0.0155 0.01527,-2e-5 0.02891,0.0154 0.02635,0.046 -0.0013,0.0161 -0.0032,0.0322 -0.0057,0.0481 0.0073,0.002 0.01498,0.007 0.01498,0.0238 v 0.0398 c 0.0019,0.003 0.0038,0.006 0.0052,0.0113 7.94e-4,0.002 0.0024,0.005 0.0031,0.008 -2.62e-4,-0.009 2.64e-4,-0.0187 -0.0011,-0.0279 v -5.3e-4 c -5.29e-4,-0.007 0.0051,-0.005 0.0057,-0.0103 -2.65e-4,-0.002 -7.94e-4,-0.004 -0.0011,-0.007 -0.0024,-0.0162 -0.0041,-0.0325 -0.0072,-0.0486 -0.003,-0.0153 0.0032,-0.0243 0.01085,-0.0258 0.0076,-0.001 0.01664,0.005 0.01963,0.0202 0.0011,0.006 0.0024,0.0122 0.0031,0.0181 0.01712,-0.001 0.03558,0.0153 0.03876,0.0491 0.0024,0.0246 0.0028,0.0483 0.0026,0.0729 0.0019,0.006 0.0037,0.0123 0.0052,0.0186 0.0021,0.008 0.0039,0.0173 0.0057,0.0253 0.0021,0.009 0.0034,0.0173 0.0047,0.0264 7.94e-4,0.008 0.0013,0.0152 0.0016,0.0233 1.77e-4,0.007 5.29e-4,0.0137 5.29e-4,0.0207 3.4e-5,0.006 -3e-6,0.0116 0,0.0176 5e-6,0.006 0,0.0131 0,0.0191 v 0.0176 c -1.96e-4,0.005 0.0011,0.0115 0.0016,0.0165 5.29e-4,0.007 2.51e-4,0.0147 5.29e-4,0.0217 1.48e-4,0.007 5.29e-4,0.0146 5.29e-4,0.0227 2.4e-5,0.007 -5e-6,0.0137 0,0.0207 3e-6,0.009 -3e-6,0.0184 0,0.0274 v 0.0274 0.0238 0.0227 0.0274 0.0238 0.0243 0.0212 0.0212 c -2.4e-5,0.007 2.65e-4,0.013 0,0.0202 -8.5e-5,0.001 -5.29e-4,0.002 -5.29e-4,0.004 v 0.004 0.0129 0.0171 0.0145 0.0134 0.0134 0.0119 h 0.3483 V 75.000072 h -0.351401 c 1.56e-4,0.0117 0.0011,0.02334 0.0011,0.03514 9e-5,0.01384 0,0.02803 0,0.04186 1.9e-5,0.01408 0,0.02777 0,0.04186 8e-6,0.01437 0,0.02905 0,0.04341 2.65e-4,0.01564 -0.0011,0.03088 -0.0016,0.04651 -2.65e-4,0.01143 -5.29e-4,0.02307 -5.29e-4,0.03462 0.0013,0.0083 0.0026,0.01654 0.0041,0.02482 0.0021,0.01106 0.0038,0.02188 0.0052,0.03307 0.0013,0.0098 0.0019,0.01966 0.0021,0.02946 1.98e-4,0.0086 2.65e-4,0.01775 0,0.02635 -2.65e-4,0.0071 -7.94e-4,0.01408 -0.0011,0.02119 -2.57e-4,0.0055 -5.29e-4,0.01053 -5.29e-4,0.01603 -5.9e-5,0.0061 1.5e-5,0.01251 0,0.0186 -6e-6,0.0063 2e-6,0.0123 0,0.0186 0,0.0068 2e-6,0.01389 0,0.02066 8.4e-5,0.0061 2.64e-4,0.01191 -5.3e-4,0.0181 -5.29e-4,0.0066 -0.0019,0.01312 -0.0031,0.01963 -0.0011,0.0058 -0.0024,0.01188 -0.0036,0.01757 -0.0011,0.0042 -0.0016,0.0086 -0.0021,0.01291 -2.03e-4,0.0052 -0.0019,0.0099 -0.0026,0.01498 -7.93e-4,0.0046 -0.0021,0.0094 -0.0031,0.01394 -0.0044,0.01929 -0.01884,0.02313 -0.02687,0.01601 v 0.01138 0.0031 c 8e-6,0.0051 -0.0048,-0.0034 -0.0062,0 5.29e-4,0.01484 0.0016,0.02964 0,0.04444 -1.78e-4,0.0011 -0.0029,0.0021 -0.0031,0.0031 8e-6,2.62e-4 0,7.94e-4 0,0.0011 1.72e-4,0.01794 -2.9e-5,0.03579 0,0.05375 5.29e-4,0.02233 5.29e-4,0.0446 -0.0031,0.06666 -0.0033,0.01405 -0.0026,0.0076 -0.0057,0.01963 -0.01328,0.05175 -0.04278,0.07604 -0.07028,0.07752 -9e-5,0.04863 -0.0021,0.09715 -0.0062,0.145727 -0.0059,0.05049 -0.01355,0.100653 -0.02635,0.149863 -0.0089,0.03524 -0.02379,0.06897 -0.03669,0.102835 -0.0117,0.03225 -0.02003,0.0655 -0.02842,0.0987 -0.01196,0.0555 -0.02477,0.110477 -0.03721,0.165881 -0.0074,0.03249 -0.0141,0.065 -0.02066,0.09767 -0.03557,0.17549 -0.212892,0.140076 -0.17725,-0.03566 0.0069,-0.03386 0.01402,-0.0676 0.0217,-0.101285 0.01249,-0.05572 0.02551,-0.111641 0.03772,-0.167431 -0.01812,-0.0223 -0.03042,-0.05678 -0.03049,-0.103354 -3.7e-5,-0.02633 -0.0026,-0.05271 -0.0031,-0.07906 -0.0086,0.05819 -0.0136,0.116808 -0.02429,0.174665 -0.02138,0.112244 -0.04396,0.224231 -0.06563,0.336415 -0.0254,0.129296 -0.06212,0.256217 -0.09973,0.382405 -0.04281,0.13009 -0.08339,0.26072 -0.128157,0.390157 -0.04072,0.120073 -0.08792,0.237596 -0.13436,0.355534 -0.02289,0.05809 -0.05942,0.05696 -0.09302,0.06408 -0.0072,0.05993 -0.01889,0.11901 -0.03927,0.176215 -0.01773,0.04977 -0.04496,0.09572 -0.06718,0.143661 -0.08034,0.123415 -0.187171,0.21831 -0.304374,0.300757 -0.101835,0.184465 -0.24952,0.262361 -0.380854,0.254249 -0.0024,0.05662 -0.0053,0.113276 -0.01188,0.170013 -0.0087,0.0403 -0.01728,0.08062 -0.02585,0.120923 -0.12641,0.589936 -0.671454,0.561647 -0.729673,0.124542 -0.06238,0.03206 -0.124608,0.06444 -0.187584,0.09508 -0.0071,0.0034 -0.01159,4.5e-5 -0.0186,0.0031 -0.06454,0.507934 -0.641107,0.508622 -0.71882,-0.123505 -0.01008,-0.08212 -0.01312,-0.100066 -0.01654,-0.124024 0.0013,0.120746 0.0051,0.241464 0.0062,0.362249 0.0013,0.141851 0.0024,0.283983 0.0031,0.425816 0.0037,0.716248 -0.719773,0.720772 -0.723471,0.0036 -2.6e-4,-0.05514 -0.0029,-0.110252 -0.0031,-0.165364 -0.0149,-0.0013 -0.02859,-0.01148 -0.04341,-0.01394 2.62e-4,0.138314 0.0029,0.276609 0.0031,0.414962 2.51e-4,0.220078 -1.85e-4,0.113154 0,0.321942 0.0013,1.432473 -1.445628,1.429997 -1.44694,0.0011 -1.75e-4,-0.208362 -0.0029,-0.101296 -0.0031,-0.320911 -2.1e-5,-0.01947 3.7e-5,-0.03893 0,-0.05839 -0.09881,0.03172 -0.193103,0.07976 -0.297656,0.08682 -0.196728,0.01349 -0.392906,0.02024 -0.590145,0.01601 h -0.699183 c -0.418256,-2e-6 -0.836956,1.3e-5 -1.25522,0 -0.382656,-1.3e-5 -0.765048,1.27e-4 -1.147734,0 -0.203364,-1.11e-4 -0.406947,-5.29e-4 -0.610298,-0.0011 -0.210481,-5.29e-4 -0.421008,-0.0019 -0.631486,-0.0041 -0.09165,0 -0.183298,-2e-6 -0.274918,0 h -0.469744 c -0.250063,0.0079 -0.498396,-0.01744 -0.746207,-0.04754 -0.24742,-0.02896 -0.493202,-0.07094 -0.735357,-0.12919 -0.203036,-0.04933 -0.390728,-0.13571 -0.562239,-0.253731 -0.09728,-0.07632 -0.178996,-0.168621 -0.261483,-0.259934 -0.0011,-0.0011 -0.0019,-0.0016 -0.0031,-0.0026 -0.01603,-0.0055 -0.03214,-0.009 -0.04806,-0.01497 -0.06649,-0.02363 -0.132361,-0.04882 -0.197922,-0.07493 -0.02774,-0.0041 -0.05562,-0.0078 -0.0832,-0.01188 -0.141555,-0.02122 -0.235522,-0.07747 -0.288354,-0.144693 -0.0525,-0.024 -0.104796,-0.04847 -0.157615,-0.07183 -0.07537,-0.03215 -0.149394,-0.06692 -0.223242,-0.10232 -0.09146,-0.03922 -0.181512,-0.08266 -0.26975,-0.128672 -0.09933,-0.0526 -0.195879,-0.109511 -0.292489,-0.166915 -0.07417,-0.04559 -0.149156,-0.08934 -0.224274,-0.133326 -0.05137,-0.03089 -0.102944,-0.06126 -0.15503,-0.09095 -0.0596,-0.02944 -0.11924,-0.05906 -0.176734,-0.0925 -0.07162,-0.04146 -0.143182,-0.08276 -0.21549,-0.122989 -0.03835,-0.02347 -0.07625,-0.04769 -0.114205,-0.07183 -0.102158,0.280778 -0.493133,0.300812 -0.708485,-0.158129 -0.0013,-0.0028 -0.0019,-0.0055 -0.0031,-0.0083 -0.0353,-0.01024 -0.07209,-0.01466 -0.106968,-0.02635 -0.202843,-0.07287 -0.405839,-0.152067 -0.588079,-0.268719 -0.140893,-0.09082 -0.276664,-0.190505 -0.395324,-0.309541 -0.101505,-0.111223 -0.201047,-0.226404 -0.282155,-0.353468 -0.06745,-0.113675 -0.124767,-0.231833 -0.164846,-0.358116 -0.03722,-0.116586 -0.07487,-0.233402 -0.08113,-0.356568 -0.04895,-0.0057 -0.102819,-0.0313 -0.141078,-0.113171 -0.01347,-0.02882 -0.02678,-0.05777 -0.03979,-0.08682 -0.0059,-0.01042 -0.01244,-0.02069 -0.01757,-0.03152 -0.01252,-0.02614 -0.0245,-0.05219 -0.0341,-0.07958 -0.0011,-0.0032 -0.0019,-0.0061 -0.0031,-0.0093 -0.0036,-0.0079 -0.0072,-0.01601 -0.01085,-0.02429 -0.0016,-0.0031 -0.0045,-0.0062 -0.0062,-0.0093 0.0055,0.02708 0.01156,0.05428 0.02016,0.08062 0.0027,0.0095 0.0071,0.01871 0.01085,0.02791 0.03316,0.08317 -0.05113,0.116779 -0.08424,0.03359 -0.0044,-0.01103 -0.008,-0.0222 -0.01138,-0.03359 -0.01029,-0.03204 -0.01794,-0.06465 -0.02429,-0.09767 -0.0011,-0.0063 -0.0019,-0.01323 -0.0031,-0.01963 -0.01199,-0.0033 -0.0204,-0.0217 -0.02894,-0.03824 -0.02207,0.007 -0.05134,-0.0084 -0.06304,-0.05271 -7.93e-4,-0.0028 -0.0019,-0.0065 -0.0026,-0.0093 -0.0045,-0.01945 -0.0073,-0.03939 -0.0062,-0.05943 4.5e-5,-0.01405 0.0016,-0.0279 0.0031,-0.04186 -0.0046,6.6e-5 -0.01212,0.0079 -0.01085,-0.0031 0.0019,-0.01609 0.0054,-0.03231 0.0093,-0.04806 -5.29e-4,-0.0043 -0.0026,-0.0081 -0.0031,-0.01241 -1.56e-4,-2.22e-4 1.51e-4,-0.0029 0,-0.0031 -0.0016,-0.0029 -0.0058,-0.0045 -0.0062,-0.0093 0,0.02798 -0.02842,0.02798 -0.02842,0 v -0.0062 -0.0031 c -0.0077,0.0019 -0.0168,-0.0043 -0.01757,-0.01963 -2.62e-4,-0.0069 -0.0026,-0.004 -0.0031,-0.01085 -5.29e-4,-0.0067 -0.0024,-0.01352 -0.0031,-0.02016 -0.0016,-0.0033 -0.0043,-0.006 -0.0057,-0.0093 -0.004,-0.01103 -0.0086,-0.02178 -0.0093,-0.03359 -6.1e-5,-7.94e-4 6.6e-5,-0.0024 0,-0.0031 -0.0069,0.0068 -0.01344,0.02098 -0.01757,0.0031 -5.3e-4,-0.0019 -0.0026,-0.0044 -0.0031,-0.0062 -0.0031,-0.01246 -0.0039,-0.02535 -0.0031,-0.03824 v -0.01654 c -0.0084,0.0057 -0.0186,0.01831 -0.0186,0 v -0.09354 -0.09353 -0.0677 c 5.29e-4,-0.01117 0.0013,-0.02209 0.0031,-0.03307 -0.0016,-0.0074 -0.0035,-0.01458 -0.0031,-0.02222 v -0.03514 -0.03772 c -0.0019,-0.0091 -0.0052,-0.01871 -0.0062,-0.02791 -0.0011,-0.0118 -0.0031,-0.02331 -0.0031,-0.03514 6e-6,-0.0071 0,-0.01545 0,-0.02326 z m 5.931937,0.419613 c -0.07825,0.05502 -0.178541,0.09818 -0.327628,0.09973 -0.09305,0.0011 -0.08141,-2.64e-4 -0.142627,5.3e-4 -0.167886,0.07047 -0.303281,0.05524 -0.38654,0.0021 -0.09399,5.29e-4 -0.179898,0.0031 -0.56379,0.0031 h -2.349212 c -0.07544,0.03953 -0.175109,0.06408 -0.299207,0.06408 h -0.316775 c -0.0978,0 -0.167102,-0.02416 -0.230994,-0.05116 -0.0075,0.125814 -0.01273,0.251769 -0.01603,0.377756 0.0043,0.09224 -0.0097,0.186909 -0.0016,0.279053 0.0066,0.0057 0.01299,0.0077 0.01963,0.01447 0.04275,0.04345 0.08737,0.08491 0.131776,0.126608 -0.04025,-0.249975 0.09097,-0.41049 0.265617,-0.421679 0.153382,-0.0098 0.339522,0.09533 0.470771,0.355018 0.130961,0.259109 0.260133,0.519205 0.386024,0.78083 0.04344,0.09243 0.08709,0.184708 0.130741,0.276984 0.0042,7.94e-4 0.0082,0.0024 0.01241,0.0031 0.124693,0.01672 0.248444,0.03784 0.371039,0.06615 0.157004,0.03076 0.297534,0.104574 0.437697,0.178284 0.178009,0.09928 0.361345,0.187396 0.551389,0.260966 0.29867,0.107823 0.604782,0.194676 0.909506,0.283703 0.273066,0.07232 0.539152,0.166446 0.805635,0.259416 0.140644,0.05015 0.279479,0.105711 0.401008,0.194304 0.07199,0.05248 0.11793,0.1011 0.180869,0.161745 0.105434,0.101367 0.205353,0.20832 0.302823,0.317294 0.05309,0.0728 0.125111,0.109786 0.205672,0.144179 0.103841,0.03095 0.211753,0.04508 0.31936,0.05478 0.17468,0.0075 0.348615,0.02477 0.522967,0.03721 0.205714,0.01389 0.411948,0.0181 0.618048,0.02119 0.233894,0.003 0.46786,0.0038 0.701768,0.0047 0.202718,5.29e-4 0.405508,7.93e-4 0.608232,0.0011 0.382564,1.27e-4 0.765143,-2.1e-5 1.147733,0 0.317998,3e-6 0.63594,0 0.953948,0 0.02787,-0.006 0.05585,-0.01159 0.08371,-0.01757 0.121817,-0.02421 0.243403,-0.04904 0.363802,-0.07958 0.120314,-0.0265 0.241199,-0.05101 0.362251,-0.0739 0.120555,-0.02508 0.240568,-0.05082 0.360186,-0.0801 0.09818,-0.02053 0.194897,-0.04941 0.287837,-0.08733 0.111601,-0.04407 0.225163,-0.08363 0.33383,-0.134877 0.03046,-0.01397 0.06012,-0.02952 0.09095,-0.04289 -2.65e-4,-0.09767 2.64e-4,-0.195334 -5.29e-4,-0.293005 -0.0038,-0.733965 -0.0087,-1.468072 -0.02223,-2.201934 -0.0061,-0.288896 -0.01344,-0.577763 -0.02223,-0.866614 -0.137367,0.01336 -0.274794,0.02641 -0.410829,0.05064 -0.177671,0.02881 -0.355582,0.05702 -0.53485,0.0739 -0.171715,0.02064 -0.343321,0.04379 -0.516247,0.05219 -0.251886,0.0094 -0.503995,0.0075 -0.756029,0.0072 -0.384212,-2.1e-5 -0.768517,-5.29e-4 -1.152901,-5.29e-4 -0.291192,-9.5e-5 -0.582996,2.65e-4 -0.874363,-5.29e-4 -0.301879,-5.29e-4 -0.603509,-0.0011 -0.905372,-0.0041 -0.2985,-0.0031 -0.597461,-0.0058 -0.895554,-0.02326 -0.301138,-0.01823 -0.602324,-0.04201 -0.901237,-0.08527 -0.23015,-0.03163 -0.460407,-0.06608 -0.691946,-0.08733 -0.0062,-5.29e-4 -0.01238,2.65e-4 -0.0186,-5.29e-4 z m 9.943579,0.05994 c 0.0054,0.195151 0.01003,0.390303 0.01291,0.585494 0.05383,-0.06581 0.121833,-0.115263 0.203605,-0.117306 0.0036,-9e-5 0.0072,-4.5e-5 0.01085,0 -0.02503,-0.183835 0.0036,-0.339672 0.104386,-0.408244 -0.007,-0.0016 -0.01418,-0.0021 -0.02119,-0.0036 -0.09759,-0.02323 -0.194694,-0.04524 -0.295074,-0.05374 -0.0052,-7.94e-4 -0.01035,-0.0016 -0.01551,-0.0026 z m 0.731739,0.118856 c 0.03964,0.03489 0.07512,0.09395 0.11162,0.147794 0.0079,-5.3e-4 0.01603,-0.0011 0.02429,-0.0011 0.107831,-2.64e-4 0.24557,0.05477 0.399973,0.183968 0.104825,0.08762 0.186304,0.193259 0.254767,0.307991 -0.04542,-0.165564 -0.08617,-0.332505 -0.143145,-0.494544 -0.01495,-0.04254 -0.0255,-0.08286 -0.03359,-0.121954 -0.01,-1.48e-4 -0.02006,2.64e-4 -0.02997,-5.29e-4 -0.08625,-5.3e-4 -0.172681,-0.0016 -0.258901,-0.0041 -0.108489,-0.0033 -0.216847,-0.0091 -0.325043,-0.01757 z m 1.879986,1.297077 c -0.01275,0.0427 -0.02696,0.08523 -0.04186,0.127125 -0.02537,0.07241 -0.07169,0.133186 -0.113688,0.196371 0.0045,0.04361 0.0094,0.08707 0.01344,0.130741 7.94e-4,0.04322 0.0032,0.08754 0.0052,0.131776 0.0172,-0.04567 0.03599,-0.09075 0.05168,-0.136943 0.03745,-0.108069 0.07204,-0.21689 0.107487,-0.325562 -0.02847,-0.01773 -0.03104,-0.06836 -0.02223,-0.123508 z m -13.733528,1.91048 c -0.0013,0.0013 -5.29e-4,0.0038 -0.0021,0.0052 0.0016,-0.0016 0.004,-0.0026 0.0057,-0.0041 -0.0013,-2.65e-4 -0.0024,-7.94e-4 -0.0036,-0.0011 z m 5.233789,141.681797 c -0.409861,0.0846 -0.819529,0.17058 -1.229897,0.25321 -0.732769,0.15561 -1.464884,0.31535 -2.194698,0.48369 -0.601207,0.14869 -1.205698,0.28742 -1.796275,0.47543 -0.230396,0.0975 -0.447325,0.21626 -0.640786,0.37672 -0.149971,0.12438 -0.296603,0.21042 -0.435634,0.26613 1.93e-4,0.58049 5.29e-4,1.16105 5.29e-4,1.7415 0.07276,0.0102 0.14596,0.0184 0.218073,0.0331 0.260008,0.0553 0.513746,0.13059 0.767394,0.20929 0.196461,0.0561 0.393973,0.10939 0.595831,0.14159 0.299829,-1e-5 0.599856,2e-5 0.899687,0 0.470749,-3e-5 0.941567,1.5e-4 1.412317,0 0.507672,0 1.015232,-2.6e-4 1.522904,-0.001 0.570487,-0.001 1.141064,-0.003 1.711524,-0.009 0.418219,-0.006 0.836361,-0.014 1.25367,-0.0444 0.383847,-0.0294 0.768493,-0.0637 1.145151,-0.14676 0.339717,-0.0619 0.683691,-0.0978 1.024742,-0.15244 0.37075,-0.0427 0.741156,-0.10676 1.115695,-0.0977 h 0.818038 0.32711 c -0.02281,-0.4019 -0.06122,-0.80309 -0.05788,-1.20561 -0.337992,0.0173 -0.530383,0.0672 -0.169497,0.30902 -0.03835,-0.0211 -0.07552,-0.0384 -0.08423,-0.0269 -0.255889,-0.11165 -0.512424,-0.22303 -0.754994,-0.36225 -0.285824,-0.15056 -0.568838,-0.31011 -0.814419,-0.52245 -0.211074,-0.1848 -0.412046,-0.38002 -0.6165,-0.57206 -0.178721,-0.16291 -0.359529,-0.32407 -0.557588,-0.46354 -0.0079,-0.006 -0.0159,-0.0109 -0.02376,-0.0165 -0.105513,0.44989 -0.703897,0.66866 -1.394232,0.13384 -0.05644,-0.0438 -0.112544,-0.0875 -0.168982,-0.13126 -0.327009,-0.23859 -0.666946,-0.4799 -1.064535,-0.58188 -0.267764,-0.0489 -0.537345,-0.0825 -0.808736,-0.0894 z m -8.386051,2.92127 c -0.0046,0.009 -0.0091,0.0183 -0.01394,0.0274 -0.03006,0.0554 -0.06081,0.11044 -0.09354,0.16434 -0.03115,0.0532 -0.06662,0.10373 -0.100769,0.15503 -0.02479,0.0385 -0.04634,0.0787 -0.06718,0.11937 0.0041,0.0306 0.0098,0.0609 0.01394,0.0915 0.0046,0.035 0.0096,0.0699 0.01447,0.10491 0.105598,-0.0212 0.197313,-0.0543 0.326078,-0.0543 0.01273,1e-5 0.02551,-1e-5 0.03824,0 -0.0013,-0.006 -0.0028,-0.0124 -0.0041,-0.0186 -0.04082,-0.19592 -0.07738,-0.39271 -0.113173,-0.58962 z" />
    </clipPath>
    <clipPath
       clipPathUnits="userSpaceOnUse"
       id="clipPath1207">
      <path
         id="path1208"
         style="fill:#ff0000;fill-opacity:1;fill-rule:nonzero;stroke:none;stroke-width:0.264583"
         d="m 54.12848,219.99794 c -1.46e-4,5.3e-4 -1.06e-4,0.001 -5.3e-4,0.002 h 5.3e-4 z m -5.3e-4,0.002 -4.127912,5.2e-4 v 25.00003 h 25.000024 v -25.00003 h -4.277257 v 0.76377 0.24083 c 0.08781,0.0255 0.176721,0.10954 0.23151,0.26561 0.08238,0.23465 0.138573,0.47679 0.194303,0.71882 0.01294,0.0561 0.02566,0.11237 0.03876,0.16847 0.09349,0.0246 0.186923,0.11633 0.233577,0.28938 0.05153,0.19114 0.08785,0.3864 0.11834,0.58188 0.02289,0.1564 0.03725,0.31373 0.04806,0.47129 0.0028,0.007 0.0071,0.01 0.0093,0.0176 0.01757,0.0635 0.03086,0.12784 0.04496,0.19224 0.0163,0.0755 0.02058,0.1529 0.02635,0.22996 0.01077,-0.0683 0.01894,-0.13691 0.02169,-0.20619 2.65e-4,-0.008 0.0011,-0.0145 0.0021,-0.0212 v -5.3e-4 c -0.01085,-0.0783 -0.02416,-0.15617 -0.05064,-0.23099 -0.01842,-0.0521 0.0038,-0.0841 0.03256,-0.0858 0.02236,-0.001 0.04849,0.0161 0.06201,0.0568 0.02069,0.0624 0.03359,0.12698 0.04496,0.19172 0.02747,0.0135 0.05009,0.05 0.04806,0.10749 -5.29e-4,0.0166 -0.0019,0.0331 -0.0031,0.0496 0.02178,0.004 0.04412,0.0229 0.05064,0.0646 0.0108,0.0688 0.01556,0.13826 0.01963,0.20774 0.0047,-0.0387 0.02397,-0.0615 0.04599,-0.0615 0.02479,0 0.04961,0.0248 0.04961,0.0739 v 0.1292 c 0.007,-0.0103 0.01648,-0.0155 0.02532,-0.0155 0.01527,-1e-5 0.02888,0.0154 0.02635,0.046 -0.0013,0.0168 -0.0036,0.0335 -0.0062,0.0501 0.0076,0.002 0.0155,0.007 0.0155,0.0222 v 0.0408 c 0.0019,0.003 0.0038,0.006 0.0052,0.0103 7.93e-4,0.002 0.0013,0.005 0.0021,0.008 -2.64e-4,-0.009 2.65e-4,-0.0184 -5.29e-4,-0.0274 v -5.3e-4 c -0.0011,-0.0103 0.0021,-0.0163 0.0041,-0.0238 -0.0019,-0.0142 -0.0035,-0.0284 -0.0062,-0.0424 -0.003,-0.0153 0.0032,-0.0244 0.01085,-0.0258 0.0076,-10e-4 0.01664,0.005 0.01963,0.0202 0.0011,0.006 0.0024,0.0113 0.0031,0.017 0.01701,-8e-4 0.03509,0.015 0.03824,0.0486 0.0021,0.0232 0.0021,0.0464 0.0021,0.0698 0.0024,0.007 0.0044,0.0147 0.0062,0.0222 0.0021,0.008 0.0039,0.0173 0.0057,0.0253 0.0021,0.009 0.0034,0.0174 0.0047,0.0264 7.94e-4,0.008 0.0013,0.0152 0.0016,0.0233 1.77e-4,0.007 5.29e-4,0.0137 5.29e-4,0.0207 3.4e-5,0.006 -3e-6,0.0116 0,0.0176 5e-6,0.006 0,0.0131 0,0.0191 v 0.0176 c -1.96e-4,0.005 5.29e-4,0.0115 0.0011,0.0165 5.3e-4,0.007 2.54e-4,0.0147 5.3e-4,0.0217 1.48e-4,0.007 5.29e-4,0.0146 5.29e-4,0.0228 2.1e-5,0.007 -8e-6,0.0137 0,0.0207 0,0.009 -3e-6,0.0184 0,0.0274 v 0.0274 0.0243 0.0222 0.0274 0.0243 0.0243 0.0212 c 5.3e-5,0.002 -2.9e-5,0.004 0,0.006 v 0.015 c -8e-6,0.002 -8e-6,0.004 0,0.006 5.8e-5,0.005 1.9e-4,0.009 0,0.0145 -8.5e-5,0.001 9.5e-5,0.002 0,0.004 2e-6,0.006 -3e-6,0.0105 0,0.0165 v 0.0171 0.0145 0.0134 0.0134 0.0155 0.0155 0.0145 0.015 0.0176 0.016 0.015 0.0145 0.008 c 0,0.0295 -0.02832,0.0304 -0.03049,0.003 -1.48e-4,0.002 -5.29e-4,0.004 -5.29e-4,0.007 -5.29e-4,0.0277 -0.02596,0.0298 -0.03049,0.007 -0.0037,-0.004 -0.0088,-0.005 -0.0088,-0.0134 v -0.006 c -5.29e-4,0.007 -0.0011,0.0145 -0.0016,0.0217 -0.0016,0.0187 -0.0024,0.0371 -0.0031,0.0558 -5.29e-4,0.0167 -5.29e-4,0.0334 -5.29e-4,0.0501 -5.3e-4,0.0694 -0.07074,0.0689 -0.07028,-5.3e-4 1.11e-4,-0.0173 -2.65e-4,-0.0349 5.29e-4,-0.0522 2.65e-4,-0.0121 0.0013,-0.0241 0.0021,-0.0362 -0.01143,0.005 -0.02434,-0.005 -0.02016,-0.0279 0.0016,-0.008 0.0024,-0.0163 0.0036,-0.0243 0.0016,-0.0109 0.0038,-0.023 0.0052,-0.0341 7.93e-4,-0.006 0.0016,-0.01 0.0021,-0.0155 -1.95e-4,0.003 -0.0026,0.002 -0.0031,0.004 -0.0028,0.0146 -0.0052,0.0289 -0.0083,0.0434 -0.0052,0.0221 -0.0079,0.0454 -0.01241,0.0677 -0.0019,0.009 -0.0029,0.0179 -0.0041,0.0269 -0.01326,0.0974 -0.111786,0.084 -0.09818,-0.0134 0.0011,-0.008 0.0024,-0.0152 0.0036,-0.0233 -0.0054,-0.005 -0.0098,-0.0123 -0.01291,-0.0207 -0.01437,0.002 -0.0277,-0.005 -0.03824,-0.0176 -0.0027,0.0341 -0.01913,0.0495 -0.03721,0.0558 -0.0117,0.0201 -0.03101,0.0264 -0.04857,0.0212 -0.0029,0.0425 -0.02719,0.0614 -0.05116,0.0589 -0.0019,0.004 -0.0034,0.008 -0.0052,0.0124 -0.0019,0.004 -0.0042,0.008 -0.0062,0.0124 0.0051,0.0327 0.0099,0.066 0.01447,0.0987 0.01418,0.1045 0.01834,0.20994 0.0217,0.31522 0.0016,0.061 0.0024,0.12143 0.0031,0.18242 0.0039,0.32874 -0.217045,0.44032 -0.365352,0.33073 -0.0016,0.0149 -0.0021,0.0322 -0.0093,0.0889 -0.03543,0.27667 -0.209622,0.37521 -0.342099,0.31988 0.03482,0.28202 0.07151,0.56377 0.100769,0.84646 0.0398,0.33721 0.03717,0.67756 0.06615,1.01544 0.122555,1.4272 -1.331957,1.54413 -1.442288,0.11628 -0.02529,-0.3275 -0.02874,-0.65596 -0.06305,-0.98289 -0.04222,-0.41015 -0.104527,-0.81819 -0.146244,-1.22835 -0.02849,-0.30653 -0.05351,-0.61341 -0.08165,-0.91984 H 69.010009 68.19197 c -0.318754,-0.007 -0.634135,0.0529 -0.949812,0.0894 -0.304136,0.0571 -0.616106,0.0732 -0.918808,0.13643 -0.429752,0.0934 -0.868132,0.13365 -1.305864,0.16743 -0.447463,0.033 -0.896112,0.0436 -1.34462,0.0496 -0.576075,0.006 -1.15198,0.008 -1.728058,0.009 -0.508627,5.3e-4 -1.017397,1.1e-4 -1.526005,5.3e-4 -0.470911,1.8e-4 -0.941927,0 -1.412835,0 -0.299855,5e-5 -0.599835,0 -0.899687,0 -0.338058,-0.0161 -0.665512,-0.10496 -0.989602,-0.19586 -0.197038,-0.0588 -0.392595,-0.11965 -0.592731,-0.16587 -7.93e-4,0.44709 2.65e-4,0.89401 0.0093,1.34099 0.03389,0.58339 0.06574,1.16758 0.122989,1.74925 0.0136,0.18696 0.04556,0.37136 0.07596,0.55604 0.232664,1.41345 -1.196851,1.64776 -1.427819,0.23409 -0.03528,-0.2162 -0.07127,-0.43173 -0.08837,-0.65008 -0.05956,-0.61918 -0.09662,-1.24074 -0.129706,-1.86191 -0.009,-0.48568 -0.01021,-0.97145 -0.0093,-1.45727 -0.06717,-1.8e-4 -0.134337,-5.2e-4 -0.201536,-5.2e-4 -0.120403,-1.8e-4 -0.240379,-5.3e-4 -0.360703,-5.3e-4 -0.355743,-2.6e-4 -0.620932,-0.0904 -0.799434,-0.22427 -0.0083,0.0355 -0.01871,0.0706 -0.02946,0.10542 -0.05666,0.1836 -0.210013,0.18386 -0.248562,0.0677 -0.0077,7.9e-4 -0.01466,0.001 -0.02222,0 v 0.046 0.18913 0.0558 c 0,0.25323 -0.2558,0.25323 -0.2558,0 v -0.0558 -0.11162 c -0.01558,-0.003 -0.03048,-0.009 -0.04444,-0.0191 -0.07296,0.0275 -0.162655,-0.0323 -0.163298,-0.1819 -9e-5,-0.0192 -0.0011,-0.0392 -0.0016,-0.0584 -5.29e-4,-0.031 -0.0013,-0.0615 -0.0021,-0.0925 -0.01746,0.009 -0.04111,-0.003 -0.04496,-0.0403 -0.0011,-0.0102 -0.0016,-0.0203 -0.0021,-0.0305 -5.29e-4,-0.006 -0.0013,-0.0128 -0.0016,-0.0186 -0.01397,5.3e-4 -0.02611,-0.0132 -0.02997,-0.0367 -0.0035,-2.6e-4 -0.0076,-0.002 -0.0093,-0.0103 -5.29e-4,-0.002 -0.0026,-0.004 -0.0026,-0.006 0,-0.003 -8e-6,-0.005 0,-0.008 2.1e-5,-0.003 -4.5e-5,-0.005 0,-0.008 5.8e-5,-0.003 0.0016,-0.006 0.0021,-0.009 2.41e-4,-0.005 -1.29e-4,-0.009 5.29e-4,-0.0134 v -0.015 -0.0124 -0.0108 -0.0109 -0.006 c -0.0011,-0.001 -0.0021,-0.003 -0.0026,-0.005 -5.3e-4,-0.003 -0.0021,-0.005 -0.0021,-0.007 1.3e-5,-0.003 -5.3e-5,-0.005 0,-0.007 6.9e-5,-0.002 -1.46e-4,-0.005 5.29e-4,-0.007 2.17e-4,-0.003 0.0016,-0.005 0.0016,-0.008 -1.1e-5,-0.004 5e-6,-0.007 0,-0.0104 -1.9e-5,-0.004 5e-5,-0.007 0,-0.0114 -2.7e-5,-0.001 5e-5,-0.002 0,-0.004 -6.9e-5,-5.2e-4 6.6e-5,-5.2e-4 0,-0.002 -5.3e-4,-0.003 -0.0016,-0.007 -0.0026,-0.0103 -0.0011,-0.005 -0.0021,-0.009 -0.0031,-0.0134 -7.94e-4,-0.004 -0.0019,-0.009 -0.0021,-0.0124 -2.61e-4,-0.005 -5.29e-4,-0.009 -5.29e-4,-0.015 v -0.016 -0.016 -0.0129 -0.015 -0.0155 -0.0222 c 0,-0.006 8e-6,-0.0126 0,-0.0186 -5e-6,-0.006 3.2e-5,-0.008 0,-0.015 -3.7e-5,-0.006 -0.0029,-0.0126 -0.0031,-0.0186 -2.01e-4,-0.007 -0.0016,-0.014 -0.0031,-0.0212 -7.94e-4,-0.007 -0.0021,-0.014 -0.0031,-0.0212 -7.93e-4,-0.004 -0.0031,-0.008 -0.0031,-0.0139 v -0.0103 -0.009 -0.009 -0.009 -0.008 c 0,-0.003 -1.1e-5,-0.005 0,-0.008 2.6e-5,-0.003 -5.6e-5,-0.006 0,-0.009 8.2e-5,-0.003 0.0011,-0.006 0.0016,-0.009 2.01e-4,-0.003 0.0016,-0.006 0.0016,-0.009 -2.25e-4,-0.008 0.0039,-0.0124 0.0083,-0.0124 7.94e-4,0 0.0024,5e-5 0.0031,5.3e-4 5.3e-4,-0.006 0.0021,-0.0123 0.0031,-0.0181 0.0021,-0.0134 0.0046,-0.0268 0.0062,-0.0403 0.0019,-0.0136 0.0027,-0.0266 0.0031,-0.0403 7.94e-4,-0.0143 0.0021,-0.0287 0.0031,-0.0429 5.29e-4,-0.0125 -1.17e-4,-0.0247 0,-0.0372 l 0.0021,-5.3e-4 c 2.65e-4,-0.0291 0.01336,-0.0437 0.02791,-0.046 0.0062,-0.01 0.01484,-0.016 0.02376,-0.016 2.57e-4,0 0.0029,-4e-5 0.0031,0 7.94e-4,-0.017 0.0011,-0.0347 0.0026,-0.0517 0.0016,-0.0178 0.008,-0.0301 0.01601,-0.0372 0.01741,-0.0846 0.06815,-0.1297 0.120407,-0.1297 h 0.0021 c 0.02313,-0.0598 0.06562,-0.0925 0.109554,-0.0925 0.007,0 0.01381,-7.9e-4 0.02066,0.003 0.0013,-0.0103 0.0016,-0.0207 0.0031,-0.031 0.01289,-0.0959 0.02768,-0.19218 0.04806,-0.2868 0.0186,-0.0856 0.03785,-0.17107 0.05581,-0.25684 0.0227,-0.10845 0.08322,-0.1595 0.140041,-0.16226 v -5.3e-4 c 0.0054,-2.6e-4 0.01019,0.003 0.0155,0.004 -0.0045,-0.10476 -0.0093,-0.20877 -0.01138,-0.31368 v -5.3e-4 c -0.0024,-0.12661 0.06013,-0.18965 0.124024,-0.18965 0.06389,0 0.129122,0.0631 0.131775,0.18965 0.0019,0.0849 0.0056,0.16987 0.0093,0.25477 0.01773,-0.0176 0.03932,-0.0269 0.06201,-0.0279 -0.0079,-0.0433 -0.01543,-0.0866 -0.02429,-0.1297 -0.02085,-0.0972 -0.03953,-0.19443 -0.06356,-0.29094 -0.0158,-0.0736 -0.02981,-0.1475 -0.04496,-0.22118 -0.02715,-0.13176 0.02985,-0.20257 0.09818,-0.20257 0.06029,-9e-5 0.129432,0.0547 0.155546,0.17053 0.0149,0.0661 0.02763,0.13317 0.04186,0.19947 0.02402,0.0965 0.04268,0.19374 0.06356,0.29094 0.01921,0.0926 0.03398,0.18614 0.05168,0.27906 0.02604,-0.0467 0.05154,-0.0937 0.07441,-0.14212 0.03787,-0.0787 0.07459,-0.15809 0.111623,-0.23719 0.02254,-0.0482 0.05019,-0.0808 0.07906,-0.10077 -0.03505,-0.18941 -0.06907,-0.37884 -0.111104,-0.56689 -0.08727,-0.49108 -0.190699,-0.98199 -0.21394,-1.48156 -0.0145,-0.31151 0.0411,-0.55443 0.136941,-0.73019 z m 2.39262,0.001 c 1.43e-4,0.0348 -2.65e-4,0.0696 5.29e-4,0.1044 5.29e-4,0.17381 -2.65e-4,0.3483 5.29e-4,0.52244 0.161721,-0.0941 0.329488,-0.17813 0.501777,-0.25424 0.424672,-0.14918 0.859507,-0.26388 1.296046,-0.3726 z m 10.608656,0 c 0.242025,0.17132 0.464646,0.36711 0.683678,0.56638 0.198427,0.18454 0.391332,0.37454 0.595313,0.55293 0.162057,0.13539 0.350014,0.23346 0.535884,0.33125 0.107635,0.0626 0.219043,0.11815 0.331764,0.17054 v -0.85732 -0.76378 z m -4.287594,0.48783 c -0.416417,0.0862 -0.833564,0.16875 -1.250569,0.25271 -0.732769,0.15562 -1.464881,0.31536 -2.194697,0.48368 -0.60121,0.14869 -1.205699,0.28742 -1.796275,0.47542 -0.230397,0.0975 -0.447329,0.21625 -0.640787,0.37672 -0.149973,0.12437 -0.296603,0.21043 -0.435633,0.26613 1.93e-4,0.58048 5.29e-4,1.16107 5.29e-4,1.7415 0.07276,0.0102 0.14596,0.0184 0.218072,0.0331 0.260011,0.0553 0.513747,0.13059 0.767395,0.20929 0.196461,0.0561 0.393972,0.1094 0.595831,0.1416 0.299826,-1e-5 0.599855,4e-5 0.899686,0 0.47075,-1e-5 0.941568,1.7e-4 1.412317,0 0.507672,0 1.015233,-2.6e-4 1.522905,-0.001 0.570484,-0.001 1.141063,-0.003 1.711523,-0.009 0.418219,-0.006 0.836361,-0.0136 1.25367,-0.0444 0.383847,-0.0294 0.768493,-0.0637 1.145151,-0.14676 0.339717,-0.0619 0.683691,-0.0978 1.024742,-0.15245 0.37075,-0.0427 0.741156,-0.10682 1.115695,-0.0977 h 0.818039 0.301789 c -0.02334,-0.40143 -0.03796,-0.80356 -0.03462,-1.20561 -0.336624,0.0174 -0.527531,0.0677 -0.167431,0.30903 -0.03835,-0.0211 -0.07552,-0.0389 -0.08423,-0.0274 -0.255889,-0.11167 -0.512424,-0.22306 -0.754994,-0.36226 -0.285824,-0.15038 -0.568838,-0.31012 -0.814419,-0.52244 -0.211074,-0.18482 -0.412047,-0.38002 -0.616501,-0.57206 -0.178718,-0.16297 -0.359529,-0.32407 -0.557588,-0.46354 -0.0079,-0.006 -0.0159,-0.0104 -0.02376,-0.016 -0.105516,0.44989 -0.703898,0.66866 -1.394233,0.13384 -0.05644,-0.0438 -0.112543,-0.0875 -0.168981,-0.13126 -0.32701,-0.23859 -0.666944,-0.47989 -1.064536,-0.58187 -0.260948,-0.0477 -0.523666,-0.0808 -0.788064,-0.0889 z m -8.405172,2.91713 c -0.0052,0.0104 -0.01005,0.0207 -0.0155,0.031 -0.03006,0.0554 -0.06081,0.11045 -0.09354,0.16433 -0.03115,0.0532 -0.06662,0.10373 -0.100769,0.15503 -0.02479,0.0385 -0.04634,0.0787 -0.06718,0.11937 0.0041,0.0306 0.0098,0.0609 0.01394,0.0915 0.0037,0.0277 0.0075,0.0555 0.01138,0.0832 0.100745,-0.0189 0.207906,-0.0325 0.329178,-0.0325 0.01273,0 0.02551,-9e-5 0.03824,0 -0.0013,-0.006 -0.0028,-0.0124 -0.0041,-0.0186 -0.04104,-0.19698 -0.07565,-0.39528 -0.111622,-0.59326 z" />
    </clipPath>
  </defs>
  <g
     inkscape:label="Calque 1"
     inkscape:groupmode="layer"
     id="layer1">
    <circle
       style="fill:#000000;fill-opacity:0;stroke:#000000;stroke-width:0.304864;stroke-opacity:1"
       id="path1"
       cx="62.5"
       cy="67.5"
       r="12.347569"
       clip-path="url(#clipPath798)" />
    <rect
       style="fill:#000000;fill-opacity:0;stroke:#000000;stroke-width:0.348726;stroke-opacity:1"
       id="rect1"
       width="19.651274"
       height="149.65128"
       x="52.674362"
       y="75.174362"
       clip-path="url(#clipPath1204)" />
    <circle
       style="fill:#000000;fill-opacity:0;stroke:#000000;stroke-width:0.304864;stroke-opacity:1"
       id="circle5"
       cx="62.5"
       cy="232.5"
       r="12.347569"
       clip-path="url(#clipPath1207)" />
  </g>
</svg>
