<?xml version="1.0" encoding="UTF-8" standalone="no"?>
<!-- Created with Inkscape (http://www.inkscape.org/) -->

<svg
   width="210mm"
   height="297mm"
   viewBox="0 0 210 297"
   version="1.1"
   id="svg1"
   inkscape:version="1.3.2 (091e20e, 2023-11-25, custom)"
   sodipodi:docname="bone_2.svg"
   xmlns:inkscape="http://www.inkscape.org/namespaces/inkscape"
   xmlns:sodipodi="http://sodipodi.sourceforge.net/DTD/sodipodi-0.dtd"
   xmlns="http://www.w3.org/2000/svg"
   xmlns:svg="http://www.w3.org/2000/svg">
  <sodipodi:namedview
     id="namedview1"
     pagecolor="#ffffff"
     bordercolor="#000000"
     borderopacity="0.25"
     inkscape:showpageshadow="2"
     inkscape:pageopacity="0.0"
     inkscape:pagecheckerboard="0"
     inkscape:deskcolor="#d1d1d1"
     inkscape:document-units="cm"
     inkscape:zoom="0.73139029"
     inkscape:cx="273.45181"
     inkscape:cy="611.84843"
     inkscape:window-width="1920"
     inkscape:window-height="1017"
     inkscape:window-x="-8"
     inkscape:window-y="-8"
     inkscape:window-maximized="1"
     inkscape:current-layer="layer1" />
  <defs
     id="defs1" />
  <g
     inkscape:label="Calque 1"
     inkscape:groupmode="layer"
     id="layer1">
    <path
       id="path3"
       style="fill:#000000;fill-opacity:0;stroke:#000000;stroke-width:0.218626;stroke-opacity:1"
       d="M 72.499968 26.696562 A 12.390688 12.390687 0 0 0 60.109509 39.087537 A 12.390688 12.390687 0 0 0 63.34187 47.407959 L 63.121729 47.407959 L 63.121729 227.00217 A 12.390688 12.390687 0 0 0 60.109509 235.09728 A 12.390688 12.390687 0 0 0 72.499968 247.48825 A 12.390688 12.390687 0 0 0 84.890943 235.09728 A 12.390688 12.390687 0 0 0 81.820329 226.93809 L 81.820329 47.407959 L 81.658065 47.407959 A 12.390688 12.390687 0 0 0 84.890943 39.087537 A 12.390688 12.390687 0 0 0 72.499968 26.696562 z " />
  </g>
</svg>
