<?xml version="1.0" encoding="UTF-8" standalone="no"?>
<!-- Created with Inkscape (http://www.inkscape.org/) -->

<svg
   width="210mm"
   height="297mm"
   viewBox="0 0 210 297"
   version="1.1"
   id="svg1"
   xml:space="preserve"
   inkscape:version="1.3.2 (091e20e, 2023-11-25, custom)"
   sodipodi:docname="cabbage.svg"
   xmlns:inkscape="http://www.inkscape.org/namespaces/inkscape"
   xmlns:sodipodi="http://sodipodi.sourceforge.net/DTD/sodipodi-0.dtd"
   xmlns="http://www.w3.org/2000/svg"
   xmlns:svg="http://www.w3.org/2000/svg"><sodipodi:namedview
     id="namedview1"
     pagecolor="#ffffff"
     bordercolor="#000000"
     borderopacity="0.25"
     inkscape:showpageshadow="2"
     inkscape:pageopacity="0.0"
     inkscape:pagecheckerboard="0"
     inkscape:deskcolor="#d1d1d1"
     inkscape:document-units="mm"
     inkscape:zoom="0.73139029"
     inkscape:cx="390.35246"
     inkscape:cy="505.20222"
     inkscape:window-width="1920"
     inkscape:window-height="1017"
     inkscape:window-x="-8"
     inkscape:window-y="-8"
     inkscape:window-maximized="1"
     inkscape:current-layer="layer1" /><defs
     id="defs1" /><g
     inkscape:label="Calque 1"
     inkscape:groupmode="layer"
     id="layer1"><path
       id="path1"
       style="fill:#000000;fill-opacity:0;stroke:#ff0000;stroke-width:0.2;stroke-dasharray:none;stroke-opacity:1"
       d="m 102.79941,43.568219 c -2.12343,0.16046 -4.12073,1.18253 -5.66016,2.62695 -3.84128,-2.13828 -8.52178,-2.10571 -12.663643,-0.94628 -2.7843,0.35796 -5.45579,-0.81973 -8.21813,-0.94035 -3.85997,-0.40639 -8.0908,0.51504 -10.85544,3.3958 -1.05286,0.93177 -1.66373,2.3221 -2.76517,3.16462 -1.959,0.27807 -3.95175,0.11523 -5.92524,0.19072 -3.05731,0.0217 -6.23897,0.54323 -8.78281,2.35185 -4.43707,2.90428 -7.02655,8.00293 -7.78087,13.15341 -0.29962,1.61989 -0.11171,3.36141 -0.89932,4.8568 -1.55094,2.57573 -3.838411,4.73182 -4.766051,7.658896 -1.213923,3.33557 -0.998839,7.17148 0.62347,10.33328 -2.336983,2.40785 -3.318735,5.8245 -3.548828,9.10547 -0.780075,1.911205 -2.460459,3.419655 -2.714424,5.548045 -0.881931,3.48111 0.102918,7.18172 1.876533,10.21953 -0.992509,3.39289 -1.83096,7.11005 -0.606995,10.56025 0.985984,2.79916 3.400726,4.67158 5.251526,6.86944 0.682518,0.88515 0.475354,2.08647 0.90681,3.08259 1.213419,4.00373 4.474939,7.15588 8.309739,8.69564 3.00726,1.24168 6.29141,1.63649 9.52369,1.63974 2.75654,2.11108 5.67666,4.04748 8.7871,5.66015 7.14751,3.73448 15.07463,5.93558 23.109383,6.5586 2.15131,2.47296 5.47516,3.83734 8.74414,3.58593 7.16792,0.0115 14.29741,-1.5639 20.92959,-4.23882 3.20717,-1.37736 6.49706,-3.37726 7.97944,-6.68686 0.41693,-0.81462 0.58424,-1.77148 0.92124,-2.58122 7.14488,-5.22677 13.5352,-11.89482 17.0584,-20.1181 0.11001,-0.38981 0.23271,-0.84024 0.71874,-0.85006 5.52855,-2.17748 9.9135,-7.46344 10.35976,-13.47844 0.16211,-1.94104 -0.31754,-3.94548 0.62767,-5.71599 1.39053,-2.1937 2.88925,-4.61271 2.62,-7.326595 -0.17631,-2.43338 -1.42569,-4.67982 -3.10156,-6.4082 1.00004,-3.78847 0.24901,-8.2127 -2.58789,-11.04883 -0.50528,-0.48081 -1.21841,-0.91419 -1.12305,-1.72266 -0.0206,-2.87654 -0.46006,-6.060296 -2.60795,-8.175976 -1.45272,-1.51187 -3.46901,-2.23411 -5.19283,-3.31035 -0.4443,-3.21445 -0.48392,-6.58074 -1.94413,-9.55407 -1.21769,-2.69215 -3.52613,-4.91781 -6.39219,-5.75278 -2.46362,-0.81121 -5.09557,-0.66726 -7.6461,-0.68143 -1.01705,-0.37391 -1.48728,-1.47407 -2.34457,-2.08269 -1.91281,-1.85884 -4.47874,-3.20498 -7.20353,-3.08401 -1.60095,-0.0602 -3.1934,0.15389 -4.78784,0.26241 -1.76638,-2.76893 -4.83021,-4.96751 -8.22851,-4.81641 z"
       sodipodi:nodetypes="ccccccccccccccccccccccccccccccccccccccccccc" /><path
       style="fill:#000000"
       d="m 92.284739,154.91353 c -0.76645,-0.22216 -2.34575,-1.69461 -2.922,-2.72431 -0.19113,-0.34154 -0.91734,-0.49765 -3.27457,-0.70394 -5.33421,-0.4668 -9.27622,-1.29448 -13.914611,-2.92157 -4.75257,-1.66715 -10.76507,-4.99111 -14.39919,-7.96049 l -1.47233,-1.20301 -3.42246,-0.14281 c -3.94206,-0.16448 -5.84285,-0.6974 -8.09202,-2.26874 -1.85764,-1.2978 -2.83304,-2.79363 -3.1751,-4.86918 -0.15016,-0.91112 -0.3257,-1.93106 -0.39008,-2.26652 -0.0644,-0.33547 -1.30343,-1.84489 -2.75344,-3.35426 -1.450001,-1.50937 -2.755769,-3.05835 -2.901701,-3.44219 -0.145932,-0.38383 -0.265331,-1.31901 -0.265331,-2.07819 0,-1.32929 0.153451,-2.05547 1.197991,-5.66924 l 0.479827,-1.66005 -1.292003,-2.44099 c -1.1879,-2.24431 -1.292802,-2.59168 -1.301929,-4.31119 -0.0097,-1.82327 0.02466,-1.92142 1.368971,-3.91233 1.383198,-2.04851 1.505215,-2.41043 1.789825,-5.309056 0.3149,-3.20706 2.03942,-5.38637 4.74068,-5.99088 l 1.48093,-0.33142 -1.33458,-1.41111 c -1.82338,-1.92797 -2.9415,-4.36682 -2.9318,-6.39489 0.0103,-2.1482 0.60207,-3.43962 3.04417,-6.64301 2.37577,-3.11637 3.07667,-4.66099 3.07667,-6.78027 0,-3.77732 1.68893,-8.46846 3.78085,-10.50157 0.64133,-0.6233 1.8687,-1.48848 2.72749,-1.92263 1.55991,-0.78858 1.56627,-0.78938 6.45624,-0.80895 6.39869,-0.0256 7.64065,-0.43677 9.34039,-3.09221 1.09546,-1.71139 2.4644,-2.939 3.79993,-3.4076 1.465591,-0.51423 4.879101,-0.39637 7.573571,0.2615 2.82483,0.6897 5.53531,0.73158 7.25655,0.11212 1.93595,-0.69674 5.39582,-0.62488 7.11814,0.14783 1.65613,0.74301 2.8783,1.95996 3.35701,3.34267 l 0.36018,1.04036 1.35306,-2.00515 c 1.724301,-2.55531 3.282191,-3.92217 4.470321,-3.92217 1.23103,0 2.73415,1.42997 3.65127,3.47359 l 0.73049,1.62774 2.4159,-0.17967 c 1.32874,-0.0988 3.37448,-0.24989 4.54608,-0.33572 2.62399,-0.19222 3.06591,0.007 5.41044,2.4428 2.409,2.50245 3.05816,2.74791 7.28612,2.75504 3.04498,0.005 3.58791,0.0756 4.62808,0.60112 2.15952,1.09096 2.98593,3.08112 3.43335,8.26823 0.39722,4.60523 0.74849,5.21304 3.89918,6.74687 1.34513,0.65485 2.77381,1.5207 3.17486,1.92411 0.67811,0.68211 0.7406,0.93276 0.89227,3.57901 0.18732,3.26837 0.68258,4.55229 2.20345,5.71231 1.8929,1.44379 2.40887,3.59071 1.60483,6.67763 -0.53442,2.05177 -0.22393,3.08651 1.45004,4.83243 0.72746,0.75873 1.39741,1.67735 1.48878,2.04138 0.27584,1.099046 -0.0789,2.402766 -1.00509,3.693716 -1.9908,2.77485 -1.92448,2.55138 -2.07553,6.99359 -0.13705,4.03038 -0.15475,4.12947 -1.02722,5.75124 -1.48131,2.7535 -4.05414,4.75628 -7.20833,5.61119 -1.18704,0.32173 -1.2524,0.39211 -1.82031,1.96012 -2.64953,7.31548 -8.64836,14.38441 -17.08279,20.13009 -0.36321,0.24742 -0.6558,0.87915 -0.84612,1.82685 -0.49066,2.44315 -0.92516,3.17405 -2.51373,4.22849 -3.43872,2.28249 -9.19025,4.08859 -16.1933,5.08503 -2.944881,0.41902 -6.705831,0.46537 -7.972371,0.0983 z m 5.85571,-0.51528 c 7.950641,-0.74736 16.950641,-3.62929 19.022191,-6.09118 0.6003,-0.71342 1.4263,-3.30471 1.14354,-3.58747 -0.074,-0.074 -1.18873,0.3937 -2.47721,1.03929 -6.21484,3.11396 -13.75929,5.1393 -21.364971,5.73551 -1.87652,0.1471 -3.63269,0.26745 -3.9026,0.26745 -0.692,0 -0.61548,0.29709 0.36915,1.43312 0.85098,0.98182 1.1403,1.08537 4.0349,1.44407 0.14552,0.018 1.57427,-0.0903 3.175,-0.24079 z m 1.4552,-4.09255 c 1.382451,-0.24875 2.672311,-0.53918 2.866351,-0.64541 0.23762,-0.13008 -0.2375,-0.54237 -1.4552,-1.26274 -7.476531,-4.42298 -15.985001,-7.38744 -26.149691,-9.11089 -2.852601,-0.48367 -4.523241,-0.58648 -9.789581,-0.60244 -5.98332,-0.0181 -7.80521,0.11911 -7.80521,0.58796 0,0.11014 0.80367,0.79826 1.78594,1.52917 6.16581,4.58802 13.46393,7.79331 20.986221,9.217 4.86715,0.92118 4.68338,0.90778 11.2268,0.81878 4.0206,-0.0547 6.5982,-0.21904 8.33437,-0.53143 z m 9.128131,-2.29915 c 10.87115,-3.57135 19.57936,-10.293 24.98476,-19.28511 1.28338,-2.13496 3.11298,-6.23235 2.8848,-6.46052 -0.15878,-0.15879 -8.67073,2.0451 -11.20081,2.90008 -8.65168,2.92363 -14.24714,7.78067 -18.33888,15.91874 -1.05621,2.10069 -2.96008,7.20411 -2.96008,7.93463 0,0.46758 0.41224,0.37785 4.63021,-1.00782 z m -8.16298,-1.40165 c -6.035661,-5.56997 -14.885441,-9.34524 -33.494572,-14.28861 -8.37596,-2.225 -12.27778,-3.48464 -14.96328,-4.83065 -3.01138,-1.50934 -7.71145,-4.98694 -8.34834,-6.17697 -0.58204,-1.08755 0.057,-0.84144 1.54224,0.59393 1.60434,1.55052 2.91483,2.60716 3.23351,2.60716 0.10587,0 -0.20203,-1.0418 -0.68423,-2.31511 -0.4822,-1.27331 -1.13596,-3.28699 -1.45279,-4.47484 -0.5679,-2.12917 -0.58962,-2.16229 -1.53427,-2.33911 -2.64165,-0.4945 -5.27617,-2.5457 -5.83672,-4.54441 -0.78455,-2.7974 -0.54807,-6.63072 0.6211,-10.06824 1.13817,-3.346336 2.35981,-4.601836 4.50935,-4.634326 l 1.14688,-0.0173 0.29278,-1.45786 c 0.50025,-2.49093 0.53859,-2.42873 -1.49316,-2.42212 -3.73629,0.0122 -5.88051,2.08559 -5.8855,5.69121 -0.002,1.82586 -0.65598,3.730426 -1.785538,5.204186 -1.96561,2.56456 -1.983737,4.49485 -0.07487,7.9729 0.585853,1.06745 1.063668,2.28785 1.061808,2.712 -0.002,0.42415 -0.298708,1.69592 -0.659669,2.82615 -0.866778,2.71404 -1.07689,4.61895 -0.651605,5.90757 0.222665,0.67468 1.225524,1.94672 2.950004,3.7418 2.79362,2.908 3.1239,3.45409 3.13296,5.18008 0.0269,5.12006 6.91593,8.25321 15.20773,6.91649 3.81014,-0.61423 10.9485,-0.61828 15.478131,-0.009 9.33895,1.25664 17.93066,3.91065 25.26771,7.80529 1.891771,1.00419 3.558641,1.83091 3.704161,1.83716 0.14552,0.006 -0.43219,-0.63165 -1.28381,-1.41756 z m 2.56301,-0.7782 c 0.1929,-2.282 1.02833,-6.30859 1.80167,-8.68368 1.80489,-5.54321 4.61308,-10.08345 7.90596,-12.78222 1.35889,-1.11373 1.57052,-1.40233 1.43581,-1.95812 -0.27036,-1.11554 -1.76207,-4.00994 -2.69971,-5.23831 -1.01044,-1.32375 -0.97747,-1.8523 0.043,-0.68879 0.7612,0.86792 3.0664,5.22906 3.0664,5.80121 0,0.20949 0.0558,0.38088 0.12411,0.38088 0.0683,0 0.991,-0.5657 2.05052,-1.25711 1.05953,-0.69141 3.13727,-1.97133 4.6172,-2.84427 2.2471,-1.32546 2.778,-1.76649 3.21979,-2.67478 l 0.52902,-1.08761 -0.76545,-2.27788 c -0.86876,-2.58528 -2.34582,-5.64523 -4.27612,-8.85862 -0.7266,-1.20958 -1.25908,-2.26125 -1.18328,-2.33704 0.41505,-0.41505 4.70731,7.55721 5.80859,10.78863 l 0.66447,1.94972 0.42216,-0.9735 c 1.20707,-2.78357 2.98918,-10.66968 3.72619,-16.488996 0.2396,-1.89177 0.53432,-3.91583 0.65494,-4.49792 l 0.21931,-1.05833 0.0307,1.05833 c 0.0895,3.08637 -2.10879,14.824776 -3.62031,19.331626 -0.43611,1.30031 -0.75091,2.40796 -0.69956,2.46144 0.0987,0.1028 6.15028,-4.35994 9.19963,-6.78429 0.99231,-0.78893 1.85427,-1.38434 1.91547,-1.32314 0.1994,0.19941 -1.25305,1.39667 -6.49779,5.35613 -4.4905,3.39005 -6.41853,5.16761 -5.60508,5.16761 0.29736,0 4.43128,-2.59277 6.59015,-4.13331 2.38188,-1.69967 4.74288,-3.94988 6.15315,-5.86439 l 1.22523,-1.66332 -0.20091,-1.90855 c -0.1105,-1.04971 -0.58332,-3.824766 -1.05071,-6.166806 l -0.8498,-4.25825 0.55314,-2.37182 c 0.30424,-1.3045 1.05591,-3.49595 1.6704,-4.86987 0.61449,-1.37393 1.1295,-2.91477 1.14448,-3.4241 0.0247,-0.84024 -0.0831,-0.9829 -1.16339,-1.53974 -1.03507,-0.53351 -1.48444,-0.60032 -3.43958,-0.51136 -2.70214,0.12294 -4.0902,0.67594 -6.03728,2.40522 -1.89176,1.68016 -2.429,1.91298 -5.91189,2.56206 -4.27711,0.7971 -4.81015,1.15118 -6.44313,4.27995 -0.73259,1.40364 -1.54828,2.79108 -1.81265,3.0832 -0.7939,0.87725 -2.14125,1.36422 -4.59173,1.65955 -4.42286,0.53306 -4.88136,1.04848 -5.12842,5.76515 -0.28228,5.388916 -1.43017,7.606166 -5.07354,9.799986 -1.131911,0.68157 -2.244611,1.50563 -2.472681,1.83124 -0.63971,0.91332 -0.47578,2.75903 0.55314,6.22785 1.172471,3.95274 1.195781,5.17366 0.13487,7.06435 -1.44411,2.5736 -1.67587,3.23778 -1.65154,4.73297 0.031,1.90573 0.67502,3.32313 2.805821,6.17538 2.08073,2.78522 2.30155,3.59401 1.63691,5.99546 -0.63461,2.29297 -0.75975,3.26602 -0.55819,4.34042 0.16616,0.88568 1.05619,2.27416 1.45777,2.27416 0.11361,0 0.28136,-0.88488 0.37278,-1.9664 z m 3.31999,-4.91424 c 2.49377,-4.98241 6.36301,-9.68297 9.95289,-12.09133 4.07792,-2.73577 7.82029,-4.17131 17.09842,-6.55883 3.5833,-0.92208 7.02286,-1.93556 7.64347,-2.25217 1.6302,-0.83166 3.62543,-2.94629 4.43313,-4.69841 0.62129,-1.34775 0.70925,-1.90253 0.78597,-4.95717 0.11566,-4.6057 0.18555,-4.9243 1.42375,-6.49075 2.12557,-2.68904 2.20358,-4.038646 0.33709,-5.831446 -1.99239,-1.91375 -2.21581,-2.97444 -1.3979,-6.63665 0.47636,-2.1329 0.0862,-3.23101 -1.84493,-5.19235 -1.77045,-1.79815 -2.15237,-2.8496 -2.15394,-5.93003 -10e-4,-2.76113 -0.40635,-3.31473 -3.50542,-4.79235 -3.82539,-1.82393 -4.06585,-2.26985 -4.66477,-8.65039 -0.35458,-3.77746 -1.14148,-5.58664 -2.80903,-6.45827 -0.9184,-0.48004 -1.5306,-0.55429 -4.63021,-0.56155 -4.44275,-0.0104 -5.28999,-0.34653 -7.68612,-3.04924 -2.06258,-2.32648 -2.68788,-2.5434 -6.1535,-2.13468 -1.38734,0.16362 -3.19479,0.29749 -4.01653,0.29749 -1.42717,0 -1.48591,0.0267 -1.31142,0.59532 0.43718,1.42471 1.81387,3.84957 2.71331,4.77916 1.12881,1.16664 2.5853,2.13346 2.91088,1.93224 0.12353,-0.0763 0.37443,-0.80833 0.55756,-1.62663 0.18313,-0.81829 0.39878,-1.42199 0.47922,-1.34154 0.0805,0.0804 -0.004,0.85246 -0.18676,1.71558 -0.18317,0.86312 -0.25152,1.70121 -0.15188,1.86242 0.0996,0.1612 0.64347,0.52896 1.20854,0.81724 1.58492,0.80857 6.03413,4.26932 7.79196,6.06087 0.86857,0.88523 1.6512,1.60951 1.73918,1.60951 0.088,0 1.02749,-1.01882 2.0878,-2.26406 1.06031,-1.24523 1.99035,-2.20154 2.06676,-2.12514 0.0764,0.0764 -0.71055,1.14768 -1.74879,2.38061 -1.03824,1.23293 -1.88771,2.33891 -1.88771,2.45774 0,0.11884 0.53884,0.87006 1.19743,1.66939 0.65859,0.79934 1.97647,2.61302 2.92862,4.03041 l 1.73118,2.57707 0.73541,-0.3803 c 0.40448,-0.20916 1.49761,-0.5205 2.4292,-0.69186 2.89707,-0.53291 6.10271,0.50513 6.68653,2.1652 0.1898,0.53969 0.0391,1.09351 -0.75362,2.76994 -1.37842,2.915 -2.24364,5.52521 -2.43691,7.35171 -0.18392,1.73803 -0.2416,1.71504 2.00041,0.79739 0.49071,-0.20085 1.02054,-0.36518 1.17739,-0.36518 0.53181,0 -0.19404,0.43738 -1.73887,1.04781 -0.83674,0.33063 -1.51831,0.67662 -1.51459,0.76886 0.004,0.0922 0.35987,1.89411 0.79144,4.00416 0.43157,2.11006 0.78571,4.223416 0.78699,4.696356 0.004,1.30639 0.45085,1.02989 0.96315,-0.59531 0.46271,-1.46791 0.89124,-1.909326 0.89124,-0.91807 0,0.90004 -1.31384,3.73692 -2.5083,5.41598 -1.46788,2.06342 -4.74756,5.17879 -7.41358,7.04216 -1.16416,0.81368 -4.79557,3.06113 -8.06979,4.99434 -6.83775,4.03724 -8.77871,5.34911 -10.94509,7.39765 -4.12746,3.90297 -7.03883,10.14214 -8.38275,17.96455 -0.73968,4.30535 -0.64162,4.82426 0.38014,2.01159 0.4783,-1.31665 1.3708,-3.39521 1.98335,-4.61904 z m -5.9238,3.90408 c -0.10025,-0.54572 0.0463,-1.48825 0.40126,-2.57969 0.95587,-2.93959 0.71003,-4.42475 -1.067581,-6.44933 -1.30503,-1.48635 -2.59499,-3.84111 -2.93396,-5.35579 -0.25311,-1.13099 -0.2485,-1.79961 0.0223,-3.2347 0.26546,-1.40688 0.27232,-2.01811 0.0309,-2.74972 -0.36536,-1.10706 -2.31387,-3.01373 -4.91784,-4.81223 -2.3959,-1.65479 -2.85206,-2.24885 -4.33829,-5.64976 -0.9681,-2.21527 -1.42951,-2.95851 -2.12957,-3.43028 -1.21631,-0.81967 -3.25888,-1.39112 -4.97238,-1.39112 -2.18622,0 -3.56488,-0.46364 -5.08392,-1.7097 -1.68449,-1.38179 -3.467251,-1.9948 -5.797371,-1.99346 -2.43562,0.001 -6.09731,0.63483 -7.34278,1.27022 -0.57275,0.2922 -2.40179,1.98491 -4.06452,3.76158 -1.66274,1.77667 -3.45702,3.5042 -3.9873,3.83895 -1.45183,0.9165 -3.56099,1.447 -5.753,1.447 h -1.9658 l 0.18568,0.99218 c 0.27486,1.46873 1.94393,6.34307 2.64724,7.73098 0.55052,1.08641 0.86086,1.33046 3.0901,2.43005 3.06256,1.51064 5.90383,2.47182 12.01452,4.06444 2.60877,0.67992 6.4101,1.70098 8.447391,2.26902 2.03729,0.56804 3.79652,1.0331 3.9094,1.03348 0.11287,3.8e-4 -0.6015,-0.6949 -1.5875,-1.54507 -0.98601,-0.85017 -2.52854,-2.3339 -3.427861,-3.29718 l -1.63513,-1.75142 -2.46591,-0.40247 c -4.3485,-0.70971 -11.59404,-2.96308 -11.59404,-3.60575 0,-0.33236 0.004,-0.33135 1.62217,0.38416 2.73101,1.20778 9.73026,3.07466 11.52745,3.07466 0.25038,0 -0.077,-0.59857 -0.90443,-1.65365 -2.49031,-3.17543 -7.21811,-10.63027 -7.21811,-11.38159 0,-0.50569 0.58074,0.19001 1.23287,1.47695 1.90272,3.75482 7.38848,11.50944 7.8298,11.06812 0.60361,-0.60361 1.30902,-4.40919 2.23873,-12.07754 0.17117,-1.4118 0.20257,-1.47517 0.283701,-0.57257 0.14019,1.55972 -0.700981,7.89136 -1.435191,10.8029 l -0.6574,2.60694 0.53078,0.74541 c 1.36331,1.9146 6.386571,6.18318 8.188751,6.95851 1.44311,0.62084 2.08359,0.62436 2.27778,0.0125 0.47826,-1.50687 1.50804,-7.20485 1.75409,-9.70579 0.15749,-1.60073 0.36481,-3.4462 0.46072,-4.10104 l 0.17437,-1.19063 0.0836,1.38666 c 0.10966,1.81851 -0.58382,7.09947 -1.43353,10.91648 -0.37253,1.67349 -0.69578,3.14353 -0.71832,3.26676 -0.0225,0.12323 1.26871,0.72671 2.86944,1.34106 1.60073,0.61435 3.95721,1.60946 5.23662,2.21137 l 2.3262,1.09438 0.23573,-0.62002 c 0.12965,-0.34102 0.427,-1.97274 0.66077,-3.62606 0.73322,-5.18571 0.92711,-6.01541 0.79053,-3.38291 -0.10547,2.0328 -0.65909,5.81511 -1.06494,7.27562 -0.12847,0.46233 0.17341,0.73866 1.91672,1.75454 1.13806,0.66319 2.84311,1.81287 3.78899,2.55485 0.94589,0.74199 1.754961,1.35143 1.797931,1.35432 0.043,0.003 0.007,-0.3817 -0.0798,-0.85464 z m -1.724031,-21.40996 c 0.7047,-1.63813 0.65036,-2.17411 -0.69041,-6.81035 -1.4018,-4.84725 -1.1444,-5.83162 2.021351,-7.73002 0.94474,-0.56652 2.12211,-1.41591 2.61639,-1.88752 1.65635,-1.5804 2.67319,-4.80103 2.67319,-8.466826 0,-2.54122 0.31234,-3.48294 1.45271,-4.37996 l 0.66954,-0.52666 -0.81119,-0.68256 c -0.44615,-0.37542 -1.54873,-1.09312 -2.45019,-1.5949 -1.43171,-0.79695 -2.40532,-1.23037 -5.181421,-2.30657 -0.34761,-0.13476 -0.56418,-0.31284 -0.48128,-0.39574 0.42225,-0.42225 6.610901,2.51616 8.337521,3.9587 0.99829,0.83405 1.20375,0.90555 1.97047,0.68566 0.47078,-0.13502 1.17832,-0.24549 1.5723,-0.24549 0.39398,0 1.3175,-0.12893 2.05226,-0.28651 l 1.33594,-0.28651 -0.002,-2.29318 c -0.001,-1.26125 -0.0809,-2.94802 -0.17698,-3.74838 -0.16775,-1.39753 -0.26466,-1.54451 -2.44509,-3.7086 -2.59404,-2.57459 -5.8079,-4.84892 -9.94981,-7.04111 -1.579541,-0.83601 -2.724781,-1.56905 -2.544971,-1.62898 0.39817,-0.13273 5.513961,2.69032 8.237981,4.54597 1.09031,0.74273 2.96554,2.28956 4.16719,3.43741 1.20165,1.14784 2.18482,1.96466 2.18482,1.81516 0,-0.80245 -0.94404,-5.04344 -1.73222,-7.78178 -0.96915,-3.36709 -3.37172,-9.50647 -4.63425,-11.84205 -0.42639,-0.78879 -0.71618,-1.49324 -0.64398,-1.56545 0.0722,-0.0722 0.17706,-0.0817 0.23302,-0.021 0.40972,0.44396 2.69784,5.46326 3.72371,8.16846 1.22506,3.23044 3.3183,10.80867 3.3183,12.01333 0,1.51963 0.48017,0.65517 1.99673,-3.59475 1.94936,-5.46279 3.00455,-8.09524 3.32402,-8.29269 0.40133,-0.24803 0.26905,0.2012 -0.78437,2.66381 -0.56024,1.30969 -1.70567,4.37066 -2.54541,6.80217 l -1.52679,4.42091 0.19162,3.57768 c 0.17836,3.33008 0.2245,3.56008 0.66671,3.32342 0.26129,-0.13984 1.08613,-1.44385 1.83297,-2.8978 0.8605,-1.6752 1.67553,-2.8858 2.22502,-3.30492 0.80141,-0.61127 2.63417,-1.1965 4.96383,-1.58505 0.82985,-0.1384 0.9916,-0.29215 1.26406,-1.20155 0.17184,-0.57357 0.44698,-1.126 0.61141,-1.22763 0.20405,-0.1261 0.24374,-0.004 0.125,0.38577 -0.0957,0.3138 -0.24738,0.80867 -0.33712,1.09971 -0.1314,0.4262 -0.0413,0.52897 0.46302,0.52818 0.76597,-0.001 1.83523,-0.644 3.39876,-2.04317 l 1.18508,-1.06051 -0.51631,-0.95872 c -0.88391,-1.64133 -3.62295,-5.32659 -5.55538,-7.47453 -2.37901,-2.64432 -6.04866,-5.66919 -9.11336,-7.51209 -5.65212,-3.39879 -6.33565,-4.1625 -8.37857,-9.3614 -1.30701,-3.32614 -2.06109,-4.46136 -3.23539,-4.87072 -1.29227,-0.45049 -2.24132,0.19579 -4.074221,2.77444 -0.91072,1.28126 -2.38814,3.04393 -3.28317,3.91706 -2.12583,2.07381 -2.25501,2.36292 -2.04853,4.58456 0.14914,1.60464 0.0891,2.00554 -0.48717,3.25302 -0.36151,0.78256 -1.16302,2.01815 -1.78116,2.74575 -2.24991,2.64839 -2.59184,4.33659 -1.43457,7.08286 1.0598,2.51498 0.9829,4.47544 -0.2869,7.31455 -1.2642,2.82657 -1.20535,3.79755 0.37735,6.22678 1.6891,2.59254 1.75696,5.08269 0.23106,8.47998 -0.96937,2.15824 -0.56831,3.833586 1.61207,6.734106 1.24691,1.65874 1.69957,3.03906 1.45883,4.44846 -0.0928,0.54355 -0.63772,2.45408 -1.21083,4.24564 -1.15257,3.60297 -1.16038,4.26518 -0.0759,6.42993 0.33634,0.67135 1.38173,1.92638 2.32308,2.78896 0.94135,0.86258 1.92214,2.00994 2.17953,2.54968 0.25738,0.53974 0.55032,0.98135 0.65097,0.98135 0.10064,0 0.44777,-0.61549 0.77139,-1.36776 z m -7.0027,-5.76798 c -0.5949,-1.68613 -0.50501,-2.49343 0.68006,-6.10767 1.48143,-4.51807 1.41607,-5.4322 -0.59488,-8.32013 -2.27053,-3.260726 -2.46792,-4.393536 -1.24666,-7.154406 0.29778,-0.67317 0.48101,-1.28435 0.40718,-1.35818 -0.25256,-0.25256 -4.46096,0.95954 -7.34608,2.1158 -3.15562,1.26468 -3.95715,1.25544 -1.09672,-0.0126 2.38916,-1.05915 5.86683,-2.19267 7.40007,-2.41199 1.11282,-0.15918 1.27212,-0.26817 1.487,-1.0174 0.39297,-1.37023 -0.0261,-3.04438 -1.2867,-5.14028 -1.53891,-2.55861 -1.58571,-3.79358 -0.25818,-6.81293 1.14554,-2.60543 1.20764,-4.11611 0.26459,-6.43698 -0.77872,-1.91643 -0.87093,-4.06371 -0.22845,-5.32007 0.23815,-0.46572 1.12548,-1.76934 1.97184,-2.89693 1.81339,-2.41597 2.14244,-3.41143 1.91973,-5.80772 -0.13081,-1.40749 -0.0747,-1.91754 0.26857,-2.44144 0.23866,-0.36425 0.43393,-0.71199 0.43393,-0.77278 0,-0.0608 -0.8632,-0.18926 -1.91823,-0.28551 -2.13063,-0.19438 -7.20263,0.18382 -10.2526,0.7645 -15.965921,3.03973 -29.021841,14.19513 -34.379711,29.37512 -0.73618,2.08575 -2.19257,8.335 -1.99399,8.55605 0.0425,0.0473 1.36807,0.38617 2.94577,0.7531 3.38354,0.7869 4.37636,0.7381 8.94414,-0.43966 4.64162,-1.19679 7.64099,-1.15406 10.22057,0.1456 1.29664,0.65329 3.69016,3.0813 4.38474,4.447916 0.231421,0.45535 0.456801,0.86915 0.500821,0.91956 0.044,0.0504 0.59444,-0.25675 1.22313,-0.68258 1.62496,-1.10062 1.80453,-1.19092 1.80453,-0.90748 0,0.13894 -0.59532,0.63463 -1.32292,1.10153 -0.7276,0.46691 -1.32292,0.87957 -1.32292,0.91703 0,0.32971 1.66741,3.61552 2.13611,4.20944 0.80829,1.02425 2.47355,1.73884 4.0816,1.75148 0.72761,0.006 2.15631,0.18694 3.1749,0.40269 1.01859,0.21576 1.88544,0.39228 1.92632,0.39228 0.0409,0 -0.82095,-1.29485 -1.91521,-2.87746 -5.24074,-7.579616 -10.02523,-16.969626 -13.767731,-27.020456 -1.29864,-3.48762 -2.77974,-8.12714 -2.77974,-8.7075 0,-0.77381 0.44375,0.12394 0.89698,1.8147 0.60953,2.27381 2.95285,8.68177 4.65966,12.74217 3.749821,8.92055 9.842201,19.608086 14.022961,24.599726 1.01199,1.20827 1.83693,2.58657 2.53571,4.23663 0.72719,1.71715 1.4092,2.84052 2.28938,3.77097 0.68951,0.72889 1.31586,1.26304 1.39189,1.18701 0.076,-0.076 -0.0416,-0.64803 -0.26146,-1.27111 z M 56.203988,96.192314 c 0,-0.42109 3.86714,-2.80888 5.9679,-3.68493 3.08285,-1.28559 8.05501,-2.63355 8.05501,-2.18372 0,0.13849 -0.48217,0.3289 -1.0715,0.42314 -3.19971,0.51165 -8.42833,2.65738 -11.43006,4.69068 -0.83674,0.56679 -1.52135,0.90646 -1.52135,0.75483 z m 19.314581,-8.43054 c 0,-0.31653 2.07118,-2.02563 4.14109,-3.41715 3.26562,-2.19536 8.47954,-4.53227 9.41483,-4.21979 0.18409,0.0615 -0.49873,0.38633 -1.51738,0.72184 -3.25852,1.07325 -6.86621,3.11077 -10.38489,5.86509 -0.90951,0.71193 -1.65365,1.18444 -1.65365,1.05001 z m -23.971921,-5.15843 c 1.41597,-1.15645 7.5063,-3.13416 11.5365,-3.74623 2.98743,-0.45371 3.43959,-0.46952 3.43959,-0.12027 0,0.14552 -0.44649,0.26474 -0.99219,0.26494 -2.59128,9.5e-4 -7.46725,1.16999 -11.09213,2.6594 -3.43068,1.40961 -3.48631,1.42774 -2.89177,0.94216 z m 19.91725,-6.68646 c -0.30309,-0.30308 2.595881,-4.17816 4.716131,-6.30409 2.62645,-2.63349 7.05544,-5.63865 7.88929,-5.35304 0.17204,0.0589 -0.34205,0.43757 -1.14242,0.84143 -3.4704,1.75117 -7.41101,5.31592 -9.93306,8.98565 -0.752741,1.09526 -1.441211,1.91879 -1.529941,1.83005 z m -18.25403,38.269936 c 1.28394,-0.63208 2.15046,-1.36307 3.84702,-3.24533 4.08699,-4.53432 5.04998,-5.19068 8.40751,-5.73043 2.17485,-0.34963 6.20585,-0.36076 7.392561,-0.0204 0.49872,0.14303 0.95488,0.21195 1.01367,0.15315 0.0588,-0.0588 -0.45203,-1.1891 -1.135171,-2.51178 -1.55245,-3.005826 -3.13717,-4.795196 -5.10078,-5.759456 -1.38736,-0.68129 -1.7431,-0.73914 -4.41923,-0.7187 -2.4023,0.0183 -3.44164,0.16818 -5.95313,0.85821 -1.67349,0.45979 -3.67662,0.83674 -4.45141,0.83766 -1.34366,0.002 -1.47847,0.0682 -2.91959,1.44283 -1.78797,1.705426 -3.26617,4.092956 -4.06309,6.562506 -0.67509,2.09204 -1.16476,2.43705 -0.56328,0.39687 0.85755,-2.90877 3.22362,-6.782046 4.75649,-7.786426 0.34446,-0.2257 0.6263,-0.49005 0.6263,-0.58745 0,-0.0974 -1.29647,-0.45833 -2.88105,-0.80209 -4.57679,-0.99289 -5.68139,-0.61881 -7.02707,2.37975 -0.96521,2.150776 -1.45893,4.698546 -1.46437,7.556706 -0.007,3.82792 0.7407,5.34199 3.27672,6.6327 3.21396,1.63575 7.73488,1.78069 10.6579,0.34169 z m -6.35375,-24.858596 c 0.35546,-1.2325 0.94877,-2.99701 1.31848,-3.92113 0.36971,-0.92413 0.63092,-1.71761 0.58048,-1.7633 -0.0504,-0.0457 -0.74656,-0.35447 -1.54693,-0.68618 -0.80036,-0.33171 -1.56831,-0.70271 -1.70656,-0.82444 -0.48462,-0.42675 0.36733,-0.22188 1.89746,0.45627 1.20719,0.53503 1.57233,0.60462 1.73531,0.33073 0.11353,-0.19078 0.81129,-1.41844 1.55057,-2.72813 1.82739,-3.23733 3.79945,-5.93918 6.31755,-8.65548 1.16156,-1.25299 2.11192,-2.37448 2.11192,-2.49221 0,-0.11772 -0.68088,-0.90211 -1.51307,-1.74307 -0.83219,-0.84097 -1.39367,-1.52903 -1.24773,-1.52903 0.14594,0 0.91205,0.65484 1.70247,1.45521 0.79042,0.80036 1.52078,1.45521 1.623,1.45521 0.10223,0 0.82068,-0.54525 1.59654,-1.21167 3.00294,-2.57931 9.31332,-6.31486 12.607391,-7.46318 0.74342,-0.25916 0.81204,-0.36488 0.59953,-0.9238 -0.55321,-1.45508 -1.03796,-3.36594 -0.85386,-3.36594 0.10903,0 0.46667,0.83344 0.79475,1.85209 0.32807,1.01864 0.67893,1.85029 0.77968,1.84811 0.10075,-0.002 1.13568,-0.30183 2.29985,-0.66589 2.76466,-0.86456 7.27648,-1.67408 10.51219,-1.88613 l 2.58468,-0.16939 v -1.45953 c 0,-1.77681 0.22722,-1.70643 0.32571,0.1009 l 0.0712,1.30588 2.21486,0.18354 c 3.40841,0.28243 4.13996,-0.47231 2.87836,-2.96961 -1.328,-2.62874 -5.1742,-3.6788 -9.10169,-2.48487 -2.1476,0.65286 -5.21894,0.60795 -8.16237,-0.11935 -3.13499,-0.77463 -5.85548,-0.78539 -7.417291,-0.0293 -1.16039,0.56174 -1.77403,1.1861 -3.37626,3.43525 -0.58747,0.82466 -1.33611,1.4346 -2.43564,1.98437 -1.58733,0.79368 -1.58791,0.79376 -6.48227,0.81079 -4.78275,0.0166 -4.93254,0.0341 -6.54428,0.76187 -3.7297,1.68418 -5.67124,5.13693 -6.1827,10.99505 -0.32245,3.69332 -0.78413,4.81502 -3.2599,7.92023 -2.56548,3.21774 -2.91733,3.98375 -2.92465,6.36728 -0.005,1.69414 0.1043,2.18355 0.74867,3.34615 1.372,2.47542 3.93195,4.99089 4.88394,4.79907 0.22028,-0.0444 0.64036,-0.99774 1.02064,-2.31634 z"
       id="path1-0" /></g></svg>
