<?xml version="1.0" encoding="UTF-8" standalone="no"?>
<!-- Created with Inkscape (http://www.inkscape.org/) -->

<svg
   width="210mm"
   height="297mm"
   viewBox="0 0 210 297"
   version="1.1"
   id="svg1"
   xml:space="preserve"
   inkscape:version="1.3.2 (091e20e, 2023-11-25, custom)"
   sodipodi:docname="eagle.svg"
   xmlns:inkscape="http://www.inkscape.org/namespaces/inkscape"
   xmlns:sodipodi="http://sodipodi.sourceforge.net/DTD/sodipodi-0.dtd"
   xmlns="http://www.w3.org/2000/svg"
   xmlns:svg="http://www.w3.org/2000/svg"><sodipodi:namedview
     id="namedview1"
     pagecolor="#ffffff"
     bordercolor="#000000"
     borderopacity="0.25"
     inkscape:showpageshadow="2"
     inkscape:pageopacity="0.0"
     inkscape:pagecheckerboard="0"
     inkscape:deskcolor="#d1d1d1"
     inkscape:document-units="mm"
     inkscape:zoom="0.73139029"
     inkscape:cx="261.14648"
     inkscape:cy="513.40578"
     inkscape:window-width="1920"
     inkscape:window-height="1017"
     inkscape:window-x="-8"
     inkscape:window-y="-8"
     inkscape:window-maximized="1"
     inkscape:current-layer="layer1" /><defs
     id="defs1" /><g
     inkscape:label="Calque 1"
     inkscape:groupmode="layer"
     id="layer1"><path
       style="fill:#000000"
       d="m 72.552642,171.07078 c -1.2334,-0.89347 -2.03862,-1.95102 -3.03785,-3.98981 -0.52328,-1.06769 -0.71794,-1.29251 -0.7276,-0.84032 -0.021,0.98436 -0.56998,0.54511 -1.5494,-1.23975 -0.79359,-1.44623 -0.90779,-1.89687 -0.94031,-3.71058 -0.032,-1.7853 -0.0966,-2.0489 -0.47757,-1.9496 -0.26759,0.0698 -0.61978,-0.15871 -0.89707,-0.58192 -0.37932,-0.57891 -0.42692,-1.05178 -0.28145,-2.79607 0.0963,-1.15463 0.2418,-2.31085 0.32336,-2.56938 0.14094,-0.44675 0.12937,-0.4471 -0.23321,-0.007 -0.44403,0.53892 -1.13936,0.60897 -1.31318,0.13229 -0.11688,-0.32052 0.0846,-2.52192 0.45398,-4.96093 l 0.18032,-1.19063 -0.76813,1.26191 c -0.42248,0.69405 -1.10847,1.97397 -1.52444,2.84427 -0.82321,1.72237 -1.19073,1.98778 -1.18357,0.85476 0.004,-0.7042 0.56994,-3.61782 0.9115,-4.69636 0.16319,-0.51532 0.1586,-0.51587 -0.17582,-0.0209 -0.63602,0.94127 -2.12277,2.5345 -2.36511,2.5345 -0.13219,0 -0.36107,-0.31752 -0.50861,-0.70559 -0.33561,-0.88271 0.17796,-3.51818 1.30507,-6.69719 0.43746,-1.23388 0.76309,-2.2757 0.72362,-2.31518 -0.0395,-0.0395 -0.51306,0.56895 -1.0524,1.35206 -0.53935,0.7831 -1.20726,1.62892 -1.48424,1.87959 -0.48843,0.44202 -0.48789,0.41437 0.0179,-0.9167 0.28682,-0.75485 1.17992,-2.97948 1.98466,-4.94362 0.80474,-1.96413 1.42652,-3.76007 1.38174,-3.99096 -0.0542,-0.2794 -0.45209,0.0596 -1.18972,1.01358 -1.46087,1.88936 -3.25733,3.62636 -3.25733,3.14951 0,-0.2066 0.53116,-1.68928 1.18037,-3.29484 1.01771,-2.51693 1.21876,-3.3385 1.45895,-5.96192 0.31356,-3.4248 0.8627,-6.47128 1.61463,-8.95756 0.2797,-0.92483 0.50855,-1.72884 0.50855,-1.7867 0,-0.0579 -0.43058,0.37141 -0.95683,0.95392 -1.47613,1.6339 -1.52454,1.26285 -0.12933,-0.99143 1.00298,-1.62054 4.52677,-8.2343 5.02559,-9.43248 0.0566,-0.13604 -0.3146,0.0107 -0.82498,0.32616 -1.17367,0.72537 -1.35874,0.7212 -0.96757,-0.0218 0.76595,-1.45489 5.3441,-8.20527 6.85048,-10.100904 0.95356,-1.19995 1.44712,-2.00255 1.1599,-1.88617 -1.60927,0.6521 -4.22395,1.46294 -4.45872,1.38269 -0.34497,-0.11792 1.46762,-1.05544 3.4835,-1.80177 0.84347,-0.31227 1.81799,-0.67318 2.16559,-0.80202 1.15782,-0.42913 0.37158,-0.52103 -1.06659,-0.12467 -0.77963,0.21486 -2.00538,0.44792 -2.7239,0.51791 l -1.30639,0.12726 1.83556,-1.16623 c 1.00956,-0.64142 3.08572,-1.80988 4.61369,-2.59657 1.52797,-0.7867 3.07578,-1.75571 3.43958,-2.15336 0.79365,-0.8675 0.98919,-0.90845 -3.78804,0.79325 -1.86514,0.66439 -3.59155,1.20547 -3.83646,1.20242 -0.92078,-0.0115 4.89183,-3.35836 8.90147,-5.12542 0.92061,-0.40571 1.63011,-0.78139 1.57666,-0.83484 -0.0942,-0.0942 -7.20335,1.93023 -8.80675,2.50779 l -0.79375,0.28591 0.63133,-0.53604 c 1.03364,-0.87763 5.67479,-3.41643 8.70853,-4.76375 2.48358,-1.10298 7.21572,-2.75901 12.75284,-4.46291 2.21153,-0.68054 1.27121,-0.69015 -2.91041,-0.0298 -3.85406,0.60865 -3.89389,0.6118 -3.55865,0.28157 0.44973,-0.443 5.45379,-1.32919 9.30792,-1.64838 3.272408,-0.27102 3.722418,-0.363 3.440128,-0.70313 -0.28497,-0.34337 0.0642,-0.36806 2.84969,-0.20146 13.9598,0.83495 26.00782,5.73889 34.24684,13.9396 2.202,2.19176 2.49961,2.22202 0.44421,0.0452 -0.58108,-0.61541 -0.98959,-1.18585 -0.9078,-1.26764 0.19386,-0.19386 3.02019,2.39051 3.45326,3.15763 0.67945,1.20355 2.53478,4.00618 2.94883,4.45447 0.23521,0.25466 0.42765,0.76067 0.42765,1.12448 0,0.3638 0.11907,0.66146 0.26459,0.66146 0.65179,0 -0.25564,-2.30179 -1.65081,-4.18744 -1.17378,-1.58641 -1.17927,-1.9769 -0.014,-0.99641 1.03691,0.8725 2.45721,3.57692 2.46399,4.69171 0.005,0.76544 0.22049,1.05916 1.55278,2.113104 0.85105,0.67326 2.42619,1.68043 3.50032,2.23818 2.53669,1.31717 5.40412,4.12227 6.56435,6.42163 2.4099,4.77599 2.49945,10.46467 0.23534,14.94984 -1.00036,1.9817 -3.38702,4.52035 -5.03638,5.3571 -1.22218,0.62004 -2.19042,0.82889 -2.01522,0.43469 0.0485,-0.10914 0.47512,-0.97235 0.94803,-1.91823 1.00734,-2.01483 1.50494,-4.39086 1.26068,-6.01971 -0.16239,-1.08292 -0.21951,-1.1491 -0.88249,-1.02266 -3.49266,0.66613 -6.20915,0.29037 -12.02045,-1.66273 -3.84667,-1.29282 -3.90749,-1.30392 -4.19562,-0.76554 -0.20831,0.38922 -0.3497,0.45353 -0.49177,0.22366 -0.14119,-0.22845 -0.3564,-0.12304 -0.73724,0.36113 -0.62196,0.7907 -0.91614,0.88717 -0.67311,0.22074 0.14951,-0.40998 0.0955,-0.40334 -0.47132,0.058 -0.3521,0.28654 -1.02713,0.87544 -1.50007,1.30867 -0.92892,0.85092 -1.13474,0.66486 -0.40967,-0.37033 0.39429,-0.56292 0.29753,-0.53313 -0.77873,0.23978 -0.70209,0.50421 -1.40192,0.81621 -1.63239,0.72778 -0.22187,-0.0851 -0.47378,-0.0409 -0.55979,0.0982 -0.086,0.13916 -0.45255,0.25302 -0.81453,0.25302 -0.46073,0 -0.79335,0.24404 -1.10887,0.81357 -0.24789,0.44745 -0.5957,1.013 -0.77291,1.25677 -0.26616,0.36612 -0.28246,0.30515 -0.0937,-0.35054 0.12568,-0.43657 0.317,-1.03188 0.42515,-1.32292 l 0.19665,-0.52917 -0.55516,0.52917 c -0.30534,0.29104 -0.92606,1.18401 -1.37938,1.98438 l -0.82422,1.4552 0.13102,-1.15609 0.13102,-1.15608 -0.90012,0.87243 c -0.49507,0.47983 -1.03653,1.28575 -1.20325,1.79092 -0.61899,1.87555 0.23501,5.51949 1.86823,7.9716 0.86586,1.29999 0.85529,1.69513 -0.0245,0.91397 l -0.56929,-0.50549 0.33776,0.6427 c 0.18576,0.35348 1.0927,1.48458 2.01543,2.51354 0.92272,1.02896 2.23476,2.49592 2.91563,3.2599 2.52794,2.8365 0.4481,1.2532 -3.82353,-2.91069 -2.42605,-2.36486 -4.76818,-4.58438 -5.20475,-4.93227 -0.43656,-0.34788 1.23032,1.35097 3.70417,3.77522 2.47385,2.42425 5.53397,5.20513 6.80027,6.17974 1.26629,0.97461 2.25238,1.82199 2.1913,1.88307 -0.0611,0.0611 -0.47588,-0.0401 -0.92178,-0.22475 -0.44589,-0.1847 -0.86345,-0.28308 -0.92791,-0.21863 -0.18909,0.1891 3.19576,4.34625 5.4544,6.6989 1.14516,1.19283 2.02179,2.22908 1.94808,2.3028 -0.0737,0.0737 0.046,0.47917 0.26594,0.901 0.48093,0.92218 0.523,1.38943 0.0857,0.95218 -0.46296,-0.46296 -0.74962,-0.38819 -0.55787,0.14552 0.41606,1.15803 -1.40482,-1.06425 -3.2967,-4.02343 -2.52448,-3.94868 -4.01555,-6.08697 -5.08172,-7.28751 -0.45231,-0.50932 -0.0631,0.20505 0.86482,1.5875 3.15278,4.69688 4.84157,8.27526 4.42451,9.37509 -0.11404,0.30073 -0.37387,0.51775 -0.5774,0.48226 -0.29447,-0.0513 -0.35033,0.29991 -0.27353,1.7198 0.10103,1.86791 -0.5024,5.41151 -1.0297,6.04687 -0.4666,0.56222 -1.21761,0.43978 -1.39648,-0.22767 -0.0877,-0.32742 -0.16116,-1.27272 -0.16315,-2.10067 -0.003,-1.26983 -0.20025,-1.89072 -1.26038,-3.9683 -1.01445,-1.98805 -1.27442,-2.33549 -1.34827,-1.80193 -0.10754,0.77688 -0.50345,1.32247 -0.95969,1.32247 -0.17871,0 -0.7041,-0.60997 -1.16754,-1.35549 -0.80111,-1.28871 -0.86669,-1.33371 -1.33118,-0.91335 -0.42513,0.38473 -0.50324,0.98151 -0.60167,4.59663 -0.0938,3.44463 -0.20504,4.35889 -0.65108,5.3507 -1.48904,3.31101 -2.30032,2.51919 -2.98767,-2.91599 -0.50844,-4.02048 -0.50493,-4.00831 -1.0683,-3.7068 -0.27461,0.14697 -0.71548,0.26749 -0.97971,0.26782 -0.32676,4.1e-4 -0.73429,0.52474 -1.27416,1.63935 -1.54018,3.17977 -3.71847,4.9632 -8.56549,7.01284 l -0.89257,0.37744 0.1855,-1.00939 c 0.18715,-1.01833 0.80752,-2.6333 2.09734,-5.45981 0.38651,-0.847 0.55171,-1.44729 0.3671,-1.33398 -1.93513,1.18783 -2.57807,1.7881 -2.87247,2.68185 -0.17861,0.54224 -0.57386,1.37022 -0.87833,1.83997 -0.99338,1.53262 -1.62169,1.42242 -2.64871,-0.46455 -0.91776,-1.68622 -1.46455,-4.32349 -1.4796,-7.13641 l -0.012,-2.24896 -0.85245,1.5875 c -1.07361,1.99934 -1.65619,2.09136 -2.512418,0.39688 -0.54572,-1.07999 -0.61651,-1.13414 -0.76175,-0.58275 -0.54929,2.08528 -2.19508,4.69075 -3.75083,5.93797 -0.31589,0.25324 -0.57434,0.68518 -0.57434,0.95988 0,0.48035 -0.53597,1.85328 -1.04652,2.68073 -0.13468,0.21828 -0.3175,0.73917 -0.40626,1.15753 -0.15209,0.71681 -0.2226,0.75244 -1.22351,0.61819 -2.49878,-0.33516 -5.71025,-2.73128 -6.86908,-5.12511 -0.35932,-0.74225 -0.7107,-2.21965 -0.8954,-3.76478 l -0.304,-2.54312 -0.4702,2.06717 c -0.25861,1.13694 -0.62642,2.12712 -0.81737,2.20039 -0.28569,0.10963 -0.2835,0.39953 0.0123,1.637 0.70415,2.94544 0.28019,3.72507 -1.52666,2.80737 -2.30968,-1.17308 -4.36048,-3.59051 -4.95469,-5.84046 -0.15939,-0.6035 -0.48145,-1.17081 -0.71568,-1.2607 -0.34013,-0.13052 -0.39076,-0.0427 -0.25142,0.43582 0.92215,3.16714 1.15386,5.73601 0.613,6.79606 -0.49323,0.9667 -0.84195,0.93711 -1.93358,-0.1641 l -0.9969,-1.00563 1.39485,2.61236 c 1.08745,2.03665 2.66401,5.84181 2.66401,6.42981 0,0.30681 -0.8738,-0.0296 -1.77761,-0.68427 z m 15.06214,-10.08504 c -0.0647,-0.44059 -0.34797,-0.92439 -0.62956,-1.07509 -0.49362,-0.26418 -0.49231,-0.23544 0.0365,0.80109 0.30166,0.5913 0.58496,1.07509 0.62956,1.07509 0.0446,0 0.0282,-0.36049 -0.0365,-0.80109 z m -16.21354,-3.74735 c 0.0249,-1.30777 -0.45421,-1.54916 -0.56715,-0.28574 l -0.0892,0.99772 -0.4585,-1.32291 -0.4585,-1.32292 0.0959,1.39174 c 0.11037,1.60129 0.92222,2.87967 1.26946,1.99896 0.10414,-0.26415 0.19772,-0.91974 0.20795,-1.45685 z m 33.470548,-0.19986 c 0.93709,-0.61773 1.45105,-1.48212 1.46368,-2.46159 0.005,-0.40019 0.14553,-0.72761 0.31195,-0.72761 0.38314,0 0.13762,-4.93429 -0.32255,-6.48229 -0.26931,-0.90595 -0.34499,-0.98214 -0.5256,-0.52917 -0.11604,0.29105 -0.22002,1.24355 -0.23106,2.11667 -0.011,0.87313 -0.15808,2.06375 -0.32676,2.64583 l -0.30669,1.05834 -0.20849,-0.92604 c -0.11467,-0.50933 -0.34394,-1.78925 -0.50949,-2.84428 -0.16555,-1.05502 -0.38802,-1.91822 -0.49439,-1.91822 -0.28683,0 -1.61088,5.84438 -1.61088,7.11047 0,1.28381 0.16581,1.34522 0.98286,0.36401 l 0.60587,-0.72761 -0.26542,0.74542 c -0.14598,0.40997 -0.39451,0.98661 -0.55228,1.28141 -0.15778,0.2948 -0.21494,0.82257 -0.12703,1.17281 0.19862,0.79137 1.02818,0.83913 2.11628,0.12185 z m -25.005618,-3.07534 c 0.016,-0.84857 -0.12757,-1.20537 -0.67759,-1.68361 l -0.69793,-0.60684 0.19377,2.47694 c 0.10657,1.36231 0.26776,2.59619 0.3582,2.74194 0.2324,0.37451 0.79924,-1.64113 0.82355,-2.92843 z m 33.040338,2.74364 c 0.3544,-0.35439 0.43579,-1.53458 0.10583,-1.53458 -0.11641,0 -0.35454,0.14287 -0.52916,0.3175 -0.24695,0.24694 -0.3175,0.24694 -0.3175,0 0,-0.37722 -0.69517,-0.42648 -0.91853,-0.0651 -0.0858,0.13883 -0.0799,0.55555 0.0131,0.92605 0.18438,0.73461 1.07512,0.92729 1.64629,0.35612 z m -37.786548,-1.08717 c 0.006,-0.67662 0.52818,-0.27498 0.55687,0.4281 0.013,0.31883 0.18184,0.004 0.37518,-0.69947 0.41147,-1.49736 0.65625,-1.84488 0.66754,-0.94774 0.0145,1.14932 0.44499,-0.019 0.75803,-2.05711 0.39205,-2.55243 0.3785,-2.6552 -0.25974,-1.97013 -0.43667,0.4687 -0.63015,0.52764 -0.92604,0.28207 -0.29538,-0.24514 -0.37404,-0.22288 -0.37404,0.10582 0,0.22894 -0.14154,1.04719 -0.31452,1.81834 -0.29509,1.31547 -0.32501,1.35305 -0.4844,0.60833 -0.16066,-0.75068 -0.18096,-0.72658 -0.37417,0.44427 -0.15375,0.93176 -0.30026,1.20119 -0.59225,1.08915 -0.33292,-0.12776 -0.32906,-0.008 0.0272,0.84481 0.22836,0.54653 0.41701,1.06845 0.41924,1.15982 0.01,0.40114 0.51743,-0.67663 0.52107,-1.10626 z m 54.341538,0.28019 c 0.2014,-0.75114 -0.35073,-3.67651 -0.65806,-3.48658 -0.12579,0.0777 -0.434,-0.28915 -0.68491,-0.81532 -0.37699,-0.79056 -0.48643,-0.8734 -0.63026,-0.47712 -0.14315,0.3944 -0.2592,0.30338 -0.65358,-0.51264 -0.51209,-1.05958 -0.58366,-1.10751 -1.1335,-0.75902 -0.4805,0.30454 0.12318,1.30066 0.85421,1.40952 0.35133,0.0523 0.64352,0.45986 0.90891,1.26773 0.21512,0.65484 0.47581,1.25015 0.57932,1.32291 0.1035,0.0728 0.27154,0.69784 0.37341,1.38907 0.19789,1.34271 0.76542,1.70213 1.04446,0.66145 z m -19.71711,-2.24895 c 0.38813,-0.73906 0.62925,-2.63524 0.41913,-3.29614 -0.18492,-0.58167 -0.20046,-0.58483 -0.37992,-0.0773 -0.12075,0.34149 -0.26373,-0.22152 -0.40314,-1.5875 -0.11882,-1.16417 -0.26414,-1.90685 -0.32293,-1.65041 -0.13678,0.59656 -0.59602,0.3272 -0.59602,-0.34958 0,-0.28246 -0.0893,-0.5138 -0.19844,-0.51411 -0.10914,-3.1e-4 -0.16644,0.80337 -0.12734,1.78594 0.0671,1.68516 0.0488,1.74897 -0.32135,1.12503 -0.37025,-0.62402 -0.39299,-0.54468 -0.40183,1.4022 -0.0112,2.45601 0.45425,3.62489 1.44332,3.62489 0.35494,0 0.75478,-0.20836 0.88852,-0.46302 z m 7.71295,0.025 c 0,-0.49123 -3.56882,-4.58904 -3.99664,-4.58904 -0.50873,0 -0.4156,0.93456 0.18332,1.83959 0.86886,1.31293 3.81332,3.43592 3.81332,2.74945 z m -27.354398,-1.03446 c -0.12037,-0.31367 -0.0363,-0.37526 0.3463,-0.25382 0.27788,0.0882 0.5944,0.0161 0.70338,-0.16025 0.15549,-0.2516 0.35336,-5.78646 0.20686,-5.78637 -0.02,2e-5 -0.42873,0.97327 -0.90822,2.1628 -0.78217,1.94039 -0.89914,2.10153 -1.13754,1.56726 -0.38258,-0.8574 0.12481,-2.50415 1.61843,-5.25264 0.69159,-1.27262 1.4632,-2.76753 1.7147,-3.32203 0.44754,-0.98671 0.44613,-1.00465 -0.0661,-0.84207 -0.62852,0.19948 -0.6301,0.18588 -0.1199,-1.03519 0.29614,-0.70876 0.3574,-1.41555 0.23027,-2.65648 l -0.17323,-1.69079 -0.54474,0.5075 c -0.29961,0.27913 -0.69465,0.5075 -0.87787,0.5075 -0.40323,0 -2.48409,3.75384 -3.29999,5.95313 -0.6751,1.81977 -1.0296,2.34602 -1.0296,1.52842 0,-0.30898 -0.28545,-0.90102 -0.63433,-1.31564 -1.14148,-1.35657 -1.83892,-3.00805 -1.92261,-4.55256 l -0.0803,-1.48106 0.48253,1.73382 c 0.26539,0.95359 0.62565,1.96562 0.80056,2.24895 0.26673,0.43205 0.29323,0.32308 0.16427,-0.67548 -0.20577,-1.59321 -1.21134,-6.12004 -1.46682,-6.60324 -0.37578,-0.71071 -0.88724,1.86804 -0.88987,4.48658 -0.002,1.82473 0.12485,2.80293 0.46225,3.56956 0.43477,0.98784 3.58718,5.38998 3.87803,5.41542 0.0728,0.006 0.0923,-0.62959 0.0434,-1.41323 -0.0589,-0.94474 0.0548,-1.70262 0.33752,-2.24932 0.59229,-1.14536 0.7408,-1.03127 0.5256,0.40378 -0.10441,0.69624 -0.0828,1.16634 0.0499,1.08525 0.12968,-0.0792 0.24457,1.14328 0.25754,2.74045 0.0129,1.58593 -0.0138,2.88351 -0.0593,2.88351 -0.0455,0 -0.2557,-0.32743 -0.46707,-0.72761 -0.58005,-1.0982 -4.43568,-5.00765 -5.15252,-5.22444 -0.38184,-0.11548 -0.56665,-0.0901 -0.47097,0.0648 0.0866,0.14014 0.28695,0.59535 0.4452,1.01156 0.21155,0.55642 0.34578,0.66282 0.50704,0.4019 0.14485,-0.23438 0.35377,0.21781 0.61533,1.33188 l 0.39601,1.68675 0.0397,-1.19063 0.0397,-1.19062 0.52037,0.62462 c 0.2862,0.34354 0.52036,0.79706 0.52036,1.0078 0,0.21075 0.11796,0.31028 0.26214,0.22117 0.14417,-0.0891 0.46388,0.26106 0.71046,0.77814 0.24658,0.51708 0.60487,0.94014 0.7962,0.94014 0.19132,0 0.34787,0.12747 0.34787,0.28326 0,0.28239 2.09225,2.89174 2.31868,2.89174 0.0656,0 0.0477,-0.18638 -0.0397,-0.41417 z m 27.541168,-1.47769 -0.66046,-1.33456 0.8983,0.10488 c 0.49407,0.0577 0.89831,0.0189 0.89831,-0.0863 0,-0.36448 -3.69831,-2.64787 -3.99333,-2.46554 -0.20966,0.12958 -0.19136,0.25105 0.0625,0.41476 0.30118,0.19424 0.29988,0.26958 -0.008,0.468 -0.28701,0.18492 0.0274,0.7416 1.44199,2.55319 1.90498,2.43962 2.46784,2.58254 1.36076,0.34554 z m -21.385978,0.1917 c 0.66809,-2.65322 -0.0962,-11.52901 -0.99278,-11.52901 -0.10479,0 -0.49563,1.2204 -0.86853,2.71198 l -0.67799,2.71198 -0.21422,-1.4552 c -0.20061,-1.36277 -0.22799,-1.40479 -0.43105,-0.66146 -0.44016,1.61123 -0.40112,8.96896 0.0421,7.9375 0.12506,-0.29104 0.23576,-1.04221 0.24599,-1.66926 0.0275,-1.68906 0.47823,-1.10022 0.69302,0.90547 0.22199,2.07286 0.54056,1.80011 0.7977,-0.68296 0.0984,-0.95054 0.2655,-1.88924 0.37125,-2.086 0.26854,-0.49965 0.56438,3.04314 0.35919,4.30149 -0.23137,1.41893 0.29025,1.04468 0.67531,-0.48453 z m 14.719078,-1.95325 c -0.29206,-1.55682 -0.45537,-0.70198 -0.22642,1.18521 0.18598,1.53302 0.23251,1.64817 0.30709,0.76005 0.0483,-0.57568 0.012,-1.45105 -0.0807,-1.94526 z m -12.79618,-0.31534 c 0.12447,0 0.24,0.20836 0.25674,0.46302 0.0816,1.24188 0.47014,-1.94072 0.48349,-3.96044 0.012,-1.81009 -0.0602,-2.27786 -0.3351,-2.17236 -0.19269,0.0739 -0.68693,-0.19769 -1.09831,-0.60362 l -0.747968,-0.73806 0.17227,1.2937 c 0.0948,0.71154 0.18613,2.91419 0.20307,4.89479 l 0.0308,3.6011 0.404358,-1.38907 c 0.22239,-0.76398 0.50619,-1.38906 0.63066,-1.38906 z m 23.33385,-1.49701 c -1.24341,-2.30287 -2.87064,-4.35938 -3.87445,-4.89661 -0.39947,-0.21378 -0.46488,-0.19828 -0.2986,0.0708 0.11711,0.18948 0.9491,1.50561 1.84887,2.92471 0.89977,1.41911 2.03871,3.36041 2.53098,4.314 0.89284,1.72955 0.89524,1.73159 0.97571,0.83019 0.0602,-0.67451 -0.2396,-1.49676 -1.18251,-3.24306 z m 2.00923,0.78328 c -1.76366,-2.6452 -1.85533,-2.73809 -1.74205,-1.76518 0.0986,0.84716 1.48769,3.53652 1.82685,3.53698 0.10914,1.4e-4 0.20605,-0.20809 0.21536,-0.46276 0.0106,-0.28961 0.18118,-0.13255 0.45552,0.41936 0.24123,0.48531 0.47959,0.75945 0.52967,0.60919 0.0501,-0.15026 -0.52832,-1.20217 -1.28535,-2.33759 z m 4.38768,0.78578 c -0.5083,-1.36597 -0.83123,-1.84596 -1.07675,-1.60044 -0.0859,0.0859 0.16251,0.82968 0.55196,1.6529 0.84125,1.77827 1.19296,1.7431 0.52479,-0.0525 z m -16.25095,0.16987 -0.25537,-0.63879 -0.0168,0.6835 c -0.009,0.37593 0.07,0.77033 0.17615,0.87644 0.31419,0.31418 0.37118,-0.23278 0.096,-0.92115 z m -37.964608,-3.26589 c 0.13246,-1.50144 0.11418,-1.57214 -0.28016,-1.08367 -0.358,0.44346 -0.50197,0.47253 -0.9511,0.19205 -0.49087,-0.30656 -0.51747,-0.2773 -0.36684,0.40347 0.0893,0.4037 0.34833,1.32457 0.57555,2.04638 0.3806,1.20903 0.43155,1.26259 0.64699,0.68019 0.12862,-0.3477 0.29763,-1.35499 0.37556,-2.23842 z m -6.86366,1.10574 c -0.0734,-0.1819 -0.13345,-0.0331 -0.13345,0.33073 0,0.3638 0.06,0.51263 0.13345,0.33073 0.0734,-0.1819 0.0734,-0.47956 0,-0.66146 z m 15.37213,-2.98516 c -0.28047,-0.83719 -0.46942,-1.03715 -0.93322,-0.98756 -0.36777,0.0393 -0.92372,-0.28002 -1.51242,-0.86872 -1.26868,-1.26867 -1.16866,-0.86889 0.32588,1.30266 l 1.25678,1.82607 0.14226,-0.89651 c 0.1404,-0.88476 0.14733,-0.87743 0.52916,0.5587 0.28713,1.07993 0.40707,1.28241 0.46508,0.78515 0.043,-0.36854 -0.0801,-1.14244 -0.27352,-1.71979 z m 41.858808,2.05912 c -0.0147,-0.34654 -0.62875,-1.01614 -1.38064,-1.50552 -0.97631,-0.63544 -0.92012,-0.23965 0.11804,0.83147 0.81533,0.8412 1.28022,1.08939 1.2626,0.67405 z m 0.80217,-0.49794 c 0,-0.53986 -1.01666,-2.21404 -1.3445,-2.21404 -0.34001,0 -0.31709,0.0979 0.33889,1.44813 0.59473,1.22414 1.00561,1.53708 1.00561,0.76591 z m -8.08544,-0.6568 c -0.4852,-0.93826 -2.51258,-3.21825 -2.69738,-3.03345 -0.11149,0.1115 2.83789,3.85746 3.03717,3.85746 0.0475,0 -0.10543,-0.3708 -0.33979,-0.82401 z m -45.154398,-0.5583 c 0.28413,-0.75273 0.25982,-0.91533 -0.20657,-1.38172 -0.5284,-0.5284 -0.5286,-0.52809 -0.5286,0.85312 0,1.57644 0.26715,1.76853 0.73517,0.5286 z m 5.13288,-1.63031 c 0.0751,-1.60814 0.0274,-1.831 -0.40659,-1.89902 -0.27042,-0.0424 -0.77643,-0.34458 -1.12448,-0.67155 l -0.63281,-0.5945 v 1.74428 c 0,0.95935 0.0838,1.96237 0.18626,2.22893 0.16348,0.42539 0.20801,0.40377 0.36417,-0.1768 0.17021,-0.63279 0.19941,-0.61337 0.67364,0.44816 0.27265,0.6103 0.5765,1.02702 0.67523,0.92605 0.0987,-0.10097 0.21779,-1.00347 0.26458,-2.00555 z m 40.477928,1.22665 c -0.28673,-0.40018 -0.84908,-1.02526 -1.24968,-1.38906 -0.55923,-0.50787 -0.48845,-0.34242 0.30486,0.71254 1.05241,1.39951 1.8952,2.00299 0.94482,0.67652 z m 5.24778,-0.53389 c 0,-0.47224 -1.36129,-2.1546 -1.87543,-2.31779 -1.16085,-0.36843 -1.07502,0.32408 0.1767,1.42589 1.20099,1.05715 1.69873,1.31848 1.69873,0.8919 z m -11.60355,-2.2946 c -0.36965,-1.33877 0.069,-1.16567 0.79817,0.31495 l 0.61892,1.25677 0.0829,-1.00569 c 0.12756,-1.54701 -0.6422,-3.46481 -1.9579,-4.87795 -1.14785,-1.23287 -1.16991,-1.24295 -1.02061,-0.46636 l 0.1526,0.79375 -0.67771,-0.79375 c -0.37275,-0.43656 -0.67831,-0.66857 -0.67903,-0.51558 -0.004,0.84483 1.37234,4.79955 2.00092,5.7494 0.80213,1.2121 1.08921,1.02027 0.68172,-0.45554 z m -4.54009,-0.82708 c 0.004,-1.17957 -0.26896,-3.24569 -0.66949,-5.07568 -0.0717,-0.32742 -0.0258,-0.59531 0.10181,-0.59531 0.12766,0 0.51595,1.27877 0.86286,2.84171 l 0.63076,2.84171 0.22452,-1.22893 c 0.26596,-1.45576 -0.30204,-4.84053 -0.61431,-3.66074 -0.15082,0.56981 -0.23945,0.44149 -0.63968,-0.92604 -0.4695,-1.60421 -1.67855,-3.76609 -2.46713,-4.41144 -0.25448,-0.20825 -0.14094,0.14274 0.27911,0.86281 0.78253,1.34146 0.9725,2.32098 0.27772,1.43196 -0.39058,-0.49977 -0.40809,-0.46671 -0.31532,0.59531 0.10938,1.25218 -0.16518,1.52986 -0.39243,0.39688 -0.0803,-0.40018 -0.38202,-1.27788 -0.67058,-1.95044 -0.44437,-1.03573 -0.66443,-1.24905 -1.43831,-1.39423 -0.50251,-0.0943 -1.13809,-0.41939 -1.41238,-0.72249 -0.81792,-0.90378 -1.90356,-1.34321 -2.83439,-1.14727 -0.921648,0.19401 -0.855118,0.0932 0.68077,-1.03134 0.5457,-0.39956 0.99219,-0.83534 0.99219,-0.96839 0,-0.13305 -0.35713,-0.64865 -0.79361,-1.14578 l -0.79361,-0.90387 1.12434,-0.2929 c 1.74892,-0.4556 2.09211,-0.77729 1.05268,-0.98674 -1.37038,-0.27614 -1.22976,-0.53938 0.48222,-0.90269 0.87412,-0.1855 1.65024,-0.43587 1.72472,-0.55639 0.0745,-0.12051 0.71669,-0.29622 1.42712,-0.39046 0.88104,-0.11688 1.25109,-0.27717 1.16397,-0.50419 -0.0752,-0.19594 0.16369,-0.40599 0.58073,-0.51066 0.38965,-0.0978 0.64121,-0.24507 0.55901,-0.32727 -0.0822,-0.0822 -0.95946,0.0888 -1.94945,0.37995 -4.71749,1.38748 -4.68703,0.84807 0.0521,-0.92237 1.94757,-0.72758 2.17034,-0.86215 1.22321,-0.73894 -1.74975,0.22761 -4.15907,1.10401 -6.51488,2.36981 -1.164168,0.62552 -2.549268,1.2759 -3.078018,1.44529 -0.52874,0.16939 -1.86297,1.10701 -2.96496,2.08358 -3.73357,3.30868 -4.57088,3.70015 -3.41996,1.59899 0.63644,-1.16191 0.4262,-1.08498 -1.10286,0.40355 -0.74112,0.72147 -0.79312,0.73365 -1.13517,0.26587 -0.30214,-0.4132 -0.39557,-0.43019 -0.59461,-0.10814 -0.84205,1.36247 -1.07668,7.94971 -0.28316,7.94971 0.10551,0 0.40869,-0.71624 0.67374,-1.59164 0.42769,-1.41254 0.54404,-1.57113 1.03408,-1.40938 0.84496,0.27889 1.64611,0.14957 2.87292,-0.46374 1.32094,-0.66037 3.41176,-2.60005 3.18978,-2.95921 -0.0853,-0.13799 0.15458,-0.92195 0.53303,-1.74211 0.37844,-0.82017 0.88803,-1.96747 1.13241,-2.54955 0.30222,-0.71985 0.47916,-0.9151 0.55326,-0.61049 0.0599,0.24631 -0.24733,1.29576 -0.68276,2.33211 -0.47235,1.12425 -0.6365,1.75549 -0.40695,1.56498 0.59833,-0.49657 0.64494,-0.20571 0.20663,1.28952 -0.40245,1.37288 -0.41954,1.38884 -2.63775,2.46251 -2.31992,1.12291 -2.99608,1.8093 -4.27376,4.33846 -0.73554,1.45598 -2.27909,6.2104 -2.08067,6.40882 0.0889,0.0889 0.19622,0.11205 0.23846,0.0514 0.0422,-0.0606 0.55507,-0.76509 1.1396,-1.56545 0.58454,-0.80037 1.72097,-2.46724 2.5254,-3.70417 0.80443,-1.23693 2.00783,-2.84427 2.67423,-3.57187 l 1.21163,-1.32292 -0.0141,1.71979 c -0.008,0.94589 0.13651,2.25557 0.32059,2.91042 0.28941,1.02955 0.36756,1.11903 0.57767,0.66146 0.13364,-0.29105 0.66248,-0.80345 1.1752,-1.13868 0.6145,-0.40178 1.20449,-1.16827 1.731118,-2.24896 l 0.7989,-1.63945 -0.13475,3.67425 c -0.13077,3.56556 -0.11417,3.71622 0.56118,5.09323 0.38276,0.78044 0.77662,1.41898 0.87525,1.41898 0.36029,0 1.03336,-1.82693 1.03336,-2.80488 0,-1.01913 0.37352,-1.00214 0.58823,0.0268 0.18468,0.885 0.70357,-2.16629 0.89989,-5.29167 l 0.18282,-2.91042 0.33,1.5875 c 0.18151,0.87313 0.76874,2.77813 1.30497,4.23334 0.53622,1.4552 1.22142,3.33643 1.52266,4.18049 0.63108,1.76829 0.98191,1.59295 0.98821,-0.49388 z m -11.247178,-7.88658 c 0.11192,-0.98804 0.29709,-1.43278 0.50042,-1.20194 0.0534,0.0606 -0.0635,0.58649 -0.2597,1.16857 l -0.35682,1.05834 z m -0.2386,-2.61306 c 0.19819,-0.48469 1.43566,-1.33556 1.43566,-0.98714 0,0.61225 -0.5672,1.31787 -1.05933,1.31787 -0.30498,0 -0.45695,-0.13355 -0.37633,-0.33073 z m -2.5272,-2.51354 c 0.003,-0.10914 0.23871,-0.49609 0.52328,-0.85989 0.3406,-0.43543 0.51654,-0.52584 0.51487,-0.26459 -10e-4,0.21828 -0.1607,0.60524 -0.35401,0.8599 -0.36505,0.48088 -0.69433,0.60823 -0.68414,0.26458 z m 31.445788,14.04388 c -0.47759,-0.58141 -2.62068,-1.93919 -3.06076,-1.93919 -0.63447,0 -0.35484,0.65312 0.6471,1.51142 0.68129,0.58363 1.2718,0.85308 1.88449,0.8599 0.80261,0.009 0.8558,-0.0345 0.52917,-0.43213 z m -41.677368,-2.00533 c -0.62962,-3.58774 -0.34369,-8.27412 0.71225,-11.67391 0.71423,-2.29957 2.23104,-4.73775 4.18765,-6.73141 l 1.68566,-1.71758 -1.2272,0.16821 c -1.60151,0.21951 -2.59478,0.753 -3.89347,2.09121 -0.9948,1.02508 -2.8975,4.55993 -3.23816,6.01589 -0.14805,0.63276 -0.13217,0.62847 0.48933,-0.13229 l 0.64235,-0.78627 -0.23961,0.79375 c -0.13178,0.43656 -0.48461,1.5485 -0.78407,2.47097 -0.29945,0.92247 -0.54445,2.16935 -0.54445,2.77085 0,1.05863 -0.013,1.07508 -0.40613,0.5138 -1.02933,-1.46957 -0.86038,-5.81053 0.31461,-8.08385 1.77328,-3.43085 6.13727,-7.51031 9.68246,-9.05119 l 0.8601,-0.37383 -0.88196,-0.0104 c -1.17288,-0.0138 -4.90322,0.95154 -6.16535,1.59543 -0.55427,0.28277 -1.4318,0.88643 -1.95005,1.34147 -0.51826,0.45503 -1.00516,0.76446 -1.08201,0.68762 -0.20813,-0.20814 1.43408,-1.99667 2.89323,-3.15101 0.70429,-0.55717 1.16532,-1.01303 1.0245,-1.01303 -0.54887,0 -2.37436,0.89495 -3.79896,1.86247 -0.82166,0.55803 -1.55591,0.95261 -1.63167,0.87686 -0.0758,-0.0758 0.11553,-0.56701 0.42509,-1.09166 0.62948,-1.06689 0.5853,-1.05281 -1.73464,0.55322 -0.83861,0.58054 -1.58981,0.99046 -1.66934,0.91093 -0.0795,-0.0795 0.84473,-0.98226 2.0539,-2.00607 3.12926,-2.64954 4.27635,-3.74631 4.1013,-3.92137 -0.0839,-0.0839 -0.51134,0.10297 -0.94988,0.41523 -0.94596,0.67359 -2.75478,1.47545 -3.86333,1.71264 -0.54744,0.11714 -0.28195,-0.10962 0.85555,-0.73073 0.90712,-0.49532 2.45493,-1.61068 3.43959,-2.47858 0.98465,-0.8679 2.36495,-2.01299 3.06732,-2.54464 1.36159,-1.03064 1.18532,-1.20516 -0.58605,-0.58018 -1.03668,0.36576 -1.08164,0.36087 -0.83968,-0.0912 0.38557,-0.72045 2.0422,-1.89849 4.18024,-2.9726 1.77062,-0.88952 1.85953,-0.97306 1.18025,-1.10892 -1.50448,-0.30089 -5.2063,0.43029 -6.86545,1.35607 -0.94824,0.5291 -0.68873,-0.0838 0.32892,-0.77682 0.50833,-0.34618 0.92505,-0.72301 0.92605,-0.83739 9.9e-4,-0.11439 -0.43791,0.0908 -0.97534,0.45601 -0.53743,0.36519 -1.04345,0.59572 -1.12448,0.51227 -0.25038,-0.25782 1.66242,-1.75367 4.10276,-3.20843 2.38029,-1.41897 2.51607,-1.584584 0.92506,-1.12828 -0.49873,0.14303 -0.95647,0.21036 -1.01722,0.14961 -0.18115,-0.18114 2.84785,-1.617204 4.8379,-2.293654 l 1.85208,-0.62956 -1.62709,-0.0781 c -1.40688,-0.0675 -3.19362,0.22081 -5.62418,0.90758 -1.04921,0.29646 -0.41096,-0.36046 1.11843,-1.15114 l 1.37034,-0.70846 -0.79375,-0.15395 c -0.73129,-0.14184 -0.66883,-0.18867 0.79375,-0.59513 0.87313,-0.24265 2.83766,-0.58987 4.36563,-0.7716 1.95336,-0.23232 2.58175,-0.38583 2.11666,-0.51709 -1.17518,-0.33166 -3.89005,-0.25006 -5.70804,0.17156 -0.97466,0.22604 -2.08338,0.37139 -2.46381,0.32299 -1.05496,-0.13422 2.83834,-0.99855 4.49787,-0.99855 1.71016,0 1.47449,-0.33348 -0.37715,-0.53368 l -1.37282,-0.14843 1.4552,-0.33651 c 0.80037,-0.18508 2.4316,-0.46921 3.62496,-0.6314 1.19335,-0.16219 2.10906,-0.39307 2.0349,-0.51306 -0.0742,-0.12 -1.16961,-0.22986 -2.43432,-0.24415 l -2.29949,-0.026 1.19062,-0.33212 1.19063,-0.33213 -1.00668,-0.20323 c -1.21325,-0.24493 -3.15364,-0.0182 -5.47562,0.63968 -2.48506,0.70415 -3.01867,0.81057 -2.75009,0.54845 0.45906,-0.44801 3.1705,-1.37934 5.08847,-1.7478 2.92407,-0.56174 6.46494,-0.43652 8.84692,0.31288 0.303448,0.0955 0.443898,0.0237 0.396868,-0.2029 -0.0897,-0.43233 -1.423528,-0.71217 -3.490328,-0.7323 -2.20259,-0.0215 -1.60521,-0.36208 0.98323,-0.56063 l 2.16973,-0.16644 -2.64584,-0.0391 c -1.45521,-0.0215 -3.77519,0.13048 -5.15551,0.33773 -1.38032,0.20725 -2.55822,0.32827 -2.61755,0.26894 -0.32892,-0.32892 4.25838,-1.15402 7.5761,-1.36268 3.005918,-0.18905 2.926688,-0.53456 -0.13377,-0.58337 -0.9095,-0.0145 -1.65364,-0.14543 -1.65364,-0.29095 0,-0.40072 3.90859,-0.32058 5.566798,0.11415 1.43158,0.3753 6.60593,2.65942 6.86581,3.03077 0.20501,0.29294 1.41481,1.08841 1.65533,1.08841 0.11652,0 -0.2712,-0.61112 -0.8616,-1.35803 -0.59041,-0.74692 -1.03593,-1.39558 -0.99004,-1.44146 0.0459,-0.0459 0.89054,0.23373 1.87703,0.62136 1.24278,0.48835 1.65391,0.7538 1.33873,0.86435 -0.38182,0.13394 -0.32253,0.2538 0.36927,0.7464 1.53642,1.09403 3.13083,1.6367 4.86763,1.65674 1.61608,0.0186 5.33969,0.73965 6.96,1.34765 0.43656,0.16382 1.27,0.61022 1.85208,0.99201 1.52419,0.9997 1.94455,1.19045 1.21929,0.55327 -0.98803,-0.86803 -0.52551,-0.88059 1.18462,-0.0322 0.86066,0.42699 2.47289,1.1877 3.58273,1.69048 1.45009,0.65693 2.15479,1.14591 2.50444,1.73782 0.26761,0.45302 0.57995,0.82368 0.69409,0.82368 0.3197,0 0.24801,-0.35365 -0.2019,-0.99598 -0.35694,-0.5096 -0.3585,-0.56501 -0.0122,-0.43212 0.67226,0.25797 1.43379,1.81496 1.28033,2.617714 -0.10463,0.54732 -0.0471,0.70035 0.22833,0.60769 0.2298,-0.0773 0.38541,-0.56264 0.41403,-1.2913 0.0798,-2.030444 0.0743,-2.009904 0.39178,-1.463234 0.16909,0.29111 0.22539,1.06051 0.13552,1.852094 -0.13936,1.22752 -0.11768,1.30609 0.23187,0.84051 0.21208,-0.28248 0.39397,-0.99685 0.4042,-1.587504 0.0146,-0.84227 0.0677,-0.95977 0.24599,-0.54475 0.12506,0.29104 0.23576,0.995504 0.24598,1.565454 0.0265,1.47725 0.36509,0.94699 0.71485,-1.119544 l 0.29937,-1.76882 0.0397,1.71979 0.0397,1.719794 0.65309,-0.74236 c 0.71017,-0.807224 0.81947,-1.744144 0.35793,-3.068124 -0.41754,-1.19774 -0.0594,-1.36434 0.42754,-0.19889 0.22214,0.53166 0.45886,0.96666 0.52603,0.96666 0.29311,0 -0.25629,-1.83594 -0.93031,-3.10885 -0.40454,-0.76399 -0.65217,-1.38907 -0.5503,-1.38907 0.10188,0 0.88466,0.89297 1.73952,1.98438 1.70132,2.1721 2.42278,2.55576 2.11456,1.12448 -0.29265,-1.35892 -0.74947,-2.07168 -2.62862,-4.10134 -3.4116,-3.68485 -7.75894,-6.91598 -12.50313,-9.29286 -2.88032,-1.44307 -3.12152,-1.53257 -2.82129,-1.04678 0.1339,0.21666 0.0393,0.25037 -0.31511,0.11235 -0.27854,-0.10846 -1.50895,-0.54583 -2.73427,-0.97194 -2.41491,-0.83978 -3.07872,-1.21331 -1.60862,-0.90516 1.78836,0.37485 0.56176,-0.16785 -2.15242,-0.95234 -2.68726,-0.7767 -8.19169,-1.84422 -9.3171,-1.80694 -0.31296,0.0104 0.17927,0.2328 1.09385,0.4943 1.88194,0.53808 2.53711,0.96954 1.06974,0.70446 -0.57548,-0.10396 -1.04026,-0.0643 -1.14009,0.0972 -0.0999,0.16163 -1.40779,0.2727 -3.21125,0.2727 -1.9611,0 -2.98458,-0.0941 -2.87919,-0.26458 0.0899,-0.14552 0.96017,-0.2791 1.93385,-0.29685 l 1.77032,-0.0323 -1.5875,-0.24779 c -0.87313,-0.13629 -2.30188,-0.18714 -3.175,-0.11302 -1.62253,0.13775 -6.728848,1.36548 -7.065888,1.69887 -0.1027,0.10159 1.18277,0.14123 2.85659,0.0881 3.307408,-0.10499 5.929088,0.12029 5.929088,0.50949 0,0.13505 -0.33373,0.24555 -0.74162,0.24555 -0.90001,0 -7.015668,1.38575 -9.500158,2.15264 -0.98822,0.30504 -2.74043,1.02889 -3.8938,1.60858 -2.31383,1.16292 -7.64729,4.44202 -7.48649,4.60282 0.056,0.056 0.8064,-0.1842 1.66764,-0.53369 1.67864,-0.6812 4.61607,-1.34557 5.15498,-1.16593 0.18067,0.0602 -0.67203,0.38158 -1.89488,0.71412 -1.22286,0.33255 -3.01762,0.93602 -3.98836,1.34105 -2.04857,0.85475 -5.34027,2.65189 -5.16971,2.82246 0.0642,0.0642 1.62219,-0.53253 3.4622,-1.32605 1.84002,-0.79352 3.28878,-1.35102 3.21948,-1.2389 -0.0693,0.11213 -1.529,1.14011 -3.24378,2.2844 -3.44306,2.29757 -7.67649,6.19453 -9.46697,8.714544 -1.37134,1.93009 -3.09714,4.63021 -2.95943,4.63021 0.28388,0 4.34787,-3.80526 5.71899,-5.3549 0.86769,-0.980664 1.63795,-1.685404 1.71169,-1.566094 0.22607,0.36579 -4.16093,6.656414 -4.6421,6.656414 -0.35988,0 -1.37297,1.18527 -2.71378,3.175 -1.28182,1.90219 -4.53362,8.05612 -4.12277,7.80219 0.37877,-0.23409 0.33979,-0.0371 -0.53029,2.67907 -0.95214,2.97239 -1.91665,8.16104 -1.80337,9.70133 0.0781,1.06145 0.13086,0.97019 1.07315,-1.8553 1.12536,-3.3744 1.10337,-3.2685 0.66032,-3.17989 -0.19813,0.0396 -0.29465,-0.14602 -0.24074,-0.46302 0.1603,-0.94258 2.8818,-7.37698 3.96281,-9.36922 1.03079,-1.89968 1.05443,-1.92157 1.2269,-1.1363 0.13312,0.60611 -0.0204,1.1895 -0.63171,2.4005 -1.6812,3.33044 -3.27169,9.62049 -3.58817,14.19043 -0.17354,2.50598 0.17944,2.69761 0.49531,0.2689 0.34713,-2.66914 1.58865,-7.23312 2.80815,-10.32306 0.68918,-1.74625 1.58515,-4.18704 1.99105,-5.42396 0.81108,-2.47168 2.1679,-5.58546 3.20839,-7.36296 0.68682,-1.17332 1.17131,-1.37806 0.63058,-0.26648 -0.29229,0.60086 -0.28872,0.60332 0.12897,0.0888 0.23627,-0.29104 0.53156,-0.70676 0.65621,-0.92383 0.12464,-0.21707 0.28392,-0.33613 0.35395,-0.26459 0.20714,0.21163 -1.78742,5.2879 -3.37639,8.59312 -0.81056,1.68605 -1.47375,3.17932 -1.47375,3.31839 0,0.42721 2.12833,-0.55352 4.63021,-2.1336 2.85496,-1.80306 4.97485,-2.90094 5.60143,-2.90094 0.25281,0 -0.36831,0.51378 -1.38026,1.14174 -4.85975,3.01566 -8.00632,5.2051 -8.82422,6.14005 -2.74318,3.13573 -4.78211,11.98254 -4.00804,17.3906 0.18225,1.27331 0.4344,2.3151 0.56032,2.3151 0.12592,0 0.16374,-0.16994 0.084,-0.37765 -0.24307,-0.63342 0.40822,-6.22342 1.01951,-8.75047 0.76651,-3.16873 4.41697,-10.51708 5.84938,-11.77475 0.54083,-0.47486 1.05172,-0.79498 1.13531,-0.71139 0.0836,0.0836 -0.26415,0.84358 -0.77277,1.68886 -1.53552,2.5519 -2.27455,4.18586 -2.81213,6.21753 -0.85877,3.24555 -0.90141,4.60347 -0.28254,8.99758 0.31363,2.22686 0.6006,4.07997 0.6377,4.11802 0.17107,0.17546 1.01106,-5.77353 1.34023,-9.49175 0.20114,-2.272 0.54159,-4.53418 0.75657,-5.02708 0.36368,-0.83388 0.39318,-0.8502 0.42439,-0.23473 0.0293,0.5786 0.11341,0.51231 0.67109,-0.52916 0.62229,-1.16215 0.6377,-1.17164 0.64426,-0.39688 0.004,0.43657 -0.0995,1.56766 -0.22925,2.51354 -0.12979,0.94589 -0.31748,2.99971 -0.4171,4.56406 -0.0996,1.56435 -0.28839,2.84427 -0.41949,2.84427 -0.1311,0 -0.40759,-0.38695 -0.61442,-0.85989 -0.37576,-0.85924 -0.37606,-0.85858 -0.3935,0.85989 -0.0181,1.78016 0.52121,4.62151 0.96051,5.06081 0.20941,0.20941 1.22063,-3.50821 2.38412,-8.76497 0.10418,-0.47067 0.24285,-0.0891 0.48077,1.32291 0.37186,2.20695 0.79541,3.49992 1.78837,5.45943 1.10296,2.1766 1.56452,2.27471 0.83539,0.17758 -1.17428,-3.37744 -1.12045,-6.8384 0.15956,-10.25954 0.51831,-1.38531 2.02595,-3.7386 2.25098,-3.51358 0.0634,0.0633 -0.36875,1.14789 -0.96023,2.41007 -1.08488,2.31509 -1.83058,5.07873 -1.83058,6.78438 0,1.44886 0.70208,4.40248 1.41839,5.96711 0.58463,1.27699 2.86826,4.08705 3.32139,4.08705 0.0983,0 0.0272,-0.8632 -0.15799,-1.91822 z m -6.97222,-24.12462 c 0,-0.0728 0.23812,-0.25973 0.52916,-0.41549 0.29105,-0.15576 0.52917,-0.22367 0.52917,-0.15091 0,0.0728 -0.23812,0.25973 -0.52917,0.41549 -0.29104,0.15576 -0.52916,0.22367 -0.52916,0.15091 z m -1.72244,-2.26482 c 0.4168,-0.43504 0.81658,-0.73223 0.88839,-0.66041 0.17464,0.17463 -1.03778,1.4514 -1.37824,1.4514 -0.14738,0 0.073,-0.35594 0.48985,-0.79099 z m -1.8517,-1.06109 c 0.34884,-1.21762 1.53979,-3.02913 3.00058,-4.56406 1.60784,-1.68946 2.49487,-2.11555 1.03105,-0.49527 -0.50986,0.56434 -1.55197,1.96332 -2.31582,3.10885 -1.67032,2.50493 -1.97335,2.8494 -1.71581,1.95048 z m 3.83862,-1.65365 c 0.60766,-1.35795 1.66523,-2.72559 2.42,-3.12954 0.65069,-0.34823 0.68987,-0.42585 -1.17924,2.33579 -1.45088,2.1437 -2.00286,2.49681 -1.24076,0.79375 z m 2.91052,-0.97555 c 0,-0.60918 3.7075,-2.48274 4.11218,-2.07807 0.1118,0.11181 -2.86287,1.85797 -3.64916,2.1421 -0.25466,0.092 -0.46302,0.0632 -0.46302,-0.064 z m -0.55951,-4.30793 c 0.25453,-0.68806 1.5258,-1.70977 1.79386,-1.44171 0.19121,0.1912 -1.44541,2.02884 -1.8069,2.02884 -0.11228,0 -0.10641,-0.26421 0.013,-0.58713 z m 0.97788,-2.31833 c 0.14279,-0.14279 0.67262,-0.32859 1.1774,-0.41289 l 0.91777,-0.15327 -0.66146,0.40352 c -0.74717,0.4558 -1.85224,0.58117 -1.43371,0.16264 z m -3.75532,-3.022924 c 0.56577,-0.51572 1.72208,-1.27855 2.56956,-1.69519 1.09942,-0.54049 1.45935,-0.83905 1.25631,-1.04209 -0.20304,-0.20304 0.13098,-0.33649 1.16584,-0.46579 2.41523,-0.30176 2.6076,-0.0425 0.54022,0.72793 -1.04833,0.3907 -2.83427,1.26797 -3.96875,1.9495 -2.67181,1.605064 -2.79155,1.645324 -1.56318,0.52564 z m 54.009738,-5.09585 c -0.57929,-0.20857 -1.62043,-0.41968 -2.31363,-0.46915 -0.85407,-0.061 -2.04982,-0.4939 -3.70925,-1.34303 -3.89469,-1.99291 -6.6041,-4.04054 -3.45971,-2.61466 0.84701,0.38409 1.86418,0.72415 2.26039,0.7557 0.44003,0.035 1.23361,0.53742 2.03918,1.29094 1.25712,1.17589 2.36409,1.75008 1.60076,0.83032 -0.60657,-0.73087 -0.0711,-0.70114 1.49989,0.0833 0.85147,0.42515 1.84578,0.84449 2.20958,0.93188 0.82055,0.1971 1.91203,0.96965 1.32292,0.93636 -0.21828,-0.0123 -0.87084,-0.19307 -1.45013,-0.40164 z m -12.35405,-3.97759 c -0.48411,-0.39288 -0.92981,-0.75007 -0.99044,-0.79375 -0.0606,-0.0437 -0.0419,-0.14774 0.0416,-0.23123 0.21525,-0.21526 1.56332,0.5228 2.16084,1.18304 0.76967,0.85049 -0.11069,0.73567 -1.21196,-0.15806 z m -5.49624,-0.23702 c -1.61332,-0.43365 -1.96878,-0.63616 -1.1166,-0.63616 0.69387,0 0.72907,-0.22031 0.11024,-0.68991 -0.40331,-0.30607 -0.35867,-0.32261 0.34619,-0.12832 1.09586,0.30206 2.33054,0.959 2.74819,1.46224 0.29154,0.35128 0.26848,0.41167 -0.15156,0.39691 -0.27248,-0.01 -1.14388,-0.19172 -1.93646,-0.40476 z m 2.23479,-2.51276 c -1.85193,-0.91386 -2.37584,-1.26444 -1.74604,-1.16836 1.07144,0.16345 2.76318,0.98322 3.86271,1.87174 1.04607,0.84532 0.97152,0.82054 -2.11667,-0.70338 z m -5.08157,-0.85551 c -0.46653,-0.17083 -1.00231,-0.47281 -1.19062,-0.67107 -0.28612,-0.30122 -0.23369,-0.32757 0.31906,-0.1603 0.66863,0.20233 1.85209,0.89267 1.85209,1.08036 0,0.056 -0.0298,0.0928 -0.0661,0.0817 -0.0364,-0.0111 -0.44785,-0.15989 -0.91438,-0.33072 z m -3.3851,-0.68802 c -0.87312,-0.42495 -1.37057,-0.78176 -1.10545,-0.79292 0.44235,-0.0186 2.82524,1.21284 2.82524,1.46006 0,0.16645 -0.0348,0.15294 -1.71979,-0.66714 z m -11.045268,-1.18635 c 0.7494,-0.42288 4.825588,-0.49372 6.110228,-0.10618 1.07319,0.32375 0.8913,0.3477 -2.7109,0.35694 -2.667158,0.007 -3.718408,-0.0707 -3.399328,-0.25076 z m 21.702218,-2.50015 c -2.35102,-1.1327 -3.55494,-1.88921 -3.00652,-1.88921 0.47787,0 5.71103,2.66911 5.71103,2.91284 0,0.14419 -0.0298,0.2517 -0.0661,0.2389 -0.0364,-0.0128 -1.22365,-0.58093 -2.63837,-1.26253 z m -16.61007,0.49204 c 0.3638,-0.11651 1.3163,-0.21183 2.11666,-0.21183 0.80037,0 1.75287,0.0953 2.11667,0.21183 0.42031,0.13461 -0.35137,0.21184 -2.11667,0.21184 -1.76529,0 -2.53697,-0.0772 -2.11666,-0.21184 z m 9.12812,-2.09935 c -0.29104,-0.11756 -1.39195,-0.35882 -2.44646,-0.53615 -2.22621,-0.37436 -2.84016,-0.80459 -0.74182,-0.51984 1.52787,0.20734 4.37891,0.97455 4.37891,1.17836 0,0.18283 -0.58347,0.12286 -1.19063,-0.12237 z m 7.27605,58.152654 c 0,-0.16664 -0.40918,-1.1489 -0.90928,-2.18282 -0.63848,-1.31999 -1.40552,-2.35263 -2.57554,-3.46734 -0.91644,-0.87313 -1.3538,-1.23032 -0.97191,-0.79375 0.89296,1.0208 1.70348,2.64639 2.09526,4.20227 0.39484,1.56805 0.7686,1.80842 0.79256,0.5097 0.0148,-0.80479 0.0644,-0.90121 0.24599,-0.47864 0.12507,0.29104 0.23576,0.83278 0.24599,1.20385 0.0254,0.91964 1.07693,1.90267 1.07693,1.00673 z m 0.42817,-0.93042 c -0.47153,-0.8701 -0.54935,-0.70728 -0.15619,0.32681 0.1496,0.39346 0.33751,0.64986 0.41758,0.56978 0.0801,-0.0801 -0.0375,-0.48354 -0.26139,-0.89659 z m 5.89316,0.19047 c -0.72669,-0.60518 -1.12271,-0.69297 -0.96467,-0.21386 0.11803,0.35786 1.30079,1.03751 1.48498,0.85332 0.0619,-0.0619 -0.17227,-0.34963 -0.52031,-0.63946 z m -2.61717,-0.64448 c 0,-0.34599 -0.20088,-0.79247 -0.44641,-0.99219 -0.39297,-0.31966 -0.42465,-0.30511 -0.26458,0.12153 0.1,0.26657 0.18183,0.71305 0.18183,0.99219 0,0.27914 0.11906,0.50753 0.26458,0.50753 0.14552,0 0.26458,-0.28308 0.26458,-0.62906 z m -1.71165,-0.70703 c 0.0944,-0.15276 -0.10692,-0.61719 -0.4474,-1.03206 -2.66395,-3.24593 -4.28715,-5.04019 -4.55966,-5.04019 -0.17668,0 -0.73154,-0.43125 -1.23303,-0.95835 -1.04452,-1.09784 -2.68013,-1.93778 -3.78992,-1.94625 -0.67202,-0.005 -0.49796,0.18161 1.48212,1.59008 2.71538,1.93149 4.69721,3.80324 6.36437,6.01088 1.19755,1.5858 1.8138,1.97411 2.18352,1.37589 z m -5.83363,-2.06513 c -0.81683,-1.50079 -2.37544,-3.19186 -5.09543,-5.52847 -3.15694,-2.71199 -3.04819,-2.17246 0.43142,2.14022 1.69223,2.09739 5.15171,5.34036 5.2815,4.95098 0.0487,-0.14606 -0.22918,-0.84929 -0.61749,-1.56273 z M 67.178402,132.1535 c 0,-0.35278 -0.0285,-0.35278 -0.25648,0 -0.14106,0.21828 -0.25648,0.57547 -0.25648,0.79375 0,0.35278 0.0285,0.35278 0.25648,0 0.14107,-0.21828 0.25648,-0.57547 0.25648,-0.79375 z m 35.807968,-2.81514 c 0.0931,-0.0931 -0.2008,-0.63661 -0.65316,-1.20775 -0.49685,-0.62733 -0.7267,-1.1342 -0.58057,-1.28033 0.13303,-0.13303 1.19094,-0.36964 2.35089,-0.52579 4.15798,-0.55974 5.56625,-0.81625 5.9513,-1.084 0.28026,-0.19489 0.0162,-0.23037 -0.93186,-0.12523 -0.72761,0.0807 -2.63261,0.21226 -4.23334,0.29239 l -2.91041,0.1457 2.77812,-1.07343 c 2.51087,-0.97017 2.65421,-1.06002 1.48999,-0.93403 -0.70847,0.0767 -1.95862,0.42796 -2.77812,0.78063 -0.8195,0.35268 -1.80236,0.7087 -2.18414,0.79116 -0.38178,0.0825 -0.95726,0.36299 -1.27883,0.62338 l -0.58469,0.47345 1.21214,1.64658 c 1.11073,1.50882 1.85426,1.97569 2.35268,1.47727 z m 50.43278,-2.88069 c 3.78674,-4.10814 4.27341,-12.12216 1.0602,-17.45845 -1.08981,-1.80988 -3.58933,-4.19515 -5.55661,-5.30262 l -1.43519,-0.80794 -0.0388,1.23955 c -0.0776,2.47761 -0.31029,2.71447 -6.17875,6.28983 l -0.66134,0.40292 0.79363,0.21849 c 0.9374,0.25806 3.87631,2.32894 3.30374,2.32795 -0.2164,-3.8e-4 -1.04829,-0.39549 -1.84866,-0.87803 -1.99083,-1.20028 -2.58695,-1.32268 -3.38492,-0.69499 -0.36036,0.28345 -0.84749,0.51404 -1.08253,0.51243 -0.7496,-0.005 3.55611,-3.26894 5.94567,-4.5069 1.36607,-0.70773 1.74841,-1.05446 2.08196,-1.88807 0.72009,-1.79968 0.55331,-2.73172 -0.7159,-4.00083 -1.40629,-1.40617 -3.99298,-2.992094 -5.26688,-3.229164 -0.79292,-0.14756 -1.07324,-0.0742 -1.5543,0.40688 -0.50592,0.50592 -0.56493,0.77258 -0.42758,1.932264 0.1353,1.14235 0.0739,1.4363 -0.40694,1.94812 -0.46371,0.4936 -0.63816,0.54347 -0.96316,0.27535 -0.3246,-0.26779 -0.37147,-0.25514 -0.25732,0.0695 0.0768,0.21828 0.0531,0.57547 -0.0527,0.79375 -0.10573,0.21828 -0.27793,0.75406 -0.38266,1.19063 l -0.19043,0.79375 0.68195,-0.64046 c 1.23044,-1.15556 0.99573,-0.38824 -0.38765,1.26736 -0.74545,0.89213 -1.42123,1.62205 -1.50173,1.62205 -0.31192,0 -0.84974,-0.955 -0.85775,-1.5231 -0.005,-0.32838 0.28924,-0.85587 0.65304,-1.17219 0.76089,-0.66159 0.80843,-0.89971 0.28424,-1.42389 -0.50216,-0.50216 -1.27263,-0.19825 -1.07511,0.42408 0.083,0.26157 0.0253,0.5532 -0.12819,0.64808 -0.15352,0.0949 -0.5307,0.66563 -0.83817,1.26834 l -0.55905,1.09582 0.55546,0.36881 c 0.52936,0.35148 0.53558,0.40795 0.13231,1.20133 -0.55619,1.09423 -0.48694,1.05498 -1.1931,0.67622 -0.39024,-0.20931 -1.98298,-0.35613 -4.32214,-0.39842 -6.91115,-0.12495 -9.47011,-0.36168 -9.99833,-0.92493 -0.73701,-0.78591 -2.92537,-0.70196 -3.77203,0.1447 -0.70443,0.70443 -0.87516,2.01958 -0.3187,2.45496 0.63126,0.49391 1.56947,0.55933 2.63417,0.18368 1.36742,-0.48245 2.28808,-0.47736 3.47658,0.0192 0.53557,0.22378 1.75301,0.39688 2.79129,0.39688 2.33021,0 5.38529,0.41367 8.08216,1.09435 2.57346,0.64954 3.85174,0.826 3.85174,0.53171 0,-0.31049 -1.68614,-1.01641 -3.56322,-1.49179 -0.86837,-0.21992 -3.24962,-0.52879 -5.29167,-0.68638 -2.04205,-0.1576 -4.57686,-0.44945 -5.63291,-0.64857 -1.66744,-0.3144 -2.0678,-0.30989 -3.04271,0.0343 -1.1145,0.39346 -2.14004,0.31659 -2.77187,-0.20779 -0.53295,-0.44231 -0.10778,-0.74812 0.59497,-0.42793 0.4727,0.21538 1.11754,0.21658 2.39766,0.004 1.46146,-0.24217 2.76413,-0.18295 7.87675,0.3581 7.21149,0.76316 7.59785,0.84357 10.77848,2.24323 1.34197,0.59054 3.82064,1.43538 5.50817,1.87742 4.40608,1.15416 5.85372,1.92567 8.35989,4.45535 l 2.11667,2.13651 -0.0436,2.17654 c -0.024,1.1971 -0.17245,2.51077 -0.32993,2.91926 -0.15749,0.4085 -0.17728,0.67532 -0.044,0.59294 0.36708,-0.22687 0.81436,-2.62323 0.81436,-4.36308 0,-1.58883 0.19222,-1.86737 1.28861,-1.86737 0.24837,0 0.90072,-0.22899 1.44967,-0.50885 1.21509,-0.61949 1.40926,-0.34758 0.95763,1.34101 -0.74836,2.79802 -2.97959,6.05534 -4.78865,6.99084 -0.41764,0.21597 -0.75934,0.51868 -0.75934,0.67269 0,0.38218 1.77018,-1.04916 3.15347,-2.54985 z m -4.29945,-9.03011 c -0.21518,-0.4137 -0.70021,-1.04084 -1.07784,-1.39362 -0.37763,-0.35279 -0.6866,-0.7605 -0.6866,-0.90602 0,-0.3908 1.27242,0.87412 1.89878,1.88758 0.29856,0.48308 0.4785,0.94266 0.39987,1.02129 -0.0786,0.0786 -0.31902,-0.19552 -0.53421,-0.60923 z m 0.38826,-1.44039 c -0.0198,-0.23299 -0.34157,-0.99824 -0.715,-1.70057 -0.45215,-0.85039 -0.53471,-1.15724 -0.24714,-0.91857 0.66234,0.54969 1.23557,1.8223 1.11049,2.46535 -0.0622,0.31988 -0.12839,0.38847 -0.14835,0.15379 z m -34.37251,-6.36905 c 0.13527,-0.4058 1.25948,-0.48226 1.27179,-0.0865 0.005,0.14552 -0.30611,0.30351 -0.6903,0.35109 -0.48798,0.0604 -0.66324,-0.0193 -0.58149,-0.26459 z m 20.97154,-0.79865 c -0.25659,-0.66166 -0.0448,-1.40452 0.40035,-1.40452 0.53885,0 0.62235,0.69815 0.15884,1.32804 -0.35011,0.47577 -0.40161,0.48282 -0.55919,0.0765 z m 3.6415,-1.27477 c -0.94528,-0.38901 -0.7058,-0.95747 0.90447,-2.14705 1.70059,-1.2563 2.73355,-1.535 2.73355,-0.73753 0,0.32436 0.18427,0.50587 0.51355,0.50587 0.28246,0 0.59036,0.12428 0.68424,0.27618 0.24097,0.3899 -0.37168,1.04674 -0.97632,1.04674 -0.27911,0 -0.83008,0.23251 -1.22437,0.51669 -0.90885,0.65504 -1.87371,0.85243 -2.63512,0.5391 z m 9.83365,13.00286 c 0.20423,-0.33046 -2.94127,-3.26364 -4.34355,-4.05036 -0.85635,-0.48043 -1.63509,-0.68105 -2.77374,-0.71458 -0.87071,-0.0256 -2.64249,-0.29532 -3.93728,-0.59931 -1.35399,-0.31787 -2.78492,-0.49491 -3.36804,-0.4167 -0.55764,0.0748 -2.00055,-0.0872 -3.20647,-0.35989 -2.94845,-0.66684 -3.07981,-0.6162 -0.73738,0.28427 1.0914,0.41956 2.42645,0.76979 2.96677,0.77829 0.54031,0.009 1.55234,0.23729 2.24895,0.50841 0.69661,0.27112 1.74282,0.57774 2.3249,0.68137 0.58209,0.10363 1.83073,0.61781 2.77476,1.14261 0.94403,0.5248 2.36779,1.15572 3.16392,1.40205 1.60348,0.49612 2.07545,1.04459 0.89639,1.04167 -0.9242,-0.002 -4.67146,-0.87928 -6.91811,-1.6191 -0.91881,-0.30256 -1.72333,-0.49733 -1.78784,-0.43282 -0.12988,0.12988 5.22788,1.90725 6.89797,2.28831 1.37506,0.31374 5.61577,0.36185 5.79875,0.0658 z m -27.42977,-17.29637 c 1.19981,-0.32931 2.18208,-0.70155 2.18281,-0.82721 0.002,-0.26272 -0.7777,-0.12813 -3.09193,0.53405 -1.40412,0.40176 -1.89006,0.42553 -3.40258,0.16645 -2.04508,-0.35031 -2.80626,-0.92903 -3.4545,-2.62642 -0.50377,-1.319094 -0.37922,-3.055884 0.27063,-3.773964 0.56195,-0.62095 0.52808,-0.79743 -0.12047,-0.62783 -1.42522,0.3727 -1.70536,2.95187 -0.54109,4.981684 0.95619,1.66702 1.32932,1.97716 2.88156,2.39504 1.81799,0.48944 2.84087,0.44643 5.27557,-0.2218 z m -1.84027,-1.16512 c 0.67251,-0.18015 1.45142,-1.71405 1.20134,-2.365764 -0.12195,-0.31778 -0.30945,-0.2214 -0.86582,0.445034 -0.53553,0.64148 -0.91343,0.84488 -1.53679,0.82715 -1.39979,-0.0398 -1.83167,-0.46633 -2.53558,-2.504204 -0.365,-1.05669 -0.67303,-1.69251 -0.68452,-1.41292 -0.0115,0.27958 -0.21118,0.7186 -0.44375,0.97559 -0.34992,0.38666 -0.37142,0.62317 -0.12462,1.37099 0.64373,1.950534 2.98571,3.200964 4.98974,2.664124 z m -1.53184,-3.931544 c 0.23448,-0.28253 0.24864,-0.49416 0.0491,-0.73454 -0.32361,-0.38993 -2.14302,-1.09623 -2.33341,-0.90584 -0.0704,0.0704 0.0515,0.55757 0.2709,1.08262 0.30288,0.72491 0.5535,0.95464 1.04143,0.95464 0.35341,0 0.79078,-0.1786 0.97194,-0.39688 z m 7.27604,-1.19062 c -0.26339,-0.29104 -0.59269,-0.52917 -0.73177,-0.52917 -0.13909,0 0.0282,0.23416 0.37173,0.52036 0.80853,0.67357 0.96511,0.6774 0.36004,0.009 z M 79.646652,85.348976 c 1.81501,-0.63747 4.54023,-1.89998 4.40126,-2.03895 -0.17599,-0.17599 -2.87683,0.82996 -4.56249,1.69934 -1.84843,0.95333 -1.81095,1.03229 0.16123,0.33961 z"
       id="path1" /><path
       id="path1-5"
       style="fill:#000000;fill-opacity:0;stroke:#ff0000;stroke-width:0.2;stroke-dasharray:none;stroke-opacity:1"
       d="m 99.428336,75.293686 c -0.677265,-0.0578 -1.073972,0.61962 -1.620783,0.79039 -3.852066,0.43578 -7.778013,0.66803 -11.497462,1.8255 -0.878689,0.3501 -1.682227,1.36282 -1.284098,2.33528 -4.699893,1.59174 -9.237478,3.72582 -13.447266,6.36328 -1.116959,0.80881 -2.315327,1.69885 -2.925781,2.96094 -0.126062,0.45377 0.122923,0.9639 0.542969,1.16601 -0.907967,0.60837 -0.997261,2.08341 -0.07031,2.71289 -2.342702,1.43062 -4.559589,3.05086 -6.833984,4.58594 1.141677,-0.0638 2.284058,-0.11347 3.423828,-0.20312 -0.241751,1.12525 0.890768,2.234334 2.014995,1.92129 0.462109,-0.0409 -0.528365,0.807384 -0.613922,1.103784 -1.741111,2.51019 -3.49736,5.02701 -4.974522,7.69969 -0.26161,0.72472 -0.07294,1.64405 0.577355,2.10336 -1.459786,2.89118 -3.15342,5.66413 -4.647062,8.53149 -0.288414,0.84384 0.02759,2.02488 0.955656,2.30835 -0.806458,3.25916 -0.925545,6.63553 -1.513672,9.92969 -0.582323,2.28461 -1.878821,4.35329 -2.234375,6.69531 0.0062,1.1002 1.287291,1.74116 2.238281,1.42774 -0.566319,1.47786 -1.312639,2.94547 -1.527344,4.51758 0.0747,0.67792 0.616316,1.26302 1.275391,1.41797 -0.412554,1.63404 -0.835764,3.49865 -0.05091,5.08426 0.341309,0.68692 1.142442,1.12836 1.810673,1.19308 -0.147419,1.07352 0.139343,2.59142 1.410156,2.80273 0.554742,0.10408 1.154417,-0.12036 1.546875,-0.46093 0.18632,0.53657 0.606424,1.00093 1.15625,1.17187 -0.261822,1.71644 -0.369883,3.85951 1.115234,5.07813 0.410944,0.17066 0.52495,0.44566 0.453125,0.8789 -0.02437,1.75101 0.403607,3.51821 1.402344,4.97071 0.499676,0.96823 1.252537,1.89683 2.337891,2.21289 0.714908,1.52857 1.809561,2.92347 3.173828,3.9375 0.891656,0.57614 1.936293,1.23791 3.037109,1.05859 1.228041,-0.35114 1.604688,-1.95436 0.965412,-2.9701 -0.549661,-1.60016 -1.220645,-3.15699 -1.963459,-4.67638 0.857154,-0.57985 1.260906,-1.62369 1.367188,-2.61915 1.295123,1.24418 2.903785,2.39143 4.734375,2.5625 1.166944,-0.0565 2.120695,-1.11516 2.201172,-2.25585 1.749127,2.19832 4.182701,4.02431 6.99414,4.53711 0.963253,0.17076 2.208442,0.25643 2.771485,-0.73047 0.465653,-0.83643 0.617062,-1.80412 1.119603,-2.62702 0.385512,-0.76337 0.581846,-1.6247 0.901935,-2.39521 1.28995,-1.21925 2.392311,-2.63036 3.185493,-4.21996 0.598057,0.45929 1.467717,0.53868 2.132813,0.31836 0.331925,2.64667 0.995648,5.49571 2.986328,7.41015 0.63684,0.45304 1.4913,0.55239 2.22461,0.29493 -0.12729,0.81949 -0.59865,1.97183 0.3125,2.5039 1.01404,0.48154 1.96322,-0.45971 2.90454,-0.71832 3.44226,-1.42192 6.90495,-3.46377 8.72316,-6.84812 0.20146,-0.23727 0.46141,-1.22904 0.57629,-0.88709 0.34391,2.31188 0.39775,4.80928 1.6378,6.85978 0.8982,1.10572 2.82886,0.95714 3.50177,-0.31838 1.76277,-2.17956 1.7931,-5.12357 1.83063,-7.78772 0.0978,-0.35856 -0.13092,-1.52966 0.19627,-1.35276 0.59293,0.56848 1.55811,0.76957 2.28188,0.33386 0.75724,1.27051 1.16446,2.73576 1.04687,4.2168 -0.019,1.25212 0.48251,2.78063 1.85515,3.09028 1.60325,0.44318 3.08578,-1.06355 3.22934,-2.59074 0.51259,-1.92653 0.69204,-3.92995 0.64598,-5.91946 0.31492,-0.19665 0.48517,-0.82178 0.76772,-0.22272 0.59829,0.666 1.62488,1.17587 2.45299,0.59381 0.4423,-0.0913 0.84882,0.0137 1.12695,-0.48633 0.71822,-0.88127 0.41284,-2.11009 -0.10562,-3.00443 -0.21109,-0.89277 -0.65706,-1.69405 -1.35175,-2.29992 -1.55073,-1.74611 -3.27602,-3.45681 -4.63638,-5.30112 0.79061,-0.91354 0.14739,-2.28054 -0.75572,-2.85468 -0.65289,-0.62092 -1.56447,-1.02545 -1.87609,-1.91523 -1.44154,-1.97485 -3.25637,-3.64426 -4.78616,-5.5504 0.26024,-1.38582 -0.98326,-2.38699 -1.46023,-3.57161 -0.50432,-0.99647 -0.88277,-2.06318 -1.05539,-3.16862 0.74701,-1.00622 1.47375,-2.03297 2.11718,-3.10742 1.23362,0.17848 1.93902,-1.08838 2.39844,-2.03125 0.21013,-0.54169 0.86302,-0.30678 1.2793,-0.58008 0.4135,-0.13762 0.87288,-0.0723 1.25195,-0.32617 1.1004,0.58813 2.2455,-0.27558 2.99116,-1.05002 0.33793,-0.45239 1.01291,-0.0298 1.40532,-0.45194 0.47785,-0.15129 0.63463,-0.83545 1.20118,-0.69922 0.4912,-0.001 0.72418,-0.71859 1.20367,-0.38142 4.32638,1.36267 8.72623,3.17192 13.35687,2.7408 0.41035,0.076 1.05946,-0.37449 0.85184,0.34682 -0.0464,2.20059 -1.20544,4.29201 -2.1702,6.28794 -0.39522,1.07207 0.48184,2.39279 1.66641,2.26448 1.72385,-0.04 3.2264,-1.11341 4.51902,-2.15462 2.96942,-2.5041 4.93824,-6.12883 5.41562,-9.98383 0.58601,-4.35735 -0.35255,-8.97944 -2.83536,-12.63289 -1.95195,-2.82169 -4.81419,-4.84237 -7.79608,-6.45391 -0.93722,-0.61923 -2.03396,-1.191844 -2.65524,-2.132424 -0.29318,-1.94881 -1.26982,-3.75994 -2.50577,-5.27204 -0.60006,-0.64109 -1.3738,-1.2921 -2.23472,-1.43292 -0.28676,0.0367 -0.37317,-0.53635 -0.66392,-0.66136 -1.08616,-1.14965 -2.22093,-2.37523 -3.68339,-3.01705 -0.46793,0.0246 -0.81109,-0.0129 -1.10298,-0.43167 -8.14276,-6.99854 -18.65568,-10.79404 -29.23761,-11.97071 -2.22077,-0.24071 -4.45088,-0.43995 -6.686754,-0.41988 z"
       sodipodi:nodetypes="ccccccccccccccccccccccccccccccccccccccccccccccccccccccccccccccccccccccccccccccccccccccccccccc" /></g></svg>
