<?xml version="1.0" encoding="UTF-8" standalone="no"?>
<!-- Created with Inkscape (http://www.inkscape.org/) -->

<svg
   width="210mm"
   height="297mm"
   viewBox="0 0 210 297"
   version="1.1"
   id="svg1"
   xml:space="preserve"
   inkscape:version="1.3.2 (091e20e, 2023-11-25, custom)"
   sodipodi:docname="fish.svg"
   xmlns:inkscape="http://www.inkscape.org/namespaces/inkscape"
   xmlns:sodipodi="http://sodipodi.sourceforge.net/DTD/sodipodi-0.dtd"
   xmlns="http://www.w3.org/2000/svg"
   xmlns:svg="http://www.w3.org/2000/svg"><sodipodi:namedview
     id="namedview1"
     pagecolor="#ffffff"
     bordercolor="#000000"
     borderopacity="0.25"
     inkscape:showpageshadow="2"
     inkscape:pageopacity="0.0"
     inkscape:pagecheckerboard="0"
     inkscape:deskcolor="#d1d1d1"
     inkscape:document-units="mm"
     inkscape:zoom="0.36569515"
     inkscape:cx="-54.690362"
     inkscape:cy="540.06733"
     inkscape:window-width="1920"
     inkscape:window-height="1017"
     inkscape:window-x="-8"
     inkscape:window-y="-8"
     inkscape:window-maximized="1"
     inkscape:current-layer="layer1" /><defs
     id="defs1" /><g
     inkscape:label="Calque 1"
     inkscape:groupmode="layer"
     id="layer1"><path
       style="fill:#000000"
       d="m 61.436051,226.03204 c -2.78634,-4.3936 -4.20444,-10.79547 -3.87918,-17.5121 0.12887,-2.6611 0.0925,-3.92633 -0.12459,-4.33193 -0.16865,-0.31512 -1.87716,-2.13592 -3.7967,-4.04623 -4.97117,-4.94727 -8.93422,-10.83273 -9.34212,-13.8738 l -0.14859,-1.10785 1.25592,-0.55555 c 1.79562,-0.79429 6.70617,-1.9846 9.76951,-2.36812 3.24988,-0.40687 7.09046,-0.2054 12.59203,0.66054 6.45263,1.01565 9.78815,1.28743 13.858461,1.1292 4.12272,-0.16026 6.01867,-0.56213 8.63112,-1.82948 4.21486,-2.0447 7.74947,-7.47487 9.31959,-14.31755 0.824908,-3.59504 0.826898,-9.32943 0.004,-12.16795 -1.75828,-6.06658 -5.56703,-10.5967 -12.98222,-15.44103 -2.19207,-1.43207 -5.73049,-3.67533 -7.86314,-4.98502 -5.027231,-3.08728 -6.991861,-4.70852 -7.890061,-6.51098 -0.3832,-0.76897 -0.69672,-1.84492 -0.69672,-2.391 0,-0.95667 -0.0603,-1.02187 -1.65365,-1.78844 -1.04325,-0.50192 -2.33728,-1.46762 -3.50573,-2.61625 -1.82462,-1.79367 -1.88935,-1.82973 -4.36562,-2.43207 -6.20824,-1.51013 -12.20565,-4.23916 -16.31459,-7.4237 -1.28619,-0.99683 -3.17197,-2.37294 -4.19062,-3.058 -2.0667,-1.38991 -5.76432,-4.37252 -6.68633,-5.39339 -0.3305,-0.36593 -0.90736,-1.17135 -1.28191,-1.78982 -0.37455,-0.61846 -0.76117,-1.12448 -0.85915,-1.12448 -0.098,0 -0.77127,-0.49059 -1.49621,-1.090195 -0.72494,-0.59961 -1.97291,-1.3793 -2.77328,-1.73264 -2.97719,-1.31437 -4.98263,-4.29965 -5.23227,-7.78875 -0.16206,-2.26504 0.45244,-4.35175 2.62231,-8.90481 2.63161,-5.5219 4.23505,-10.40501 4.97277,-15.14401 0.14725,-0.94589 0.45164,-4.08792 0.67643,-6.98229 0.61591,-7.93048 1.20705,-10.15168 3.30843,-12.43141 2.01211,-2.18288 4.46728,-2.34245 7.18511,-0.467 1.2915,0.89121 1.81169,1.09528 2.7919,1.09528 0.81501,0 1.70989,0.25674 2.76665,0.79375 1.88103,0.95587 3.05124,0.99939 10.32762,0.38409 2.66453,-0.22532 7.04725,-0.58997 9.73939,-0.81033 6.77149,-0.55427 22.129031,-0.77861 27.119791,-0.39615 5.20275,0.39869 10.381848,1.16247 15.650188,2.30798 l 4.27311,0.92911 5.7099,-0.41296 c 6.6147,-0.47839 9.5544,-1.00409 20.80118,-3.71982 15.1202,-3.65103 20.17379,-4.30283 27.63943,-3.56483 3.37042,0.33317 4.1984,0.56822 3.11839,0.88526 -0.25467,0.0748 -2.16735,0.62346 -4.25041,1.21934 -4.59362,1.31405 -6.38452,2.07852 -7.15047,3.05227 -0.50541,0.64253 -0.53539,0.8103 -0.23089,1.29212 0.19246,0.30454 1.11729,0.94244 2.05517,1.41754 1.68108,0.85158 3.23238,1.21018 9.90732,2.29014 3.21787,0.52063 4.90959,1.09367 6.03062,2.04277 l 0.84855,0.71842 -3.70417,-0.0472 c -3.30351,-0.0421 -3.81864,0.0129 -4.7625,0.50781 -2.06806,1.08446 -2.47344,3.13897 -0.97154,4.92387 0.88831,1.0557 1.73536,1.38841 5.62617,2.20991 3.72463,0.78641 5.78639,1.49557 7.17983,2.46958 1.29225,0.90327 1.25456,1.19573 -0.12664,0.98268 -0.61847,-0.0954 -2.2632,-0.24623 -3.65497,-0.33518 -2.82514,-0.18057 -4.28097,0.23969 -4.80356,1.38665 -0.35008,0.76834 -0.0645,2.30156 0.5262,2.82487 0.25182,0.22309 2.12472,1.07906 4.16201,1.90217 2.0373,0.8231 4.33174,1.8742 5.09876,2.33578 1.47276,0.88629 3.169,2.46305 2.91881,2.71324 -0.0816,0.0816 -1.53063,-0.22055 -3.2201,-0.67143 -4.66267,-1.24434 -6.61666,-0.95523 -6.14858,0.90972 0.28213,1.12411 1.28405,1.93184 2.97738,2.40031 4.13553,1.14411 5.10401,1.4998 6.1533,2.2599 0.62326,0.45149 1.07063,0.88346 0.99415,0.95993 -0.0765,0.0765 -1.20361,-0.11089 -2.50475,-0.41636 -3.78083,-0.88763 -5.60751,-0.60299 -5.60751,0.8738 0,0.94004 0.83303,1.48306 3.35975,2.19012 2.43933,0.6826 4.10186,1.5017 4.94981,2.43867 0.50273,0.55551 0.50196,0.55656 -0.3972,0.54082 -0.49549,-0.009 -1.48813,-0.11216 -2.20586,-0.22995 -2.23512,-0.36685 -3.92056,0.47812 -3.92056,1.96551 0,0.92933 0.54514,1.45806 2.74882,2.66603 2.17751,1.19362 4.04167,2.7494 4.60903,3.84656 0.21714,0.4199 0.33334,0.76345 0.25821,0.76345 -0.0751,0 -1.38899,-0.47625 -2.91971,-1.05833 -3.05371,-1.16124 -5.30192,-1.41964 -5.59971,-0.64361 -0.25875,0.67431 0.4904,1.74355 1.73377,2.47452 2.05663,1.209085 3.68868,2.628315 4.38105,3.809765 0.37154,0.63397 0.67552,1.2864 0.67552,1.44983 0,0.16344 -0.84971,-0.11006 -1.88826,-0.60777 -2.18605,-1.04763 -4.0068,-1.41385 -4.59644,-0.9245 -0.47277,0.39237 -0.50588,1.82121 -0.0553,2.38745 0.17727,0.22279 1.03669,0.98162 1.90981,1.68628 1.56037,1.25931 2.9934,2.94095 2.73033,3.20401 -0.0736,0.0736 -0.65851,-0.26613 -1.29979,-0.75498 -1.71199,-1.30508 -2.84932,-1.82876 -3.5757,-1.64645 -1.1679,0.29312 -0.80826,1.25317 1.09557,2.92465 1.48821,1.30657 2.5048,2.59863 2.5048,3.18353 0,0.0907 -0.63957,-0.20107 -1.42127,-0.64831 -1.65137,-0.94482 -2.92587,-1.06011 -3.33192,-0.3014 -0.37467,0.70007 -0.41719,0.60186 0.94328,2.1786 1.23874,1.43565 2.16423,3.01225 1.91471,3.26177 -0.0759,0.0759 -0.92659,-0.21963 -1.89048,-0.65668 -3.7386,-1.69516 -9.09037,-2.85059 -10.89524,-2.35224 -0.49798,0.1375 -1.14897,0.55962 -1.44663,0.93803 -0.50126,0.63724 -0.54115,1.05155 -0.54049,5.61328 6.6e-4,4.57059 0.0564,5.14436 0.77348,7.96797 1.43461,5.64861 2.01755,7.14755 3.73946,9.61546 0.88743,1.2719 2.25136,3.6471 3.03095,5.27822 2.72879,5.70945 3.11691,9.56553 1.41942,14.10247 -0.74885,2.00148 -1.63822,2.98306 -2.88321,3.18215 -1.60381,0.25646 -2.51565,0.98759 -3.68368,2.95367 -1.3538,2.2788 -1.95189,2.83848 -3.45546,3.23356 -1.53123,0.40236 -1.86318,0.71349 -3.75389,3.51838 -2.2306,3.30913 -2.82137,3.60326 -5.93203,2.95342 -0.91527,-0.1912 -2.52886,0.48902 -3.37225,1.4216 -0.61822,0.68359 -1.82684,0.96055 -2.53587,0.58108 -0.2991,-0.16007 -0.78475,-0.76331 -1.07923,-1.34053 -0.29447,-0.57722 -0.6659,-1.04948 -0.8254,-1.04948 -0.15949,0 -0.98927,0.64741 -1.84395,1.43869 -3.17034,2.93518 -8.56684,6.82806 -12.40739,8.95033 -4.17076,2.30475 -12.2933,5.61306 -21.29939,8.67524 -4.30273,1.46298 -5.81167,2.11444 -8.07131,3.48465 -6.628778,4.01957 -7.801738,5.06855 -13.099278,11.71463 -4.78867,6.00767 -7.79121,8.93232 -12.117021,11.80271 -4.53014,3.00597 -12.17835,6.55485 -15.17407,7.04099 -0.78584,0.12753 -0.91674,0.0387 -1.65271,-1.12183 z m 6.00408,-2.24916 c 7.15019,-2.79832 12.504661,-6.90271 18.459431,-14.1498 1.43486,-1.74625 3.37784,-3.97867 4.31775,-4.96093 0.9399,-0.98227 1.58744,-1.78594 1.43897,-1.78594 -0.64353,0 -3.2634,2.32648 -9.07729,8.06077 -8.243931,8.13107 -9.616351,9.23543 -15.123371,12.16938 -3.06063,1.63061 -3.06597,1.86037 -0.0155,0.66652 z m -1.00072,-5.85611 c 4.1508,-1.49668 9.47763,-4.30039 12.236241,-6.4404 2.33566,-1.8119 9.46676,-8.15202 9.32665,-8.29213 -0.14589,-0.14589 -2.07174,0.86983 -3.70351,1.95329 -0.72761,0.48312 -3.01896,2.24292 -5.0919,3.91067 -4.681101,3.76612 -7.869161,5.84411 -12.114811,7.89649 -4.15961,2.01078 -4.35966,2.30873 -0.65267,0.97208 z m 0.78312,-5.39231 c 4.37501,-1.52284 7.87842,-3.19739 10.30215,-4.92419 4.611791,-3.28569 7.532901,-5.7824 6.765311,-5.7824 -0.47191,0 -3.27327,1.68576 -7.265971,4.3724 -2.9345,1.9746 -6.11852,3.83716 -8.84202,5.17235 -2.34087,1.1476 -4.11883,2.08888 -3.95101,2.09174 0.16782,0.003 1.51401,-0.41561 2.99154,-0.9299 z m 1.57827,-5.13405 c 3.26264,-0.94162 5.36289,-1.79978 7.75356,-3.16807 2.284291,-1.30741 5.606111,-3.70494 5.407891,-3.90316 -0.077,-0.077 -2.73793,1.11114 -5.913191,2.6403 -5.77025,2.77887 -7.49468,3.53854 -10.60184,4.67049 -0.9095,0.33133 -1.65364,0.66096 -1.65364,0.7325 0,0.24103 2.45599,-0.23576 5.00722,-0.97206 z m -1.30306,-3.36427 c 4.19721,-1.04442 11.198731,-3.81518 12.567711,-4.9735 0.51293,-0.43399 0.50187,-0.44311 -0.36015,-0.29719 -0.48913,0.0828 -3.703821,1.20333 -7.143751,2.49007 -3.43994,1.28674 -7.11763,2.56017 -8.17266,2.82986 -1.05503,0.26968 -1.91823,0.56674 -1.91823,0.66012 0,0.22876 2.90359,-0.18096 5.02708,-0.70936 z m -2.34172,-3.68084 c 0.63311,-0.22525 4.11457,-1.00151 7.73658,-1.72503 3.62202,-0.72352 6.777181,-1.43866 7.011461,-1.58922 0.72164,-0.46372 -5.665751,-0.0388 -8.305271,0.55251 -2.81581,0.6308 -5.98493,1.65578 -8.23716,2.66412 -3.09854,1.38723 -1.99845,1.44708 1.79439,0.0976 z m 28.238681,-0.96205 c 0.81808,-0.46592 2.95352,-1.7184 4.74542,-2.78329 4.896558,-2.90992 6.366308,-3.57603 11.506398,-5.21486 11.0757,-3.53131 20.59528,-8.26577 28.71434,-14.28077 3.6836,-2.72899 11.21591,-10.29497 13.5951,-13.65587 5.64921,-7.98021 8.83849,-17.29867 10.14769,-29.64959 0.34464,-3.25133 0.40329,-5.74575 0.28876,-12.28203 -0.079,-4.51115 -0.27084,-9.21412 -0.42623,-10.45105 -0.85261,-6.78709 -2.25932,-13.078155 -4.17093,-18.653115 -2.21506,-6.45995 -7.52845,-16.5618 -10.40639,-19.78472 -3.1273,-3.50216 -13.56319,-10.43932 -21.55048,-14.32549 -15.63829,-7.6087 -32.512358,-10.74511 -53.445839,-9.93404 -3.4925,0.13531 -6.76672,0.36915 -7.27605,0.51964 -0.50932,0.15049 -3.48588,0.50665 -6.61458,0.79147 -6.31576,0.57495 -7.2815,0.72193 -7.64845,1.16408 -0.17004,0.20488 0.12777,0.87693 0.91572,2.06646 1.29702,1.95803 1.91089,2.54039 1.59183,1.51012 -0.47355,-1.52913 -0.38661,-1.66042 1.52171,-2.29804 0.99262,-0.33167 3.13574,-0.83035 4.7625,-1.10818 6.18167,-1.05576 10.32491,-1.33841 20.552521,-1.40205 9.21052,-0.0573 10.18745,-0.0188 13.62605,0.53685 15.614248,2.52326 25.501698,6.29625 34.800628,13.27971 5.01745,3.76808 12.9516,10.37911 14.62322,12.18462 3.23179,3.49063 6.61791,8.4652 5.76215,8.4652 -0.12518,0 -1.78832,-1.25322 -3.69586,-2.78492 -1.90755,-1.5317 -3.46826,-2.67992 -3.46826,-2.55159 0,0.12833 0.42428,0.78899 0.94284,1.46813 2.46775,3.23191 5.4937,8.8807 7.64696,14.27522 2.12594,5.32605 2.76485,7.948495 3.47556,14.265545 0.25785,2.29195 0.58392,4.16719 0.72459,4.16719 0.26619,0 0.029,-19.072745 -0.26075,-20.968225 -0.17311,-1.13238 0.2003,-1.32171 0.65191,-0.33053 0.44991,0.98743 1.30701,4.4892 2.29834,9.390135 0.48595,2.4024 1.00144,4.67573 1.14553,5.05185 0.1441,0.37613 0.48078,1.98347 0.74819,3.57188 0.39803,2.36423 0.48523,4.32758 0.48083,10.82551 -0.006,8.69096 -0.25042,11.1523 -1.71238,17.2356 -1.8254,7.59564 -6.7293,18.92442 -10.18897,23.53812 -3.44087,4.58863 -10.34586,11.1443 -15.79024,14.99144 -3.97915,2.81176 -12.08766,6.9263 -19.002,9.64226 -2.40109,0.94316 -5.73484,2.29666 -7.40833,3.0078 -3.66283,1.55647 -19.267288,9.29229 -19.294998,9.56537 -0.0108,0.10619 0.60549,0.55156 1.36947,0.9897 1.9592,1.12359 3.69393,1.10978 5.72248,-0.0455 z m -32.114661,-1.38341 c 1.36675,-0.40366 4.57933,-0.98262 7.54062,-1.35894 2.83766,-0.36061 6.2144,-0.85722 7.50388,-1.10357 1.98218,-0.37869 2.22805,-0.47906 1.59097,-0.64944 -0.41445,-0.11084 -1.29089,-0.15002 -1.94764,-0.0871 -0.65674,0.063 -2.44036,0.1865 -3.96359,0.27454 -5.01218,0.28971 -9.73551,1.45975 -12.9732,3.21366 -1.34938,0.73097 -1.09398,0.69813 2.24896,-0.28918 z m -2.24896,-4.42562 c 2.21507,-0.46396 3.33039,-0.51631 9.39271,-0.44089 6.33787,0.0788 9.42166,-0.10496 8.99226,-0.53599 -0.18143,-0.18213 -3.29028,-0.43269 -9.02964,-0.72774 -3.85547,-0.1982 -6.97652,0.20495 -10.67825,1.37933 -2.12602,0.67448 -3.4235,1.34637 -1.98438,1.02759 0.43657,-0.0967 1.92485,-0.41274 3.3073,-0.7023 z m -3.4765,-3.78933 c 2.94572,-0.53591 6.02502,-0.50272 12.07404,0.13012 5.14545,0.53831 9.64264,0.65519 10.58475,0.2751 0.42153,-0.17007 0.28698,-0.24732 -0.66146,-0.37975 -10.68766,-1.49237 -11.24574,-1.54429 -15.21354,-1.41517 -3.17024,0.10317 -4.52771,0.27445 -6.74688,0.85132 -2.57401,0.66911 -4.53811,1.392 -2.91041,1.07118 0.3638,-0.0717 1.65687,-0.31147 2.8735,-0.5328 z m 22.06348,-2.15975 c 0.5457,-0.0902 0.99218,-0.25005 0.99218,-0.35521 0,-0.10517 -1.27992,-0.40116 -2.84427,-0.65775 -1.56435,-0.2566 -4.25974,-0.81208 -5.98976,-1.23442 -4.97635,-1.21482 -7.38974,-1.55162 -11.11052,-1.55054 -3.38201,9.8e-4 -7.22863,0.45468 -8.69659,1.02575 -0.99366,0.38656 -0.91707,0.65427 0.13229,0.46242 5.09804,-0.93207 8.18255,-0.76463 16.82747,0.91345 4.62602,0.89797 7.73366,1.40913 9.30013,1.52974 0.21829,0.0168 0.84336,-0.0432 1.38907,-0.13344 z m 15.663421,-4.72415 c 2.84437,-1.78575 4.78588,-3.31308 5.64288,-4.43908 1.179898,-1.55027 3.188698,-6.06689 4.078098,-9.16925 0.97394,-3.3973 1.37027,-3.10044 0.60124,0.45036 -0.86568,3.99705 -0.88205,4.11116 -0.53423,3.7242 0.17631,-0.19615 1.1724,-1.73931 2.21353,-3.42924 2.44129,-3.96262 2.74723,-4.23408 2.28716,-2.02941 -0.19023,0.91155 -0.30988,1.69336 -0.2659,1.73735 0.16898,0.16897 1.19915,-1.84952 2.12507,-4.16377 0.5404,-1.35069 1.24908,-3.88697 1.60757,-5.75331 0.35261,-1.83576 0.70827,-3.40492 0.79037,-3.48701 0.54298,-0.54298 1.07792,3.0247 0.79483,5.30102 -0.0967,0.77746 -0.35386,2.40931 -0.5715,3.62633 -0.21765,1.21702 -0.32913,2.27936 -0.24774,2.36075 0.28013,0.28013 3.87118,-2.39687 5.16982,-3.85391 3.0578,-3.43078 4.54136,-8.61957 3.71313,-12.9868 -0.31483,-1.66014 -1.35908,-4.32886 -1.74257,-4.45339 -0.1785,-0.058 -0.39045,1.1893 -0.58266,3.42884 -0.41438,4.82813 -0.72131,5.52878 -0.94633,2.16026 -0.0965,-1.44477 -0.41641,-3.63888 -0.71089,-4.8758 -0.61297,-2.57468 -2.79874,-7.22894 -4.59746,-9.78959 l -1.20807,-1.71979 0.7234,-0.0692 c 2.26143,-0.21647 6.2935,-0.99688 8.13173,-1.5739 6.16273,-1.93449 14.13545,-7.23747 17.5344,-11.66285 l 0.66865,-0.87057 -0.79774,-1.1138 c -1.05079,-1.46711 -3.74663,-3.65472 -5.92497,-4.80799 -2.49417,-1.32048 -6.78858,-2.69275 -10.58835,-3.3835 -5.87404,-1.06782 -19.53644,-0.71796 -24.704498,0.63263 -1.2837,0.33547 -1.88013,0.83882 -2.55062,2.15254 -0.28047,0.54953 -1.18472,1.79457 -2.00945,2.76675 -1.36689,1.61128 -1.50838,1.89731 -1.59991,3.23419 -0.0552,0.80661 0.0685,2.27513 0.27498,3.26337 0.20647,0.98823 0.29255,1.84798 0.1913,1.91056 -0.38064,0.23525 -1.96685,-0.41596 -2.68194,-1.10106 l -0.74256,-0.71142 -1.26173,0.67229 c -1.73089,0.92226 -3.00213,1.05971 -5.33818,0.57719 -2.220541,-0.45867 -3.000521,-0.80169 -4.911101,-2.15981 -2.02892,-1.44226 -3.79657,-2.14241 -5.90319,-2.3382 -2.76999,-0.25744 -2.45245,0.423 1.00011,2.14307 1.72728,0.86053 3.175,1.90627 3.175,2.2934 0,0.16684 -0.47547,0.23994 -1.19062,0.18307 -1.42534,-0.11337 -1.49597,0.13535 -0.51418,1.81064 1.02745,1.75322 3.49676,3.61018 9.902591,7.4469 7.21928,4.32393 9.80456,6.14781 12.79392,9.02594 5.3573,5.15794 7.639628,10.49926 7.637318,17.87355 -0.002,5.28913 -1.11989,9.61086 -3.623508,14.00414 -1.65274,2.90019 -2.75345,4.14393 -5.34215,6.03634 -1.24542,0.91045 -2.518,1.85975 -2.82795,2.10957 l -0.56354,0.45422 0.55494,0.009 c 0.30521,0.005 1.59739,-0.64567 2.8715,-1.44558 z m 10.723598,-23.08572 c -0.0133,-1.19217 -0.81123,-6.33048 -1.30766,-8.42071 -1.08524,-4.56943 -4.224858,-9.92104 -7.067708,-12.04719 -1.51989,-1.13671 -3.79654,-2.45011 -8.32803,-4.80444 -2.80376,-1.45668 -6.09356,-3.38648 -8.33327,-4.8883 -1.795301,-1.20382 6.7527,1.48658 10.67275,3.35915 6.35524,3.03583 9.86978,6.04765 11.812428,10.12279 2.4856,5.21411 3.76939,10.26681 3.5443,13.94963 -0.14305,2.34069 -0.34346,3.19209 -0.75136,3.19209 -0.12996,0 -0.2386,-0.20836 -0.24145,-0.46302 z m -0.39171,-25.59412 c -7.644638,-1.42322 -11.759968,-5.80569 -11.770818,-12.53493 l -0.003,-1.94727 1.33716,-1.46307 c 0.73544,-0.80469 1.61843,-2.01812 1.96219,-2.6965 0.75304,-1.48604 1.28475,-1.75519 4.45741,-2.25628 9.102908,-1.43771 18.911748,-1.03049 25.586108,1.06222 4.20836,1.31951 8.30222,3.86688 9.87749,6.1462 l 0.75472,1.09203 -0.53794,0.75548 c -1.05233,1.47786 -4.48737,4.49583 -7.08677,6.22631 -3.14292,2.09233 -6.89605,3.91447 -9.62745,4.6741 -4.6158,1.28371 -10.96391,1.68361 -14.94896,0.94171 z m 6.83925,-1.89522 c 1.2025,-0.10165 2.02177,-0.28962 2.01808,-0.46302 -0.003,-0.16055 -1.0743,-1.48253 -2.37975,-2.93774 -1.30544,-1.45521 -2.37421,-2.74186 -2.37503,-2.85923 -0.002,-0.32086 1.36927,0.55023 3.78577,2.40442 1.19122,0.91403 2.69427,2.03649 3.3401,2.49436 l 1.17426,0.83249 2.6622,-0.90686 c 1.73568,-0.59124 2.66221,-1.04065 2.66221,-1.29129 0,-0.21145 -1.07156,-1.12688 -2.38125,-2.03431 -3.90343,-2.70451 -4.75093,-3.36184 -4.45964,-3.45894 0.38067,-0.12689 3.96554,1.22027 6.84089,2.57073 3.86136,1.81357 3.36877,1.80177 5.86508,0.14051 1.21259,-0.80697 2.20471,-1.5606 2.20471,-1.67473 0,-0.11414 -2.04399,-1.18484 -4.54219,-2.37935 -2.49821,-1.1945 -4.47245,-2.24157 -4.3872,-2.32682 0.20155,-0.20154 3.78732,0.70166 7.90884,1.99212 l 3.26951,1.0237 0.77925,-0.59342 c 1.50142,-1.14337 1.49038,-1.3698 -0.14054,-2.88187 -2.00447,-1.8584 -4.01025,-3.00404 -7.06681,-4.03635 -4.37613,-1.47796 -6.99229,-1.80565 -14.52668,-1.81954 -4.99467,-0.009 -6.75031,0.0707 -6.99823,0.31844 -0.26485,0.26468 -0.24727,0.33073 0.0881,0.33073 0.23045,0 2.23386,0.24214 4.45202,0.53809 7.13296,0.9517 18.61499,3.55824 21.45036,4.86945 l 0.90425,0.41817 -0.79375,-0.12279 c -0.43657,-0.0675 -2.63922,-0.54082 -4.8948,-1.05174 -4.95558,-1.12252 -7.7421,-1.613 -11.24479,-1.97928 -3.81059,-0.39848 -11.0281,-0.86012 -11.17354,-0.71468 -0.0681,0.0681 1.64416,0.67252 3.80505,1.3431 7.4534,2.313 18.4894,6.70134 18.02378,7.16696 -0.0799,0.0799 -1.67659,-0.44472 -3.5482,-1.16582 -1.87161,-0.72111 -4.77214,-1.74296 -6.44563,-2.27078 -3.9121,-1.23389 -12.42371,-3.37133 -12.9537,-3.25295 -0.25322,0.0566 0.0836,0.38578 0.88867,0.86866 7.20287,4.32012 14.91551,9.52466 14.59282,9.84735 -0.0652,0.0652 -1.38004,-0.67335 -2.92186,-1.64123 -4.26664,-2.67838 -15.745518,-8.49366 -15.745518,-7.97679 0,0.058 2.182798,2.28871 4.850668,4.95708 4.20629,4.20707 5.83488,6.0422 5.36217,6.0422 -0.0685,0 -1.3526,-1.0856 -2.85358,-2.41244 -4.57492,-4.04415 -9.294288,-7.66519 -9.580838,-7.35111 -0.0533,0.0584 0.37447,1.05876 0.95063,2.22293 1.21951,2.46405 2.93107,6.49786 2.80891,6.62002 -0.0463,0.0463 -1.19869,-1.5651 -2.56092,-3.58082 -1.36224,-2.01573 -2.77738,-3.94088 -3.14477,-4.27812 l -0.66797,-0.61317 0.1485,1.50897 c 0.30517,3.101 2.0836,5.75785 4.96848,7.42255 1.712618,0.98826 5.010388,2.01475 5.010388,1.55958 0,-0.23775 -1.79851,-3.37942 -2.55999,-4.47183 -0.975288,-1.39914 0.30799,-0.40277 2.63977,2.04958 3.17848,3.34283 3.13215,3.32263 6.89176,3.00483 z m 43.51089,37.14035 c 0.78,-1.62654 2.17848,-5.74203 2.16028,-6.35738 -0.0156,-0.52591 -0.71424,0.86509 -1.71607,3.41648 -0.52061,1.32584 -1.47646,3.34046 -2.1241,4.47693 -0.64764,1.13647 -1.17265,2.13528 -1.16668,2.21958 0.0333,0.46994 2.17571,-2.35668 2.84657,-3.75561 z m 6.28622,-1.6808 c 0.47048,-1.72968 0.86781,-10.82553 0.50899,-11.65197 -0.35194,-0.81059 -0.59049,0.74888 -0.6255,4.08906 -0.028,2.66772 -0.32019,6.44192 -0.70085,9.05156 -0.19518,1.33803 0.28772,0.45854 0.81736,-1.48865 z m -2.52326,-2.85875 c 0.65936,-3.34377 0.90644,-5.9199 0.53253,-5.55227 -0.26154,0.25713 -2.15805,9.27227 -2.10354,9.99922 0.0583,0.77704 1.1506,-2.31495 1.57101,-4.44695 z m 6.04639,-0.90462 c 0.4731,-2.20597 0.3514,-4.84379 -0.40895,-8.86362 -0.60625,-3.20515 -0.74228,-3.62997 -0.95652,-2.98724 -0.17451,0.52353 -0.076,2.17154 0.32689,5.46952 0.54691,4.47673 0.55531,4.84396 0.16278,7.11858 -0.22764,1.31909 -0.40548,2.48759 -0.3952,2.59666 0.0425,0.45093 0.9953,-2.04832 1.271,-3.3339 z m 3.03469,-3.87611 c -0.0277,-2.92141 -0.44301,-4.85613 -2.40117,-11.18694 l -0.468,-1.51306 -0.0783,1.48651 c -0.0545,1.03395 0.20291,2.60469 0.8454,5.15938 1.05401,4.19093 1.58268,7.89099 1.37537,9.62599 l -0.14225,1.19062 0.44829,-0.92604 c 0.34468,-0.71201 0.44191,-1.59873 0.42067,-3.83646 z m 3.01341,-3.83646 c -0.12642,-2.65499 -0.19524,-2.87779 -3.13415,-10.14786 l -1.16093,-2.87183 -0.08,1.35097 c -0.0636,1.07338 0.11847,1.82657 0.88587,3.66558 2.18075,5.22596 2.81572,7.27648 2.96589,9.57772 0.20899,3.20256 0.68289,1.77663 0.52331,-1.57458 z m 4.09133,-2.51354 c -0.40958,-2.44938 -1.23136,-4.33585 -3.5465,-8.14134 -1.17122,-1.92518 -2.58883,-4.33376 -3.15025,-5.35241 -0.9965,-1.80807 -1.02085,-1.8299 -1.02448,-0.91858 -0.005,1.1885 1.2892,3.8823 3.49139,7.26858 2.83628,4.36132 3.88753,6.86446 3.93708,9.37459 l 0.0239,1.20874 0.26719,-0.92604 c 0.17931,-0.62149 0.17988,-1.44812 0.002,-2.51354 z m -26.93304,-23.68021 c 1.46191,-6.96727 1.82975,-12.12164 1.20843,-16.93333 -0.46029,-3.56463 -2.36343,-13.582535 -2.94007,-15.476155 -1.38303,-4.54179 -4.66104,-10.24758 -9.5014,-16.53842 -2.39162,-3.1083 -9.31576,-10.06799 -12.68596,-12.75109 -2.59579,-2.06657 -5.33331,-3.91766 -5.79371,-3.91766 -0.14458,0 0.57515,1.26001 1.59942,2.80002 2.19803,3.30482 3.7871,6.31602 4.35554,8.25351 0.3924,1.33747 0.48394,1.4339 2.17472,2.29077 4.62966,2.34626 10.84104,9.50398 14.55145,16.76845 2.33196,4.56565 4.18761,10.309785 5.23117,16.193015 0.34922,1.96879 0.47132,4.75999 0.56639,12.94768 0.0667,5.7408 0.21545,10.26518 0.33063,10.05416 0.11519,-0.21101 0.52172,-1.87194 0.90339,-3.69095 z M 79.947012,117.63777 c 3.86835,-1.9212 7.01128,-5.17552 9.02042,-9.3401 1.64891,-3.41793 2.01863,-6.48229 0.78207,-6.48229 -0.41223,0 -0.51088,0.25662 -0.60643,1.57753 -0.0837,1.15725 -0.39176,2.12576 -1.15628,3.63535 -1.2891,2.5454 -3.76226,5.70659 -4.77921,6.10876 -1.54534,0.61114 -5.204311,1.39925 -6.572201,1.41559 -2.71667,0.0325 -3.74586,-0.37974 -6.7642,-2.70903 -2.46326,-1.90094 -4.32198,-2.7563 -6.79921,-3.12892 -4.52836,-0.68115 -8.48614,-3.18677 -10.49513,-6.64433 -0.57085,-0.98245 -0.56314,-0.97889 2.19579,1.01384 3.23994,2.34016 6.92465,3.75829 9.7651,3.75829 1.79687,0 2.26833,-0.2666 2.79376,-1.57978 0.24669,-0.61652 0.60319,-1.06605 0.84546,-1.06605 0.2304,0 1.22055,0.47625 2.20034,1.05833 0.97979,0.58208 2.01587,1.05833 2.3024,1.05833 0.28653,0 0.91203,-0.35718 1.39,-0.79375 0.99123,-0.90534 1.2785,-0.95757 2.10043,-0.38187 1.10134,0.77141 0.57443,2.29266 -0.92438,2.66883 -0.37492,0.0941 -2.02954,0.0989 -3.67694,0.0106 -2.49576,-0.13375 -3.06331,-0.0925 -3.4033,0.24752 -0.51238,0.51238 -0.35156,0.77247 0.87155,1.40955 0.53583,0.2791 1.56955,1.00872 2.29715,1.6214 1.95608,1.64709 3.09637,2.08539 5.42396,2.0848 1.09141,-2.8e-4 2.445411,-0.10747 3.008891,-0.2382 2.30258,-0.53423 4.43101,-3.98993 4.94885,-8.0349 0.1642,-1.28265 0.2499,-2.38075 0.19043,-2.44022 -0.0595,-0.0595 -0.57769,0.0247 -1.15159,0.18707 -0.5739,0.16235 -2.29361,0.30796 -3.82158,0.32355 -5.316361,0.0543 -5.471281,-0.62489 -0.44011,-1.9294 11.73073,-3.041595 20.31218,-9.665615 23.034548,-17.780375 1.55811,-4.64435 1.60913,-9.66476 0.13817,-13.59625 -0.49426,-1.32101 -2.63965,-4.10415 -3.163708,-4.10415 -0.1242,0 0.0103,0.68461 0.2989,1.52136 1.065778,3.0901 0.923328,5.83433 -0.44463,8.56544 -0.62835,1.2545 -2.80998,3.40695 -3.45313,3.40695 -0.4779,0 -0.49266,0.0562 0.56642,-2.15379 0.50932,-1.06277 0.92604,-2.31677 0.92604,-2.78666 0,-2.73173 -1.71737,-6.81563 -3.59328,-8.54478 -0.63657,-0.58677 -1.27052,-1.06685 -1.40877,-1.06685 -0.14494,0 -0.19112,0.5882 -0.10908,1.38906 0.17909,1.7481 -0.20405,3.18336 -1.28576,4.81643 -1.64728,2.48694 -6.46961,5.30044 -9.647,5.62838 -1.17084,0.12084 -1.41861,0.0744 -1.41861,-0.2659 0,-0.22677 0.38695,-0.65181 0.8599,-0.94453 0.98161,-0.60754 2.47031,-2.08976 2.28501,-2.27506 -0.0681,-0.0681 -1.30957,0.0599 -2.75883,0.28448 -1.44927,0.22455 -3.570141,0.41375 -4.713041,0.42044 -1.94453,0.0114 -2.2236,-0.0623 -4.3447,-1.14713 -1.25845,-0.64363 -2.84884,-1.72413 -3.57544,-2.42912 -0.7198,-0.69841 -1.35457,-1.22399 -1.41059,-1.16797 -0.24561,0.2456 1.62373,3.45884 2.72444,4.68309 1.75686,1.95406 6.60485,4.69663 9.13374,5.16708 0.585461,0.10891 2.001251,-0.002 3.524101,-0.27628 4.22426,-0.76059 3.79237,0.42692 -0.66626,1.83191 -2.33032,0.73433 -6.841831,1.35112 -8.508561,1.16326 -3.55441,-0.40063 -6.09946,-3.25053 -7.03279,-7.87517 -0.22106,-1.09533 -0.67447,-2.53387 -1.00759,-3.19675 -0.33311,-0.66288 -0.68843,-1.64646 -0.7896,-2.18574 -0.10117,-0.53927 -0.30857,-1.05752 -0.46089,-1.15165 -0.18932,-0.11701 -0.2219,0.48002 -0.10298,1.88683 0.1442,1.7059 0.11317,2.00754 -0.18136,1.76311 -0.34457,-0.28598 -0.93114,-1.47867 -1.49831,-3.04661 -0.49936,-1.38048 -0.5578,-0.53368 -0.14163,2.05253 0.473,2.93944 0.49423,3.34198 0.17627,3.34198 -0.12807,0 -0.83107,-1.57379 -1.56221,-3.4973 -0.73114,-1.92352 -1.4519,-3.53815 -1.60169,-3.58808 -0.18166,-0.0606 -0.22201,0.86318 -0.12118,2.77446 0.11249,2.13234 0.0378,3.42454 -0.29189,5.05176 -0.47264,2.33256 -0.88898,3.64438 -1.09216,3.4412 -0.0686,-0.0686 -0.18053,-2.68103 -0.2488,-5.80544 -0.12717,-5.82036 -0.41827,-8.15702 -1.08514,-8.71048 -0.77265,-0.64124 -1.1165,0.14995 -1.2134,2.79199 -0.0559,1.52442 -0.21948,2.61724 -0.42202,2.81951 -0.65275,0.65188 -0.93162,-0.24693 -1.13948,-3.67249 -0.23242,-3.83031 -0.73301,-6.08672 -1.8344,-8.26856 -0.76137,-1.50827 -1.92405,-2.85979 -1.48408,-1.72511 0.91521,2.36027 1.86114,5.78701 2.30065,8.33437 0.47425,2.74864 0.49792,3.4608 0.2449,7.36879 -0.30712,4.74356 -0.47954,5.7598 -1.51051,8.90308 -1.61553,4.9255 -4.25662,10.02511 -6.33241,12.2271 -1.16142,1.23202 -1.1894,1.24495 -1.0236,0.4729 0.0937,-0.43656 0.88024,-2.50226 1.74775,-4.59044 0.86752,-2.08818 1.80745,-4.76027 2.08874,-5.93797 1.14551,-4.79609 1.31704,-12.65418 0.39399,-18.04906 -0.8488,-4.96089 -2.86068,-10.44857 -3.83062,-10.44857 -0.41974,0 -0.32657,0.43595 0.39933,1.86845 1.48688,2.9342 3.03442,10.74182 3.03442,15.30914 0,3.23068 -0.54975,6.85592 -1.50769,9.9422 -1.1312,3.64449 -3.29473,8.93706 -4.2442,10.38242 -1.22569,1.86586 -4.1154,4.4955 -6.8191,6.20541 -1.22085,0.77211 -2.22557,1.47869 -2.2327,1.57018 -0.0392,0.50299 1.93161,0.89132 4.48494,0.8837 4.68072,-0.014 6.97399,-1.06364 11.06958,-5.06671 1.89893,-1.85603 2.57509,-2.72527 3.21118,-4.12814 0.44317,-0.97739 0.88076,-1.77707 0.97243,-1.77707 0.3676,0 -0.1851,3.08091 -0.98157,5.47165 -0.91934,2.75954 -1.31891,3.27584 -5.10925,6.601945 -1.76869,1.55206 -1.80804,1.61381 -1.45521,2.28368 1.46483,2.78106 6.70918,7.65011 9.6769,8.98439 2.01353,0.90529 2.3778,1.26458 1.28209,1.26458 -1.44221,0 -3.61217,-0.66486 -6.5689,-2.01268 -4.63599,-2.1133 -5.40288,-2.19118 -3.29985,-0.33509 2.88797,2.54887 8.06264,4.96072 13.82394,6.44318 6.04204,1.55469 9.25045,1.96636 14.83106,1.90296 l 3.9826,-0.0452 z M 60.828001,102.76914 c -1.67812,-0.69017 -6.06345,-3.076785 -7.08464,-3.855665 -0.90206,-0.68801 -0.53591,-0.92108 0.66122,-0.42088 0.54283,0.2268 1.20494,0.41237 1.47136,0.41237 1.65537,0 2.78787,-1.64539 2.52857,-3.67371 -0.35644,-2.78809 -0.48663,-6.05074 -0.24735,-6.19862 0.13954,-0.0862 0.51201,1.04216 0.8396,2.54356 0.45095,2.06678 0.57035,3.35952 0.50999,5.52173 -0.0701,2.51329 -0.0185,2.905335 0.47027,3.571865 0.65176,0.88874 3.52957,1.98247 4.7426,1.80246 l 0.79375,-0.11779 -0.62463,0.52421 c -0.8314,0.69775 -2.18677,0.66119 -4.06074,-0.10953 z m 114.619749,11.08811 c 0,-0.0709 -0.8598,-0.56196 -1.91067,-1.09117 -1.05087,-0.52921 -2.97244,-1.7246 -4.27016,-2.65643 -1.29772,-0.93183 -2.41209,-1.64163 -2.47639,-1.57733 -0.45708,0.45709 2.25146,3.02533 4.2916,4.06929 1.94874,0.9972 4.36562,1.69234 4.36562,1.25564 z m 1.32292,-3.44026 c 0,-0.0713 -1.0418,-0.65683 -2.3151,-1.30119 -1.27331,-0.64435 -3.49034,-2.01477 -4.92673,-3.04536 -2.84791,-2.04335 -3.74829,-2.39448 -2.8288,-1.10319 0.95351,1.33909 3.17745,3.15837 4.8676,3.98191 2.00425,0.97659 5.20303,1.879 5.20303,1.46783 z m -42.59792,-0.53773 c 0,-0.80345 -2.12367,-2.73623 -3.66271,-3.33347 -2.74162,-1.06393 -7.70691,-0.66275 -10.70071,0.86457 -0.56853,0.29004 -0.97954,0.5815 -0.91335,0.64769 0.0662,0.0662 1.29812,-0.0726 2.73762,-0.30848 4.69428,-0.76912 8.27375,-0.22196 11.2258,1.71599 1.42902,0.93812 1.31335,0.90168 1.31335,0.4137 z m 41.275,-5.27414 c 0,-0.0664 -1.16122,-0.71715 -2.58048,-1.44618 -1.41927,-0.72902 -3.2945,-1.84095 -4.16719,-2.47094 -3.92718,-2.835015 -4.87169,-2.974885 -2.25407,-0.33379 1.78129,1.79726 4.34856,3.30352 6.75278,3.96196 1.39126,0.38102 2.24896,0.49122 2.24896,0.28895 z m -78.522538,-4.20009 c 3.091228,-1.846675 8.161868,-5.818505 10.269338,-8.043965 2.43559,-2.57195 5.11149,-6.50028 6.71662,-9.86026 1.38932,-2.90822 1.57135,-2.42686 0.40207,1.06321 -1.08014,3.22398 -2.33169,5.92349 -3.79498,8.18552 -0.66312,1.02507 -1.07006,1.86376 -0.90432,1.86376 0.99383,0 5.65986,-4.43408 6.84406,-6.50384 2.29021,-4.00288 2.44632,-10.59154 0.34911,-14.73404 -1.41199,-2.789 -5.33911,-7.99576 -5.73347,-7.6017 -0.0728,0.0728 0.22196,1.18884 0.65506,2.48016 0.9699,2.89184 1.26354,5.42839 0.96871,8.36776 -0.94764,9.44764 -6.53852,16.86108 -17.153828,22.74577 -1.38245,0.76637 -2.7219,1.57648 -2.97656,1.800235 -0.64118,0.56337 -0.57913,1.35726 0.12648,1.61828 0.83199,0.30777 2.09475,-0.10429 4.23171,-1.38089 z M 176.2415,99.304495 c 0,-0.0713 -1.09357,-0.67886 -2.43017,-1.35014 -1.3366,-0.67128 -3.72152,-2.10122 -5.29984,-3.17766 -2.97097,-2.02624 -3.59502,-2.31948 -3.14443,-1.47755 0.80279,1.50004 4.62825,4.22198 7.56715,5.38429 1.66211,0.65735 3.30729,0.96629 3.30729,0.62106 z M 32.471051,95.596705 c 1.79614,-0.91412 3.45718,-2.15569 3.21201,-2.40087 -0.0692,-0.0692 -1.12469,0.24339 -2.34563,0.69454 -3.46363,1.27986 -5.62015,1.10577 -6.77791,-0.54717 l -0.40847,-0.58317 1.33456,0.18355 c 4.03799,0.55536 9.77766,-2.94088 11.75109,-7.15801 0.96024,-2.05197 0.85077,-2.81224 -0.16804,-1.16709 -2.11768,3.41956 -6.34347,6.38787 -9.15434,6.43027 -1.47228,0.0222 -2.43606,-0.52 -3.05632,-1.71945 -0.62711,-1.2127 -0.38037,-4.078 0.54816,-6.36548 0.68299,-1.68261 1.19783,-2.27964 1.19783,-1.38907 0,1.56876 1.74451,-2.18887 2.79259,-6.01515 1.04304,-3.80789 2.76924,-9.19839 2.9456,-9.19839 0.0875,0 0.0902,0.91064 0.006,2.02364 -0.12834,1.69706 -0.0958,1.96393 0.20186,1.65365 1.22205,-1.274 1.91031,-7.19039 1.08719,-9.34568 -0.51453,-1.34728 -1.39258,-2.29053 -1.59164,-1.70981 -0.0691,0.20171 -0.31733,1.7096 -0.55153,3.35087 -0.40739,2.85489 -1.07883,5.33472 -1.7159,6.33732 -0.2236,0.35189 -0.26107,-0.71444 -0.15091,-4.29436 0.30895,-10.03927 1.27342,-13.619 4.03214,-14.96572 0.99998,-0.48816 1.18409,-0.50324 1.98438,-0.16247 1.70678,0.72676 2.31003,1.74718 3.69918,6.25728 1.33769,4.34308 2.07656,7.45887 2.38594,10.06153 0.40782,3.43078 0.81604,3.96806 0.60309,0.79375 -0.58248,-8.68226 -3.80013,-18.25779 -6.3502,-18.89781 -0.95567,-0.23986 -3.3429,0.49564 -4.34468,1.33858 -1.82972,1.5396 -2.50187,4.28885 -2.90222,11.87069 -0.41915,7.93769 -1.34775,12.18408 -4.25889,19.47533 -0.88827,2.22477 -1.90394,4.90567 -2.25705,5.95755 -1.47483,4.39344 -0.3486,8.27106 2.86416,9.86135 1.69483,0.83893 3.21777,0.73429 5.38797,-0.3702 z m 145.490239,-1.98341 c -0.0899,-0.14552 -0.28501,-0.26458 -0.43351,-0.26458 -0.59475,0 -3.89946,-1.47193 -5.49287,-2.44655 -1.87127,-1.14457 -7.39911,-3.49844 -7.64301,-3.25454 -0.085,0.085 0.48577,0.74645 1.26848,1.4698 1.42096,1.31321 4.47919,3.06696 6.48008,3.71604 2.6886,0.87217 6.16581,1.33802 5.82083,0.77983 z m -1.19062,-6.61458 c 0.32411,-0.20946 0.29291,-0.25722 -0.17021,-0.26053 -1.40448,-0.01 -6.87282,-1.67623 -9.87606,-3.00922 -1.81467,-0.80544 -3.35183,-1.41201 -3.41591,-1.34793 -0.50991,0.50991 3.45702,3.13369 5.82554,3.85311 2.70963,0.82302 6.89741,1.2423 7.63664,0.76457 z m -3.32052,-5.78403 c -0.13825,-0.12529 -1.79917,-0.60944 -3.69094,-1.0759 -1.89177,-0.46646 -4.92786,-1.47705 -6.74687,-2.24575 -3.67647,-1.55366 -6.05436,-2.39066 -6.24635,-2.19867 -0.27282,0.27282 2.40201,2.31366 4.3373,3.30927 2.1621,1.11229 3.97735,1.7744 5.89769,2.15116 1.5513,0.30436 6.77244,0.35284 6.44917,0.0599 z m -2.23573,-7.18055 c 0,-0.14552 -0.10751,-0.26458 -0.23892,-0.26458 -0.4864,0 -9.28858,-1.56727 -10.39184,-1.85032 -0.62876,-0.16131 -3.28632,-0.98844 -5.9057,-1.83807 -6.89558,-2.23667 -7.17002,-2.26063 -5.1672,-0.4512 2.13335,1.92735 6.3247,3.50275 10.98803,4.13006 1.30969,0.17617 2.55985,0.35564 2.77813,0.39881 1.11058,0.21966 7.9375,0.1124 7.9375,-0.1247 z m -92.604179,-4.19401 c 1.067731,-0.52292 1.690931,-1.06336 2.340451,-2.02965 0.82458,-1.22674 0.87841,-1.43855 0.78574,-3.0915 -0.0811,-1.4471 -0.24531,-1.98201 -0.88975,-2.89894 -1.10291,-1.56925 -3.141631,-2.60257 -5.134811,-2.60257 -2.03302,0 -4.40662,1.16044 -5.44837,2.66368 -2.12947,3.07283 -0.27215,7.59166 3.53677,8.60487 1.60292,0.4264 3.0049,0.23813 4.80997,-0.64589 z m -0.48872,-1.44333 c 0.531561,-0.46473 1.224481,-1.36251 1.539811,-1.99507 0.68258,-1.36929 0.89539,-1.3306 0.50276,0.0914 -0.31018,1.12337 -1.45747,2.36213 -2.406721,2.59858 -0.49393,0.12304 -0.42839,-0.002 0.36415,-0.69491 z m -2.73347,-1.27869 c -0.071,-0.74179 -0.20275,-0.90277 -0.79491,-0.97118 -0.50004,-0.0578 -0.79601,0.0791 -1.00149,0.46302 -0.39054,0.72972 -0.60367,0.68802 -1.14207,-0.22341 -1.25768,-2.12908 0.19025,-5.02421 2.52264,-5.04399 0.85387,-0.007 0.99276,0.0746 0.99624,0.5869 0.007,1.04538 0.37467,1.34389 1.4145,1.14881 0.86392,-0.16207 0.96253,-0.11714 1.12,0.51027 0.490821,1.95557 -0.51933,3.91728 -2.18887,4.25078 -0.80063,0.15992 -0.84503,0.12535 -0.92604,-0.7212 z m -4.97989,-3.63162 c 0,-0.89973 0.80946,-2.01006 1.86231,-2.55451 1.20506,-0.62316 1.52703,-0.45377 0.48429,0.25479 -0.5439,0.36959 -1.19392,1.16268 -1.51798,1.85208 -0.31171,0.66314 -0.62567,1.20571 -0.69768,1.20571 -0.072,0 -0.13094,-0.34114 -0.13094,-0.75807 z m 91.413549,1.78926 c 7.18046,-0.49759 6.10009,-0.81122 -4.89838,-1.42198 -8.59048,-0.47705 -9.45862,-0.56554 -13.02714,-1.32787 -1.56435,-0.33418 -2.84427,-0.50698 -2.84427,-0.38398 0,0.68511 3.04289,2.32348 5.58507,3.00714 1.78413,0.47979 9.19676,0.54164 15.18472,0.12669 z m -13.09688,-7.13894 c 4.7339,-0.9655 14.11069,-3.3604 13.28546,-3.3932 -0.33284,-0.0132 -4.02378,0.40208 -8.20208,0.92291 -4.70305,0.58624 -10.11659,1.06937 -14.2115,1.26828 l -6.61458,0.32132 2.24895,0.7333 c 4.36636,1.42369 7.09009,1.45344 13.49375,0.14739 z m -12.04013,-4.87674 c 2.51194,-0.53208 6.35995,-1.83614 9.3943,-3.18366 3.44532,-1.53003 10.15691,-4.65815 10.31875,-4.80934 0.29345,-0.27413 -3.22603,0.30639 -6.08542,1.00375 -1.67348,0.40814 -5.79862,1.57401 -9.16697,2.59082 -6.62887,2.00106 -10.80036,3.08127 -12.99782,3.36579 -0.76725,0.0993 -1.45296,0.2744 -1.52379,0.38901 -0.1181,0.19109 0.81302,0.5699 2.12504,0.86456 1.24632,0.2799 6.22596,0.14127 7.93591,-0.22093 z"
       id="path1" /><path
       id="path1-3"
       style="fill:#000000;fill-opacity:0;stroke:#ff0000;stroke-width:0.2;stroke-dasharray:none;stroke-opacity:1"
       d="m 160.66406,41.003165 c -8.54124,0.46642 -16.79988,2.86429 -25.0997,4.74917 -5.82605,1.39283 -11.63659,2.56939 -17.62391,2.83579 -1.71897,0.0805 -3.45488,0.39652 -5.16895,0.20979 -8.83895,-2.02527 -17.873134,-3.46096 -26.966812,-3.28303 -8.759543,-0.015 -17.523716,0.28185 -26.245237,1.11593 -3.752108,0.26793 -7.44448,0.81944 -11.199894,0.59028 -1.705711,-0.38045 -3.201723,-1.59551 -5.019713,-1.4816 -1.652959,-0.25388 -2.788204,-1.71219 -4.400361,-2.11113 -2.472895,-0.82921 -5.289147,0.16915 -6.915142,2.15404 -2.101736,2.32267 -2.784504,5.50161 -3.098491,8.52656 -0.717549,5.88446 -0.621513,11.86724 -2.504,17.54266 -1.241264,4.17856 -3.19999,8.08419 -4.945063,12.06196 -1.232704,2.8694 -1.806625,6.18549 -0.713115,9.1931 0.985585,2.91883 3.243723,5.38162 6.108261,6.53687 1.320379,0.755545 2.581479,1.673065 3.668118,2.721035 1.101085,1.80556 2.539313,3.38413 4.240181,4.64134 3.185164,2.59484 6.607346,4.87791 9.894492,7.33851 5.155699,3.59564 11.176912,5.69438 17.227175,7.21307 1.611985,0.77875 2.564881,2.42019 4.070757,3.36167 0.815886,0.59146 1.733575,1.01831 2.595703,1.53515 0.163044,3.0744 2.38001,5.5808 4.83808,7.20852 5.869258,4.19544 12.454121,7.38293 17.905813,12.15822 3.145726,2.78016 5.689085,6.34866 6.730717,10.37545 0.412447,1.45083 0.543532,3.24942 0.554166,4.87674 0.11609,4.10946 -0.696487,8.23504 -2.430746,11.96646 -1.639603,3.67993 -4.383276,7.21712 -8.359432,8.47589 -2.982057,0.97782 -6.308034,0.99268 -9.485638,0.94707 -5.409698,-0.14753 -10.758209,-1.37373 -16.18102,-1.85829 -3.958822,-0.33963 -7.97321,-0.0791 -11.824533,0.92159 -2.706969,0.59419 -5.381472,1.40901 -7.858735,2.66859 0.03297,3.05874 1.329995,5.92837 2.99381,8.4355 2.82009,4.5101 6.686609,8.21165 10.332362,12.0352 0.44702,0.68891 0.167612,1.57206 0.235353,2.35344 -0.09703,2.77779 -0.187591,5.56922 0.229082,8.32788 0.572078,4.50385 1.947249,9.0263 4.684003,12.70149 1.123755,1.1489 2.868359,0.67975 4.195754,0.2165 4.989722,-1.65304 9.693548,-4.09314 14.129389,-6.89363 4.821095,-3.1718 8.77135,-7.45888 12.294387,-11.98618 2.717659,-3.41093 5.536427,-6.95969 9.282389,-9.24353 2.99536,-1.98864 6.04825,-3.83921 9.51182,-4.91966 6.67908,-2.32154 13.36163,-4.68198 19.78338,-7.65566 6.11345,-2.82 11.60217,-6.83793 16.63686,-11.2737 0.74633,1.34637 2.34993,2.27619 3.89454,1.82227 1.52947,-0.24426 2.32969,-1.95686 3.8789,-2.0957 1.52274,0.25362 3.21313,0.56946 4.61579,-0.2874 2.1167,-1.29635 2.98617,-3.79678 4.63551,-5.54596 0.75574,-0.78276 1.96357,-0.75986 2.85222,-1.34633 1.9167,-1.03855 2.43541,-3.37077 3.92969,-4.81836 0.90604,-0.81692 2.2787,-0.6628 3.23875,-1.41392 1.4792,-1.17422 2.23674,-3.02692 2.74757,-4.79702 0.72961,-2.48029 0.87688,-5.12373 0.3244,-7.65522 -0.96191,-4.63491 -3.40158,-8.78196 -5.94996,-12.70793 -1.89909,-3.0052 -2.49126,-6.58151 -3.36272,-9.97083 -0.53847,-3.22598 -0.26633,-6.63992 -0.26562,-9.94336 0.0578,-1.00902 1.24965,-1.01052 2.00195,-0.97266 3.5206,0.32143 6.84306,1.55331 10.0593,2.90345 1.08091,0.64851 2.81043,-0.11299 2.68289,-1.47571 -0.12933,-1.4049 -1.01897,-2.56841 -1.87891,-3.625 0.91657,0.48095 2.11644,1.26963 3.11133,0.55859 0.87998,-0.68187 0.76195,-1.99992 0.14844,-2.81836 -0.043,-0.22585 -0.73977,-0.88949 -0.32227,-0.70312 1.1962,0.5159 2.34661,-0.81277 2.08594,-1.97071 -0.30519,-1.17349 -1.27472,-2.04214 -2.09946,-2.87968 -0.90681,-0.85002 -1.90505,-1.60018 -2.76968,-2.49532 1.8946,0.25098 3.45913,1.76169 5.41016,1.70508 1.13523,-0.17538 1.75671,-1.60002 1.10599,-2.55192 -0.8564,-2.33181 -2.92265,-3.971025 -4.90678,-5.270335 1.84967,0.53921 3.60608,1.34945 5.45508,1.89062 1.3328,-0.23184 1.84151,-1.9522 1.0966,-2.99487 -1.45031,-2.68751 -4.31638,-4.0574 -6.80838,-5.58368 -0.34513,-0.16775 -0.70424,-0.57555 -0.10503,-0.71031 1.18151,-0.41091 2.43282,0.11429 3.64096,0.1296 1.05632,0.14584 2.59488,-0.0479 2.81783,-1.31979 0.18862,-1.42915 -1.17983,-2.36826 -2.22273,-3.05893 -1.67023,-1.05328 -3.70396,-1.4671 -5.4837,-2.13585 2.0923,0.0761 4.104,1.0958 6.20943,0.83191 1.32991,-0.41175 1.26676,-2.38635 0.19696,-3.06847 -2.29866,-2.15573 -5.57359,-2.4504 -8.40249,-3.51344 -0.40108,-0.15719 -1.21541,-0.78866 -0.29586,-0.60942 2.56237,0.18673 4.91364,1.3434 7.5029,1.40825 1.43946,-0.27173 1.60418,-2.27626 0.625,-3.14648 -2.55607,-2.8749 -6.34096,-4.03005 -9.75162,-5.52597 -0.80322,-0.38883 -1.77208,-0.63154 -2.41245,-1.24161 -0.19778,-0.44609 -0.0675,-1.1491 0.53921,-1.10682 2.03364,-0.42155 4.11434,0.0233 6.15025,0.1908 1.09651,0.25005 2.64814,-0.0419 2.87109,-1.34765 0.21476,-1.43484 -1.19743,-2.32767 -2.27679,-2.93123 -3.39902,-1.97153 -7.45173,-2.06908 -11.08063,-3.38909 -0.98311,-0.46237 -1.75312,-1.96394 -0.71875,-2.77148 1.37548,-1.05516 3.22013,-0.5367 4.81596,-0.63567 2.5992,0.02 5.19822,0.0571 7.79732,0.0868 -2.06656,-1.57876 -3.80659,-3.63608 -6.1875,-4.76562 -4.45854,-1.64957 -9.38245,-1.43502 -13.82749,-3.14132 -0.4258,-0.21795 -1.23076,-0.49563 -1.33179,-0.82365 1.63545,-1.07532 3.61062,-1.4285 5.43764,-2.05857 1.89523,-0.57656 3.86983,-0.9832 5.68029,-1.78218 1.27161,-0.84022 0.5032,-3.05344 -0.97037,-3.08296 -3.36825,-0.64307 -6.80771,-0.80123 -10.23047,-0.72656 z"
       sodipodi:nodetypes="cccccccccccccccccccccccccccccccccccccccccccccccccccccccccccccccccccccccccccccccccccccccccccccccccccc" /></g></svg>
