<?xml version="1.0" encoding="UTF-8" standalone="no"?>
<svg
   height="465.30mm"
   viewBox="0.0 0.0 121.90 465.30"
   width="121.90mm"
   version="1.1"
   id="svg18"
   sodipodi:docname="grad_box.svg"
   inkscape:version="1.3.2 (091e20e, 2023-11-25, custom)"
   xmlns:inkscape="http://www.inkscape.org/namespaces/inkscape"
   xmlns:sodipodi="http://sodipodi.sourceforge.net/DTD/sodipodi-0.dtd"
   xmlns="http://www.w3.org/2000/svg"
   xmlns:svg="http://www.w3.org/2000/svg"
   xmlns:rdf="http://www.w3.org/1999/02/22-rdf-syntax-ns#"
   xmlns:cc="http://creativecommons.org/ns#"
   xmlns:dc="http://purl.org/dc/elements/1.1/">
  <defs
     id="defs18" />
  <sodipodi:namedview
     id="namedview18"
     pagecolor="#ffffff"
     bordercolor="#000000"
     borderopacity="0.25"
     inkscape:showpageshadow="2"
     inkscape:pageopacity="0.0"
     inkscape:pagecheckerboard="0"
     inkscape:deskcolor="#d1d1d1"
     inkscape:document-units="mm"
     inkscape:zoom="1.3204367"
     inkscape:cx="278.69567"
     inkscape:cy="919.77145"
     inkscape:window-width="1920"
     inkscape:window-height="1017"
     inkscape:window-x="-8"
     inkscape:window-y="-8"
     inkscape:window-maximized="1"
     inkscape:current-layer="svg18" />
  <!--
ABox - A simple Box


This box is kept simple on purpose. If you need more features have a look at the UniversalBox.


Created with Boxes.py (https://boxes.hackerspace-bamberg.de/)
Creation date: 2024-07-22 13:27:43
Command line (remove spaces between dashes): boxes ABox - -x=50.0 - -y=50.0 - -h=190.0
Url: http://boxes.hackerspace-bamberg.de/boxes.py/ABox?FingerJoint_angle=90.0&FingerJoint_style=rectangular&FingerJoint_surroundingspaces=2.0&FingerJoint_bottom_lip=0.0&FingerJoint_edge_width=1.0&FingerJoint_extra_length=0.0&FingerJoint_finger=2.0&FingerJoint_play=0.0&FingerJoint_space=2.0&FingerJoint_width=1.0&Lid_handle=none&Lid_style=none&Lid_handle_height=8.0&Lid_height=4.0&Lid_play=0.1&x=50.0&y=50.0&h=190.0&outside=0&outside=1&bottom_edge=h&thickness=3.0&format=svg&tabs=0.0&qr_code=0&debug=0&labels=0&labels=1&reference=100.0&inner_corners=loop&burn=0.1&language=en&render=1
Url short: http://boxes.hackerspace-bamberg.de/boxes.py/ABox?x=50.0&y=50.0&h=190.0
SettingsUrl: http://boxes.hackerspace-bamberg.de/boxes.py/ABox?FingerJoint_angle=90.0&FingerJoint_style=rectangular&FingerJoint_surroundingspaces=2.0&FingerJoint_bottom_lip=0.0&FingerJoint_edge_width=1.0&FingerJoint_extra_length=0.0&FingerJoint_finger=2.0&FingerJoint_play=0.0&FingerJoint_space=2.0&FingerJoint_width=1.0&Lid_handle=none&Lid_style=none&Lid_handle_height=8.0&Lid_height=4.0&Lid_play=0.1&x=50.0&y=50.0&h=190.0&outside=0&outside=1&bottom_edge=h&thickness=3.0&format=svg&tabs=0.0&qr_code=0&debug=0&labels=0&labels=1&reference=100.0&inner_corners=loop&burn=0.1&language=en
SettingsUrl short: http://boxes.hackerspace-bamberg.de/boxes.py/ABox?x=50.0&y=50.0&h=190.0
-->
  <title
     id="title1">ABox</title>
  <metadata
     id="metadata1">
    <rdf:RDF>
      <cc:Work>
        <dc:title>ABox</dc:title>
        <dc:date>2024-07-22 13:27:43</dc:date>
        <dc:source>http://boxes.hackerspace-bamberg.de/boxes.py/ABox?FingerJoint_angle=90.0&amp;FingerJoint_style=rectangular&amp;FingerJoint_surroundingspaces=2.0&amp;FingerJoint_bottom_lip=0.0&amp;FingerJoint_edge_width=1.0&amp;FingerJoint_extra_length=0.0&amp;FingerJoint_finger=2.0&amp;FingerJoint_play=0.0&amp;FingerJoint_space=2.0&amp;FingerJoint_width=1.0&amp;Lid_handle=none&amp;Lid_style=none&amp;Lid_handle_height=8.0&amp;Lid_height=4.0&amp;Lid_play=0.1&amp;x=50.0&amp;y=50.0&amp;h=190.0&amp;outside=0&amp;outside=1&amp;bottom_edge=h&amp;thickness=3.0&amp;format=svg&amp;tabs=0.0&amp;qr_code=0&amp;debug=0&amp;labels=0&amp;labels=1&amp;reference=100.0&amp;inner_corners=loop&amp;burn=0.1&amp;language=en&amp;render=1</dc:source>
        <dc:source>http://boxes.hackerspace-bamberg.de/boxes.py/ABox?x=50.0&amp;y=50.0&amp;h=190.0</dc:source>
        <dc:description>A simple Box

This box is kept simple on purpose. If you need more features have a look at the UniversalBox.

Created with Boxes.py (https://boxes.hackerspace-bamberg.de/)
Command line: boxes ABox --FingerJoint_angle=90.0 --FingerJoint_style=rectangular --FingerJoint_surroundingspaces=2.0 --FingerJoint_bottom_lip=0.0 --FingerJoint_edge_width=1.0 --FingerJoint_extra_length=0.0 --FingerJoint_finger=2.0 --FingerJoint_play=0.0 --FingerJoint_space=2.0 --FingerJoint_width=1.0 --Lid_handle=none --Lid_style=none --Lid_handle_height=8.0 --Lid_height=4.0 --Lid_play=0.1 --x=50.0 --y=50.0 --h=190.0 --outside=0 --outside=1 --bottom_edge=h --thickness=3.0 --format=svg --tabs=0.0 --qr_code=0 --debug=0 --labels=0 --labels=1 --reference=100.0 --inner_corners=loop --burn=0.1
Command line short: boxes ABox --x=50.0 --y=50.0 --h=190.0
Url: http://boxes.hackerspace-bamberg.de/boxes.py/ABox?FingerJoint_angle=90.0&amp;FingerJoint_style=rectangular&amp;FingerJoint_surroundingspaces=2.0&amp;FingerJoint_bottom_lip=0.0&amp;FingerJoint_edge_width=1.0&amp;FingerJoint_extra_length=0.0&amp;FingerJoint_finger=2.0&amp;FingerJoint_play=0.0&amp;FingerJoint_space=2.0&amp;FingerJoint_width=1.0&amp;Lid_handle=none&amp;Lid_style=none&amp;Lid_handle_height=8.0&amp;Lid_height=4.0&amp;Lid_play=0.1&amp;x=50.0&amp;y=50.0&amp;h=190.0&amp;outside=0&amp;outside=1&amp;bottom_edge=h&amp;thickness=3.0&amp;format=svg&amp;tabs=0.0&amp;qr_code=0&amp;debug=0&amp;labels=0&amp;labels=1&amp;reference=100.0&amp;inner_corners=loop&amp;burn=0.1&amp;language=en&amp;render=1
Url short: http://boxes.hackerspace-bamberg.de/boxes.py/ABox?x=50.0&amp;y=50.0&amp;h=190.0
SettingsUrl: http://boxes.hackerspace-bamberg.de/boxes.py/ABox?FingerJoint_angle=90.0&amp;FingerJoint_style=rectangular&amp;FingerJoint_surroundingspaces=2.0&amp;FingerJoint_bottom_lip=0.0&amp;FingerJoint_edge_width=1.0&amp;FingerJoint_extra_length=0.0&amp;FingerJoint_finger=2.0&amp;FingerJoint_play=0.0&amp;FingerJoint_space=2.0&amp;FingerJoint_width=1.0&amp;Lid_handle=none&amp;Lid_style=none&amp;Lid_handle_height=8.0&amp;Lid_height=4.0&amp;Lid_play=0.1&amp;x=50.0&amp;y=50.0&amp;h=190.0&amp;outside=0&amp;outside=1&amp;bottom_edge=h&amp;thickness=3.0&amp;format=svg&amp;tabs=0.0&amp;qr_code=0&amp;debug=0&amp;labels=0&amp;labels=1&amp;reference=100.0&amp;inner_corners=loop&amp;burn=0.1&amp;language=en
SettingsUrl short: http://boxes.hackerspace-bamberg.de/boxes.py/ABox?x=50.0&amp;y=50.0&amp;h=190.0
</dc:description>
      </cc:Work>
    </rdf:RDF>
  </metadata>
  <g
     id="p-0"
     style="fill:none;stroke-linecap:round;stroke-linejoin:round;">
    <path
       d="M 10.100 455.300 H 110.100 V 445.300 H 10.100 V 455.300 Z"
       stroke="rgb(0,0,0)"
       stroke-width="0.20"
       id="path1" />
    <text
       dominant-baseline="hanging"
       font-size="6px"
       style="font-family: sans-serif ; font-weight: normal; font-style: normal; fill: rgb(255,0,0)"
       text-anchor="middle"
       transform="matrix( 1.000 0.000 0.000 1.000 60.100 447.300 )"
       id="text1">100.0mm, burn:0.10mm</text>
  </g>
  <g
     id="p-1"
     style="fill:none;stroke-linecap:round;stroke-linejoin:round;">
    <path
       d="M 23.100 440.400 H 20.200 C 20.100 440.400 20.200 440.500 20.200 440.400 V 437.600 C 20.200 437.500 20.100 437.600 20.200 437.600 H 26.000 C 26.100 437.600 26.000 437.500 26.000 437.600 V 440.400 C 26.000 440.500 26.100 440.400 26.000 440.400 H 23.100 Z"
       stroke="rgb(0,0,255)"
       stroke-width="0.20"
       id="path2" />
    <path
       d="M 35.100 440.400 H 32.200 C 32.100 440.400 32.200 440.500 32.200 440.400 V 437.600 C 32.200 437.500 32.100 437.600 32.200 437.600 H 38.000 C 38.100 437.600 38.000 437.500 38.000 437.600 V 440.400 C 38.000 440.500 38.100 440.400 38.000 440.400 H 35.100 Z"
       stroke="rgb(0,0,255)"
       stroke-width="0.20"
       id="path3" />
    <path
       d="M 47.100 440.400 H 44.200 C 44.100 440.400 44.200 440.500 44.200 440.400 V 437.600 C 44.200 437.500 44.100 437.600 44.200 437.600 H 50.000 C 50.100 437.600 50.000 437.500 50.000 437.600 V 440.400 C 50.000 440.500 50.100 440.400 50.000 440.400 H 47.100 Z"
       stroke="rgb(0,0,255)"
       stroke-width="0.20"
       id="path4" />
    <path
       d="M 13.100 443.600 H 57.100 H 60.100 C 60.155 443.600 60.200 443.555 60.200 443.500 V 435.500 C 60.200 435.445 60.155 435.400 60.100 435.400 H 57.200 C 57.100 435.400 57.200 435.500 57.200 435.400 V 429.600 C 57.200 429.500 57.100 429.600 57.200 429.600 H 60.100 C 60.155 429.600 60.200 429.555 60.200 429.500 V 423.500 C 60.200 423.445 60.155 423.400 60.100 423.400 H 57.200 C 57.100 423.400 57.200 423.500 57.200 423.400 V 417.600 C 57.200 417.500 57.100 417.600 57.200 417.600 H 60.100 C 60.155 417.600 60.200 417.555 60.200 417.500 V 411.500 C 60.200 411.445 60.155 411.400 60.100 411.400 H 57.200 C 57.100 411.400 57.200 411.500 57.200 411.400 V 405.600 C 57.200 405.500 57.100 405.600 57.200 405.600 H 60.100 C 60.155 405.600 60.200 405.555 60.200 405.500 V 399.500 C 60.200 399.445 60.155 399.400 60.100 399.400 H 57.200 C 57.100 399.400 57.200 399.500 57.200 399.400 V 393.600 C 57.200 393.500 57.100 393.600 57.200 393.600 H 60.100 C 60.155 393.600 60.200 393.555 60.200 393.500 V 387.500 C 60.200 387.445 60.155 387.400 60.100 387.400 H 57.200 C 57.100 387.400 57.200 387.500 57.200 387.400 V 381.600 C 57.200 381.500 57.100 381.600 57.200 381.600 H 60.100 C 60.155 381.600 60.200 381.555 60.200 381.500 V 375.500 C 60.200 375.445 60.155 375.400 60.100 375.400 H 57.200 C 57.100 375.400 57.200 375.500 57.200 375.400 V 369.600 C 57.200 369.500 57.100 369.600 57.200 369.600 H 60.100 C 60.155 369.600 60.200 369.555 60.200 369.500 V 363.500 C 60.200 363.445 60.155 363.400 60.100 363.400 H 57.200 C 57.100 363.400 57.200 363.500 57.200 363.400 V 357.600 C 57.200 357.500 57.100 357.600 57.200 357.600 H 60.100 C 60.155 357.600 60.200 357.555 60.200 357.500 V 351.500 C 60.200 351.445 60.155 351.400 60.100 351.400 H 57.200 C 57.100 351.400 57.200 351.500 57.200 351.400 V 345.600 C 57.200 345.500 57.100 345.600 57.200 345.600 H 60.100 C 60.155 345.600 60.200 345.555 60.200 345.500 V 339.500 C 60.200 339.445 60.155 339.400 60.100 339.400 H 57.200 C 57.100 339.400 57.200 339.500 57.200 339.400 V 333.600 C 57.200 333.500 57.100 333.600 57.200 333.600 H 60.100 C 60.155 333.600 60.200 333.555 60.200 333.500 V 327.500 C 60.200 327.445 60.155 327.400 60.100 327.400 H 57.200 C 57.100 327.400 57.200 327.500 57.200 327.400 V 321.600 C 57.200 321.500 57.100 321.600 57.200 321.600 H 60.100 C 60.155 321.600 60.200 321.555 60.200 321.500 V 315.500 C 60.200 315.445 60.155 315.400 60.100 315.400 H 57.200 C 57.100 315.400 57.200 315.500 57.200 315.400 V 309.600 C 57.200 309.500 57.100 309.600 57.200 309.600 H 60.100 C 60.155 309.600 60.200 309.555 60.200 309.500 V 303.500 C 60.200 303.445 60.155 303.400 60.100 303.400 H 57.200 C 57.100 303.400 57.200 303.500 57.200 303.400 V 297.600 C 57.200 297.500 57.100 297.600 57.200 297.600 H 60.100 C 60.155 297.600 60.200 297.555 60.200 297.500 V 291.500 C 60.200 291.445 60.155 291.400 60.100 291.400 H 57.200 C 57.100 291.400 57.200 291.500 57.200 291.400 V 285.600 C 57.200 285.500 57.100 285.600 57.200 285.600 H 60.100 C 60.155 285.600 60.200 285.555 60.200 285.500 V 279.500 C 60.200 279.445 60.155 279.400 60.100 279.400 H 57.200 C 57.100 279.400 57.200 279.500 57.200 279.400 V 273.600 C 57.200 273.500 57.100 273.600 57.200 273.600 H 60.100 C 60.155 273.600 60.200 273.555 60.200 273.500 V 267.500 C 60.200 267.445 60.155 267.400 60.100 267.400 H 57.200 C 57.100 267.400 57.200 267.500 57.200 267.400 V 261.600 C 57.200 261.500 57.100 261.600 57.200 261.600 H 60.100 C 60.155 261.600 60.200 261.555 60.200 261.500 V 253.500 C 60.200 253.445 60.155 253.400 60.100 253.400 H 57.100 H 13.100 H 10.100 C 10.045 253.400 10.000 253.445 10.000 253.500 V 261.500 C 10.000 261.555 10.045 261.600 10.100 261.600 H 13.000 C 13.100 261.600 13.000 261.500 13.000 261.600 V 267.400 C 13.000 267.500 13.100 267.400 13.000 267.400 H 10.100 C 10.045 267.400 10.000 267.445 10.000 267.500 V 273.500 C 10.000 273.555 10.045 273.600 10.100 273.600 H 13.000 C 13.100 273.600 13.000 273.500 13.000 273.600 V 279.400 C 13.000 279.500 13.100 279.400 13.000 279.400 H 10.100 C 10.045 279.400 10.000 279.445 10.000 279.500 V 285.500 C 10.000 285.555 10.045 285.600 10.100 285.600 H 13.000 C 13.100 285.600 13.000 285.500 13.000 285.600 V 291.400 C 13.000 291.500 13.100 291.400 13.000 291.400 H 10.100 C 10.045 291.400 10.000 291.445 10.000 291.500 V 297.500 C 10.000 297.555 10.045 297.600 10.100 297.600 H 13.000 C 13.100 297.600 13.000 297.500 13.000 297.600 V 303.400 C 13.000 303.500 13.100 303.400 13.000 303.400 H 10.100 C 10.045 303.400 10.000 303.445 10.000 303.500 V 309.500 C 10.000 309.555 10.045 309.600 10.100 309.600 H 13.000 C 13.100 309.600 13.000 309.500 13.000 309.600 V 315.400 C 13.000 315.500 13.100 315.400 13.000 315.400 H 10.100 C 10.045 315.400 10.000 315.445 10.000 315.500 V 321.500 C 10.000 321.555 10.045 321.600 10.100 321.600 H 13.000 C 13.100 321.600 13.000 321.500 13.000 321.600 V 327.400 C 13.000 327.500 13.100 327.400 13.000 327.400 H 10.100 C 10.045 327.400 10.000 327.445 10.000 327.500 V 333.500 C 10.000 333.555 10.045 333.600 10.100 333.600 H 13.000 C 13.100 333.600 13.000 333.500 13.000 333.600 V 339.400 C 13.000 339.500 13.100 339.400 13.000 339.400 H 10.100 C 10.045 339.400 10.000 339.445 10.000 339.500 V 345.500 C 10.000 345.555 10.045 345.600 10.100 345.600 H 13.000 C 13.100 345.600 13.000 345.500 13.000 345.600 V 351.400 C 13.000 351.500 13.100 351.400 13.000 351.400 H 10.100 C 10.045 351.400 10.000 351.445 10.000 351.500 V 357.500 C 10.000 357.555 10.045 357.600 10.100 357.600 H 13.000 C 13.100 357.600 13.000 357.500 13.000 357.600 V 363.400 C 13.000 363.500 13.100 363.400 13.000 363.400 H 10.100 C 10.045 363.400 10.000 363.445 10.000 363.500 V 369.500 C 10.000 369.555 10.045 369.600 10.100 369.600 H 13.000 C 13.100 369.600 13.000 369.500 13.000 369.600 V 375.400 C 13.000 375.500 13.100 375.400 13.000 375.400 H 10.100 C 10.045 375.400 10.000 375.445 10.000 375.500 V 381.500 C 10.000 381.555 10.045 381.600 10.100 381.600 H 13.000 C 13.100 381.600 13.000 381.500 13.000 381.600 V 387.400 C 13.000 387.500 13.100 387.400 13.000 387.400 H 10.100 C 10.045 387.400 10.000 387.445 10.000 387.500 V 393.500 C 10.000 393.555 10.045 393.600 10.100 393.600 H 13.000 C 13.100 393.600 13.000 393.500 13.000 393.600 V 399.400 C 13.000 399.500 13.100 399.400 13.000 399.400 H 10.100 C 10.045 399.400 10.000 399.445 10.000 399.500 V 405.500 C 10.000 405.555 10.045 405.600 10.100 405.600 H 13.000 C 13.100 405.600 13.000 405.500 13.000 405.600 V 411.400 C 13.000 411.500 13.100 411.400 13.000 411.400 H 10.100 C 10.045 411.400 10.000 411.445 10.000 411.500 V 417.500 C 10.000 417.555 10.045 417.600 10.100 417.600 H 13.000 C 13.100 417.600 13.000 417.500 13.000 417.600 V 423.400 C 13.000 423.500 13.100 423.400 13.000 423.400 H 10.100 C 10.045 423.400 10.000 423.445 10.000 423.500 V 429.500 C 10.000 429.555 10.045 429.600 10.100 429.600 H 13.000 C 13.100 429.600 13.000 429.500 13.000 429.600 V 435.400 C 13.000 435.500 13.100 435.400 13.000 435.400 H 10.100 C 10.045 435.400 10.000 435.445 10.000 435.500 V 443.500 C 10.000 443.555 10.045 443.600 10.100 443.600 H 13.100 Z"
       stroke="rgb(0,0,0)"
       stroke-width="0.20"
       id="path5" />
  </g>
  <g
     id="p-2"
     style="fill:none;stroke-linecap:round;stroke-linejoin:round;">
    <path
       d="M 23.100 248.700 H 20.200 C 20.100 248.700 20.200 248.800 20.200 248.700 V 245.900 C 20.200 245.800 20.100 245.900 20.200 245.900 H 26.000 C 26.100 245.900 26.000 245.800 26.000 245.900 V 248.700 C 26.000 248.800 26.100 248.700 26.000 248.700 H 23.100 Z"
       stroke="rgb(0,0,255)"
       stroke-width="0.20"
       id="path6" />
    <path
       d="M 35.100 248.700 H 32.200 C 32.100 248.700 32.200 248.800 32.200 248.700 V 245.900 C 32.200 245.800 32.100 245.900 32.200 245.900 H 38.000 C 38.100 245.900 38.000 245.800 38.000 245.900 V 248.700 C 38.000 248.800 38.100 248.700 38.000 248.700 H 35.100 Z"
       stroke="rgb(0,0,255)"
       stroke-width="0.20"
       id="path7" />
    <path
       d="M 47.100 248.700 H 44.200 C 44.100 248.700 44.200 248.800 44.200 248.700 V 245.900 C 44.200 245.800 44.100 245.900 44.200 245.900 H 50.000 C 50.100 245.900 50.000 245.800 50.000 245.900 V 248.700 C 50.000 248.800 50.100 248.700 50.000 248.700 H 47.100 Z"
       stroke="rgb(0,0,255)"
       stroke-width="0.20"
       id="path8" />
    <path
       d="M 13.100 251.900 H 57.100 H 60.100 C 60.155 251.900 60.200 251.855 60.200 251.800 V 243.800 C 60.200 243.745 60.155 243.700 60.100 243.700 H 57.200 C 57.100 243.700 57.200 243.800 57.200 243.700 V 237.900 C 57.200 237.800 57.100 237.900 57.200 237.900 H 60.100 C 60.155 237.900 60.200 237.855 60.200 237.800 V 231.800 C 60.200 231.745 60.155 231.700 60.100 231.700 H 57.200 C 57.100 231.700 57.200 231.800 57.200 231.700 V 225.900 C 57.200 225.800 57.100 225.900 57.200 225.900 H 60.100 C 60.155 225.900 60.200 225.855 60.200 225.800 V 219.800 C 60.200 219.745 60.155 219.700 60.100 219.700 H 57.200 C 57.100 219.700 57.200 219.800 57.200 219.700 V 213.900 C 57.200 213.800 57.100 213.900 57.200 213.900 H 60.100 C 60.155 213.900 60.200 213.855 60.200 213.800 V 207.800 C 60.200 207.745 60.155 207.700 60.100 207.700 H 57.200 C 57.100 207.700 57.200 207.800 57.200 207.700 V 201.900 C 57.200 201.800 57.100 201.900 57.200 201.900 H 60.100 C 60.155 201.900 60.200 201.855 60.200 201.800 V 195.800 C 60.200 195.745 60.155 195.700 60.100 195.700 H 57.200 C 57.100 195.700 57.200 195.800 57.200 195.700 V 189.900 C 57.200 189.800 57.100 189.900 57.200 189.900 H 60.100 C 60.155 189.900 60.200 189.855 60.200 189.800 V 183.800 C 60.200 183.745 60.155 183.700 60.100 183.700 H 57.200 C 57.100 183.700 57.200 183.800 57.200 183.700 V 177.900 C 57.200 177.800 57.100 177.900 57.200 177.900 H 60.100 C 60.155 177.900 60.200 177.855 60.200 177.800 V 171.800 C 60.200 171.745 60.155 171.700 60.100 171.700 H 57.200 C 57.100 171.700 57.200 171.800 57.200 171.700 V 165.900 C 57.200 165.800 57.100 165.900 57.200 165.900 H 60.100 C 60.155 165.900 60.200 165.855 60.200 165.800 V 159.800 C 60.200 159.745 60.155 159.700 60.100 159.700 H 57.200 C 57.100 159.700 57.200 159.800 57.200 159.700 V 153.900 C 57.200 153.800 57.100 153.900 57.200 153.900 H 60.100 C 60.155 153.900 60.200 153.855 60.200 153.800 V 147.800 C 60.200 147.745 60.155 147.700 60.100 147.700 H 57.200 C 57.100 147.700 57.200 147.800 57.200 147.700 V 141.900 C 57.200 141.800 57.100 141.900 57.200 141.900 H 60.100 C 60.155 141.900 60.200 141.855 60.200 141.800 V 135.800 C 60.200 135.745 60.155 135.700 60.100 135.700 H 57.200 C 57.100 135.700 57.200 135.800 57.200 135.700 V 129.900 C 57.200 129.800 57.100 129.900 57.200 129.900 H 60.100 C 60.155 129.900 60.200 129.855 60.200 129.800 V 123.800 C 60.200 123.745 60.155 123.700 60.100 123.700 H 57.200 C 57.100 123.700 57.200 123.800 57.200 123.700 V 117.900 C 57.200 117.800 57.100 117.900 57.200 117.900 H 60.100 C 60.155 117.900 60.200 117.855 60.200 117.800 V 111.800 C 60.200 111.745 60.155 111.700 60.100 111.700 H 57.200 C 57.100 111.700 57.200 111.800 57.200 111.700 V 105.900 C 57.200 105.800 57.100 105.900 57.200 105.900 H 60.100 C 60.155 105.900 60.200 105.855 60.200 105.800 V 99.800 C 60.200 99.745 60.155 99.700 60.100 99.700 H 57.200 C 57.100 99.700 57.200 99.800 57.200 99.700 V 93.900 C 57.200 93.800 57.100 93.900 57.200 93.900 H 60.100 C 60.155 93.900 60.200 93.855 60.200 93.800 V 87.800 C 60.200 87.745 60.155 87.700 60.100 87.700 H 57.200 C 57.100 87.700 57.200 87.800 57.200 87.700 V 81.900 C 57.200 81.800 57.100 81.900 57.200 81.900 H 60.100 C 60.155 81.900 60.200 81.855 60.200 81.800 V 75.800 C 60.200 75.745 60.155 75.700 60.100 75.700 H 57.200 C 57.100 75.700 57.200 75.800 57.200 75.700 V 69.900 C 57.200 69.800 57.100 69.900 57.200 69.900 H 60.100 C 60.155 69.900 60.200 69.855 60.200 69.800 V 61.800 C 60.200 61.745 60.155 61.700 60.100 61.700 H 57.100 H 13.100 H 10.100 C 10.045 61.700 10.000 61.745 10.000 61.800 V 69.800 C 10.000 69.855 10.045 69.900 10.100 69.900 H 13.000 C 13.100 69.900 13.000 69.800 13.000 69.900 V 75.700 C 13.000 75.800 13.100 75.700 13.000 75.700 H 10.100 C 10.045 75.700 10.000 75.745 10.000 75.800 V 81.800 C 10.000 81.855 10.045 81.900 10.100 81.900 H 13.000 C 13.100 81.900 13.000 81.800 13.000 81.900 V 87.700 C 13.000 87.800 13.100 87.700 13.000 87.700 H 10.100 C 10.045 87.700 10.000 87.745 10.000 87.800 V 93.800 C 10.000 93.855 10.045 93.900 10.100 93.900 H 13.000 C 13.100 93.900 13.000 93.800 13.000 93.900 V 99.700 C 13.000 99.800 13.100 99.700 13.000 99.700 H 10.100 C 10.045 99.700 10.000 99.745 10.000 99.800 V 105.800 C 10.000 105.855 10.045 105.900 10.100 105.900 H 13.000 C 13.100 105.900 13.000 105.800 13.000 105.900 V 111.700 C 13.000 111.800 13.100 111.700 13.000 111.700 H 10.100 C 10.045 111.700 10.000 111.745 10.000 111.800 V 117.800 C 10.000 117.855 10.045 117.900 10.100 117.900 H 13.000 C 13.100 117.900 13.000 117.800 13.000 117.900 V 123.700 C 13.000 123.800 13.100 123.700 13.000 123.700 H 10.100 C 10.045 123.700 10.000 123.745 10.000 123.800 V 129.800 C 10.000 129.855 10.045 129.900 10.100 129.900 H 13.000 C 13.100 129.900 13.000 129.800 13.000 129.900 V 135.700 C 13.000 135.800 13.100 135.700 13.000 135.700 H 10.100 C 10.045 135.700 10.000 135.745 10.000 135.800 V 141.800 C 10.000 141.855 10.045 141.900 10.100 141.900 H 13.000 C 13.100 141.900 13.000 141.800 13.000 141.900 V 147.700 C 13.000 147.800 13.100 147.700 13.000 147.700 H 10.100 C 10.045 147.700 10.000 147.745 10.000 147.800 V 153.800 C 10.000 153.855 10.045 153.900 10.100 153.900 H 13.000 C 13.100 153.900 13.000 153.800 13.000 153.900 V 159.700 C 13.000 159.800 13.100 159.700 13.000 159.700 H 10.100 C 10.045 159.700 10.000 159.745 10.000 159.800 V 165.800 C 10.000 165.855 10.045 165.900 10.100 165.900 H 13.000 C 13.100 165.900 13.000 165.800 13.000 165.900 V 171.700 C 13.000 171.800 13.100 171.700 13.000 171.700 H 10.100 C 10.045 171.700 10.000 171.745 10.000 171.800 V 177.800 C 10.000 177.855 10.045 177.900 10.100 177.900 H 13.000 C 13.100 177.900 13.000 177.800 13.000 177.900 V 183.700 C 13.000 183.800 13.100 183.700 13.000 183.700 H 10.100 C 10.045 183.700 10.000 183.745 10.000 183.800 V 189.800 C 10.000 189.855 10.045 189.900 10.100 189.900 H 13.000 C 13.100 189.900 13.000 189.800 13.000 189.900 V 195.700 C 13.000 195.800 13.100 195.700 13.000 195.700 H 10.100 C 10.045 195.700 10.000 195.745 10.000 195.800 V 201.800 C 10.000 201.855 10.045 201.900 10.100 201.900 H 13.000 C 13.100 201.900 13.000 201.800 13.000 201.900 V 207.700 C 13.000 207.800 13.100 207.700 13.000 207.700 H 10.100 C 10.045 207.700 10.000 207.745 10.000 207.800 V 213.800 C 10.000 213.855 10.045 213.900 10.100 213.900 H 13.000 C 13.100 213.900 13.000 213.800 13.000 213.900 V 219.700 C 13.000 219.800 13.100 219.700 13.000 219.700 H 10.100 C 10.045 219.700 10.000 219.745 10.000 219.800 V 225.800 C 10.000 225.855 10.045 225.900 10.100 225.900 H 13.000 C 13.100 225.900 13.000 225.800 13.000 225.900 V 231.700 C 13.000 231.800 13.100 231.700 13.000 231.700 H 10.100 C 10.045 231.700 10.000 231.745 10.000 231.800 V 237.800 C 10.000 237.855 10.045 237.900 10.100 237.900 H 13.000 C 13.100 237.900 13.000 237.800 13.000 237.900 V 243.700 C 13.000 243.800 13.100 243.700 13.000 243.700 H 10.100 C 10.045 243.700 10.000 243.745 10.000 243.800 V 251.800 C 10.000 251.855 10.045 251.900 10.100 251.900 H 13.100 Z"
       stroke="rgb(0,0,0)"
       stroke-width="0.20"
       id="path9" />
  </g>
  <g
     id="p-3"
     style="fill:none;stroke-linecap:round;stroke-linejoin:round;">
    <path
       d="M 13.100 57.200 H 20.000 C 20.100 57.200 20.000 57.100 20.000 57.200 V 60.100 C 20.000 60.155 20.045 60.200 20.100 60.200 H 26.100 C 26.155 60.200 26.200 60.155 26.200 60.100 V 57.200 C 26.200 57.100 26.100 57.200 26.200 57.200 H 32.000 C 32.100 57.200 32.000 57.100 32.000 57.200 V 60.100 C 32.000 60.155 32.045 60.200 32.100 60.200 H 38.100 C 38.155 60.200 38.200 60.155 38.200 60.100 V 57.200 C 38.200 57.100 38.100 57.200 38.200 57.200 H 44.000 C 44.100 57.200 44.000 57.100 44.000 57.200 V 60.100 C 44.000 60.155 44.045 60.200 44.100 60.200 H 50.100 C 50.155 60.200 50.200 60.155 50.200 60.100 V 57.200 C 50.200 57.100 50.100 57.200 50.200 57.200 H 57.100 C 57.155 57.200 57.200 57.155 57.200 57.100 V 50.200 C 57.200 50.100 57.100 50.200 57.200 50.200 H 60.100 C 60.155 50.200 60.200 50.155 60.200 50.100 V 44.100 C 60.200 44.045 60.155 44.000 60.100 44.000 H 57.200 C 57.100 44.000 57.200 44.100 57.200 44.000 V 38.200 C 57.200 38.100 57.100 38.200 57.200 38.200 H 60.100 C 60.155 38.200 60.200 38.155 60.200 38.100 V 32.100 C 60.200 32.045 60.155 32.000 60.100 32.000 H 57.200 C 57.100 32.000 57.200 32.100 57.200 32.000 V 26.200 C 57.200 26.100 57.100 26.200 57.200 26.200 H 60.100 C 60.155 26.200 60.200 26.155 60.200 26.100 V 20.100 C 60.200 20.045 60.155 20.000 60.100 20.000 H 57.200 C 57.100 20.000 57.200 20.100 57.200 20.000 V 13.100 C 57.200 13.045 57.155 13.000 57.100 13.000 H 50.200 C 50.100 13.000 50.200 13.100 50.200 13.000 V 10.100 C 50.200 10.045 50.155 10.000 50.100 10.000 H 44.100 C 44.045 10.000 44.000 10.045 44.000 10.100 V 13.000 C 44.000 13.100 44.100 13.000 44.000 13.000 H 38.200 C 38.100 13.000 38.200 13.100 38.200 13.000 V 10.100 C 38.200 10.045 38.155 10.000 38.100 10.000 H 32.100 C 32.045 10.000 32.000 10.045 32.000 10.100 V 13.000 C 32.000 13.100 32.100 13.000 32.000 13.000 H 26.200 C 26.100 13.000 26.200 13.100 26.200 13.000 V 10.100 C 26.200 10.045 26.155 10.000 26.100 10.000 H 20.100 C 20.045 10.000 20.000 10.045 20.000 10.100 V 13.000 C 20.000 13.100 20.100 13.000 20.000 13.000 H 13.100 C 13.045 13.000 13.000 13.045 13.000 13.100 V 20.000 C 13.000 20.100 13.100 20.000 13.000 20.000 H 10.100 C 10.045 20.000 10.000 20.045 10.000 20.100 V 26.100 C 10.000 26.155 10.045 26.200 10.100 26.200 H 13.000 C 13.100 26.200 13.000 26.100 13.000 26.200 V 32.000 C 13.000 32.100 13.100 32.000 13.000 32.000 H 10.100 C 10.045 32.000 10.000 32.045 10.000 32.100 V 38.100 C 10.000 38.155 10.045 38.200 10.100 38.200 H 13.000 C 13.100 38.200 13.000 38.100 13.000 38.200 V 44.000 C 13.000 44.100 13.100 44.000 13.000 44.000 H 10.100 C 10.045 44.000 10.000 44.045 10.000 44.100 V 50.100 C 10.000 50.155 10.045 50.200 10.100 50.200 H 13.000 C 13.100 50.200 13.000 50.100 13.000 50.200 V 57.100 C 13.000 57.155 13.045 57.200 13.100 57.200 Z"
       stroke="rgb(0,0,0)"
       stroke-width="0.20"
       id="path10" />
  </g>
  <g
     id="p-4"
     style="fill:none;stroke-linecap:round;stroke-linejoin:round;">
    <path
       d="M 74.800 440.400 H 71.900 C 71.800 440.400 71.900 440.500 71.900 440.400 V 437.600 C 71.900 437.500 71.800 437.600 71.900 437.600 H 77.700 C 77.800 437.600 77.700 437.500 77.700 437.600 V 440.400 C 77.700 440.500 77.800 440.400 77.700 440.400 H 74.800 Z"
       stroke="rgb(0,0,255)"
       stroke-width="0.20"
       id="path11" />
    <path
       d="M 86.800 440.400 H 83.900 C 83.800 440.400 83.900 440.500 83.900 440.400 V 437.600 C 83.900 437.500 83.800 437.600 83.900 437.600 H 89.700 C 89.800 437.600 89.700 437.500 89.700 437.600 V 440.400 C 89.700 440.500 89.800 440.400 89.700 440.400 H 86.800 Z"
       stroke="rgb(0,0,255)"
       stroke-width="0.20"
       id="path12" />
    <path
       d="M 98.800 440.400 H 95.900 C 95.800 440.400 95.900 440.500 95.900 440.400 V 437.600 C 95.900 437.500 95.800 437.600 95.900 437.600 H 101.700 C 101.800 437.600 101.700 437.500 101.700 437.600 V 440.400 C 101.700 440.500 101.800 440.400 101.700 440.400 H 98.800 Z"
       stroke="rgb(0,0,255)"
       stroke-width="0.20"
       id="path13" />
    <path
       d="M 64.800 443.600 H 108.800 C 108.855 443.600 108.900 443.555 108.900 443.500 V 435.600 C 108.900 435.500 108.800 435.600 108.900 435.600 H 111.800 C 111.855 435.600 111.900 435.555 111.900 435.500 V 429.500 C 111.900 429.445 111.855 429.400 111.800 429.400 H 108.900 C 108.800 429.400 108.900 429.500 108.900 429.400 V 423.600 C 108.900 423.500 108.800 423.600 108.900 423.600 H 111.800 C 111.855 423.600 111.900 423.555 111.900 423.500 V 417.500 C 111.900 417.445 111.855 417.400 111.800 417.400 H 108.900 C 108.800 417.400 108.900 417.500 108.900 417.400 V 411.600 C 108.900 411.500 108.800 411.600 108.900 411.600 H 111.800 C 111.855 411.600 111.900 411.555 111.900 411.500 V 405.500 C 111.900 405.445 111.855 405.400 111.800 405.400 H 108.900 C 108.800 405.400 108.900 405.500 108.900 405.400 V 399.600 C 108.900 399.500 108.800 399.600 108.900 399.600 H 111.800 C 111.855 399.600 111.900 399.555 111.900 399.500 V 393.500 C 111.900 393.445 111.855 393.400 111.800 393.400 H 108.900 C 108.800 393.400 108.900 393.500 108.900 393.400 V 387.600 C 108.900 387.500 108.800 387.600 108.900 387.600 H 111.800 C 111.855 387.600 111.900 387.555 111.900 387.500 V 381.500 C 111.900 381.445 111.855 381.400 111.800 381.400 H 108.900 C 108.800 381.400 108.900 381.500 108.900 381.400 V 375.600 C 108.900 375.500 108.800 375.600 108.900 375.600 H 111.800 C 111.855 375.600 111.900 375.555 111.900 375.500 V 369.500 C 111.900 369.445 111.855 369.400 111.800 369.400 H 108.900 C 108.800 369.400 108.900 369.500 108.900 369.400 V 363.600 C 108.900 363.500 108.800 363.600 108.900 363.600 H 111.800 C 111.855 363.600 111.900 363.555 111.900 363.500 V 357.500 C 111.900 357.445 111.855 357.400 111.800 357.400 H 108.900 C 108.800 357.400 108.900 357.500 108.900 357.400 V 351.600 C 108.900 351.500 108.800 351.600 108.900 351.600 H 111.800 C 111.855 351.600 111.900 351.555 111.900 351.500 V 345.500 C 111.900 345.445 111.855 345.400 111.800 345.400 H 108.900 C 108.800 345.400 108.900 345.500 108.900 345.400 V 339.600 C 108.900 339.500 108.800 339.600 108.900 339.600 H 111.800 C 111.855 339.600 111.900 339.555 111.900 339.500 V 333.500 C 111.900 333.445 111.855 333.400 111.800 333.400 H 108.900 C 108.800 333.400 108.900 333.500 108.900 333.400 V 327.600 C 108.900 327.500 108.800 327.600 108.900 327.600 H 111.800 C 111.855 327.600 111.900 327.555 111.900 327.500 V 321.500 C 111.900 321.445 111.855 321.400 111.800 321.400 H 108.900 C 108.800 321.400 108.900 321.500 108.900 321.400 V 315.600 C 108.900 315.500 108.800 315.600 108.900 315.600 H 111.800 C 111.855 315.600 111.900 315.555 111.900 315.500 V 309.500 C 111.900 309.445 111.855 309.400 111.800 309.400 H 108.900 C 108.800 309.400 108.900 309.500 108.900 309.400 V 303.600 C 108.900 303.500 108.800 303.600 108.900 303.600 H 111.800 C 111.855 303.600 111.900 303.555 111.900 303.500 V 297.500 C 111.900 297.445 111.855 297.400 111.800 297.400 H 108.900 C 108.800 297.400 108.900 297.500 108.900 297.400 V 291.600 C 108.900 291.500 108.800 291.600 108.900 291.600 H 111.800 C 111.855 291.600 111.900 291.555 111.900 291.500 V 285.500 C 111.900 285.445 111.855 285.400 111.800 285.400 H 108.900 C 108.800 285.400 108.900 285.500 108.900 285.400 V 279.600 C 108.900 279.500 108.800 279.600 108.900 279.600 H 111.800 C 111.855 279.600 111.900 279.555 111.900 279.500 V 273.500 C 111.900 273.445 111.855 273.400 111.800 273.400 H 108.900 C 108.800 273.400 108.900 273.500 108.900 273.400 V 267.600 C 108.900 267.500 108.800 267.600 108.900 267.600 H 111.800 C 111.855 267.600 111.900 267.555 111.900 267.500 V 261.500 C 111.900 261.445 111.855 261.400 111.800 261.400 H 108.900 C 108.800 261.400 108.900 261.500 108.900 261.400 V 253.500 C 108.900 253.445 108.855 253.400 108.800 253.400 H 64.800 C 64.745 253.400 64.700 253.445 64.700 253.500 V 261.400 C 64.700 261.500 64.800 261.400 64.700 261.400 H 61.800 C 61.745 261.400 61.700 261.445 61.700 261.500 V 267.500 C 61.700 267.555 61.745 267.600 61.800 267.600 H 64.700 C 64.800 267.600 64.700 267.500 64.700 267.600 V 273.400 C 64.700 273.500 64.800 273.400 64.700 273.400 H 61.800 C 61.745 273.400 61.700 273.445 61.700 273.500 V 279.500 C 61.700 279.555 61.745 279.600 61.800 279.600 H 64.700 C 64.800 279.600 64.700 279.500 64.700 279.600 V 285.400 C 64.700 285.500 64.800 285.400 64.700 285.400 H 61.800 C 61.745 285.400 61.700 285.445 61.700 285.500 V 291.500 C 61.700 291.555 61.745 291.600 61.800 291.600 H 64.700 C 64.800 291.600 64.700 291.500 64.700 291.600 V 297.400 C 64.700 297.500 64.800 297.400 64.700 297.400 H 61.800 C 61.745 297.400 61.700 297.445 61.700 297.500 V 303.500 C 61.700 303.555 61.745 303.600 61.800 303.600 H 64.700 C 64.800 303.600 64.700 303.500 64.700 303.600 V 309.400 C 64.700 309.500 64.800 309.400 64.700 309.400 H 61.800 C 61.745 309.400 61.700 309.445 61.700 309.500 V 315.500 C 61.700 315.555 61.745 315.600 61.800 315.600 H 64.700 C 64.800 315.600 64.700 315.500 64.700 315.600 V 321.400 C 64.700 321.500 64.800 321.400 64.700 321.400 H 61.800 C 61.745 321.400 61.700 321.445 61.700 321.500 V 327.500 C 61.700 327.555 61.745 327.600 61.800 327.600 H 64.700 C 64.800 327.600 64.700 327.500 64.700 327.600 V 333.400 C 64.700 333.500 64.800 333.400 64.700 333.400 H 61.800 C 61.745 333.400 61.700 333.445 61.700 333.500 V 339.500 C 61.700 339.555 61.745 339.600 61.800 339.600 H 64.700 C 64.800 339.600 64.700 339.500 64.700 339.600 V 345.400 C 64.700 345.500 64.800 345.400 64.700 345.400 H 61.800 C 61.745 345.400 61.700 345.445 61.700 345.500 V 351.500 C 61.700 351.555 61.745 351.600 61.800 351.600 H 64.700 C 64.800 351.600 64.700 351.500 64.700 351.600 V 357.400 C 64.700 357.500 64.800 357.400 64.700 357.400 H 61.800 C 61.745 357.400 61.700 357.445 61.700 357.500 V 363.500 C 61.700 363.555 61.745 363.600 61.800 363.600 H 64.700 C 64.800 363.600 64.700 363.500 64.700 363.600 V 369.400 C 64.700 369.500 64.800 369.400 64.700 369.400 H 61.800 C 61.745 369.400 61.700 369.445 61.700 369.500 V 375.500 C 61.700 375.555 61.745 375.600 61.800 375.600 H 64.700 C 64.800 375.600 64.700 375.500 64.700 375.600 V 381.400 C 64.700 381.500 64.800 381.400 64.700 381.400 H 61.800 C 61.745 381.400 61.700 381.445 61.700 381.500 V 387.500 C 61.700 387.555 61.745 387.600 61.800 387.600 H 64.700 C 64.800 387.600 64.700 387.500 64.700 387.600 V 393.400 C 64.700 393.500 64.800 393.400 64.700 393.400 H 61.800 C 61.745 393.400 61.700 393.445 61.700 393.500 V 399.500 C 61.700 399.555 61.745 399.600 61.800 399.600 H 64.700 C 64.800 399.600 64.700 399.500 64.700 399.600 V 405.400 C 64.700 405.500 64.800 405.400 64.700 405.400 H 61.800 C 61.745 405.400 61.700 405.445 61.700 405.500 V 411.500 C 61.700 411.555 61.745 411.600 61.800 411.600 H 64.700 C 64.800 411.600 64.700 411.500 64.700 411.600 V 417.400 C 64.700 417.500 64.800 417.400 64.700 417.400 H 61.800 C 61.745 417.400 61.700 417.445 61.700 417.500 V 423.500 C 61.700 423.555 61.745 423.600 61.800 423.600 H 64.700 C 64.800 423.600 64.700 423.500 64.700 423.600 V 429.400 C 64.700 429.500 64.800 429.400 64.700 429.400 H 61.800 C 61.745 429.400 61.700 429.445 61.700 429.500 V 435.500 C 61.700 435.555 61.745 435.600 61.800 435.600 H 64.700 C 64.800 435.600 64.700 435.500 64.700 435.600 V 443.500 C 64.700 443.555 64.745 443.600 64.800 443.600 Z"
       stroke="rgb(0,0,0)"
       stroke-width="0.20"
       id="path14" />
  </g>
  <g
     id="p-5"
     style="fill:none;stroke-linecap:round;stroke-linejoin:round;">
    <path
       d="M 74.800 248.700 H 71.900 C 71.800 248.700 71.900 248.800 71.900 248.700 V 245.900 C 71.900 245.800 71.800 245.900 71.900 245.900 H 77.700 C 77.800 245.900 77.700 245.800 77.700 245.900 V 248.700 C 77.700 248.800 77.800 248.700 77.700 248.700 H 74.800 Z"
       stroke="rgb(0,0,255)"
       stroke-width="0.20"
       id="path15" />
    <path
       d="M 86.800 248.700 H 83.900 C 83.800 248.700 83.900 248.800 83.900 248.700 V 245.900 C 83.900 245.800 83.800 245.900 83.900 245.900 H 89.700 C 89.800 245.900 89.700 245.800 89.700 245.900 V 248.700 C 89.700 248.800 89.800 248.700 89.700 248.700 H 86.800 Z"
       stroke="rgb(0,0,255)"
       stroke-width="0.20"
       id="path16" />
    <path
       d="M 98.800 248.700 H 95.900 C 95.800 248.700 95.900 248.800 95.900 248.700 V 245.900 C 95.900 245.800 95.800 245.900 95.900 245.900 H 101.700 C 101.800 245.900 101.700 245.800 101.700 245.900 V 248.700 C 101.700 248.800 101.800 248.700 101.700 248.700 H 98.800 Z"
       stroke="rgb(0,0,255)"
       stroke-width="0.20"
       id="path17" />
    <path
       d="M 64.800 251.900 H 108.800 C 108.855 251.900 108.900 251.855 108.900 251.800 V 243.900 C 108.900 243.800 108.800 243.900 108.900 243.900 H 111.800 C 111.855 243.900 111.900 243.855 111.900 243.800 V 237.800 C 111.900 237.745 111.855 237.700 111.800 237.700 H 108.900 C 108.800 237.700 108.900 237.800 108.900 237.700 V 231.900 C 108.900 231.800 108.800 231.900 108.900 231.900 H 111.800 C 111.855 231.900 111.900 231.855 111.900 231.800 V 225.800 C 111.900 225.745 111.855 225.700 111.800 225.700 H 108.900 C 108.800 225.700 108.900 225.800 108.900 225.700 V 219.900 C 108.900 219.800 108.800 219.900 108.900 219.900 H 111.800 C 111.855 219.900 111.900 219.855 111.900 219.800 V 213.800 C 111.900 213.745 111.855 213.700 111.800 213.700 H 108.900 C 108.800 213.700 108.900 213.800 108.900 213.700 V 207.900 C 108.900 207.800 108.800 207.900 108.900 207.900 H 111.800 C 111.855 207.900 111.900 207.855 111.900 207.800 V 201.800 C 111.900 201.745 111.855 201.700 111.800 201.700 H 108.900 C 108.800 201.700 108.900 201.800 108.900 201.700 V 195.900 C 108.900 195.800 108.800 195.900 108.900 195.900 H 111.800 C 111.855 195.900 111.900 195.855 111.900 195.800 V 189.800 C 111.900 189.745 111.855 189.700 111.800 189.700 H 108.900 C 108.800 189.700 108.900 189.800 108.900 189.700 V 183.900 C 108.900 183.800 108.800 183.900 108.900 183.900 H 111.800 C 111.855 183.900 111.900 183.855 111.900 183.800 V 177.800 C 111.900 177.745 111.855 177.700 111.800 177.700 H 108.900 C 108.800 177.700 108.900 177.800 108.900 177.700 V 171.900 C 108.900 171.800 108.800 171.900 108.900 171.900 H 111.800 C 111.855 171.900 111.900 171.855 111.900 171.800 V 165.800 C 111.900 165.745 111.855 165.700 111.800 165.700 H 108.900 C 108.800 165.700 108.900 165.800 108.900 165.700 V 159.900 C 108.900 159.800 108.800 159.900 108.900 159.900 H 111.800 C 111.855 159.900 111.900 159.855 111.900 159.800 V 153.800 C 111.900 153.745 111.855 153.700 111.800 153.700 H 108.900 C 108.800 153.700 108.900 153.800 108.900 153.700 V 147.900 C 108.900 147.800 108.800 147.900 108.900 147.900 H 111.800 C 111.855 147.900 111.900 147.855 111.900 147.800 V 141.800 C 111.900 141.745 111.855 141.700 111.800 141.700 H 108.900 C 108.800 141.700 108.900 141.800 108.900 141.700 V 135.900 C 108.900 135.800 108.800 135.900 108.900 135.900 H 111.800 C 111.855 135.900 111.900 135.855 111.900 135.800 V 129.800 C 111.900 129.745 111.855 129.700 111.800 129.700 H 108.900 C 108.800 129.700 108.900 129.800 108.900 129.700 V 123.900 C 108.900 123.800 108.800 123.900 108.900 123.900 H 111.800 C 111.855 123.900 111.900 123.855 111.900 123.800 V 117.800 C 111.900 117.745 111.855 117.700 111.800 117.700 H 108.900 C 108.800 117.700 108.900 117.800 108.900 117.700 V 111.900 C 108.900 111.800 108.800 111.900 108.900 111.900 H 111.800 C 111.855 111.900 111.900 111.855 111.900 111.800 V 105.800 C 111.900 105.745 111.855 105.700 111.800 105.700 H 108.900 C 108.800 105.700 108.900 105.800 108.900 105.700 V 99.900 C 108.900 99.800 108.800 99.900 108.900 99.900 H 111.800 C 111.855 99.900 111.900 99.855 111.900 99.800 V 93.800 C 111.900 93.745 111.855 93.700 111.800 93.700 H 108.900 C 108.800 93.700 108.900 93.800 108.900 93.700 V 87.900 C 108.900 87.800 108.800 87.900 108.900 87.900 H 111.800 C 111.855 87.900 111.900 87.855 111.900 87.800 V 81.800 C 111.900 81.745 111.855 81.700 111.800 81.700 H 108.900 C 108.800 81.700 108.900 81.800 108.900 81.700 V 75.900 C 108.900 75.800 108.800 75.900 108.900 75.900 H 111.800 C 111.855 75.900 111.900 75.855 111.900 75.800 V 69.800 C 111.900 69.745 111.855 69.700 111.800 69.700 H 108.900 C 108.800 69.700 108.900 69.800 108.900 69.700 V 61.800 C 108.900 61.745 108.855 61.700 108.800 61.700 H 64.800 C 64.745 61.700 64.700 61.745 64.700 61.800 V 69.700 C 64.700 69.800 64.800 69.700 64.700 69.700 H 61.800 C 61.745 69.700 61.700 69.745 61.700 69.800 V 75.800 C 61.700 75.855 61.745 75.900 61.800 75.900 H 64.700 C 64.800 75.900 64.700 75.800 64.700 75.900 V 81.700 C 64.700 81.800 64.800 81.700 64.700 81.700 H 61.800 C 61.745 81.700 61.700 81.745 61.700 81.800 V 87.800 C 61.700 87.855 61.745 87.900 61.800 87.900 H 64.700 C 64.800 87.900 64.700 87.800 64.700 87.900 V 93.700 C 64.700 93.800 64.800 93.700 64.700 93.700 H 61.800 C 61.745 93.700 61.700 93.745 61.700 93.800 V 99.800 C 61.700 99.855 61.745 99.900 61.800 99.900 H 64.700 C 64.800 99.900 64.700 99.800 64.700 99.900 V 105.700 C 64.700 105.800 64.800 105.700 64.700 105.700 H 61.800 C 61.745 105.700 61.700 105.745 61.700 105.800 V 111.800 C 61.700 111.855 61.745 111.900 61.800 111.900 H 64.700 C 64.800 111.900 64.700 111.800 64.700 111.900 V 117.700 C 64.700 117.800 64.800 117.700 64.700 117.700 H 61.800 C 61.745 117.700 61.700 117.745 61.700 117.800 V 123.800 C 61.700 123.855 61.745 123.900 61.800 123.900 H 64.700 C 64.800 123.900 64.700 123.800 64.700 123.900 V 129.700 C 64.700 129.800 64.800 129.700 64.700 129.700 H 61.800 C 61.745 129.700 61.700 129.745 61.700 129.800 V 135.800 C 61.700 135.855 61.745 135.900 61.800 135.900 H 64.700 C 64.800 135.900 64.700 135.800 64.700 135.900 V 141.700 C 64.700 141.800 64.800 141.700 64.700 141.700 H 61.800 C 61.745 141.700 61.700 141.745 61.700 141.800 V 147.800 C 61.700 147.855 61.745 147.900 61.800 147.900 H 64.700 C 64.800 147.900 64.700 147.800 64.700 147.900 V 153.700 C 64.700 153.800 64.800 153.700 64.700 153.700 H 61.800 C 61.745 153.700 61.700 153.745 61.700 153.800 V 159.800 C 61.700 159.855 61.745 159.900 61.800 159.900 H 64.700 C 64.800 159.900 64.700 159.800 64.700 159.900 V 165.700 C 64.700 165.800 64.800 165.700 64.700 165.700 H 61.800 C 61.745 165.700 61.700 165.745 61.700 165.800 V 171.800 C 61.700 171.855 61.745 171.900 61.800 171.900 H 64.700 C 64.800 171.900 64.700 171.800 64.700 171.900 V 177.700 C 64.700 177.800 64.800 177.700 64.700 177.700 H 61.800 C 61.745 177.700 61.700 177.745 61.700 177.800 V 183.800 C 61.700 183.855 61.745 183.900 61.800 183.900 H 64.700 C 64.800 183.900 64.700 183.800 64.700 183.900 V 189.700 C 64.700 189.800 64.800 189.700 64.700 189.700 H 61.800 C 61.745 189.700 61.700 189.745 61.700 189.800 V 195.800 C 61.700 195.855 61.745 195.900 61.800 195.900 H 64.700 C 64.800 195.900 64.700 195.800 64.700 195.900 V 201.700 C 64.700 201.800 64.800 201.700 64.700 201.700 H 61.800 C 61.745 201.700 61.700 201.745 61.700 201.800 V 207.800 C 61.700 207.855 61.745 207.900 61.800 207.900 H 64.700 C 64.800 207.900 64.700 207.800 64.700 207.900 V 213.700 C 64.700 213.800 64.800 213.700 64.700 213.700 H 61.800 C 61.745 213.700 61.700 213.745 61.700 213.800 V 219.800 C 61.700 219.855 61.745 219.900 61.800 219.900 H 64.700 C 64.800 219.900 64.700 219.800 64.700 219.900 V 225.700 C 64.700 225.800 64.800 225.700 64.700 225.700 H 61.800 C 61.745 225.700 61.700 225.745 61.700 225.800 V 231.800 C 61.700 231.855 61.745 231.900 61.800 231.900 H 64.700 C 64.800 231.900 64.700 231.800 64.700 231.900 V 237.700 C 64.700 237.800 64.800 237.700 64.700 237.700 H 61.800 C 61.745 237.700 61.700 237.745 61.700 237.800 V 243.800 C 61.700 243.855 61.745 243.900 61.800 243.900 H 64.700 C 64.800 243.900 64.700 243.800 64.700 243.900 V 251.800 C 64.700 251.855 64.745 251.900 64.800 251.900 Z"
       stroke="rgb(0,0,0)"
       stroke-width="0.20"
       id="path18" />
  </g>
  <rect
     style="fill:#000000;fill-opacity:0;stroke:#e10000;stroke-width:0.212151;stroke-dasharray:none;stroke-opacity:1"
     id="rect18"
     width="29.787849"
     height="0.78784925"
     x="72.108803"
     y="230.10608" />
  <rect
     style="fill:#000000;fill-opacity:0;stroke:#e10000;stroke-width:0.212151;stroke-dasharray:none;stroke-opacity:1"
     id="rect19"
     width="29.787849"
     height="0.78784925"
     x="72.108803"
     y="215.10608" />
  <rect
     style="fill:#000000;fill-opacity:0;stroke:#e10000;stroke-width:0.212151;stroke-dasharray:none;stroke-opacity:1"
     id="rect20"
     width="29.787849"
     height="0.78784925"
     x="72.108803"
     y="185.10608" />
  <rect
     style="fill:#000000;fill-opacity:0;stroke:#e10000;stroke-width:0.212151;stroke-dasharray:none;stroke-opacity:1"
     id="rect21"
     width="29.787849"
     height="0.78784925"
     x="72.108803"
     y="200.10608" />
  <rect
     style="fill:#000000;fill-opacity:0;stroke:#e10000;stroke-width:0.212151;stroke-dasharray:none;stroke-opacity:1"
     id="rect22"
     width="29.787849"
     height="0.78784925"
     x="72.108803"
     y="170.10608" />
  <rect
     style="fill:#000000;fill-opacity:0;stroke:#e10000;stroke-width:0.212151;stroke-dasharray:none;stroke-opacity:1"
     id="rect23"
     width="29.787849"
     height="0.78784925"
     x="72.108803"
     y="155.10608" />
  <rect
     style="fill:#000000;fill-opacity:0;stroke:#e10000;stroke-width:0.212151;stroke-dasharray:none;stroke-opacity:1"
     id="rect24"
     width="29.787849"
     height="0.78784925"
     x="72.108803"
     y="140.10608" />
  <rect
     style="fill:#000000;fill-opacity:0;stroke:#e10000;stroke-width:0.212151;stroke-dasharray:none;stroke-opacity:1"
     id="rect25"
     width="29.787849"
     height="0.78784925"
     x="72.108803"
     y="125.10608" />
  <rect
     style="fill:#000000;fill-opacity:0;stroke:#e10000;stroke-width:0.212151;stroke-dasharray:none;stroke-opacity:1"
     id="rect26"
     width="29.787849"
     height="0.78784925"
     x="72.108803"
     y="110.10608" />
  <rect
     style="fill:#000000;fill-opacity:0;stroke:#e10000;stroke-width:0.212151;stroke-dasharray:none;stroke-opacity:1"
     id="rect27"
     width="29.787849"
     height="0.78784925"
     x="72.108803"
     y="95.106079" />
  <rect
     style="fill:#000000;fill-opacity:0;stroke:#e10000;stroke-width:0.212151;stroke-dasharray:none;stroke-opacity:1"
     id="rect28"
     width="29.787849"
     height="0.78784925"
     x="72.108803"
     y="80.106079" />
</svg>
