<?xml version="1.0" encoding="UTF-8" standalone="no"?>
<!-- Created with Inkscape (http://www.inkscape.org/) -->

<svg
   width="210mm"
   height="297mm"
   viewBox="0 0 210 297"
   version="1.1"
   id="svg1"
   xml:space="preserve"
   inkscape:version="1.3.2 (091e20e, 2023-11-25, custom)"
   sodipodi:docname="hourglass.svg"
   xmlns:inkscape="http://www.inkscape.org/namespaces/inkscape"
   xmlns:sodipodi="http://sodipodi.sourceforge.net/DTD/sodipodi-0.dtd"
   xmlns="http://www.w3.org/2000/svg"
   xmlns:svg="http://www.w3.org/2000/svg"><sodipodi:namedview
     id="namedview1"
     pagecolor="#ffffff"
     bordercolor="#000000"
     borderopacity="0.25"
     inkscape:showpageshadow="2"
     inkscape:pageopacity="0.0"
     inkscape:pagecheckerboard="0"
     inkscape:deskcolor="#d1d1d1"
     inkscape:document-units="mm"
     inkscape:zoom="1.0520974"
     inkscape:cx="397.30163"
     inkscape:cy="561.25984"
     inkscape:window-width="2560"
     inkscape:window-height="1377"
     inkscape:window-x="-8"
     inkscape:window-y="-8"
     inkscape:window-maximized="1"
     inkscape:current-layer="layer1" /><defs
     id="defs1" /><g
     inkscape:label="Calque 1"
     inkscape:groupmode="layer"
     id="layer1"><path
       style="fill:#000000"
       d="m 29.593954,222.77477 c -1.0209,-0.21392 -2.61055,-1.54808 -3.22054,-2.70295 -0.61173,-1.15816 -0.61592,-1.23068 -0.61592,-10.66002 0,-8.92519 0.0312,-9.55516 0.52149,-10.51612 0.53541,-1.0495 2.25332,-2.66089 2.83678,-2.66089 0.54997,0 0.87486,-0.94684 0.8792,-2.56229 0.007,-2.78883 1.17577,-10.07331 2.41088,-15.0325 4.46491,-17.92748 14.73907,-34.8672 28.404195,-46.83196 4.27157,-3.74006 6.42567,-5.34552 14.09381,-10.50419 3.23783,-2.17823 5.88698,-4.05383 5.88698,-4.168 0,-0.11417 -3.20884,-2.37538 -7.13074,-5.0249 -7.67319,-5.18378 -12.01847,-8.63383 -16.576085,-13.161048 -12.03442,-11.954136 -20.55432,-26.965282 -24.59919,-43.341154 -1.29038,-5.224186 -2.25238,-11.281335 -2.56019,-16.120085 -0.0591,-0.928685 -0.18642,-1.102271 -1.20091,-1.63711 -0.62416,-0.329052 -1.37027,-0.873607 -1.65804,-1.210124 -1.27394,-1.489761 -1.30845,-1.806182 -1.30383,-11.955097 0.004,-9.411018 0.0135,-9.57503 0.59756,-10.606163 0.32626,-0.576031 1.10847,-1.409469 1.73823,-1.852084 l 1.14503,-0.804754 h 75.625246 75.62525 l 1.12696,0.79375 c 0.61982,0.436562 1.40398,1.318492 1.74258,1.959844 0.61119,1.157696 0.61562,1.234154 0.61562,10.617167 0,7.575309 -0.0747,9.628151 -0.37619,10.343282 -0.43839,1.039722 -1.79704,2.389332 -2.9311,2.911595 -0.63514,0.2925 -0.80645,0.550217 -0.85733,1.289744 -1.68874,24.545298 -13.00208,47.359743 -31.54628,63.616137 -3.69887,3.24254 -6.37832,5.23308 -13.42972,9.97683 -3.24099,2.18034 -5.89271,4.06878 -5.89271,4.19654 0,0.12776 2.53008,1.92558 5.6224,3.99516 7.01561,4.6953 9.89965,6.81607 13.42151,9.86952 17.99049,15.59771 29.32162,37.65049 31.57285,61.44745 l 0.3172,3.35301 0.92521,0.50968 c 1.39734,0.76978 2.32571,1.75504 2.78277,2.95331 0.35063,0.91925 0.40042,2.49679 0.33543,10.62755 l -0.0763,9.54806 -0.75751,1.09266 c -0.47307,0.68236 -1.26255,1.34432 -2.10247,1.76287 l -1.34496,0.67022 -74.75898,-0.036 c -41.117451,-0.0198 -74.997116,-0.0859 -75.288156,-0.14691 z M 173.3381,209.39781 173.2627,206.68583 H 104.86791 36.473124 l -0.0754,2.71198 -0.0754,2.71198 h 68.545586 68.5456 z m -4.35545,-13.62604 c 0.33237,-0.56468 -1.18846,-10.51421 -2.22217,-14.53778 -3.84469,-14.96491 -11.09575,-27.65095 -22.00226,-38.49392 -4.50742,-4.48117 -7.58145,-6.83207 -19.12052,-14.62264 -5.67531,-3.83166 -10.52257,-7.19235 -10.77168,-7.46819 -1.62987,-1.80474 -1.62987,-5.24103 0,-7.05126 0.24911,-0.27668 4.73918,-3.39648 9.97793,-6.93288 5.23875,-3.53641 10.35844,-7.050518 11.37708,-7.809148 14.09542,-10.4974 24.42004,-25.26729 29.59105,-42.331487 1.50825,-4.97717 2.91329,-12.388589 3.13299,-16.526134 l 0.0843,-1.5875 H 104.86791 40.706454 l 0.0785,1.455209 c 0.47737,8.845299 3.56412,20.128661 7.99813,29.236459 4.16279,8.5507 9.012105,15.294779 15.981045,22.225283 4.85631,4.829514 7.36906,6.75729 18.94147,14.531798 5.60014,3.76226 10.46566,7.0918 10.81228,7.39898 1.93347,1.7135 2.11089,5.44047 0.35188,7.39154 -0.24911,0.27631 -4.94997,3.53603 -10.44635,7.24383 -5.49638,3.7078 -11.04461,7.55386 -12.3294,8.54681 -17.558695,13.57026 -28.943955,34.13367 -31.251655,56.44498 -0.14814,1.43223 -0.20253,2.71215 -0.12088,2.84427 0.17965,0.29067 128.090116,0.33233 128.261146,0.0418 z M 71.794989,181.16709 c 0,-2.46479 0.79717,-7.39144 1.72296,-10.6482 1.16087,-4.08373 4.17497,-10.25084 6.6029,-13.51014 2.26124,-3.03552 5.31764,-6.21728 7.94602,-8.27191 2.43981,-1.90724 16.310041,-10.91626 17.396351,-11.29933 0.47328,-0.16689 0.99034,-0.16498 1.47926,0.005 1.02326,0.35671 13.62479,8.45694 16.57855,10.65665 2.60163,1.93747 6.43636,5.77274 8.39351,8.39471 5.05282,6.76919 7.97472,14.74612 8.57217,23.40244 l 0.17805,2.57969 H 106.22988 71.794989 Z m 30.788881,-72.6657 c -1.42546,-0.70316 -16.018171,-13.985294 -16.590131,-15.100174 -1.43626,-2.799546 0.21498,-6.655392 3.20582,-7.486032 1.33973,-0.372079 29.996961,-0.372079 31.336691,0 1.26868,0.352346 2.47604,1.377662 3.12867,2.656932 0.7318,1.434445 0.69418,3.763469 -0.0821,5.08228 -0.67997,1.15519 -15.22562,14.264704 -16.49656,14.867804 -1.08462,0.51469 -3.43887,0.50381 -4.50239,-0.0208 z m 70.75423,-83.650455 0.0754,-2.711979 H 104.87717 36.340824 v 2.601736 c 0,1.430955 0.0796,2.681338 0.1769,2.778629 0.0973,0.09729 30.904705,0.146901 68.460936,0.110243 l 68.28404,-0.06665 z"
       id="path1" /><rect
       style="fill:#000000;fill-opacity:0;fill-rule:evenodd;stroke:#ff0000;stroke-width:0.2;paint-order:stroke fill markers"
       id="rect1"
       width="163.46317"
       height="218.78917"
       x="23.136326"
       y="7.7959356" /></g></svg>
