<?xml version="1.0" standalone="no"?>
<!DOCTYPE svg PUBLIC "-//W3C//DTD SVG 20010904//EN"
 "http://www.w3.org/TR/2001/REC-SVG-20010904/DTD/svg10.dtd">
<svg version="1.0" xmlns="http://www.w3.org/2000/svg"
 width="824.000000pt" height="1280.000000pt" viewBox="0 0 824.000000 1280.000000"
 preserveAspectRatio="xMidYMid meet">
<g transform="translate(0.000000,1280.000000) scale(0.100000,-0.100000)"
fill="#000000" stroke="none">
<path d="M4102 12777 c-11 -12 -25 -32 -31 -44 -29 -56 -83 -405 -98 -624 -6
-96 -5 -101 13 -97 13 2 28 26 48 81 47 125 56 107 56 -110 0 -151 -5 -216
-24 -331 -13 -79 -25 -144 -27 -146 -29 -21 -81 -46 -88 -42 -4 3 -12 43 -15
88 -19 217 -95 482 -200 694 -194 392 -412 505 -525 271 -38 -78 -58 -156 -72
-277 -14 -121 -18 -140 -27 -140 -5 0 -51 34 -103 76 -251 202 -522 345 -735
389 -95 19 -253 19 -329 0 -191 -49 -327 -170 -429 -378 -113 -231 -166 -580
-152 -997 6 -184 8 -196 28 -211 l22 -17 -56 -63 c-94 -108 -164 -214 -232
-352 -103 -207 -166 -423 -201 -692 -33 -249 -32 -749 1 -762 8 -3 18 -3 21 1
3 3 19 72 34 152 197 1024 767 1593 1737 1733 258 38 729 54 739 26 2 -6 -29
-21 -69 -34 -296 -95 -611 -355 -820 -676 -208 -320 -348 -758 -352 -1104 -1
-130 9 -147 47 -79 13 24 59 106 102 183 229 407 465 732 734 1007 123 127
244 237 289 262 27 16 8 -16 -54 -90 -162 -195 -323 -474 -398 -690 -47 -139
-83 -318 -77 -391 2 -27 31 -11 61 32 34 50 44 54 60 26 5 -11 22 -26 38 -33
24 -12 27 -20 30 -66 4 -75 28 -67 72 26 29 62 39 74 63 79 18 4 36 18 47 35
10 16 27 36 39 44 27 19 27 51 0 80 -14 15 -19 29 -15 42 10 30 34 35 42 9 16
-54 57 -72 88 -38 26 29 17 63 -21 81 -35 16 -42 40 -18 60 13 11 19 8 40 -14
13 -14 31 -26 40 -26 23 0 55 37 55 64 0 13 7 30 16 37 12 9 15 24 11 50 -4
34 -2 39 24 48 32 11 48 53 29 76 -7 8 -9 22 -6 31 5 13 11 12 37 -10 36 -30
38 -31 67 -10 43 30 16 94 -41 94 -17 0 -27 5 -27 15 0 9 9 15 24 15 24 0 56
23 56 40 0 4 13 13 30 20 33 14 44 36 34 75 -4 18 -1 32 11 45 11 12 16 29 13
44 -4 19 1 30 19 41 13 9 29 27 35 40 8 19 16 23 34 19 12 -3 33 1 47 11 14 9
27 12 30 8 3 -5 1 -137 -3 -293 -5 -157 -14 -438 -20 -625 -13 -426 -27 -840
-40 -1195 -12 -329 -46 -1292 -60 -1725 -9 -273 -24 -729 -60 -1775 -5 -162
-14 -437 -20 -610 -6 -173 -15 -432 -20 -575 -5 -143 -19 -505 -30 -805 -12
-300 -23 -554 -25 -565 -2 -11 -19 -29 -37 -39 -158 -94 -503 -407 -581 -528
-50 -77 -48 -96 16 -153 181 -160 637 -366 1004 -454 80 -19 83 -19 167 -1
287 63 597 192 817 339 119 80 209 167 209 203 0 41 -101 179 -215 294 -121
122 -214 195 -318 250 -40 21 -71 45 -76 57 -16 43 -59 1021 -111 2537 -22
645 -30 904 -40 1265 -14 505 -38 1352 -50 1755 -26 837 -40 1341 -46 1640
l-6 325 38 17 c46 21 53 16 31 -21 -23 -39 -22 -50 10 -83 21 -22 24 -31 15
-40 -15 -15 -16 -55 -1 -64 6 -4 9 -20 6 -39 -10 -60 42 -97 83 -60 23 20 52
9 48 -19 -2 -14 -12 -22 -28 -24 -58 -8 -80 -68 -36 -97 28 -19 58 -9 76 25 6
11 20 20 30 20 31 0 24 -35 -11 -63 -34 -27 -42 -65 -18 -93 8 -10 18 -31 24
-48 7 -22 19 -34 43 -41 26 -7 32 -14 32 -36 0 -35 27 -62 54 -56 12 3 39 10
61 16 40 11 40 11 82 -35 67 -75 77 -57 89 146 11 179 -22 422 -83 620 -14 47
-32 104 -39 128 -16 51 -4 55 22 7 11 -21 25 -34 34 -33 13 3 15 29 14 173 -1
178 -18 282 -65 392 -36 84 -23 83 90 -4 118 -91 390 -366 482 -488 103 -135
213 -304 296 -454 37 -68 74 -126 80 -128 34 -12 42 102 18 243 -73 426 -358
910 -685 1163 -30 24 -55 48 -55 54 0 28 375 15 553 -19 197 -38 311 -77 483
-166 205 -105 426 -292 592 -498 133 -165 295 -424 408 -652 38 -77 59 -108
71 -108 21 0 22 16 8 145 -96 856 -519 1477 -1161 1703 -176 62 -272 77 -499
77 -173 0 -222 -4 -311 -23 -205 -42 -401 -122 -614 -248 -84 -49 -95 -53
-165 -56 l-75 -3 -3 77 -3 77 94 78 c350 289 734 490 1078 564 138 30 402 33
526 6 280 -60 509 -188 740 -410 233 -226 418 -487 597 -845 59 -117 189 -417
222 -511 19 -54 37 -72 55 -54 11 11 -26 227 -76 451 -172 766 -502 1332 -940
1614 -232 150 -466 218 -748 218 -210 0 -384 -33 -586 -112 -108 -42 -120 -42
-121 5 0 45 -45 190 -85 275 -55 115 -130 199 -221 243 -58 29 -69 31 -151 28
-76 -4 -98 -9 -157 -38 -117 -57 -256 -209 -348 -379 -33 -62 -43 -41 -52 123
-11 181 -50 333 -90 348 -7 3 -23 -4 -34 -16z m814 -467 c67 -33 234 -180 234
-206 0 -7 -12 -21 -27 -30 -305 -185 -520 -384 -697 -647 -33 -48 -63 -87 -66
-87 -4 0 -21 23 -39 51 -18 27 -51 62 -73 77 -50 32 -49 38 22 222 67 174 157
363 215 449 57 86 150 174 207 195 64 23 146 15 224 -24z m-1427 -230 c114
-58 244 -280 357 -614 31 -92 32 -100 18 -127 -8 -16 -19 -29 -23 -29 -5 0
-40 39 -78 88 -112 144 -240 289 -381 434 -147 151 -144 144 -80 205 68 65
121 77 187 43z m-1069 -129 c320 -73 717 -284 1258 -669 90 -64 132 -100 132
-113 0 -10 -4 -19 -9 -19 -4 0 -51 20 -103 44 -182 85 -423 158 -648 197 -157
27 -489 37 -641 20 -360 -41 -669 -169 -915 -377 -35 -30 -66 -54 -70 -54 -18
0 35 264 83 409 108 328 286 519 539 575 87 20 255 14 374 -13z m1240 -1656
c-7 -8 -16 -15 -21 -15 -13 0 -11 24 3 38 18 18 35 -3 18 -23z m-90 -135 c0
-5 -4 -10 -10 -10 -5 0 -10 5 -10 10 0 6 5 10 10 10 6 0 10 -4 10 -10z m-60
-116 c0 -12 -29 -34 -44 -34 -10 0 -6 36 5 47 14 14 39 6 39 -13z m898 -96
c17 -17 15 -28 -7 -28 -22 0 -35 15 -26 30 8 13 18 13 33 -2z m-934 -7 c3 -5
-1 -11 -9 -15 -15 -6 -29 7 -18 18 9 9 21 8 27 -3z m-49 -28 c-4 -10 -10 -31
-14 -47 -7 -32 -28 -46 -36 -24 -8 21 23 88 41 88 11 0 14 -5 9 -17z m-370
-353 c9 -27 -1 -40 -30 -40 -32 0 -37 12 -19 38 19 27 41 28 49 2z m1675 -265
c0 -8 -4 -15 -10 -15 -5 0 -10 7 -10 15 0 8 5 15 10 15 6 0 10 -7 10 -15z m66
-98 c4 -4 -5 -7 -19 -7 -15 0 -27 4 -27 10 0 11 35 8 46 -3z"/>
</g>
</svg>
