<?xml version="1.0" encoding="UTF-8" standalone="no"?>
<!-- Created with Inkscape (http://www.inkscape.org/) -->

<svg
   width="210mm"
   height="297mm"
   viewBox="0 0 210 297"
   version="1.1"
   id="svg1"
   xml:space="preserve"
   inkscape:version="1.3.2 (091e20e, 2023-11-25, custom)"
   sodipodi:docname="rat.svg"
   xmlns:inkscape="http://www.inkscape.org/namespaces/inkscape"
   xmlns:sodipodi="http://sodipodi.sourceforge.net/DTD/sodipodi-0.dtd"
   xmlns="http://www.w3.org/2000/svg"
   xmlns:svg="http://www.w3.org/2000/svg"><sodipodi:namedview
     id="namedview1"
     pagecolor="#ffffff"
     bordercolor="#000000"
     borderopacity="0.25"
     inkscape:showpageshadow="2"
     inkscape:pageopacity="0.0"
     inkscape:pagecheckerboard="0"
     inkscape:deskcolor="#d1d1d1"
     inkscape:document-units="mm"
     inkscape:zoom="1.4142136"
     inkscape:cx="452.54834"
     inkscape:cy="402.69731"
     inkscape:window-width="1920"
     inkscape:window-height="1017"
     inkscape:window-x="-8"
     inkscape:window-y="-8"
     inkscape:window-maximized="1"
     inkscape:current-layer="layer1" /><defs
     id="defs1" /><g
     inkscape:label="Calque 1"
     inkscape:groupmode="layer"
     id="layer1"><path
       style="fill:#000000;stroke:#000000;stroke-opacity:1"
       d="m 98.621706,156.41279 c -0.46657,-0.55793 -1.16052,-1.09277 -1.5421,-1.18854 -0.38159,-0.0958 -1.27059,-0.63007 -1.97557,-1.18732 -1.5291,-1.20869 -3.31821,-1.70662 -7.664,-2.13301 -3.7885,-0.37171 -8.42696,-1.34154 -10.58475,-2.21311 -1.54732,-0.62499 -1.63771,-0.63431 -1.51263,-0.15599 0.17843,0.68232 0.006,0.65847 -3.23379,-0.44774 -4.26843,-1.45735 -7.40224,-3.16852 -9.12485,-4.98248 l -0.76725,-0.80794 0.18651,1.05833 0.18651,1.05833 -1.07388,-1.19062 c -5.90641,-6.54848 -10.205294,-13.37827 -11.393636,-18.10146 -1.430116,-5.68416 -1.19887,-14.7462 0.536057,-21.00689 0.67145,-2.42301 0.660525,-2.519 -0.141194,-1.24061 -0.628463,1.00212 -0.654617,1.01617 -0.492396,0.26458 0.557711,-2.58395 2.744469,-6.366697 5.235269,-9.056207 1.46624,-1.58322 1.63683,-1.68342 4.34724,-2.55336 1.55161,-0.49802 3.53548,-1.05862 4.40861,-1.24579 1.75554,-0.37633 7.6856,-0.48838 9.11111,-0.17215 l 0.90904,0.20165 -0.62745,-0.66789 -0.62744,-0.66788 0.77674,0.12512 c 0.42721,0.0688 2.01782,0.31919 3.53468,0.5564 1.51686,0.2372 3.05958,0.54596 3.42827,0.68614 0.36869,0.14017 1.62793,0.37474 2.79832,0.52127 1.77672,0.22243 4.1855,0.87035 6.26252,1.68452 0.31516,0.12354 0.48396,-0.0303 0.63055,-0.57468 0.19553,-0.72615 0.20781,-0.71579 0.5299,0.44724 0.42874,1.54813 0.87021,2.64583 1.06407,2.64583 0.0849,0 0.0806,-0.11941 -0.01,-0.26536 -0.0902,-0.14595 -0.0826,-0.80823 0.0169,-1.47173 l 0.18091,-1.20638 0.49276,0.81028 c 0.73049,1.2012 0.79858,0.99039 0.2217,-0.68636 -0.68175,-1.98153 -0.65486,-2.43201 0.16377,-2.74325 1.17261,-0.44583 2.15327,-0.32206 2.31386,0.29203 0.11342,0.43372 0.05,0.51352 -0.29987,0.37727 -0.50372,-0.19616 -0.58055,-0.20835 -1.03903,-0.16492 -0.54985,0.0521 -0.37907,0.61803 0.62753,2.07957 0.93945,1.36403 1.5772,1.84463 1.23189,0.92833 -0.11022,-0.29248 0.19466,-0.14097 0.82773,0.41133 0.55122,0.48089 1.19902,0.83101 1.43956,0.77804 0.45995,-0.1013 0.47163,-0.17343 0.20913,-1.29186 -0.13061,-0.55649 -0.0705,-0.69044 0.29681,-0.66146 0.39205,0.0309 0.46032,-0.20657 0.45886,-1.59623 -0.001,-1.2807 0.0699,-1.57311 0.33073,-1.35667 0.5891,0.48892 0.36387,-0.19527 -0.42093,-1.27866 -0.84598,-1.16784 -2.77001,-2.93253 -4.50209,-4.12924 -1.19071,-0.82268 -1.60938,-0.72951 -1.61965,0.36043 -0.004,0.46211 -1.00804,0.76067 -2.55721,0.76067 -0.72212,0 -0.95041,-0.13384 -1.15756,-0.67868 -0.37851,-0.99557 -0.32435,-1.06336 0.34625,-0.43336 0.48039,0.4513 0.76519,0.52466 1.38907,0.35781 0.83737,-0.22395 0.81322,-0.12632 0.70209,-2.83728 -0.0443,-1.08088 -0.20949,-1.37789 -1.54509,-2.77813 -0.82252,-0.86232 -1.60967,-1.56786 -1.74924,-1.56786 -0.22888,0 -0.14932,0.91007 0.21973,2.51354 0.067,0.29105 -0.20211,-0.0959 -0.598,-0.85989 -0.39588,-0.76399 -0.79511,-1.38906 -0.88718,-1.38906 -0.0921,0 -0.31247,0.31841 -0.48978,0.70757 -0.28239,0.61977 -0.22759,0.89885 0.44158,2.24896 0.42019,0.84776 0.66048,1.54138 0.53397,1.54138 -0.12651,0 -0.70688,-0.24328 -1.28973,-0.54062 -2.08535,-1.06387 -4.08429,-3.3208 -4.44858,-5.02274 l -0.15916,-0.74361 -1.33768,0.5738 c -1.63662,0.70203 -4.31287,2.32278 -7.12899,4.31734 l -2.11667,1.49916 1.5875,-1.63891 c 1.22931,-1.26912 2.36947,-2.06195 5.05315,-3.51383 l 3.46565,-1.87493 0.42921,-1.34217 c 0.23607,-0.7382 0.38283,-1.38856 0.32614,-1.44525 -0.0567,-0.0567 -1.69032,-0.12295 -3.63028,-0.14724 -1.93996,-0.0243 -3.68546,-0.14604 -3.8789,-0.27054 -0.72543,-0.4669 -7.2388,0.69114 -8.15254,1.44948 -0.27717,0.23003 -0.3593,0.20162 -0.3593,-0.12429 0,-0.23236 0.32742,-0.58899 0.7276,-0.79252 1.55151,-0.78906 4.33885,-1.05882 10.31875,-0.99864 4.04262,0.0407 5.88698,-0.0295 5.88698,-0.22391 0,-0.16735 0.26164,-0.21749 0.63972,-0.1226 0.47471,0.11915 0.71344,0.0228 0.92552,-0.37346 0.38207,-0.7139 -0.32646,-1.46717 -1.17881,-1.25324 -0.67925,0.17048 -0.78976,-0.0176 -1.05678,-1.79813 -0.18231,-1.21574 -0.17633,-1.22845 0.76252,-1.62072 1.72152,-0.7193 5.73072,-1.07244 8.04065,-0.70825 1.1295,0.17808 2.94661,0.44619 4.03802,0.5958 2.26827,0.31092 6.015034,1.22091 6.610154,1.60543 0.29438,0.1902 0.18982,0.22414 -0.39245,0.12739 -0.43656,-0.0725 -2.639214,-0.33559 -4.894794,-0.58456 -4.78039,-0.52765 -5.75669,-0.37954 -7.42333,1.12616 -1.41497,1.27835 -1.31165,1.55507 0.27958,0.74873 l 1.32292,-0.67037 v 0.69207 c 0,0.77871 0.73759,2.49184 1.07286,2.49184 0.12036,0 0.29241,-0.11906 0.38235,-0.26458 0.28507,-0.46126 0.59832,-0.28758 0.77889,0.43186 0.39864,1.58833 6.7446,6.60739 6.97957,5.5202 0.0471,-0.2177 0.21417,-0.39581 0.37137,-0.39581 0.675294,0 4.347294,4.52044 8.309324,10.22927 2.63159,3.7918 2.89803,3.8462 1.08615,0.22177 -1.68654,-3.3737 -3.48303,-5.80913 -6.97068,-9.44981 -2.358994,-2.4625 -2.588574,-3.0662 -0.81805,-2.15108 2.21219,1.14341 6.04138,4.36812 11.40395,9.60371 2.43703,2.37933 3.75052,3.5089 3.43959,2.95796 -1.56647,-2.77562 -7.77955,-8.59084 -13.70552,-12.8279 -1.1495,-0.82189 -2.00973,-1.49434 -1.91163,-1.49434 0.43251,0 4.24436,2.07554 6.87615,3.74405 1.58099,1.00232 2.80898,1.65157 2.72886,1.44277 -0.1116,-0.29082 0.14102,-0.25281 1.07981,0.16246 3.29642,1.45816 5.36791,-0.1361 4.55886,-3.50857 -0.31691,-1.32106 -2.38238,-4.84604 -2.55138,-4.35425 -0.0511,0.14866 -0.72867,0.22487 -1.54654,0.17395 -0.93152,-0.058 -1.45561,0.0135 -1.45561,0.19844 0,0.15899 0.12757,0.28907 0.28349,0.28907 0.15591,0 0.0964,0.1871 -0.1323,0.41577 -0.51938,0.51938 -0.5382,1.53449 -0.0362,1.95113 0.20878,0.17327 0.77432,0.27715 1.25677,0.23084 0.67848,-0.0651 0.89646,-0.21995 0.96225,-0.68344 0.13302,-0.93703 0.5764,-0.40759 0.5764,0.68827 0,1.78537 -1.38419,2.9535 -2.84428,2.40034 -1.10147,-0.41731 -1.89412,-1.28496 -2.19514,-2.40287 -0.14904,-0.55347 -0.35606,-0.99361 -0.46005,-0.97809 -0.63539,0.0948 -1.14378,-0.0807 -1.04986,-0.36249 0.0601,-0.18043 -0.16806,-0.54626 -0.50712,-0.81296 -0.33906,-0.2667 -0.61647,-0.58176 -0.61647,-0.70014 0,-0.31151 1.76606,-1.10215 3.30468,-1.47946 l 1.32552,-0.32505 -1.19062,-0.0582 -1.19063,-0.0583 1.19063,-0.24284 c 0.65484,-0.13355 1.60734,-0.17759 2.11666,-0.0979 0.62988,0.0986 0.79912,0.0663 0.52917,-0.1009 -0.682,-0.42252 -4.39868,-1.08743 -6.1404,-1.09852 l -1.6648,-0.0106 0.79375,-0.45242 c 1.25376,-0.71463 6.1139,-0.62825 8.18414,0.14544 1.55126,0.57975 3.64282,1.73923 4.91746,2.72605 l 0.65674,0.50844 -0.86465,-0.16426 c -1.14097,-0.21677 -0.95371,0.17374 0.88864,1.8532 l 1.41288,1.28796 0.70214,-0.83445 c 1.30184,-1.54714 3.26086,-2.10068 5.78385,-1.63428 1.26806,0.23441 1.98534,0.50081 4.23136,1.5715 0.61175,0.29163 -1.05795,-1.48623 -1.98232,-2.11073 -1.94633,-1.31492 -4.28123,-1.22387 -7.46168,0.29096 -0.89797,0.42771 -1.674,0.73633 -1.7245,0.68583 -0.0505,-0.0505 0.3619,-0.56373 0.91644,-1.1405 1.33241,-1.38583 3.48399,-2.18548 5.84682,-2.17301 1.63258,0.009 1.72411,0.0381 1.13326,0.36543 l -0.64276,0.35606 0.90734,0.19602 c 3.06098,0.66131 5.10881,3.26221 4.62,5.86778 -0.35909,1.91413 -2.79155,3.64503 -6.06535,4.31602 l -1.55894,0.31952 1.16207,1.04435 c 0.63913,0.57439 0.902,0.91963 0.58414,0.76719 -0.88415,-0.42403 -0.95817,-0.34082 -0.40069,0.45044 0.28195,0.40019 0.7766,1.24906 1.09923,1.8864 l 0.5866,1.15878 -0.80242,-0.57137 -0.80242,-0.57137 0.62618,1.13238 c 0.3444,0.6228 0.82525,1.84675 1.06856,2.71987 0.24331,0.87313 1.0251,3.40645 1.73732,5.6296 1.7731,5.534677 2.41528,8.796007 2.43415,12.362067 0.0125,2.3612 -0.097,3.23495 -0.58041,4.63021 -0.7561,2.1824 -1.75571,3.92826 -3.44716,6.0206 -0.73584,0.91024 -1.33806,1.68414 -1.33825,1.71979 -2e-4,0.0357 0.66075,0.0237 1.46879,-0.0266 2.22027,-0.13816 2.72838,0.0739 3.30599,1.37968 0.59817,1.35227 1.34341,4.40029 1.07586,4.40029 -0.10351,0 -0.3486,-0.14883 -0.54464,-0.33073 -0.29291,-0.27178 -0.32218,-0.23641 -0.16422,0.19844 0.10572,0.29104 0.38704,1.26568 0.62514,2.16587 0.5703,2.15609 0.32131,2.83158 -1.46407,3.97194 -1.36477,0.87171 -1.38137,0.87504 -1.0815,0.21689 0.42591,-0.93477 0.0776,-1.1341 -0.77793,-0.44523 -2.34797,1.89056 -2.81646,2.16003 -3.73953,2.15094 -0.90115,-0.009 -0.92062,-0.0271 -0.36121,-0.33788 0.51342,-0.28525 2.44835,-3.63073 2.45061,-4.23711 4.5e-4,-0.1203 -0.28468,0.11782 -0.63363,0.52917 -0.34895,0.41135 -0.99208,0.95608 -1.42919,1.21052 l -0.79474,0.46261 0.35761,-1.18828 c 0.19669,-0.65355 0.59501,-1.72493 0.88515,-2.38084 0.63422,-1.43375 0.30786,-1.52522 -0.95084,-0.26652 -0.50932,0.50932 -0.97367,0.92604 -1.03188,0.92604 -0.0582,0 -0.10583,-0.53578 -0.10583,-1.19062 0,-0.67941 -0.12324,-1.19063 -0.28702,-1.19063 -0.15786,0 -1.36415,0.74414 -2.68065,1.65365 l -2.39363,1.65364 0.89471,0.14386 c 0.80737,0.12982 0.72471,0.17502 -0.84675,0.46302 -0.9578,0.17554 -1.93205,0.31916 -2.16498,0.31916 -0.44394,0 -0.58668,0.31018 -0.86356,1.8765 l -0.16802,0.95045 2.62123,1.08783 c 5.3103,2.20383 10.05406,3.23059 14.8845,3.22166 2.67455,-0.005 3.8449,-0.13799 5.95313,-0.67675 0.91171,-0.23298 -1.51872,1.19063 -2.96165,1.73477 -4.46403,1.68343 -11.78142,1.007 -18.52579,-1.71255 -1.26258,-0.50911 -2.38595,-0.92566 -2.49639,-0.92566 -0.11043,0 -0.42638,0.50602 -0.70212,1.12448 -0.27573,0.61847 -0.92802,1.68041 -1.44952,2.35988 -0.75846,0.98817 -0.86807,1.26614 -0.54775,1.38906 0.70557,0.27075 3.37378,0.14094 4.18102,-0.20342 0.68417,-0.29185 1.04724,-0.24379 2.92472,0.38711 3.34116,1.12276 5.7962,1.57075 9.52363,1.73786 4.3686,0.19586 6.65663,-0.17095 9.35207,-1.49926 1.11358,-0.54877 2.61118,-1.07243 3.32799,-1.16368 1.72722,-0.21987 2.54782,-0.73911 6.34347,-4.01388 5.71349,-4.9294 9.42526,-7.42821 12.86083,-8.65807 1.22895,-0.43995 1.86789,-0.84279 2.26032,-1.42511 l 0.54707,-0.81179 2.10084,0.76159 c 2.28321,0.8277 4.82731,2.56236 5.82279,3.9702 0.34444,0.48711 0.82025,1.64773 1.05735,2.57915 1.3151,5.16623 -2.21455,10.44742 -7.553,11.30107 -1.76787,0.2827 -0.5712,0.73105 1.97995,0.74182 2.9286,0.0124 4.58513,-0.62294 6.49671,-2.49159 2.10785,-2.0605 2.71525,-3.74965 2.58192,-7.18016 -0.0922,-2.37249 -0.17756,-2.70828 -1.2264,-4.82491 -0.80253,-1.61958 -1.6054,-2.75243 -2.78692,-3.93234 -3.1772,-3.1729 -6.12246,-4.08946 -10.59466,-3.29704 -4.06029,0.71943 -7.06111,2.07869 -11.80086,5.34538 -2.91262,2.00741 -2.97228,1.98936 -0.79375,-0.24006 5.54051,-5.66991 12.37154,-8.25241 18.3251,-6.92787 3.81847,0.84953 7.21112,3.8281 9.31368,8.17692 1.9865,4.10876 2.21408,7.68259 0.69582,10.92704 -1.26007,2.69269 -3.50431,4.59837 -6.68408,5.67572 -1.42247,0.48195 -2.09258,0.54859 -4.4526,0.44278 -3.20433,-0.14366 -5.94038,-1.00899 -9.07112,-2.86893 -1.55594,-0.92437 -1.91919,-1.28573 -2.46002,-2.44729 -0.73601,-1.58075 -0.82486,-2.55341 -0.23323,-2.55341 0.22356,0 1.16816,0.58381 2.09911,1.29734 2.14587,1.64472 4.21556,2.44156 6.76641,2.60511 1.67047,0.10711 2.22218,0.0307 3.3834,-0.4689 2.65958,-1.14412 4.28366,-3.80005 4.27214,-6.98641 -0.0139,-3.83258 -2.44158,-6.0556 -6.60877,-6.05154 -4.9396,0.005 -8.02346,1.86083 -16.12086,9.70235 -4.92788,4.77215 -7.65862,7.03446 -9.77021,8.09424 -3.32157,1.66705 -9.45785,1.76362 -15.48072,0.24362 -1.14464,-0.28887 -2.13844,-0.46794 -2.20845,-0.39793 -0.07,0.07 0.35719,0.37445 0.94932,0.67654 1.3742,0.70106 2.94342,2.0742 2.94342,2.57561 0,0.3754 -0.29666,0.35127 -1.56729,-0.12748 -0.28366,-0.10687 -0.3243,-0.0162 -0.1646,0.36704 0.83761,2.01029 1.21671,3.14063 1.14909,3.42616 -0.0482,0.20359 -1.1301,-0.36445 -2.79541,-1.46773 -1.49421,-0.98992 -3.27479,-1.99 -3.95686,-2.2224 l -1.24011,-0.42255 0.91415,0.94775 c 0.87318,0.90527 0.8845,0.94104 0.25269,0.79819 -0.3638,-0.0823 -1.23178,-0.2711 -1.92885,-0.41966 -0.69707,-0.14856 -2.48665,-0.79087 -3.97685,-1.42737 -5.6705,-2.42202 -8.97582,-3.13034 -12.085964,-2.58999 -1.28163,0.22266 -1.34475,0.26073 -0.52917,0.3191 0.84222,0.0603 0.8063,0.0849 -0.39688,0.27234 -0.7276,0.11333 -1.97776,0.21996 -2.77812,0.23695 l -1.45521,0.0309 2.11936,1.11675 c 2.59072,1.36513 3.62679,2.06895 5.112374,3.47297 1.05522,0.99728 2.34018,2.97674 2.09287,3.22405 -0.0578,0.0578 -0.60185,-0.32024 -1.20908,-0.84001 -0.60723,-0.51977 -1.10255,-0.90599 -1.10071,-0.85827 0.002,0.0477 0.35903,0.78815 0.79375,1.64541 0.43472,0.85725 0.7904,1.78199 0.7904,2.05497 0,0.46299 -0.0878,0.45184 -1.30716,-0.16604 l -1.307154,-0.66239 -0.0819,0.91018 -0.0819,0.91018 z m 9.657764,-24.58207 c 0.50379,-1.09486 0.68806,-1.92638 0.68391,-3.08615 -0.006,-1.65874 -0.51862,-6.50886 -0.77263,-7.30917 -0.3493,-1.10054 -2.73995,-1.22058 -6.33948,-0.31832 -0.87312,0.21886 -1.70656,0.41724 -1.852084,0.44084 -0.41264,0.0669 -0.15548,-0.85692 0.549294,-1.97336 0.35274,-0.55876 0.64133,-1.08202 0.64133,-1.16279 0,-0.55189 -3.043704,2.01224 -4.025824,3.3915 -0.53699,0.75414 -0.53776,0.7701 -0.0293,0.60871 0.28719,-0.0911 0.88759,0.0166 1.33422,0.23939 0.46401,0.23148 1.929894,0.47535 3.420134,0.56898 1.43443,0.0901 2.92957,0.32591 3.32252,0.52394 0.95852,0.48307 0.95818,0.48323 1.06695,-0.49982 l 0.0952,-0.8599 0.31848,0.74483 c 0.17517,0.40966 0.31849,1.38778 0.31849,2.17361 0,1.20104 -0.12295,1.56881 -0.7714,2.30735 -0.42427,0.48322 -1.10888,1.04749 -1.52136,1.25393 -1.2724,0.63683 -1.92524,1.36968 -2.10233,2.35999 -0.0934,0.52243 -0.35182,1.15823 -0.57422,1.4129 -1.12057,1.2831 1.32596,-0.10807 3.03867,-1.72787 0.77404,-0.73206 1.44084,-1.28273 1.48176,-1.22371 0.0409,0.059 0.22184,0.68819 0.40204,1.39816 0.27855,1.09755 0.26697,1.3834 -0.0773,1.90892 -0.54479,0.83145 -0.51014,0.97617 0.14922,0.62329 0.3048,-0.16313 0.86451,-0.97099 1.24379,-1.79525 z m -7.44627,-2.25214 c 0.77822,-0.77822 1.41495,-1.5384 1.41495,-1.68929 0,-0.15864 -0.59677,-0.0545 -1.4149,0.24686 -1.224434,0.45105 -1.487254,0.67846 -1.952284,1.6893 l -0.53737,1.16808 h 0.53733 c 0.29667,0 1.171044,-0.63371 1.952274,-1.41495 z m -16.582974,-0.63107 c 0.53374,-2.08153 0.37994,-5.94797 -0.35062,-8.81449 -0.9148,-3.58939 -2.09406,-5.88259 -4.03629,-7.84896 -0.89301,-0.90412 -1.55972,-1.70779 -1.48157,-1.78594 0.0781,-0.0781 0.44967,-0.1518 0.8256,-0.16367 0.63991,-0.0202 0.62444,-0.0475 -0.24254,-0.42826 -0.50932,-0.22367 -2.05713,-0.64157 -3.43958,-0.92865 -3.26342,-0.67769 -8.27631,-0.56016 -10.7723,0.25257 -1.59175,0.5183 -4.18852,1.86371 -3.98669,2.06554 0.0546,0.0546 0.74853,-0.0742 1.54213,-0.28609 4.12575,-1.10176 8.04028,-1.04702 11.23054,0.15703 1.75935,0.66401 4.24516,2.89815 4.91229,4.41496 0.46971,1.06795 0.68699,1.08373 0.91049,0.0661 0.0959,-0.43657 0.2738,-0.79375 0.39536,-0.79375 0.40564,0 2.12382,2.58333 3.02257,4.54451 1.49724,3.26714 1.90741,6.91671 1.08285,9.63479 -0.46666,1.5383 -0.46189,1.50075 -0.1677,1.31893 0.12762,-0.0789 0.37758,-0.71098 0.55546,-1.40467 z m -7.66667,-62.305907 c -0.80036,-0.28431 -2.5863,-0.66845 -3.96875,-0.85366 -1.66042,-0.22245 -2.35064,-0.40607 -2.03359,-0.541 1.16093,-0.49409 5.93991,0.47946 7.10053,1.44648 0.72992,0.60817 0.76433,0.60979 -1.09819,-0.0518 z"
       id="path1" /><path
       id="path1-5"
       style="fill:#000000;fill-opacity:0;stroke:#fc0000;stroke-width:0.2;stroke-dasharray:none;stroke-opacity:1"
       d="m 87.670703,63.565363 c -2.286504,0.19382 -19.703572,-1.029994 -20.671615,1.627087 -1.051939,1.08343 10.52165,2.360784 10.720313,3.651564 0.449122,0.70729 -1.089793,1.023805 -1.672909,1.011925 -4.406619,0.10382 -5.041638,-0.418976 -9.353028,0.712634 -1.369755,0.36261 -2.825364,1.59134 -2.516902,3.14718 0.296572,1.1665 1.879631,1.75696 2.805326,0.92813 1.911181,-0.85043 4.033061,-1.04845 6.08568,-1.29976 1.382366,0.0745 2.744269,0.39321 4.137884,0.32985 0.854269,0.0249 1.708586,0.048 2.562907,0.0711 -0.269397,0.56859 -1.046466,0.61805 -1.519585,0.99081 -2.898842,1.51264 -5.838706,3.14739 -7.968453,5.69292 -0.667657,0.71105 -1.362171,1.60676 -1.35416,2.60687 0.282144,1.00484 1.53506,1.01798 2.295822,0.58436 1.889804,-0.99772 3.542496,-2.40031 5.350583,-3.5401 1.260683,-0.80861 2.554575,-1.57367 3.910637,-2.21181 1.19641,2.62009 3.593585,4.59657 6.259169,5.59433 0.539985,-0.0586 0.466282,0.35928 0.529894,0.76309 0.170182,1.38863 1.38832,2.67236 2.856474,2.52366 1.246898,0.008 2.678246,-0.0961 3.623994,-0.99046 0.327665,-0.13112 0.785711,0.49171 1.148968,0.69697 l -0.354638,1.38517 c -1.449608,-0.17666 -3.235795,0.41896 -3.796283,1.87294 0.03907,0.5616 -0.5631,0.20835 -0.90039,0.43164 -0.336864,0.12502 -0.634084,0.35743 -0.828125,0.66016 -3.056216,-1.14683 -6.337973,-1.38074 -9.488891,-2.15025 -3.678031,-0.73697 -7.406791,-1.17781 -11.099,-1.83999 0.531882,0.56577 1.063707,1.1316 1.595703,1.69727 -3.030109,-0.0769 -6.09764,0.13735 -8.994819,1.08348 -1.817569,0.54014 -3.72059,1.01357 -5.319379,2.06464 -2.040893,1.57746 -3.501308,3.76533 -4.892084,5.9051 -1.219666,2.02193 -2.328819,4.250887 -2.481218,6.638177 0.0086,0.5056 0.763249,0.66251 0.421083,1.1917 -1.380871,6.35429 -1.568887,12.99783 -0.379164,19.3973 1.082605,4.79488 3.759822,9.03376 6.564425,12.99815 3.065192,4.22722 6.633302,8.05297 10.153422,11.89918 -0.185866,-1.06244 -0.371619,-2.12491 -0.556641,-3.1875 3.112089,1.98634 6.654918,3.17893 10.175781,4.20117 0.598635,0.13442 1.217905,-0.1412 1.70728,-0.33697 4.735014,1.75373 9.818716,2.04899 14.764908,2.80983 1.458575,0.27101 2.739099,1.04733 3.891094,1.94707 1.009334,0.564 2.16122,1.00166 2.802114,2.02863 0.907254,1.13197 1.870598,2.21631 2.8307,3.3034 0.0982,-1.07607 0.19442,-2.15231 0.29101,-3.22852 0.90151,0.47756 2.21145,0.31982 2.63868,-0.7168 0.27248,-0.46695 0.14119,-1.08766 0.16992,-1.5332 0.98526,-0.61943 0.9399,-2.0442 0.31076,-2.90631 -1.11953,-2.18752 -3.09264,-3.86579 -5.092012,-5.15814 0.443788,-0.0787 0.913634,-0.37225 1.214912,-0.56228 4.26665,-0.12886 8.13471,1.95728 12.03344,3.39703 1.72627,0.60997 3.5139,1.20541 5.36298,1.21798 0.39687,-0.1 0.6712,-0.67331 1.02146,-0.20698 1.58614,0.92255 3.05834,2.22714 4.8926,2.60347 1.33026,0.0143 2.07655,-1.64764 1.48201,-2.74647 0.0139,-0.32902 -0.5102,-0.83508 -0.0914,-0.98596 0.7163,-0.4429 1.0468,-1.41458 0.73242,-2.19921 4.1956,0.64568 8.66915,0.75567 12.65527,-0.90031 3.38662,-1.59885 6.00847,-4.35927 8.76,-6.82459 3.56586,-3.34383 7.02212,-7.00643 11.17822,-9.53896 2.52397,-1.37137 5.67374,-1.94093 8.41418,-0.90288 1.39184,0.6072 2.21019,2.08832 2.21686,3.57721 0.24271,2.72451 -1.51226,5.76716 -4.35734,6.20867 -1.73148,0.22416 -3.51494,-0.15573 -5.1216,-0.79482 -1.74549,-0.78838 -3.12186,-2.21596 -4.86668,-2.99034 -1.19944,-0.38678 -2.58717,0.58715 -2.52344,1.875 -0.0485,1.47771 0.69081,2.86614 1.46094,4.07422 1.42717,1.72485 3.58169,2.57501 5.54102,3.53125 3.3498,1.3507 7.09629,1.90093 10.66333,1.22898 4.46299,-1.02212 8.42576,-4.53066 9.42577,-9.07951 1.03227,-4.418 -0.58514,-9.01473 -3.05675,-12.66581 -2.37495,-3.50422 -6.15742,-6.23185 -10.44872,-6.63149 -5.71248,-0.6486 -11.38893,1.75446 -15.72121,5.36228 -1.58765,1.32352 -3.13243,2.75529 -4.346,4.42896 -0.64258,1.25235 0.953,2.87896 2.18696,2.08323 2.84083,-1.6311 5.37389,-3.78626 8.41759,-5.06347 1.83445,-0.81702 3.7732,-1.4318 5.76965,-1.68661 -0.35147,0.60998 -0.76089,1.21006 -1.48113,1.41233 -1.49208,0.57401 -2.97213,1.17881 -4.33797,2.02072 -4.87724,2.77533 -8.84876,6.80304 -13.29809,10.16461 -1.34146,0.78278 -2.9758,0.69139 -4.34973,1.40889 l 1.48513,-1.32503 c 0.87636,-0.7467 0.62279,-2.40639 -0.56313,-2.66003 -1.19168,-0.23872 -2.31889,0.43302 -3.507,0.46333 l -7.06917,-1.85982 c 0.88322,0.58497 1.93779,0.0568 2.6791,-0.50531 1.45211,-0.81566 2.89224,-2.22548 2.71584,-4.03297 -0.0158,-0.8657 -0.27858,-1.69892 -0.50041,-2.52813 0.82203,-1.16368 0.0837,-2.59462 -0.15815,-3.8254 -0.43211,-1.63262 -1.02447,-3.61381 -2.75982,-4.2742 -0.31018,-0.2083 -1.26171,-0.0502 -0.69605,-0.53668 2.10692,-2.90129 3.6354,-6.39669 3.46305,-10.04533 0.0762,-6.32437 -2.28608,-12.292887 -4.08121,-18.249217 -0.35285,-0.4634 0.13961,-0.55472 0.34741,-0.89924 0.55325,-0.88485 -0.33283,-1.71555 -0.63836,-2.50548 -0.34384,-0.73518 -0.76103,-1.47405 -1.10187,-2.18593 0.22437,-0.54743 0.0702,-1.17857 -0.23828,-1.66016 2.50987,-0.73636 5.12885,-2.29392 5.92578,-4.93945 0.82277,-3.15413 -1.37244,-6.4785 -4.33013,-7.55247 -0.30639,-0.25288 -0.37303,-0.82536 -0.81374,-1.02518 -1.01174,-0.64414 -2.27942,-0.36851 -3.41066,-0.34938 -2.15394,0.19378 -4.31479,1.00077 -5.86735,2.54422 -1.75597,-1.36939 -3.69675,-2.55506 -5.79847,-3.3114 -2.39423,-0.80191 -4.9855,-0.92139 -7.48068,-0.6464 -1.08039,0.11555 -2.12755,0.52626 -3.03139,1.08475 -0.70882,-1.16283 -2.2366,-1.28385 -3.417176,-1.67639 -3.279535,-0.81753 -6.638834,-1.28627 -9.995468,-1.64414 -0.649996,-0.0427 -1.301818,-0.0328 -1.952593,-0.0174 z"
       sodipodi:nodetypes="scccccccccccccccccccccccccccccccccccccccccccccccccccccccccccccccccccccccccccccccccccccccccccccccccccccccccss" /></g></svg>
