<?xml version="1.0" encoding="UTF-8" standalone="no"?>
<!-- Created with Inkscape (http://www.inkscape.org/) -->

<svg
   width="210mm"
   height="297mm"
   viewBox="0 0 210 297"
   version="1.1"
   id="svg1"
   xml:space="preserve"
   inkscape:version="1.3.2 (091e20e, 2023-11-25, custom)"
   sodipodi:docname="rat_v_fin_large.svg"
   xmlns:inkscape="http://www.inkscape.org/namespaces/inkscape"
   xmlns:sodipodi="http://sodipodi.sourceforge.net/DTD/sodipodi-0.dtd"
   xmlns="http://www.w3.org/2000/svg"
   xmlns:svg="http://www.w3.org/2000/svg"><sodipodi:namedview
     id="namedview1"
     pagecolor="#ffffff"
     bordercolor="#000000"
     borderopacity="0.25"
     inkscape:showpageshadow="2"
     inkscape:pageopacity="0.0"
     inkscape:pagecheckerboard="0"
     inkscape:deskcolor="#d1d1d1"
     inkscape:document-units="mm"
     inkscape:zoom="2"
     inkscape:cx="429.75"
     inkscape:cy="529.25"
     inkscape:window-width="1920"
     inkscape:window-height="1017"
     inkscape:window-x="-8"
     inkscape:window-y="-8"
     inkscape:window-maximized="1"
     inkscape:current-layer="layer1" /><defs
     id="defs1" /><g
     inkscape:label="Calque 1"
     inkscape:groupmode="layer"
     id="layer1"><path
       id="path2"
       style="fill:#000000;fill-opacity:0;stroke:#e20000;stroke-width:0.3;stroke-dasharray:none;stroke-opacity:1"
       d="m 77.789062,103.53516 c -4.263547,0.38291 -7.873666,3.26746 -10.313852,6.62834 -3.166196,4.37785 -4.550134,9.90641 -4.328726,15.29158 -0.05965,1.3052 -1.432209,1.90909 -2.559475,2.04285 -1.274712,0.26708 -2.914505,0.85203 -3.110447,2.33996 -0.437527,1.55279 -1.838334,2.54898 -3.233982,3.18853 -1.318506,0.84442 -3.030733,1.68603 -3.351955,3.37202 -0.0045,0.74673 0.13688,1.48415 0.199219,2.22656 -1.333522,0.98705 -3.044817,2.15147 -2.992188,4.01367 0.234094,0.92957 1.069922,1.52771 1.521485,2.34571 -2.159106,3.94754 -2.071458,8.56826 -2.237779,12.9341 -0.163243,3.66177 -0.546655,7.35755 0.02879,11.0034 0.150825,1.33244 1.139754,2.63118 1.208985,4.0664 -0.07136,1.09807 0.8032,1.92113 1.451171,2.69922 -0.423724,1.72961 -1.484434,3.58065 -0.685546,5.35742 0.950744,1.62195 3.353332,1.65075 4.730468,0.57617 1.491373,-0.33571 2.763078,0.96424 3.167969,2.28711 1.912224,3.98814 5.24872,7.63879 9.689233,8.67921 2.373897,0.58438 4.838346,0.45832 7.259986,0.39111 0.06416,2.00912 0.04018,4.00446 0.842357,5.93274 0.481461,0.99865 1.150205,2.10564 2.243072,2.48941 5.679261,-0.77678 8.171099,1.10218 9.500585,0.17379 1.758816,-1.00296 3.469362,-1.23716 6.177943,-2.16904 l 10.172375,0.53951 18.76484,3.83046 c -0.29035,1.68104 13.14714,-2.79755 14.21586,-4.02998 9.43953,-3.61952 8.66739,-5.55583 13.47282,-11.99817 -0.61838,-3.60314 2.2425,-9.72712 2.54366,-11.58556 l 2.03915,-8.45074 c 0.0729,-1.4521 -0.75575,-2.73373 -1.11328,-4.10156 1.34299,-0.41456 2.97412,-1.25189 3.08008,-2.8379 -0.0512,-1.75686 -2.35484,-2.66001 -3.76368,-1.79687 -1.42794,0.41188 -2.8086,0.96501 -4.20312,1.47461 -6.31172,-6.58089 -12.53996,-13.31734 -19.43555,-19.26758 -2.40497,-2.30542 -5.7725,-3.46535 -7.99219,-6.08984 -2.56322,-2.63796 -5.67265,-4.65918 -8.90715,-6.37122 -0.45028,-0.25584 -0.86213,-0.63355 -0.73358,-1.20027 -0.10311,-2.6935 -0.4554,-5.33656 -1.17638,-7.99569 -1.15227,-4.12402 -3.13141,-8.07109 -6.38719,-10.92394 -1.98941,-1.71461 -4.797358,-2.95802 -7.423639,-2.10802 -1.733057,0.58377 -2.759358,2.19404 -3.605374,3.70697 -0.354312,0.58941 -0.708625,1.17889 -1.061609,1.76912 -2.644288,-3.33084 -5.770734,-6.62504 -9.947489,-7.92054 -1.207694,-0.38002 -2.48006,-0.56072 -3.745871,-0.51305 z"
       sodipodi:nodetypes="sccccccccccccccccccccccccccccccccccccccccccss" /><path
       id="path2-0"
       style="fill:#000000"
       d="m 78.650496,105.65557 c -1.155618,-0.0378 -2.293104,0.16324 -3.380155,0.61701 -3.923871,1.63796 -7.982584,6.75781 -9.165332,11.56105 -0.847961,3.44365 -1.100977,7.93096 -0.569991,10.10998 0.143373,0.58836 0.260449,1.10202 0.260449,1.14102 0,0.039 -0.771345,0.0713 -1.714107,0.0718 -0.942762,5.2e-4 -1.988168,0.0905 -2.323373,0.2005 l -0.609781,0.20051 0.876432,0.15606 c 1.634483,0.29125 1.295233,0.61209 -3.441651,3.26078 -3.425252,1.91527 -5.702442,3.37468 -5.542814,3.55172 0.04295,0.0477 0.342362,0.0118 0.665076,-0.0796 1.081773,-0.30627 4.319972,-0.59893 4.493783,-0.40617 0.181717,0.20152 -0.811292,0.9909 -2.916618,2.3182 -1.581128,0.99682 -4.571297,3.16607 -4.571297,3.31659 0,0.0602 1.277137,-0.60295 2.838069,-1.47381 1.560933,-0.87085 2.940693,-1.58336 3.065963,-1.58336 0.2431,0 -0.58814,1.17351 -2.095479,2.95744 -0.977283,1.15662 -3.191053,4.84086 -4.00234,6.58978 -0.941949,2.03058 -1.05403,11.75244 -1.09089,12.21217 -0.01591,0.1985 -0.0595,0.43383 -0.03669,0.5917 -0.01372,0.10959 -0.04698,0.22612 -0.04806,0.33124 -0.01461,1.4289 -0.361009,4.56489 0.166398,7.52254 0.08701,0.48792 0.209585,0.88728 0.272335,0.88728 0.06275,0 0.498607,-0.6275 0.968416,-1.39423 1.698989,-2.77275 3.581232,-5.05343 4.936133,-5.98103 0.21404,-0.14653 0.240783,-0.24339 0.109037,-0.39635 -0.278591,-0.32344 -1.793488,0.0993 -3.075781,0.85834 -0.613992,0.36344 -1.172535,0.66094 -1.241785,0.66094 -0.163088,0 0.692622,-3.1131 1.30173,-4.76715 0.03488,-0.0504 0.07466,-0.0938 0.08992,-0.17105 0.0028,-0.0142 0.006,-0.084 0.0088,-0.10025 0.645513,-1.67075 1.784823,-3.85586 2.793628,-5.34231 1.57457,-2.32008 0.830148,-1.95419 -1.634009,0.80357 -0.299745,0.33546 -0.594989,0.68638 -0.894519,1.03146 0.196824,-3.35516 0.455398,-7.88649 0.95033,-9.11262 1.01659,-2.51847 2.090199,-4.50339 3.793566,-7.01249 1.713515,-2.52405 4.062749,-5.1378 6.879167,-7.6538 1.475011,-1.31768 1.357332,-1.32593 2.349727,0.17312 1.072177,1.61956 2.207257,3.11887 2.290817,3.02617 0.03435,-0.0381 -0.31886,-0.718 -0.784965,-1.51102 -1.653515,-2.81328 -2.368481,-5.32046 -2.366781,-8.29768 0.0016,-2.87478 0.571497,-5.2303 2.130103,-8.80205 2.871089,-6.57948 6.42699,-9.41505 10.931115,-8.71627 1.673459,0.25963 2.905965,0.81733 4.215764,1.90738 1.804988,1.50217 3.785482,4.66253 4.418851,7.05073 0.46157,1.74044 0.223249,5.31606 -0.51263,7.68429 -0.17058,0.54894 -0.310058,1.07157 -0.310058,1.16117 0,0.0896 0.308633,-0.11829 0.686263,-0.46147 0.377629,-0.34318 0.799127,-0.59938 0.936377,-0.56948 0.551669,0.12033 0.82799,0.87229 0.987019,2.6846 0.41598,4.74079 0.744791,5.43336 2.692859,5.67045 0.961729,0.11704 2.018962,-0.46286 2.194182,-1.20354 0.270359,-1.14289 -0.885266,-6.05865 -2.000395,-8.50853 -0.25756,-0.56586 -0.468705,-1.06918 -0.468705,-1.11828 0,-0.26165 0.392494,0.009 1.251603,0.86403 0.898129,0.89372 1.491165,1.3996 5.262211,4.48758 2.976257,2.43717 4.756917,4.8299 4.759917,6.39548 10e-4,0.66887 0.0757,0.84515 0.57309,1.36116 0.67304,0.69823 3.41981,3.17401 3.89692,3.51244 0.39313,0.27886 -0.91773,-1.15729 -2.4138,-2.64428 l -1.06402,-1.05782 0.60926,0.10129 c 1.5701,0.25993 5.09925,1.3327 6.65541,2.02313 4.15976,1.84558 8.71837,5.1316 11.43755,8.24498 0.64909,0.74318 1.21609,1.31104 1.26039,1.26194 0.11153,-0.12368 -1.19168,-2.06011 -2.12546,-3.15795 -0.42479,-0.49941 -1.16662,-1.20569 -1.64847,-1.56941 -0.85508,-0.64542 -1.08651,-0.98651 -0.66921,-0.98651 0.28457,0 3.15622,1.92923 4.67775,3.14245 1.42385,1.13532 2.4206,2.29704 3.53828,4.12378 0.9675,1.58128 2.04116,2.84617 3.99459,4.70669 0.83801,0.79815 2.28382,2.27101 3.21272,3.27266 0.9289,1.00165 1.73879,1.82108 1.79989,1.82108 0.15925,0 -1.60473,-2.49746 -3.01015,-4.26175 -0.65854,-0.8267 -1.16825,-1.53528 -1.13275,-1.57458 0.11713,-0.1299 2.46993,1.6829 3.13418,2.41483 0.35846,0.39498 0.73564,0.71801 0.83819,0.71831 0.29739,8.5e-4 1.63597,1.3307 3.40755,2.64841 1.94114,1.44382 7.10207,7.63119 8.20001,9.41339 1.45291,2.35838 1.96584,3.55825 0.76636,5.34747 -1.40284,2.09256 -4.62112,7.79649 -5.50457,8.0424 -0.44326,0.12338 -0.44089,-0.14925 -0.82874,-0.98909 -0.41959,-0.90857 -1.07405,-1.51673 -1.16545,-1.41541 -0.0426,0.0472 0.21028,0.66753 0.56224,1.37873 0.42979,0.86847 0.6122,1.41661 0.555,1.66915 -0.0877,0.38746 -0.65811,0.77204 -1.14515,0.77204 -0.21262,0 -0.2596,0.0971 -0.2036,0.4222 0.0528,0.30656 0.007,0.42271 -0.16795,0.42271 -0.26966,0 -0.20906,-0.46778 -0.68058,-1.43712 l -0.32866,-0.67541 -0.0656,1.07849 c -0.0813,1.33475 0.11757,1.5761 -1.2113,2.62774 -1.16345,0.9207 -1.67019,1.15814 -1.90789,0.89452 -0.1012,-0.11221 -0.0315,-0.84379 -0.0315,-1.71411 0,-0.81237 -0.20869,-1.47739 -0.29249,-1.53479 -0.0934,-0.0641 -0.15243,0.20999 -0.15297,0.70849 -0.002,1.53417 -0.26755,2.81273 -0.66455,3.1967 -0.38972,0.37693 -2.3177,1.03886 -2.48512,0.85318 -0.0542,-0.0601 0.08,-1.00167 0.29765,-2.09238 0.37122,-1.86021 0.40833,-2.44091 0.12454,-1.93166 -0.0666,0.11952 -0.38947,0.96949 -0.57464,1.88929 -0.18518,0.91979 -0.33578,1.82175 -0.47749,2.00401 -0.164,0.21093 -0.54803,0.37232 -1.05678,0.44442 -1.053,0.14918 -0.97242,-0.0893 -0.44029,-1.73013 0.50666,-1.56228 0.14571,-1.48094 -0.43201,0.11059 -0.60967,1.6795 -0.68919,1.73518 -2.49804,1.76268 -0.83441,0.0127 -1.56809,-0.0331 -1.63039,-0.1018 -0.15153,-0.16687 2.15583,-4.70689 3.52175,-7.23987 1.19012,-2.20698 1.32916,-3.02721 1.23506,-3.02721 -0.17644,0 -2.18214,3.68285 -3.45095,6.33657 -0.87457,1.82917 -2.10431,3.48298 -2.52697,3.915 0.10733,-0.4035 -0.4575,-0.61868 -1.4857,-0.62218 -1.15466,-0.004 -1.409,-0.22066 -0.93948,-0.95446 1.03909,-1.62397 4.28178,-6.59041 6.49418,-9.60924 0.4976,-0.67904 0.5889,-1.32049 0.5457,-1.36839 -0.18262,-0.20253 -3.67976,4.82071 -6.53552,9.38754 -0.78031,1.24786 -1.53579,2.34801 -1.67897,2.44481 -0.20029,0.13545 -0.37211,0.085 -0.74362,-0.21962 -0.4095,-0.33574 -0.59916,-0.38089 -1.2485,-0.29559 -0.4211,0.0553 -1.02589,0.24345 -1.34411,0.41806 l -0.57825,0.3173 -0.046,-0.69247 c -0.0455,-0.68842 -0.0497,-0.6933 -0.70073,-0.7338 -0.73846,-0.0459 -1.24954,-0.29191 -1.24954,-0.60152 0,-0.23889 2.73843,-3.49141 4.64727,-5.1263 1.80082,-1.54238 4.12868,-3.51708 5.33197,-4.41213 0.54135,-0.40269 0.64649,-0.77621 0.56379,-0.84801 -0.56492,-0.49046 -4.48187,3.33367 -7.81193,6.33088 -1.01315,0.91188 -2.28607,2.22341 -3.6499,3.70933 -0.36105,-0.23981 -1.39551,-0.80832 -2.27066,-1.22318 -1.03293,-0.48966 -1.94831,-0.96842 -2.03451,-1.06402 -0.25945,-0.28775 0.1112,-0.60903 1.37873,-1.19476 2.05646,-0.9503 1.79487,-1.06932 -1.16582,-0.5302 -3.72155,0.67766 -4.26823,0.60792 -2.59157,-0.33073 1.38533,-0.77558 0.98229,-0.78422 -0.56948,-0.0124 -1.98353,0.98655 -5.97267,2.13274 -6.27093,1.80196 -0.1192,-0.1322 -0.0966,-0.1458 1.53014,-0.93121 0.81706,-0.3945 1.48569,-0.75834 1.48569,-0.80874 0,-0.17847 -3.15979,0.1255 -5.699392,0.54829 -1.416678,0.23585 -2.606366,0.39487 -2.643766,0.35347 -0.19611,-0.21749 3.037012,-1.66887 6.122108,-2.74816 0.74776,-0.26159 1.38472,-0.56057 1.41542,-0.66456 0.0332,-0.1126 -0.0853,-0.16564 -0.29301,-0.13074 -2.59959,0.43649 -6.662903,1.22912 -8.705411,1.69809 -1.411568,0.3241 -2.596414,0.55623 -2.632914,0.51573 -0.03651,-0.0405 0.621397,-0.35987 1.461926,-0.70952 1.551519,-0.64542 1.997877,-1.03597 0.957048,-0.83767 -1.429459,0.27235 -4.957566,1.16472 -6.705534,1.69602 -5.643744,1.71541 -8.937003,5.27235 -10.960571,11.83752 -0.52606,1.70661 -0.565575,1.97589 -0.572575,3.8623 -0.0077,2.18998 0.174966,2.99876 0.927075,4.09742 0.554189,0.80956 0.656526,0.67216 0.313676,-0.4222 -0.43133,-1.37675 -0.519658,-3.64474 -0.185518,-4.76043 0.449079,-1.49944 1.474528,-2.50603 2.314587,-2.27221 0.22482,0.0626 0.807522,0.52049 1.295011,1.01751 0.48748,0.49702 0.959532,0.9033 1.049032,0.9033 0.18469,0 0.150793,-0.0698 -0.649056,-1.33738 -0.31761,-0.50333 -0.574541,-1.07393 -0.571541,-1.26763 0.0049,-0.29857 0.08233,-0.2523 0.510046,0.30179 0.27749,0.35947 0.703592,1.0777 0.946712,1.59629 0.24312,0.5186 0.720438,1.33158 1.060917,1.80661 0.34048,0.47504 1.16611,2.22027 1.77767,3.30677 0.611559,1.0865 1.090361,1.50792 1.120861,1.50792 0.21175,0 -1.403194,-3.5473 -2.713012,-5.95881 -0.5938,-1.09323 -1.040171,-2.03144 -0.991671,-2.08514 0.2179,-0.24165 0.859883,0.24788 2.143022,1.63349 0.761449,0.82226 1.402819,1.47486 1.424719,1.45056 0.02192,-0.0243 -0.12847,-0.31856 -0.33383,-0.65371 -0.791679,-1.29208 -1.722171,-3.60125 -1.823661,-4.52531 -0.13737,-1.25072 0.143693,-3.07142 0.667143,-4.32066 1.119258,-2.67114 4.186019,-3.76571 8.318355,-2.96933 4.308516,0.83033 7.911614,1.21478 12.265404,1.30948 l 3.42821,0.0744 0.44029,0.53175 c 0.41875,0.50597 0.45012,0.51691 0.6475,0.21756 0.11404,-0.17305 0.20723,-0.45252 0.20723,-0.62063 0,-0.3993 0.0274,-0.39506 1.53272,0.22117 1.09217,0.44713 2.28896,0.72686 3.07475,0.73484 -3.91888,4.32656 -8.38094,9.79533 -9.63146,11.49646 -0.20594,0.27881 1.56534,-0.95885 3.36414,-2.92127 1.7988,-1.96243 3.61917,-4.55504 4.61729,-5.58984 1.96432,-2.03651 2.21639,-2.16325 3.06079,-1.54306 0.2514,0.18465 0.63767,0.33581 0.85835,0.33642 0.26237,7.3e-4 0.42702,0.10987 0.47542,0.31522 0.0895,0.37951 0.70009,0.53475 1.63763,0.416 0.48872,-0.0619 0.92043,0.0161 1.50275,0.27233 0.62843,0.27649 0.86568,0.31458 1.02836,0.16485 0.16819,-0.15477 0.21136,-0.12684 0.21136,0.13591 0,0.18177 0.0428,0.37763 0.0951,0.43563 0.11577,0.12838 1.17395,-0.44573 1.83762,-0.99735 0.63182,-0.52516 0.75594,-0.51103 0.3638,0.0419 -0.62407,0.87986 0.0621,1.04614 1.0573,0.28681 0.10799,-0.0824 0.18791,-0.1586 0.26303,-0.23306 -0.0317,0.0837 -0.0594,0.17063 -0.0594,0.24443 0,0.17758 0.0791,0.82824 -0.13177,1.28984 -0.50426,1.10362 -0.24401,1.08878 0.29869,-0.0171 0.23124,-0.47119 0.50311,-0.89183 0.60409,-0.93483 0.10098,-0.043 1.0178,-0.0567 2.03761,-0.0305 l 1.85415,0.0475 -1.11415,3.04168 c -1.41354,3.85821 -2.9737,7.78052 -4.07675,10.6717 -0.47731,1.25107 -0.89607,2.28509 -0.89607,2.36109 0.003,0.65757 2.8863,-6.01861 5.62136,-13.72319 0.33479,-0.94309 0.73681,-1.86098 0.85783,-2.05259 0.2073,-0.32824 0.82412,-0.54958 2.23242,-0.80098 l 0.56018,-0.0997 -0.0749,3.76515 c -0.0412,2.07078 -0.19645,4.88416 -0.11575,5.62343 l 0.27337,2.50372 0.25631,-2.18385 c 0.11783,-0.8753 0.0512,-3.45143 -0.0294,-5.62653 l 0.0941,-3.95428 1.36684,-0.47232 c 0.75192,-0.25977 1.40497,-0.40464 1.45107,-0.32194 0.0461,0.0827 0.59135,1.74419 0.91829,3.75067 0.32674,2.00523 1.06494,3.98443 1.08934,3.79564 0.0244,-0.1888 -0.0701,-2.10454 -0.52451,-3.62821 -1.16672,-3.91229 -1.11235,-4.27992 0.31367,-5.08702 0.4787,-0.27094 1.10509,-0.68744 1.39165,-0.92553 0.62586,-0.52 0.85625,-0.38586 1.00407,0.58446 0.0558,0.36635 0.18975,0.72302 0.29766,0.79272 0.1079,0.0698 0.22773,0.67995 0.49506,1.2702 0.26733,0.59027 0.70881,0.96359 0.75241,0.91519 0.0436,-0.0484 -0.172,-0.75904 -0.47904,-1.57974 -0.93773,-2.50652 -0.91559,-2.39613 -0.57981,-2.90164 0.16427,-0.24731 0.5046,-0.51856 0.75602,-0.60306 0.25141,-0.0845 0.51987,-0.30702 0.59687,-0.49403 0.19532,-0.47453 0.87275,-0.99346 1.13791,-0.87178 0.24134,0.11075 0.71353,1.29047 1.84795,3.07837 0.40024,0.6308 1.0823,1.05988 1.125,1.05988 0.13767,0 -0.0661,-0.63454 -1.31724,-2.57297 -0.67433,-1.04474 -1.35857,-1.88063 -1.35857,-1.91823 0,-0.0376 0.52345,-0.69658 1.16324,-1.46399 3.09899,-3.71711 7.06468,-10.44046 7.06468,-11.97756 0,-0.94036 -1.21067,-1.99305 -2.59054,-2.2531 -0.84429,-0.15912 -1.90427,-0.82893 -1.90427,-1.20302 0,-0.45197 1.74434,-1.39168 4.41833,-2.38022 1.17321,-0.43373 2.04619,-0.8206 1.93994,-0.8599 -0.2671,-0.0988 -2.6428,0.67447 -4.58732,1.49294 -0.89018,0.37468 -1.66118,0.69606 -1.71308,0.71416 -0.0519,0.0181 -1.49192,-1.48827 -3.1998,-3.34708 -3.65406,-3.97696 -6.491,-6.88489 -9.12347,-9.35137 -1.04752,-0.98145 -2.45344,-2.35819 -3.12384,-3.05976 -3.14787,-3.29415 -6.30655,-5.9275 -8.45634,-7.04918 -0.79611,-0.41538 -1.68272,-0.88283 -1.97042,-1.03921 -0.28769,-0.15639 -1.04175,-0.88018 -1.67586,-1.60817 -2.25561,-2.58953 -4.8137,-4.52516 -8.94468,-6.7691 l -2.14457,-1.16479 -0.092,-2.63704 c -0.13987,-3.99446 -0.87838,-7.31991 -2.34973,-10.5792 -2.38142,-5.27527 -6.33643,-8.64219 -9.410283,-8.0114 -1.978208,0.40597 -2.622813,2.15373 -1.923914,5.2188 0.32242,1.41399 1.668687,4.69878 2.081527,5.07876 0.18665,0.17181 0.185104,0.0806 -0.01033,-0.62012 -0.64782,-2.32256 -1.112627,-5.13288 -0.848527,-5.12888 0.05055,7.1e-4 0.255466,0.32403 0.455786,0.7183 0.200309,0.39427 0.963434,1.74309 1.695503,2.99775 2.470048,4.23329 3.886998,7.07472 4.235398,8.49147 0.17775,0.72278 0.0936,0.76468 -0.61081,0.30438 -0.27714,-0.1811 -1.42927,-0.71582 -2.56057,-1.18804 -3.005205,-1.25444 -4.825509,-2.2947 -5.637899,-3.22255 -0.377109,-0.43069 -1.121213,-1.61243 -1.654162,-2.62619 -1.352609,-2.57286 -2.706479,-4.83088 -3.799768,-6.33708 -2.93243,-4.03998 -6.564058,-6.30368 -10.030913,-6.41718 z m 19.327503,26.07902 c -0.180534,0.0194 0.22308,0.34755 1.192692,0.93431 0.792097,0.47935 1.508869,0.87147 1.592669,0.87127 0.38732,-9e-4 -1.038586,-1.17014 -1.825213,-1.49655 -0.533009,-0.22116 -0.851828,-0.32066 -0.960148,-0.30903 z m -20.88348,4.25918 c -0.547594,-0.056 -1.014045,0.19378 -1.354439,0.75396 -0.3934,0.6474 -0.43729,1.29996 -0.14056,2.08721 0.23345,0.61934 1.734218,2.21911 2.894397,3.0856 0.852499,0.63671 1.014408,0.69536 1.014408,0.36793 0,-0.37953 -0.99434,-2.52791 -1.811259,-3.91345 -0.660289,-1.11989 -0.751935,-1.36546 -0.556555,-1.48673 0.32738,-0.20318 1.22265,0.1023 1.846399,0.62993 0.701599,0.59346 0.66531,0.26837 -0.04961,-0.44338 -0.666145,-0.66319 -1.295188,-1.02503 -1.842781,-1.08107 z m 39.913841,12.79663 c -0.60672,0.0201 -1.16642,0.15746 -1.57355,0.42116 -0.78103,0.50589 -0.69568,0.7124 0.18914,0.45786 0.93289,-0.26837 2.00511,-0.0931 2.94297,0.4811 0.69535,0.42574 1.31827,1.33044 1.31827,1.9141 0,0.21196 0.10809,0.50508 0.23978,0.65112 0.13169,0.14605 0.35622,0.2651 0.49919,0.2651 0.42454,0 0.93741,-0.49729 0.93741,-0.9095 0,-0.5943 -0.85728,-1.88893 -1.62315,-2.45153 -0.7781,-0.57158 -1.91886,-0.86297 -2.93006,-0.82941 z m 4.89479,6.68641 c -0.13421,0.0581 -0.41317,0.31962 -0.73225,0.69712 -0.41381,0.48957 -1.03207,0.99922 -1.38823,1.2328 -0.35615,0.23359 -0.65919,0.54283 -0.65919,0.58673 0,0.16524 0.9433,-0.001 1.64951,-0.49558 0.79317,-0.55515 1.31163,-1.67766 1.21233,-2.00815 -0.009,-0.0291 -0.0374,-0.0323 -0.0822,-0.0129 z M 62.327979,166.0586 c -0.384298,0.0325 -0.964686,0.1538 -1.748731,0.36535 -3.711384,1.00143 -7.236394,5.51419 -8.937439,11.44116 -0.260381,0.90725 -0.473356,1.76236 -0.473356,1.90066 0,0.13829 0.02802,0.25167 0.06201,0.25167 0.03399,0 0.522324,-0.89339 1.085205,-1.98541 3.038172,-5.89418 7.433359,-10.91279 10.013342,-11.4329 0.363308,-0.0732 0.571541,-0.20867 0.571541,-0.37155 0,-0.14523 -0.188276,-0.20149 -0.572574,-0.16898 z m -7.58455,1.31878 c -0.04849,-0.0336 -0.231504,0.0822 -0.559139,0.37827 -0.884509,0.79944 -2.388429,2.84937 -2.938839,4.00648 -0.293816,0.61769 -0.530466,1.18832 -0.526066,1.26762 0.0044,0.0794 0.124393,-0.044 0.26665,-0.27389 0.883756,-1.42831 2.094642,-3.13305 2.923336,-4.11551 0.621653,-0.737 0.914881,-1.207 0.834058,-1.26297 z m 72.660161,0.91106 c -2.00297,-0.37345 -13.26383,2.59951 -15.90187,3.51658 -1.25519,0.43635 -0.28455,0.41744 3.95066,-0.50747 2.31253,-0.50501 5.95151,-1.11281 8.2424,-1.75079 4.1887,-1.16647 4.54826,-1.1018 3.70881,-1.25832 z"
       sodipodi:nodetypes="sssssscccsscsssssssscsssssssscscsscsssssssssssssscssssssscsscccsscssssssssscssssssssscssscccssscssssssscssscsssccssssssssccsssssscsssssssssscsscsssssscssssssscsssssscssssssccccssccssssssssssssscsssscccscssccsccccccssssssscssssscssssssssssssssscssscccssssscsssssssssssssssssssssssssssssssssssssssssssssssssssssssssssssssss" /></g></svg>
