<?xml version="1.0" encoding="UTF-8" standalone="no"?>
<!-- Created with Inkscape (http://www.inkscape.org/) -->

<svg
   width="210mm"
   height="297mm"
   viewBox="0 0 210 297"
   version="1.1"
   id="svg1"
   xml:space="preserve"
   inkscape:version="1.3.2 (091e20e, 2023-11-25, custom)"
   sodipodi:docname="rat_outlined.svg"
   xmlns:inkscape="http://www.inkscape.org/namespaces/inkscape"
   xmlns:sodipodi="http://sodipodi.sourceforge.net/DTD/sodipodi-0.dtd"
   xmlns="http://www.w3.org/2000/svg"
   xmlns:svg="http://www.w3.org/2000/svg"><sodipodi:namedview
     id="namedview1"
     pagecolor="#ffffff"
     bordercolor="#000000"
     borderopacity="0.25"
     inkscape:showpageshadow="2"
     inkscape:pageopacity="0.0"
     inkscape:pagecheckerboard="0"
     inkscape:deskcolor="#d1d1d1"
     inkscape:document-units="mm"
     inkscape:zoom="1.4142136"
     inkscape:cx="317.8445"
     inkscape:cy="591.49482"
     inkscape:window-width="1920"
     inkscape:window-height="1017"
     inkscape:window-x="-8"
     inkscape:window-y="-8"
     inkscape:window-maximized="1"
     inkscape:current-layer="layer1" /><defs
     id="defs1" /><g
     inkscape:label="Calque 1"
     inkscape:groupmode="layer"
     id="layer1"><path
       id="path2"
       style="fill:#000000;fill-opacity:0;stroke:#e20000;stroke-width:0.3;stroke-dasharray:none;stroke-opacity:1"
       d="m 77.789062,103.53516 c -4.263547,0.38291 -7.873666,3.26746 -10.313852,6.62834 -3.166196,4.37785 -4.550134,9.90641 -4.328726,15.29158 -0.05965,1.3052 -1.432209,1.90909 -2.559475,2.04285 -1.274712,0.26708 -2.914505,0.85203 -3.110447,2.33996 -0.437527,1.55279 -1.838334,2.54898 -3.233982,3.18853 -1.318506,0.84442 -3.030733,1.68603 -3.351955,3.37202 -0.0045,0.74673 0.13688,1.48415 0.199219,2.22656 -1.333522,0.98705 -3.044817,2.15147 -2.992188,4.01367 0.234094,0.92957 1.069922,1.52771 1.521485,2.34571 -2.159106,3.94754 -2.071458,8.56826 -2.237779,12.9341 -0.163243,3.66177 -0.546655,7.35755 0.02879,11.0034 0.150825,1.33244 1.139754,2.63118 1.208985,4.0664 -0.07136,1.09807 0.8032,1.92113 1.451171,2.69922 -0.423724,1.72961 -1.484434,3.58065 -0.685546,5.35742 0.950744,1.62195 3.353332,1.65075 4.730468,0.57617 1.491373,-0.33571 2.763078,0.96424 3.167969,2.28711 1.912224,3.98814 5.24872,7.63879 9.689233,8.67921 2.373897,0.58438 4.838346,0.45832 7.259986,0.39111 0.06416,2.00912 0.04018,4.00446 0.842357,5.93274 0.481461,0.99865 1.150205,2.10564 2.243072,2.48941 1.095329,0.28788 2.317548,-0.33641 2.73879,-1.38114 1.307303,-1.73965 4.33162,-0.99124 4.974609,0.98828 0.310462,0.65219 1.171701,1.10899 1.787186,0.56665 1.758816,-1.00296 2.54332,-3.28768 2.076901,-5.21175 -0.346582,-2.07344 -1.163605,-3.93269 -2.067212,-5.80998 -0.817645,-1.77626 -0.950511,-4.14097 0.530474,-5.61556 1.007645,-1.10069 2.582742,-1.34589 3.998754,-1.15025 2.505792,0.25312 4.961155,0.86942 7.478538,1.04375 3.954989,0.37953 7.904029,0.47498 11.876999,0.68495 -2.60619,3.75207 -6.14869,6.81589 -8.33789,10.85743 -0.28638,1.22925 1.19358,2.26494 2.311,1.78893 2.37309,-0.68496 3.7584,-2.91801 5.38146,-4.60613 1.78949,-1.87758 3.55282,-3.78069 5.36613,-5.63593 1.78748,1.34484 4.2412,0.79758 6.10743,1.95899 1.88395,0.45055 3.81117,2.03549 3.70117,4.125 -0.8219,3.35256 -2.71531,6.37445 -3.3086,9.77148 -0.29035,1.68104 2.29922,2.69255 3.36794,1.46012 1.50482,-1.39262 1.44653,-3.84748 3.14183,-5.0734 1.43331,-0.90696 3.30188,-0.41067 4.5582,0.55955 1.19551,0.29477 2.20905,-0.84974 2.31108,-1.96396 0.28134,-1.11493 0.43649,-2.25678 0.65611,-3.38465 1.31273,0.56143 3.19554,0.63668 4.04883,-0.71875 0.42877,-1.29013 0.17333,-2.89753 1.23489,-3.94028 0.88882,-0.90646 2.41238,-0.91649 3.09387,-2.07596 0.46049,-0.65379 1.23871,-1.05222 2.03478,-0.89082 1.56444,-0.16356 2.97011,-2.0542 2.0145,-3.51577 -0.5477,-1.09618 -1.23612,-2.11391 -1.86632,-3.16311 2.98418,-4.16868 6.36426,-8.29497 7.67578,-13.35742 0.0729,-1.4521 -0.75575,-2.73373 -1.11328,-4.10156 1.34299,-0.41456 2.97412,-1.25189 3.08008,-2.8379 -0.0512,-1.75686 -2.35484,-2.66001 -3.76368,-1.79687 -1.42794,0.41188 -2.8086,0.96501 -4.20312,1.47461 -6.31172,-6.58089 -12.53996,-13.31734 -19.43555,-19.26758 -2.40497,-2.30542 -5.7725,-3.46535 -7.99219,-6.08984 -2.56322,-2.63796 -5.67265,-4.65918 -8.90715,-6.37122 -0.45028,-0.25584 -0.86213,-0.63355 -0.73358,-1.20027 -0.10311,-2.6935 -0.4554,-5.33656 -1.17638,-7.99569 -1.15227,-4.12402 -3.13141,-8.07109 -6.38719,-10.92394 -1.98941,-1.71461 -4.797354,-2.95802 -7.423635,-2.10802 -1.733057,0.58377 -2.759358,2.19404 -3.605374,3.70697 -0.354312,0.58941 -0.708625,1.17889 -1.061609,1.76912 -2.644288,-3.33084 -5.770734,-6.62504 -9.947489,-7.92054 -1.207694,-0.38002 -2.48006,-0.56072 -3.745871,-0.51305 z" /><path
       style="fill:#000000"
       d="m 123.99925,203.61113 c 0,-0.076 0.40329,-1.1385 0.89618,-2.36104 1.14643,-2.84348 2.6629,-6.81342 4.07644,-10.67164 l 1.11435,-3.04158 -1.8542,-0.0477 c -1.01981,-0.0262 -1.93681,-0.0126 -2.03779,0.0304 -0.10098,0.043 -0.3728,0.46365 -0.60404,0.93484 -0.5427,1.10583 -0.80265,1.12102 -0.29839,0.0174 0.21091,-0.4616 0.13168,-1.11247 0.13168,-1.29005 0,-0.17759 0.10961,-0.42377 0.24357,-0.54707 0.36334,-0.33441 1.68609,-2.0893 2.59878,-3.9982 1.26881,-2.65372 3.27458,-6.33664 3.45102,-6.33664 0.0941,0 -0.27847,0.75012 -1.46858,2.9571 -1.36592,2.53298 -3.43961,7.14327 -3.28808,7.31014 0.0623,0.0687 0.79607,0.11448 1.63048,0.10181 1.80885,-0.0275 1.8882,-0.0835 2.49787,-1.76301 0.57772,-1.59153 0.77496,-1.67274 0.2683,-0.11046 -0.53213,1.64086 -0.44881,1.87947 0.60419,1.73029 0.50875,-0.0721 0.89291,-0.23368 1.05691,-0.44461 0.14171,-0.18226 0.40917,-1.08395 0.59435,-2.00374 0.18517,-0.9198 0.39118,-1.77016 0.45779,-1.88968 0.28379,-0.50925 0.2462,0.0715 -0.12502,1.93171 -0.21766,1.09071 -0.35143,2.03226 -0.29726,2.09233 0.16742,0.18568 2.09514,-0.4761 2.48486,-0.85303 0.397,-0.38397 0.66277,-1.6627 0.66444,-3.19687 5.4e-4,-0.4985 0.0598,-0.77225 0.15324,-0.70818 0.0838,0.0574 0.15237,0.76909 0.15237,1.58146 0,0.87032 0.0705,1.55524 0.17171,1.66745 0.2377,0.26362 0.74409,0.0261 1.90754,-0.8946 1.32887,-1.05164 1.44223,-1.27002 1.35189,-2.6042 l -0.0746,-1.10193 0.21156,0.69869 c 0.31238,1.03168 0.52781,1.41352 0.79747,1.41352 0.17485,0 0.22097,-0.11588 0.16813,-0.42244 -0.056,-0.32505 -0.009,-0.42244 0.20362,-0.42244 0.48704,0 1.05732,-0.38446 1.14501,-0.77193 0.0572,-0.25254 -0.12504,-0.80065 -0.55483,-1.66912 -0.35196,-0.7112 -0.60507,-1.33174 -0.56247,-1.37898 0.0914,-0.10132 0.5355,0.60039 0.95509,1.50896 0.38785,0.83984 0.59582,1.01912 1.03908,0.89574 0.88345,-0.24591 4.89541,-5.58621 5.96753,-7.94335 0.89184,-1.96079 0.6518,-3.28726 -0.99759,-5.51267 -1.29638,-1.74912 -6.78812,-7.83717 -8.43161,-9.34714 -1.62588,-1.49379 -3.11038,-2.64745 -3.40777,-2.6483 -0.10255,-3e-4 -0.47973,-0.32371 -0.83819,-0.71869 -0.66425,-0.73194 -3.01681,-2.54458 -3.13394,-2.41468 -0.0355,0.0393 0.47431,0.74791 1.13285,1.57461 1.40542,1.7643 3.16949,4.26185 3.01024,4.26185 -0.0611,0 -0.87112,-0.81954 -1.80002,-1.82119 -0.9289,-1.00165 -2.37456,-2.47422 -3.21257,-3.27238 -1.95343,-1.86052 -3.02723,-3.1258 -3.99473,-4.70709 -1.11768,-1.82674 -2.11434,-2.98832 -3.53819,-4.12364 -1.52153,-1.21322 -4.39344,-3.14237 -4.67801,-3.14237 -0.4173,0 -0.18585,0.34124 0.66923,0.98666 0.48185,0.36372 1.22365,1.06992 1.64844,1.56933 0.93378,1.09784 2.23712,3.03407 2.12559,3.15775 -0.0443,0.0491 -0.61159,-0.51876 -1.26068,-1.26194 -2.71918,-3.11338 -7.27745,-6.39939 -11.43721,-8.24497 -1.55616,-0.69043 -5.08544,-1.76331 -6.65554,-2.02324 l -0.60947,-0.10089 1.06413,1.05766 c 1.49607,1.48699 2.80716,2.92311 2.41403,2.64425 -0.47711,-0.33843 -3.22412,-2.81436 -3.89716,-3.51259 -0.4974,-0.51601 -0.57156,-0.69223 -0.5728,-1.3611 -0.003,-1.56558 -1.78374,-3.95826 -4.759996,-6.39543 -3.77105,-3.08799 -4.36425,-3.59385 -5.26238,-4.48757 -0.85911,-0.85489 -1.25126,-1.12568 -1.25126,-0.86403 0,0.0491 0.21074,0.55228 0.4683,1.11814 1.11513,2.44988 2.271,7.36584 2.00064,8.50873 -0.17522,0.74068 -1.23237,1.32055 -2.1941,1.20351 -1.94807,-0.23709 -2.27699,-0.92966 -2.69297,-5.67046 -0.15903,-1.81231 -0.43552,-2.56418 -0.98719,-2.68451 -0.13725,-0.0299 -0.55851,0.22635 -0.93614,0.56953 -0.37763,0.34318 -0.68661,0.55066 -0.68661,0.46108 0,-0.0896 0.13956,-0.61201 0.31014,-1.16095 0.73588,-2.36823 0.97459,-5.94379 0.51302,-7.68423 -0.63337,-2.38821 -2.61425,-5.54868 -4.41924,-7.05085 -1.3098,-1.09005 -2.54196,-1.64751 -4.21542,-1.90714 -4.50413,-0.69879 -8.060111,2.13661 -10.931203,8.7161 -1.558607,3.57175 -2.128699,5.92723 -2.130337,8.80201 -0.0017,2.97723 0.713536,5.4845 2.367052,8.29778 0.466106,0.79302 0.819362,1.47303 0.785012,1.51113 -0.08356,0.0927 -1.218723,-1.40704 -2.290901,-3.0266 -0.992396,-1.49905 -0.874687,-1.4904 -2.349699,-0.17272 -2.816421,2.516 -5.165571,5.12969 -6.879087,7.65374 -1.703369,2.50911 -2.77725,4.49408 -3.793842,7.01255 -0.74555,1.847 -0.970167,11.43339 -1.224301,12.71984 -0.09148,0.4631 -0.507856,0.29081 -1.58196,1.30984 -2.267021,2.15079 -1.907372,1.14611 -1.85941,0.54794 0.03686,-0.45973 0.149043,-10.18136 1.090993,-12.21195 0.811288,-1.74892 3.024727,-5.43348 4.002011,-6.5901 1.507341,-1.78393 2.338742,-2.95709 2.095642,-2.95709 -0.12527,0 -1.50489,0.71252 -3.065824,1.58337 -1.560934,0.87086 -2.838061,1.5341 -2.838061,1.47386 0,-0.15052 2.989844,-2.32009 4.570973,-3.31691 2.105328,-1.3273 3.098591,-2.11672 2.916873,-2.31825 -0.173811,-0.19276 -3.412228,0.10002 -4.494002,0.40629 -0.322714,0.0914 -0.621892,0.12716 -0.664841,0.0795 -0.159628,-0.17704 2.117526,-1.63602 5.542782,-3.55129 4.736888,-2.64869 5.075858,-2.9699 3.441373,-3.26115 l -0.876103,-0.15612 0.609463,-0.20008 c 0.335205,-0.11004 1.380815,-0.2005 2.323578,-0.20102 0.942763,-5.2e-4 1.714115,-0.0328 1.714115,-0.0718 0,-0.039 -0.117306,-0.55223 -0.260679,-1.14059 -0.530986,-2.17902 -0.278012,-6.66637 0.56995,-10.11002 1.182749,-4.80325 5.241758,-9.92306 9.165633,-11.56102 4.34821,-1.8151 9.50085,0.41336 13.41076,5.8 1.09329,1.50621 2.44711,3.76402 3.79972,6.33688 0.53295,1.01376 1.27754,2.19559 1.65465,2.62628 0.81239,0.92785 2.63232,1.96819 5.637528,3.22263 1.131308,0.47223 2.283688,1.00678 2.560828,1.18788 0.70444,0.4603 0.78857,0.41838 0.61082,-0.3044 -0.3484,-1.41675 -1.76562,-4.2578 -4.235676,-8.49109 -0.73207,-1.25466 -1.49494,-2.60377 -1.69525,-2.99804 -0.20032,-0.39427 -0.40557,-0.71744 -0.45612,-0.71815 -0.2641,-0.004 0.20093,2.80632 0.84875,5.12889 0.19544,0.70071 0.19695,0.79171 0.0103,0.6199 -0.41284,-0.37998 -1.75896,-3.66442 -2.08138,-5.07841 -0.6989,-3.06508 -0.0545,-4.81326 1.92371,-5.21923 3.073856,-0.63079 7.028746,2.7363 9.410166,8.01157 1.47135,3.2593 2.20996,6.58457 2.34983,10.57903 l 0.0923,2.63712 2.14446,1.16486 c 4.13098,2.24394 6.68884,4.17977 8.94445,6.7693 0.63412,0.72799 1.38833,1.45157 1.67602,1.60796 0.2877,0.15638 1.17445,0.62418 1.97056,1.03956 2.14979,1.12168 5.30843,3.75455 8.4563,7.04871 0.67041,0.70157 2.07598,2.07859 3.1235,3.06004 2.63248,2.46648 5.46962,5.37443 9.12368,9.3514 1.70788,1.85881 3.14773,3.36486 3.19968,3.34677 0.0519,-0.0181 0.82277,-0.33945 1.71295,-0.71414 1.94452,-0.81847 4.32058,-1.59168 4.58768,-1.49289 0.10625,0.0393 -0.76673,0.42631 -1.93994,0.86004 -2.67399,0.98854 -4.41861,1.92839 -4.41861,2.38036 0,0.37409 1.06028,1.0437 1.90457,1.20282 1.37987,0.26005 2.59022,1.31301 2.59022,2.25337 0,1.53711 -3.96549,8.26044 -7.06449,11.97755 -0.63979,0.76741 -1.16326,1.42608 -1.16326,1.4637 0,0.0376 0.55174,0.9232 1.22608,1.96794 1.25119,1.93843 1.58732,2.52357 1.44965,2.52357 -0.0427,0 -0.40504,-0.5161 -0.80528,-1.1469 -1.13442,-1.7879 -1.9263,-2.88075 -2.16764,-2.9915 -0.26516,-0.12168 -0.94255,0.39739 -1.13787,0.87192 -0.077,0.18701 -0.34564,0.40916 -0.59705,0.49368 -0.25142,0.0845 -0.59152,0.35601 -0.75579,0.60332 -0.33578,0.50551 -0.35791,0.39475 0.57982,2.90127 0.30704,0.8207 0.52257,1.53176 0.47895,1.58014 -0.0436,0.0484 -0.29803,-0.39499 -0.56536,-0.98526 -0.26733,-0.59026 -0.57434,-1.13027 -0.68224,-1.20003 -0.10791,-0.0697 -0.24186,-0.42656 -0.29767,-0.79291 -0.14782,-0.97032 -0.37824,-1.10443 -1.0041,-0.58443 -0.28656,0.23809 -0.91269,0.65457 -1.39139,0.92551 -1.42602,0.8071 -1.4566,1.07843 -0.57087,5.06375 0.33863,1.52367 0.59575,2.92477 0.57137,3.11357 -0.0244,0.18879 -0.4199,-1.2771 -0.87893,-3.25753 -0.45904,-1.98044 -0.87231,-3.66843 -0.91838,-3.7511 -0.0461,-0.0827 -0.69896,0.0622 -1.45088,0.32197 l -1.36711,0.47228 -0.0939,3.95472 c -0.0517,2.1751 -0.11276,4.67711 -0.13575,5.56001 l -0.0418,1.60528 -0.14093,-1.85874 c -0.0775,-1.02231 -0.10719,-3.55302 -0.066,-5.6238 l 0.075,-3.76505 -0.56011,0.1 c -1.4083,0.2514 -2.02513,0.4727 -2.23243,0.80094 -0.12102,0.19161 -0.50706,1.11522 -0.85787,2.05247 -2.88521,7.70828 -5.62139,14.38783 -5.62139,13.72292 z m -46.527256,-4.71057 c -0.75211,-1.09866 -0.93524,-1.9077 -0.92754,-4.09769 0.007,-1.88641 0.0465,-2.15556 0.57256,-3.86217 2.02357,-6.56518 5.317,-10.12204 10.96075,-11.83745 1.74797,-0.5313 5.2759,-1.42359 6.70536,-1.69594 1.04083,-0.1983 0.59468,0.1923 -0.95684,0.83772 -0.84053,0.34965 -1.49836,0.66886 -1.46185,0.70934 0.0365,0.0405 1.2213,-0.19156 2.63287,-0.51566 2.04251,-0.46897 6.105656,-1.26149 8.705256,-1.69798 0.20769,-0.0349 0.32625,0.0179 0.293,0.1305 -0.0307,0.10399 -0.66766,0.4031 -1.41542,0.66469 -3.085098,1.07929 -6.318066,2.53046 -6.121956,2.74795 0.0374,0.0414 1.22705,-0.1176 2.64373,-0.35345 2.539606,-0.42279 5.699256,-0.72677 5.699256,-0.5483 0,0.0504 -0.66851,0.41431 -1.48557,0.80881 -1.62673,0.78541 -1.64953,0.79929 -1.53033,0.93149 0.29826,0.33078 4.28771,-0.81579 6.27125,-1.80234 1.55177,-0.77182 1.95454,-0.76278 0.56921,0.0128 -1.67666,0.93865 -1.12982,1.00844 2.59173,0.33078 2.96069,-0.53912 3.22209,-0.42025 1.16563,0.53005 -1.26753,0.58573 -1.63813,0.90685 -1.37868,1.1946 0.0862,0.0956 1.00177,0.57435 2.0347,1.06401 1.03292,0.48965 2.51951,1.30434 2.54359,1.38899 0.23356,0.82104 -2.02029,0.52034 -3.91614,-0.2558 -1.5053,-0.61623 -1.53259,-0.62017 -1.53259,-0.22087 0,0.16811 -0.0934,0.44723 -0.20744,0.62028 -0.19738,0.29935 -0.22881,0.2888 -0.64756,-0.21717 l -0.44011,-0.53179 -3.42823,-0.0745 c -4.35379,-0.0947 -7.956916,-0.47943 -12.265436,-1.30976 -4.13234,-0.79638 -7.19893,0.29835 -8.31819,2.96949 -0.52345,1.24924 -0.80469,3.07029 -0.66732,4.32101 0.10149,0.92406 1.03211,3.23314 1.82379,4.52522 0.20536,0.33515 0.35544,0.62925 0.33352,0.65356 -0.0219,0.0243 -0.66285,-0.62856 -1.4243,-1.45082 -1.28314,-1.38561 -1.92535,-1.87505 -2.14325,-1.6334 -0.0485,0.0537 0.39773,0.99217 0.99153,2.0854 1.30982,2.41151 2.92498,5.95865 2.71323,5.95865 -0.0305,0 -0.55591,-0.88896 -1.16747,-1.97546 -0.61156,-1.0865 -1.39051,-2.36412 -1.73099,-2.83916 -0.34048,-0.47503 -0.81797,-1.288 -1.06109,-1.8066 -0.24312,-0.51859 -0.66908,-1.23701 -0.94657,-1.59648 -0.42772,-0.55409 -0.5054,-0.59997 -0.51025,-0.3014 -0.003,0.1937 0.25414,0.764 0.57175,1.26733 0.79985,1.26757 0.83382,1.33758 0.64913,1.33758 -0.0895,0 -0.56154,-0.40665 -1.04902,-0.90367 -0.48749,-0.49702 -1.07028,-0.95487 -1.2951,-1.01745 -0.84006,-0.23382 -1.86565,0.77305 -2.31473,2.27249 -0.33414,1.11569 -0.24572,3.38342 0.18561,4.76018 0.34285,1.09436 0.24071,1.232 -0.31348,0.42244 z m 27.638066,-3.08382 c 1.75253,-2.38404 9.97439,-11.81545 14.01349,-15.61686 3.26255,-3.07056 7.27016,-6.70414 7.64799,-6.56447 0.10269,0.038 -0.25624,0.39849 -0.79761,0.80118 -1.20329,0.89505 -3.46104,2.86963 -5.09817,4.45878 -1.80339,1.75052 -4.64716,4.88763 -4.64716,5.12652 0,0.30961 0.51105,0.55567 1.24951,0.60161 0.65099,0.0405 0.65535,0.0451 0.7008,0.73352 l 0.0457,0.69276 0.57859,-0.31747 c 0.31822,-0.17461 0.92312,-0.36273 1.34422,-0.41804 0.64934,-0.0853 0.83898,-0.0404 1.24848,0.29534 0.37151,0.30461 0.54287,0.3553 0.74316,0.21985 0.14318,-0.0968 0.89877,-1.19702 1.67908,-2.44488 2.85576,-4.56684 6.35287,-9.59009 6.53549,-9.38756 0.0432,0.0479 -0.32859,0.6427 -0.82623,1.32174 -2.2124,3.01883 -5.40825,7.98535 -6.21348,9.65609 -0.37823,0.78476 -0.21518,0.95035 0.93948,0.95415 1.46857,0.005 2.02455,0.4337 0.96619,1.24126 -0.99516,0.75933 -1.68101,0.59335 -1.05694,-0.28651 0.39214,-0.55288 0.26778,-0.56726 -0.36405,-0.0421 -0.66367,0.55163 -1.72168,1.12614 -1.83745,0.99776 -0.0523,-0.058 -0.0951,-0.25413 -0.0951,-0.4359 0,-0.26275 -0.0433,-0.29059 -0.21149,-0.13582 -0.16268,0.14973 -0.40004,0.1117 -1.02847,-0.16479 -0.58232,-0.2562 -1.0139,-0.3345 -1.50262,-0.2726 -0.93754,0.11875 -1.54804,-0.0362 -1.63752,-0.41571 -0.0484,-0.20535 -0.21291,-0.31442 -0.47528,-0.31515 -0.22068,-6.1e-4 -0.60693,-0.15219 -0.85833,-0.33684 -0.8444,-0.62019 -1.09662,-0.49301 -3.06094,1.5435 -0.99812,1.0348 -3.28651,3.48708 -5.08531,5.44951 -1.7988,1.96242 -3.10205,3.33993 -2.89611,3.06112 z M 51.168426,179.76595 c 0,-0.1383 0.213039,-0.99374 0.47342,-1.90099 1.701047,-5.92698 5.226117,-10.4394 8.937505,-11.44083 1.568091,-0.42311 2.321239,-0.48683 2.321239,-0.19637 0,0.16288 -0.208064,0.29811 -0.571372,0.37135 -2.579986,0.52011 -6.975601,5.53862 -10.013776,11.4328 -0.562881,1.09202 -1.05123,1.98548 -1.085218,1.98548 -0.03399,0 -0.0618,-0.11315 -0.0618,-0.25144 z m -0.449105,-6.73639 c -0.0044,-0.0793 0.232403,-0.64964 0.526219,-1.26733 0.550411,-1.15711 2.054036,-3.20734 2.938545,-4.00678 0.873695,-0.78966 0.719887,-0.29431 -0.274759,0.88489 -0.828695,0.98246 -2.039608,2.68716 -2.923365,4.11547 -0.142257,0.22991 -0.262245,0.3531 -0.26664,0.27375 z m 60.782489,-1.22465 c 2.63804,-0.91707 14.13288,-3.14168 15.99553,-3.09563 0.85366,0.0211 0.48276,0.10279 -3.80282,0.83752 -2.22073,0.38073 -5.92976,1.10544 -8.24229,1.61046 -4.23522,0.92491 -5.20561,1.084 -3.95042,0.64765 z m -61.993629,-2.98224 c -0.527408,-2.95765 -0.181254,-6.09366 -0.166648,-7.52256 0.02064,-2.01901 2.440057,-4.89564 4.695217,-7.4195 2.46416,-2.75776 3.208218,-3.12384 1.633646,-0.80376 -1.032431,1.52126 -2.209311,3.78198 -2.845558,5.46616 -0.610765,1.61673 -1.515744,4.91465 -1.348625,4.91465 0.06925,0 0.62827,-0.29737 1.242263,-0.66081 1.282294,-0.75904 2.796712,-1.18166 3.075304,-0.85822 0.131746,0.15296 0.105249,0.2494 -0.108791,0.39593 -1.354902,0.9276 -3.237255,3.20842 -4.936245,5.98118 -0.46981,0.76673 -0.905538,1.39406 -0.968285,1.39406 -0.06275,0 -0.185272,-0.39921 -0.272278,-0.88713 z m 69.615369,-10.82932 c 0,-0.0439 0.2914,-0.27093 0.64755,-0.50452 0.35616,-0.23358 0.98613,-0.82525 1.39994,-1.31482 0.42544,-0.50333 0.77926,-0.80067 0.81425,-0.68426 0.0993,0.33049 -0.65065,1.2878 -1.44382,1.84295 -0.70621,0.49429 -1.41792,0.82589 -1.41792,0.66065 z m 1.00126,-5.2778 c -0.13169,-0.14604 -0.23943,-0.43896 -0.23943,-0.65092 0,-0.58366 -0.62311,-1.4882 -1.31846,-1.91394 -0.93786,-0.57423 -2.01025,-0.74956 -2.94314,-0.48119 -0.88482,0.25454 -0.97018,0.0478 -0.18914,-0.45809 1.08567,-0.7032 3.25903,-0.50612 4.50399,0.40841 0.76588,0.5626 1.62277,1.85698 1.62277,2.45128 0,0.41221 -0.51267,0.90999 -0.93721,0.90999 -0.14297,0 -0.36769,-0.11949 -0.49938,-0.26554 z M 78.493774,141.92042 c -1.16018,-0.86649 -2.66079,-2.46638 -2.89424,-3.08572 -0.29673,-0.78725 -0.25277,-1.4398 0.14063,-2.08721 0.68079,-1.12035 1.86463,-0.9992 3.19692,0.32718 0.71492,0.71175 0.7516,1.03712 0.05,0.44366 -0.62375,-0.52763 -1.51939,-0.83315 -1.84677,-0.62997 -0.19538,0.12127 -0.10343,0.36675 0.55686,1.48664 0.81692,1.38555 1.81127,3.534 1.81127,3.91353 0,0.32743 -0.16218,0.2686 -1.01468,-0.36811 z m 20.67717,-9.25165 c -1.55138,-0.93883 -1.65421,-1.21484 -0.23285,-0.62507 0.786628,0.32641 2.212706,1.49535 1.825386,1.49625 -0.0838,2e-4 -0.800438,-0.39183 -1.592536,-0.87118 z"
       id="path2-0"
       sodipodi:nodetypes="cssccsssssssscssssssssssscscsscsssssssssssssscssssssssssssscssscssssssscssssssssssssssssssssssssccsscsssssssssssssscsssssccsssssssssssssssssssssssssscssssssssccscsccsssccssssssssssssssssssssssssscsccssssssssssssscsssssssscssssssscsssssssscsssssssssssssccsssssssssssssssssssssssssssscssssssssssssssssssssssssssssssss" /></g></svg>
