<?xml version="1.0" encoding="UTF-8" standalone="no"?>
<!-- Created with Inkscape (http://www.inkscape.org/) -->

<svg
   width="210mm"
   height="297mm"
   viewBox="0 0 210 297"
   version="1.1"
   id="svg1"
   xml:space="preserve"
   inkscape:version="1.3.2 (091e20e, 2023-11-25, custom)"
   sodipodi:docname="rhino.svg"
   xmlns:inkscape="http://www.inkscape.org/namespaces/inkscape"
   xmlns:sodipodi="http://sodipodi.sourceforge.net/DTD/sodipodi-0.dtd"
   xmlns="http://www.w3.org/2000/svg"
   xmlns:svg="http://www.w3.org/2000/svg"><sodipodi:namedview
     id="namedview1"
     pagecolor="#ffffff"
     bordercolor="#000000"
     borderopacity="0.25"
     inkscape:showpageshadow="2"
     inkscape:pageopacity="0.0"
     inkscape:pagecheckerboard="0"
     inkscape:deskcolor="#d1d1d1"
     inkscape:document-units="mm"
     inkscape:zoom="1.4627806"
     inkscape:cx="291.22618"
     inkscape:cy="294.98614"
     inkscape:window-width="1920"
     inkscape:window-height="1017"
     inkscape:window-x="-8"
     inkscape:window-y="-8"
     inkscape:window-maximized="1"
     inkscape:current-layer="layer1" /><defs
     id="defs1" /><g
     inkscape:label="Calque 1"
     inkscape:groupmode="layer"
     id="layer1"><path
       style="fill:#000000;stroke-width:1.50215"
       d="m 114.41602,151.31265 c -0.54648,-0.0906 -1.88785,-0.83913 -2.98083,-1.66329 -1.09296,-0.82417 -4.22283,-2.51457 -6.95525,-3.75642 -5.209265,-2.36758 -7.428735,-3.77899 -14.871435,-9.45719 -8.02444,-6.12203 -8.8145,-7.97246 -7.20272,-16.86991 1.66567,-9.19503 1.49202,-8.67087 1.8903,-5.7059 0.85571,6.37049 4.27091,13.05913 9.20941,18.03652 2.48434,2.50389 7.758635,6.60493 8.494545,6.60493 0.14525,0 -0.54818,-0.84954 -1.54097,-1.88785 -1.684815,-1.76209 -4.599665,-5.23104 -5.927785,-7.05462 -0.31841,-0.43718 1.14041,0.83065 3.24182,2.81738 3.748975,3.54439 6.309395,5.62842 6.309395,5.13545 0,-0.13685 -2.27405,-3.05537 -5.053435,-6.48552 l -5.05346,-6.23662 3.3903,3.18444 c 2.732595,2.56668 4.346935,3.67891 8.321685,5.73335 2.71226,1.40191 4.75734,2.59129 4.54462,2.64308 -0.21273,0.0518 -0.87862,0.20264 -1.47974,0.33522 -1.46267,0.3226 -1.39472,1.0208 0.0993,1.0208 1.45325,0 1.46336,0.0903 0.15657,1.39707 -1.22718,1.2272 -0.95375,1.84959 0.33095,0.75331 0.4894,-0.41762 0.67958,-0.48505 0.42261,-0.14991 -0.64374,0.83977 -0.3678,1.14094 3.26302,3.56135 1.74874,1.16577 3.62666,2.47597 4.17314,2.91156 0.9347,0.74503 0.81064,0.7447 -1.09296,-0.003 -0.61729,-0.24242 -0.63214,-0.19528 -0.13204,0.41914 1.13403,1.39322 1.89789,1.51117 3.0892,0.47699 l 1.11665,-0.96938 -1.86525,-1.91339 c -1.02587,-1.05235 -2.06333,-2.4407 -2.30543,-3.08518 -0.3891,-1.03579 -0.25248,-0.95856 1.17701,0.66544 1.80021,2.04515 4.52195,3.34096 6.15597,2.93085 1.58511,-0.39783 1.18878,-1.2373 -0.87701,-1.85762 -2.40976,-0.72359 -2.56025,-1.79473 -0.41375,-2.94516 l 1.4741,-0.79009 1.41183,1.36841 c 1.28685,1.24727 1.65376,1.38043 4.14475,1.50421 2.43797,0.12122 2.85575,0.0302 3.8706,-0.84338 1.37915,-1.18701 1.09348,-1.68464 -0.49233,-0.85764 -0.63365,0.33046 -1.98471,0.60193 -3.00235,0.60328 -1.53442,10e-4 -2.13446,-0.235 -3.51524,-1.3886 -1.83954,-1.5369 -2.92832,-1.7215 -4.33644,-0.73522 -0.72072,0.50482 -0.89401,0.5277 -0.75257,0.0993 0.40122,-1.21501 1.85981,-1.49348 4.43103,-0.84597 3.40041,0.85636 5.82065,0.84274 7.1684,-0.0404 1.38603,-0.90817 1.16537,-1.20176 -0.47376,-0.63036 -1.44156,0.50252 -4.06452,0.0679 -7.73872,-1.28255 -3.0153,-1.10821 -2.7201,-1.31522 0.46285,-0.32457 4.47188,1.3918 8.33451,0.7317 9.60453,-1.64135 0.51495,-0.96218 0.35312,-0.95213 -1.40907,0.0876 -3.53841,2.08771 -10.10045,-2e-5 -12.96531,-4.12496 l -0.89774,-1.29259 0.96939,0.78343 c 0.53316,0.43089 1.46122,1.22446 2.06236,1.76349 0.60113,0.53903 1.09296,0.78964 1.09296,0.55692 0,-0.23273 -0.24174,-0.62377 -0.5372,-0.86898 -0.29547,-0.24521 -1.13669,-1.74261 -1.86939,-3.32757 -1.69931,-3.67587 -1.87313,-7.45629 -0.46527,-10.11922 0.48656,-0.92032 0.88464,-1.74994 0.88464,-1.84363 0,-0.0937 -0.58594,-0.28024 -1.30209,-0.41459 -1.27185,-0.2386 -4.2621,-2.35529 -4.2621,-3.017 0,-0.58858 2.11438,-3.58371 2.52989,-3.58371 0.2208,0 1.44098,0.81668 2.71149,1.81486 1.27052,0.99818 2.31003,1.69896 2.31003,1.5573 0,-0.14165 -0.65503,-1.05693 -1.45561,-2.03395 -1.73403,-2.11616 -10.20023,-18.826429 -9.53714,-18.824059 0.25328,9e-4 1.80189,1.16268 3.44134,2.58172 4.32708,3.74539 4.60498,3.56396 1.42924,-0.93308 -7.5284,-10.66063 -14.50723,-15.68158 -20.288865,-14.59694 -1.76576,0.33125 -1.84127,1.01015 -0.11822,1.06299 1.1906,0.0365 1.21393,0.0611 0.29809,0.31437 -1.38473,0.38291 -1.42178,1.45796 -0.17167,4.97936 1.66893,4.70109 1.27152,6.62655 -2.28158,11.05468 -0.47948,0.59755 -0.76841,1.18984 -0.64206,1.31618 0.39978,0.39978 3.08327,-2.24057 4.18113,-4.11394 1.26844,-2.16443 1.68992,-1.60703 0.51955,0.6871 -1.12313,2.2015 -4.71047,5.64961 -7.99561,7.685269 -1.69509,1.05038 -3.05754,2.2469 -3.62715,3.18542 -1.82068,2.99985 -1.86855,3.03123 -1.65298,1.08317 0.18523,-1.67382 0.158,-1.73902 -0.42494,-1.017 -0.79069,0.97939 -0.78346,0.60281 0.0384,-2.00475 l 0.66134,-2.09801 1.10481,0.57132 c 1.35021,0.69823 2.51374,0.32489 3.97001,-1.273829 1.57175,-1.72552 2.34626,-3.0144 2.34602,-3.90414 -1.7e-4,-0.65334 -0.34751,-0.4486 -1.83565,1.08204 -1.56219,1.6068 -2.06301,1.88786 -3.36406,1.88786 -1.96122,0 -2.18769,-0.45057 -2.54711,-5.06742 -0.46394,-5.95952 -0.87132,-5.07563 -2.97673,6.458459 -0.67832,3.71609 -1.67283,9.03802 -2.21002,11.82652 -1.5024,7.7989 -1.17017,12.51817 1.23989,17.61262 1.26942,2.68332 4.36415,6.11411 6.83678,7.57915 l 1.8763,1.11171 -1.98721,0.47091 c -12.68194,3.00515 -24.4324,-6.75655 -27.80865,-23.10204 -1.21759,-5.89478 -0.64742,-16.082319 1.19186,-21.295439 1.11991,-3.17417 5.21081,-8.14535 10.91781,-13.26708 1.42086,-1.27516 2.04684,-1.99838 1.39106,-1.60718 -3.01623,1.79932 -6.21561,4.32343 -8.16054,6.43815 -2.33528,2.53917 -2.2936,2.3117 0.23579,-1.28641 2.02404,-2.87923 6.20687,-6.87592 8.7654,-8.37531 1.01875,-0.59705 2.94545,-1.47837 4.28152,-1.9585 l 2.42924,-0.87297 2.18593,-4.19601 c 1.20226,-2.30779 2.45673,-4.58192 2.78772,-5.05362 0.57,-0.81233 0.59427,-0.763 0.45931,0.9339 -0.13009,1.6365 3.6e-4,1.94649 1.50812,3.58222 1.01404,1.1001 2.9828,2.48681 5.10489,3.59566 1.92777,1.00732 3.09267,1.81076 2.636,1.81808 -1.34701,0.0216 -2.29828,0.94652 -1.98588,1.93084 0.24435,0.76987 0.51905,0.8528 2.53272,0.76459 1.24226,-0.0544 2.91625,0.0409 3.719965,0.21172 1.38363,0.29412 1.59349,0.19269 3.94754,-1.90779 1.46355,-1.3059 3.72337,-2.78693 5.49391,-3.60057 1.65426,-0.7602 3.8551,-1.80376 4.8908,-2.31904 2.96069,-1.473 1.82241,-0.47274 -2.4493,2.15232 -3.92163,2.40994 -5.99158,4.02866 -5.99158,4.68549 0,0.19394 0.40241,0.53911 0.89425,0.76701 1.53251,0.71017 5.07345,3.80234 5.91686,5.16699 0.99517,1.61023 1.53519,1.66216 1.53519,0.14766 0,-1.06194 0.81187,-3.54742 3.77704,-11.56303 0.82689,-2.2353 1.11309,-3.75119 1.14434,-6.06101 0.023,-1.69409 0.1412,-3.08018 0.26275,-3.08018 0.47064,0 1.10412,0.91445 0.93636,1.35165 -0.097,0.25294 0.19416,1.5278 0.64714,2.83303 0.453,1.30521 0.92672,3.80393 1.05271,5.55266 0.40167,5.57525 -1.27644,10.06793 -5.14658,13.77859 -2.44715,2.3463 -2.31487,3.26299 0.18932,1.312 2.32288,-1.80976 4.43056,-4.84045 5.51943,-7.93662 1.21933,-3.46705 0.97314,-9.37602 -0.52572,-12.6188 -0.58095,-1.25691 -0.96687,-2.28529 -0.85757,-2.28529 0.10935,0 0.63112,0.9445 1.15964,2.0989 2.28652,4.99444 1.94932,12.04726 -0.83327,17.42818 -0.37971,0.73431 -1.75382,2.44254 -3.05355,3.79606 l -2.36314,2.46098 1.92701,2.06208 1.92701,2.06211 v 6.04018 6.040189 l 1.5333,3.02816 c 1.99847,3.94687 2.63125,4.5307 4.20431,3.87911 2.48099,-1.02766 6.54568,-6.31909 10.23562,-13.324809 1.15134,-2.18594 2.09719,-3.81103 2.10188,-3.61132 0.0156,0.66579 -4.31682,8.546629 -6.30236,11.464129 -2.33245,3.42727 -4.97964,6.04926 -8.0906,8.0136 -1.2537,0.79163 -2.55037,1.96317 -2.88146,2.60343 -0.84009,1.62456 -0.76814,3.71209 0.15678,4.54913 0.69404,0.62811 0.85962,0.63449 1.9417,0.075 4.03571,-2.08695 12.79279,-17.40445 17.76331,-31.070849 1.18694,-3.26346 2.16536,-5.54305 2.17427,-5.06578 0.0668,3.58074 -4.04767,20.665109 -7.4485,30.927649 -1.7358,5.23807 -1.8448,5.82044 -1.85953,9.93606 l -0.0156,4.37188 h 0.99361 c 0.9306,0 0.98592,0.11341 0.87241,1.78848 -0.25943,3.82833 -0.22833,7.00906 0.0802,8.2054 0.29604,1.14782 0.14195,1.44645 -1.88276,3.64885 -1.21286,1.31929 -2.56523,3.10441 -3.00527,3.96695 -0.44004,0.86254 -1.09754,1.68241 -1.46112,1.82193 -0.36359,0.13954 -2.83039,0.3457 -5.48176,0.45818 -2.6514,0.11251 -5.62554,0.25726 -6.60921,0.32173 -0.98366,0.0644 -2.23561,0.0431 -2.78209,-0.0476 z M 74.278015,114.00281 c -1.12351,-5.79581 -1.43803,-11.35642 -0.82115,-14.517829 0.5888,-3.01739 2.7347,-7.27288 4.55924,-9.0413 l 1.32345,-1.28274 -0.59444,2.11535 c -0.76408,2.71891 -1.19232,15.290149 -0.54298,15.939489 0.32712,0.32711 0.44406,-0.14721 0.44406,-1.80101 0,-3.00817 0.97638,-10.192779 2.14706,-15.798849 0.52494,-2.51382 0.89066,-4.63703 0.81269,-4.71824 -0.078,-0.0813 -0.99904,0.35477 -2.04685,0.96883 -2.67873,1.56983 -7.71972,6.7461 -8.87667,9.1149 -1.27956,2.61981 -1.52817,7.271209 -0.58414,10.929679 1.04734,4.05892 4.45354,12.97058 4.81822,12.60591 0.10905,-0.10906 -0.17832,-2.14038 -0.63849,-4.51419 z m -10.56333,-10.4084 c 1.63512,-4.055299 3.92054,-7.882509 7.16977,-12.006619 3.38731,-4.29934 3.41372,-4.58875 0.27357,-2.99752 -4.79264,2.42861 -7.79933,8.01347 -9.00398,16.724649 -0.35297,2.55245 -0.009,2.17392 1.56064,-1.72051 z m 32.49389,-14.271889 c 0.39083,-2.10156 0.36256,-2.56713 -0.20889,-3.43926 -0.3635,-0.55478 -0.66091,-1.51906 -0.66091,-2.14286 0,-3.40877 -2.27039,-8.01603 -6.03502,-12.24683 -1.3805,-1.55143 -2.71504,-3.16108 -2.96564,-3.57698 -0.30662,-0.50887 -0.58985,-0.6262 -0.86599,-0.35874 -0.80752,0.78213 -2.45554,4.51213 -3.09412,7.00304 -1.5226,5.93913 0.73392,12.71712 5.0707,15.23119 1.2622,0.7317 1.22981,0.65854 -0.61568,-1.39105 -2.86096,-3.17738 -3.59917,-5.04282 -3.6085,-9.11862 -0.006,-2.47022 0.23842,-4.12913 0.90808,-6.17181 1.16602,-3.55682 1.54751,-4.18571 2.04227,-3.36682 0.1981,0.32789 1.36982,1.84812 2.60382,3.37827 3.87429,4.8041 4.9703,7.88997 4.9703,13.994 0,2.09357 0.16518,3.6922 0.3815,3.6922 0.37313,0 1.0498,-1.99533 1.34784,-3.97442 0.12633,-0.83875 0.15806,-0.80215 0.20376,0.2349 0.0297,0.6757 -0.21221,2.10649 -0.53774,3.17955 -0.74998,2.47223 -0.74888,2.86593 0.006,2.11118 0.33349,-0.33348 0.80974,-1.7001 1.05835,-3.03694 z m 11.572645,42.890349 c -2.22828,-1.01064 -4.01678,-1.8612 -3.97443,-1.89014 0.0424,-0.0288 2.55931,0.36198 5.59324,0.86867 5.62522,0.93944 7.79595,1.5886 3.70394,1.10766 -2.40624,-0.28281 -2.99417,0.19566 -1.56941,1.2772 1.01754,0.77242 0.70701,0.65962 -3.75334,-1.36339 z m 2.91387,-3.68729 c -1.28144,-0.18713 -3.24879,-0.76892 -4.37188,-1.29283 -2.02648,-0.94536 -5.13336,-3.69977 -5.89382,-5.22523 -0.21794,-0.43719 0.47014,0.12633 1.52908,1.25222 2.72105,2.89314 4.84495,3.87915 7.6466,3.54988 1.2069,-0.1418 2.64896,-0.36792 3.20459,-0.50238 l 1.01019,-0.24446 -0.99361,0.82296 -0.99359,0.82296 1.09296,0.41847 c 1.1323,0.43353 1.46424,0.87181 0.59617,0.78714 -0.27326,-0.0267 -1.54526,-0.20159 -2.82669,-0.38873 z m -5.61809,-5.75314 c -1.55845,-0.8126 -2.58426,-1.75859 -2.58426,-2.38317 0,-0.27579 -0.22357,-0.58128 -0.49681,-0.67888 -0.27324,-0.0976 -0.39969,-0.28413 -0.28099,-0.41453 0.11867,-0.13039 0.72779,0.20279 1.35351,0.74047 1.11581,0.95877 2.60382,1.31787 2.60382,0.62836 0,-0.19208 -0.53062,-0.56901 -1.17914,-0.83764 -1.48957,-0.61701 -2.15639,-1.41035 -1.85204,-2.20349 0.18705,-0.48743 0.40686,-0.52761 1.03807,-0.18979 0.63806,0.34147 0.80078,0.30687 0.80078,-0.17021 0,-0.33409 -0.57099,-0.76366 -1.29168,-0.97175 -1.17262,-0.33859 -1.19794,-0.37626 -0.27468,-0.40881 1.43218,-0.0505 2.05666,0.57519 3.67679,3.68371 1.35848,2.60648 1.38544,2.73517 0.61517,2.93659 -0.61547,0.16096 -0.68041,0.29 -0.27518,0.54689 0.98448,0.62403 -0.57089,0.39094 -1.85336,-0.27775 z m 2.14828,-4.24254 c -1.19446,-2.37976 -2.26692,-3.42642 -3.80689,-3.71532 -0.73254,-0.13744 -1.41957,-0.39176 -1.52675,-0.56518 -0.10725,-0.17344 0.20778,-0.22556 0.69991,-0.11582 3.33167,0.7427 3.66738,1.02965 5.09148,4.35192 0.95165,2.22011 0.649,2.24949 -0.45775,0.0445 z m 3.64231,-0.55605 c -0.8003,-2.90865 -2.72764,-5.70153 -4.5255,-6.55786 l -1.66341,-0.79229 1.37667,0.23413 c 2.42242,0.41199 4.38632,2.83379 5.18386,6.39254 0.51244,2.28667 0.21685,2.86218 -0.37162,0.72348 z m -15.507965,-3.04869 c -0.0349,-0.54398 2.20236,-3.5728 3.57562,-4.84092 1.05308,-0.97245 0.96878,-0.78815 -0.45712,0.99942 -0.96157,1.20546 -2.0519,2.63625 -2.42298,3.17954 -0.37107,0.54329 -0.68406,0.84116 -0.69552,0.66196 z m -2.3937,-5.10862 c 1.20878,-1.16433 3.35318,-3.01424 4.76538,-4.11092 2.332945,-1.81174 2.591325,-2.1597 2.827005,-3.80733 0.49366,-3.451189 2.9935,-6.797599 6.38191,-8.543179 0.94832,-0.48853 0.47036,0.11266 -1.71261,2.15405 -2.82869,2.64523 -4.3796,4.915239 -3.77282,5.522029 0.14375,0.14376 1.17968,-0.62208 2.30203,-1.701869 1.50442,-1.44733 1.81982,-1.64008 1.20022,-0.73349 -1.7089,2.500469 -4.67692,5.461299 -9.370395,9.347739 -2.65016,2.19446 -3.82948,3.03728 -2.62072,1.87297 z m -1.20413,-6.08775 c 0,-0.16196 1.92869,-2.28578 4.28599,-4.719629 2.35729,-2.43386 5.052545,-5.31945 5.989395,-6.41242 l 1.70341,-1.98721 -1.9156,2.98082 c -1.05357,1.63947 -2.551355,4.23279 -3.328385,5.76293 -1.06989,2.106809 -1.74939,2.949359 -2.79942,3.471149 -1.6072,0.79867 -3.93539,1.33369 -3.93539,0.90436 z m 6.68201,-23.922989 c 0.28689,-0.11476 0.62969,-0.10064 0.76176,0.0314 0.13204,0.13203 -0.10259,0.22599 -0.52165,0.20873 -0.463,-0.0191 -0.55717,-0.11326 -0.24011,-0.24011 z"
       id="path1-9" /><path
       id="path1-9-3"
       style="fill:#000000;fill-opacity:0;stroke:#ff0000;stroke-width:0.2;stroke-dasharray:none;stroke-opacity:1"
       d="m 119.375,59.824219 c -1.27463,0.175772 -1.58965,1.661754 -1.54102,2.738281 -0.0923,1.66542 -0.0609,3.347944 -0.4082,4.949219 -0.71263,-0.942313 -2.04797,-0.587837 -2.92077,-0.08821 -2.15406,1.032694 -4.33542,2.012011 -6.4663,3.090755 -2.38137,1.24493 -4.52079,2.896564 -6.49379,4.708393 -0.77491,0.589503 -1.712456,-0.04324 -2.576415,0.01023 -0.613831,-0.05145 -1.298197,-0.02758 -1.866943,-0.04538 0.772882,-0.72876 0.618233,-2.083194 -0.319953,-2.601027 -2.041511,-1.60506 -4.590084,-2.430576 -6.54281,-4.166308 -0.804612,-0.694058 -1.713562,-1.458022 -2.026135,-2.496542 0.01095,-1.173835 0.441752,-2.648753 -0.584513,-3.541729 -1.035001,-0.826462 -2.45856,0.08336 -2.893776,1.137637 -1.656243,2.802558 -3.107924,5.71791 -4.623047,8.597657 -3.679065,1.252158 -7.369239,2.852152 -10.164072,5.635867 -2.985989,2.673349 -5.701232,5.731016 -7.624822,9.261253 -0.24245,0.621032 -0.04534,1.3725 0.451004,1.813817 -1.83339,2.385346 -3.272749,5.131503 -3.749404,8.127933 -1.025961,5.050885 -1.288674,10.255625 -0.89958,15.391675 0.667809,6.90117 3.194494,13.67355 7.446607,19.17101 3.632073,4.65897 8.879752,8.25257 14.800734,9.10931 3.341647,0.54043 6.753277,0.084 9.98758,-0.82727 0.518385,-0.18981 1.030388,-0.24394 1.40611,0.23977 3.905751,2.95194 8.055654,5.63085 12.583115,7.53083 2.80793,1.27446 5.4765,2.83426 8.01472,4.58006 1.44554,0.86544 3.17167,0.9186 4.8016,0.76205 3.92359,-0.17544 7.85538,-0.29067 11.76374,-0.67442 1.09816,-0.0867 2.02479,-0.77937 2.57437,-1.70979 0.87662,-1.35197 1.64851,-2.77897 2.77759,-3.95227 1.08718,-1.27052 2.45928,-2.44245 2.97719,-4.08092 0.2419,-1.34824 -0.4005,-2.65834 -0.27711,-4.0111 -0.11591,-2.47547 0.29796,-4.96128 0.10706,-7.42685 -0.23333,-0.80145 -1.00271,-1.37117 -1.81237,-1.48783 0.0902,-3.10008 -0.2418,-6.30289 0.85227,-9.27562 2.1193,-6.48331 4.0506,-13.0279 5.65128,-19.65775 1.16416,-4.709109 2.28569,-9.453288 2.8173,-14.280253 0.009,-0.723416 -0.16704,-1.427697 -0.35015,-2.122315 -1.15653,-0.242426 -2.67791,0.160793 -2.99414,1.445313 -1.20053,2.594056 -2.07061,5.321735 -3.13672,7.970703 -1.31728,0.25757 -1.70411,1.729003 -2.35264,2.711348 -2.47857,4.505174 -4.91254,9.137874 -8.48329,12.894124 -0.66604,0.60262 -1.34315,1.29839 -2.18946,1.61328 -0.48231,-0.38409 -0.75583,-1.08511 -1.12304,-1.60742 -0.78324,-1.43425 -1.53354,-2.91667 -2.20118,-4.38906 V 92.652351 c -1.08554,-1.161221 -2.17052,-2.322958 -3.25585,-3.484375 2.31313,-2.386649 4.78412,-4.86791 5.75118,-8.145042 1.97598,-5.519414 1.99759,-11.924658 -0.72722,-17.197483 -0.38995,-0.753682 -0.77935,-1.601168 -1.5474,-2.020756 -0.27779,-1.119686 -1.41544,-2.116137 -2.61133,-1.980469 z"
       sodipodi:nodetypes="sccccccccccccccccccccccccccccccccccccccccccccccccss" /></g></svg>
