<?xml version="1.0" encoding="UTF-8" standalone="no"?>
<!-- Created with Inkscape (http://www.inkscape.org/) -->

<svg
   width="210mm"
   height="297mm"
   viewBox="0 0 210 297"
   version="1.1"
   id="svg1"
   inkscape:version="1.3.2 (091e20e, 2023-11-25, custom)"
   sodipodi:docname="riff_bridge.svg"
   xml:space="preserve"
   xmlns:inkscape="http://www.inkscape.org/namespaces/inkscape"
   xmlns:sodipodi="http://sodipodi.sourceforge.net/DTD/sodipodi-0.dtd"
   xmlns="http://www.w3.org/2000/svg"
   xmlns:svg="http://www.w3.org/2000/svg"><sodipodi:namedview
     id="namedview1"
     pagecolor="#ffffff"
     bordercolor="#000000"
     borderopacity="0.25"
     inkscape:showpageshadow="2"
     inkscape:pageopacity="0.0"
     inkscape:pagecheckerboard="0"
     inkscape:deskcolor="#d1d1d1"
     inkscape:document-units="mm"
     inkscape:zoom="0.59630361"
     inkscape:rotation="90"
     inkscape:cx="375.13794"
     inkscape:cy="789.80432"
     inkscape:window-width="1920"
     inkscape:window-height="1017"
     inkscape:window-x="-8"
     inkscape:window-y="-8"
     inkscape:window-maximized="1"
     inkscape:current-layer="layer1" /><defs
     id="defs1"><rect
       x="18.684762"
       y="591.0612"
       width="125.96513"
       height="499.49907"
       id="rect4" /><rect
       x="61.442218"
       y="970.90823"
       width="41.354003"
       height="41.619125"
       id="rect1" /><rect
       x="61.442219"
       y="970.9082"
       width="41.354004"
       height="41.619125"
       id="rect1-6" /><rect
       x="61.442219"
       y="970.9082"
       width="41.354004"
       height="41.619125"
       id="rect3" /><rect
       x="61.442219"
       y="970.9082"
       width="41.354004"
       height="41.619125"
       id="rect3-2" /><rect
       x="61.442219"
       y="970.9082"
       width="41.354004"
       height="41.619125"
       id="rect3-7" /><rect
       x="61.442219"
       y="970.9082"
       width="41.354004"
       height="41.619125"
       id="rect3-0" /><rect
       x="61.442219"
       y="970.9082"
       width="41.354004"
       height="41.619125"
       id="rect3-6" /><rect
       x="61.442219"
       y="970.9082"
       width="41.354004"
       height="41.619125"
       id="rect3-04" /><rect
       x="61.442219"
       y="970.9082"
       width="41.354004"
       height="41.619125"
       id="rect3-4" /><rect
       x="61.442219"
       y="970.9082"
       width="41.354004"
       height="41.619125"
       id="rect3-9" /><rect
       x="61.442219"
       y="970.9082"
       width="41.354004"
       height="41.619125"
       id="rect3-66" /><rect
       x="61.442219"
       y="970.9082"
       width="41.354004"
       height="41.619125"
       id="rect3-79" /></defs><g
     inkscape:label="Calque 1"
     inkscape:groupmode="layer"
     id="layer1"><path
       style="fill:#000000;stroke-width:1.44468"
       d="m 122.6463,148.71555 c -0.0908,1.48056 -0.33639,2.40219 -0.69289,2.6017 -0.74713,0.4181 -0.73011,2.90497 0.0218,3.19351 0.43855,0.16829 0.57392,0.88751 0.57392,3.04896 0,2.87917 -0.16411,3.1988 -1.20682,2.35043 -0.67382,-0.54822 -4.14986,-5.09091 -4.14986,-5.42326 0,-0.1212 0.7852,-0.22038 1.74488,-0.22038 h 1.74489 l -0.1188,-1.43481 -0.1188,-1.43483 -2.83166,-0.0475 c -2.5,-0.0419 -2.91357,-0.15397 -3.53073,-0.95654 -0.75348,-0.97983 -1.01501,-4.54395 -0.33345,-4.54395 0.21045,0 0.38262,-0.68871 0.38262,-1.53047 0,-0.96135 -0.16512,-1.49491 -0.44405,-1.43483 -0.25557,0.0551 -0.51043,-0.51656 -0.60043,-1.34677 -0.2296,-2.11745 1.03679,-4.00869 2.8851,-4.30874 0.77641,-0.12598 2.23799,-0.39016 3.24792,-0.58692 3.43348,-0.66895 3.3291,-0.75371 3.3291,2.7032 0,2.46576 -0.11149,3.06096 -0.57392,3.06096 -0.41164,0 -0.57395,0.42017 -0.57395,1.48585 0,1.16406 0.16574,1.52919 0.76525,1.68596 0.42087,0.1101 0.73268,0.34537 0.6929,0.5229 -0.0397,0.17754 -0.13566,1.35453 -0.21318,2.61553 z m -2.35346,-6.09462 c -0.18878,-0.11666 -1.39403,-0.1023 -2.67833,0.032 l -2.3351,0.24406 v 1.52799 1.52797 l 1.7752,-0.2433 c 0.97637,-0.13378 2.18161,-0.24333 2.67833,-0.24333 0.77415,0 0.90316,-0.18806 0.90316,-1.3166 0,-0.72411 -0.15446,-1.41203 -0.34326,-1.52873 z m 2.011,26.4721 c -0.11049,0.26305 -0.44495,0.47828 -0.74308,0.47828 -0.37731,0 -0.54204,0.46514 -0.54204,1.53047 0,1.10536 0.15942,1.5305 0.57393,1.5305 0.43167,0 0.57392,0.46232 0.57392,1.86526 0,2.76789 -0.3675,4.23842 -0.99872,3.9962 -0.40112,-0.15392 -0.53175,0.18492 -0.53175,1.37938 0,1.02261 0.19445,1.65804 0.54903,1.79411 0.4358,0.16723 0.5038,0.77632 0.32971,2.95329 -0.12068,1.50844 -0.28055,2.8133 -0.3554,2.89969 -0.28376,0.32768 -1.82651,-1.41275 -3.8297,-4.32044 -1.1426,-1.65853 -2.01212,-3.08085 -1.93227,-3.16071 0.0799,-0.0799 0.88242,0.1149 1.78347,0.43283 2.25378,0.79518 2.30729,0.77371 2.30729,-0.92532 0,-1.48974 -0.0186,-1.50875 -2.06764,-2.1044 -2.6561,-0.77216 -2.90641,-0.75801 -2.90641,0.16416 0,1.20757 -0.55995,0.89674 -1.26553,-0.7025 -0.85009,-1.92678 -0.90078,-6.18467 -0.0737,-6.18467 0.40084,0 0.57392,-0.40387 0.57392,-1.33916 0,-0.73655 -0.17218,-1.33917 -0.38262,-1.33917 -0.21043,0 -0.38262,-0.7652 -0.38262,-1.70045 0,-1.21255 0.24739,-1.98805 0.86218,-2.70279 l 0.86216,-1.00233 3.82494,0.50272 3.82491,0.50272 0.0736,2.48704 c 0.0404,1.36786 -0.017,2.70225 -0.12756,2.96529 z m -4.25043,-0.28243 c -1.21003,-0.23779 -2.41528,-0.50286 -2.67833,-0.58906 -0.32807,-0.10746 -0.47828,0.31556 -0.47828,1.34702 0,1.41874 0.081,1.52403 1.43483,1.86272 3.65478,0.91446 3.47637,0.93521 3.64498,-0.42396 0.0849,-0.68459 0.18195,-1.36163 0.21564,-1.50454 0.0336,-0.14289 -0.92879,-0.45438 -2.13884,-0.69218 z m 3.83985,-35.58818 c -0.99482,0 -4.51836,-4.61078 -3.84845,-5.03595 0.26779,-0.16996 0.77803,-0.31165 1.13389,-0.31487 0.90124,-0.009 1.11098,-0.49443 0.82658,-1.91645 -0.22738,-1.1369 -0.32932,-1.20598 -1.43312,-0.97119 -3.39681,0.72254 -3.40309,0.72113 -4.72757,-1.06456 -1.22836,-1.65613 -1.60443,-2.94081 -0.8609,-2.94081 0.21045,0 0.38263,-0.68873 0.38263,-1.5305 0,-1.10534 -0.15943,-1.53047 -0.57393,-1.53047 -0.9019,0 -0.76155,-3.25329 0.19854,-4.6016 0.72223,-1.01429 5.27909,-3.49571 7.39448,-4.02664 0.86949,-0.21822 0.90847,-0.13002 1.13466,2.56809 0.18695,2.22988 0.12132,2.85723 -0.32486,3.10695 -0.76664,0.42902 -0.78856,3.50575 -0.0228,3.21192 0.68434,-0.26261 0.98226,0.82851 0.98902,3.6222 0.004,1.60709 -0.14747,2.21772 -0.59199,2.3883 -0.81067,0.31108 -0.61759,3.10496 0.2146,3.10496 0.44999,0 0.601,0.6403 0.69932,2.96533 0.11351,2.68609 0.0581,2.96529 -0.59004,2.96529 z m -4.83473,-16.68388 c -2.24311,0.83659 -2.3586,0.94292 -2.4718,2.27619 -0.0653,0.76923 0.0304,1.39861 0.21268,1.39861 0.18229,0 1.35917,-0.34709 2.61533,-0.77128 l 2.28389,-0.77129 -0.14347,-1.50491 -0.14345,-1.50491 z m 4.21195,45.71282 c -0.28242,0.23439 -0.62358,0.31605 -0.75818,0.18146 -0.36963,-0.36963 -18.62456,-0.54663 -18.62456,-0.1806 0,0.17478 0.9777,1.67784 2.17266,3.34015 1.19498,1.66231 4.99833,7.06859 8.4519,12.01396 3.45361,4.94536 6.6217,9.28836 7.0402,9.6511 0.41853,0.36276 0.70442,0.94461 0.63532,1.293 -0.11351,0.57219 -1.082,0.6265 -10.01458,0.56149 -8.06392,-0.0587 -9.83193,0.0204 -9.58003,0.4288 0.16989,0.27541 2.65042,4.03043 5.5123,8.34446 2.86186,4.31404 6.29849,9.5655 7.63696,11.66991 1.33846,2.10441 2.84871,4.23378 3.3561,4.73194 0.62054,0.60925 0.79615,1.03214 0.53644,1.29184 -0.24344,0.24343 -4.01478,0.35993 -10.20756,0.31528 -8.008439,-0.0577 -9.764319,0.0217 -9.511819,0.42995 0.17033,0.27543 3.442219,5.66613 7.270859,11.97937 3.82865,6.31322 7.32147,11.87207 7.76183,12.35299 0.89222,0.97444 1.05421,1.98586 0.32234,2.01296 -0.26304,0.0101 -4.89788,0.003 -10.29963,-0.0168 -9.130361,-0.032 -9.835832,0.0138 -10.027162,0.65188 -0.113269,0.37748 -0.404999,1.89157 -0.648449,3.36466 -0.42607,2.57805 -0.86683,3.63402 -1.32543,3.17542 -0.11948,-0.11943 0.0533,-1.77624 0.38398,-3.68182 0.33062,-1.90556 0.56723,-3.60425 0.52579,-3.77485 -0.0415,-0.1706 0.12092,-0.9989 0.36065,-1.84067 0.44668,-1.56801 3.01628,-19.40131 4.079751,-28.31387 2.462971,-20.6411 3.602271,-41.41615 3.556641,-64.85408 -0.0485,-24.90593 -1.11535,-42.51632 -4.114331,-67.914979 -0.679801,-5.757376 -2.673222,-19.239471 -3.273521,-22.139664 -0.31085,-1.501849 -0.63538,-3.461834 -0.72118,-4.35553 -0.0858,-0.893697 -0.3522,-2.569964 -0.592,-3.725042 -0.42131,-2.029463 -0.27944,-3.093395 0.3598,-2.698324 0.16958,0.104941 0.52484,1.614184 0.78947,3.354172 0.26462,1.739987 0.615529,3.335791 0.779789,3.546239 0.19222,0.246252 3.753782,0.314432 9.993102,0.1913 5.33196,-0.105193 9.90969,-0.129872 10.17273,-0.0548 0.26305,0.07508 0.47842,0.419498 0.47858,0.765248 2.8e-4,0.57022 -0.93335,0.617474 -10.04376,0.508439 l -10.044071,-0.120184 1.75446,1.842006 c 2.389062,2.508271 12.802461,13.982761 16.950111,18.677264 1.85926,2.10442 3.79194,4.177043 4.29483,4.605813 0.50287,0.428795 0.91449,1.031417 0.91468,1.339172 2.9e-4,0.479552 -1.40011,0.542441 -9.79433,0.43973 -7.3421,-0.08982 -9.726169,-0.0088 -9.521159,0.322721 0.15042,0.243379 3.914129,4.687863 8.363789,9.87662 4.44967,5.188753 9.10644,10.674739 10.34837,12.191059 1.24194,1.51633 2.48829,2.84532 2.76969,2.95331 0.28139,0.10796 0.51178,0.50303 0.51193,0.87791 2.9e-4,0.63951 -0.61691,0.6739 -9.99482,0.55693 l -9.99515,-0.12472 2.79556,3.37694 c 1.53755,1.8573 5.87103,7.25094 9.62994,11.98586 3.75891,4.73493 7.36936,9.17083 8.02321,9.85755 0.65387,0.68671 1.08332,1.3541 0.95437,1.48305 -0.12901,0.12901 -4.63202,0.20275 -10.00681,0.16402 -5.3748,-0.0387 -9.77234,0.0151 -9.77234,0.1198 0,0.37034 18.87159,25.30332 19.37986,25.60451 0.65458,0.38788 0.6555,0.82403 0.003,1.36565 z M 110.28893,148.296 c -4.93633,-6.59661 -9.06122,-11.99798 -9.16644,-12.00307 -0.10516,-0.006 -0.1665,5.54348 -0.13623,12.3301 l 0.0552,12.33933 9.25757,0.10254 c 6.83113,0.0757 9.2192,-0.013 9.11128,-0.33627 -0.0805,-0.24134 -4.18507,-5.83602 -9.1214,-12.43263 z m 5.96103,11.57975 c -1.01343,-0.13898 -2.16291,-0.25255 -2.55442,-0.25255 -0.6122,0 -0.71103,-0.30801 -0.70598,-2.20007 0.003,-1.21003 0.1686,-2.4575 0.36751,-2.77213 0.40778,-0.64504 0.32015,-0.73513 3.12832,3.216 l 1.60716,2.2613 z m -11.39692,-10.08324 c -1.60324,2.11956 -2.82713,3.4292 -2.89984,3.10303 -0.15818,-0.70927 4.86078,-7.50399 5.32907,-7.21458 0.18961,0.11716 0.34476,0.26508 0.34476,0.32862 0,0.0636 -1.24831,1.76588 -2.77399,3.78293 z m 11.31765,-20.15174 c -5.37345,-6.90331 -15.76789,-19.68486 -16.251579,-19.9838 -0.31789,-0.19646 -0.38251,0.0443 -0.2243,0.83572 0.12223,0.61143 0.434379,6.0188 0.693659,12.01637 0.25927,5.99756 0.63766,11.11989 0.84087,11.38294 0.2769,0.35845 2.61054,0.47827 9.31418,0.47827 4.9196,0 8.94471,-0.10519 8.94471,-0.2337 0,-0.12858 -1.49288,-2.15164 -3.31754,-4.4958 z m -0.60431,3.88686 -2.39137,-0.11401 -0.11666,-1.81842 c -0.0731,-1.14065 0.0902,-2.11373 0.43826,-2.61068 0.53739,-0.76725 0.61654,-0.71606 2.50803,1.62158 1.07421,1.32762 1.9531,2.55369 1.9531,2.7246 0,0.17092 -1.0761,0.2595 -2.39136,0.19683 z m -10.91636,-9.33141 c -1.69714,2.39852 -3.00282,3.92178 -3.0693,3.58079 -0.14719,-0.75487 5.22228,-8.41041 5.69431,-8.11867 0.1936,0.11955 0.34674,0.25042 0.3403,0.29061 -0.006,0.0402 -1.3408,1.95147 -2.96531,4.24727 z m 11.07196,59.72333 c -1.16127,-1.68352 -4.96427,-7.08751 -8.4511,-12.00887 l -6.33969,-8.94791 -0.43479,9.21379 c -0.23912,5.0676 -0.497399,10.64377 -0.573919,12.39149 l -0.13912,3.1777 9.305339,0.10255 c 7.429,0.0819 9.24882,0.005 9.02502,-0.38262 -0.15417,-0.26683 -1.23044,-1.86257 -2.39172,-3.54609 z m -0.0411,1.7218 c -0.18595,0 -1.09491,-0.32442 -2.01993,-0.72093 -1.62482,-0.69648 -1.67685,-0.77108 -1.53446,-2.20007 0.081,-0.81352 0.18755,-1.63707 0.23664,-1.8301 0.0491,-0.19303 0.89173,0.797 1.87254,2.20007 0.98082,1.40307 1.63117,2.55103 1.44521,2.55103 z m -1.83634,1.23313 c -0.65466,0.29759 -13.48734,-0.17828 -13.48734,-0.50015 0,-0.19729 2.64118,-0.35036 6.04538,-0.35036 3.92886,0 6.19447,-0.14908 6.47119,-0.42581 0.2342,-0.23419 0.61299,-0.31012 0.84177,-0.16872 0.47425,0.29309 0.55961,1.24931 0.12902,1.44504 z m -10.05639,-11.46411 c -1.48006,1.83911 -2.76712,3.34382 -2.86018,3.34382 -0.093,0 -0.0116,-0.41576 0.18209,-0.92393 0.51439,-1.35297 4.6354,-6.37152 5.03115,-6.12691 0.18586,0.11489 0.33793,0.24356 0.33793,0.28603 0,0.0425 -1.21095,1.58191 -2.69099,3.42099 z m 1.54953,-83.461114 c -3.68623,-4.286657 -7.017359,-8.160695 -7.402509,-8.608954 -0.68953,-0.802538 -0.69695,-0.782772 -0.48466,1.289397 0.11861,1.157422 0.57141,5.978432 1.00633,10.713358 0.43491,4.734903 0.87879,9.340683 0.98639,10.235073 l 0.19565,1.62613 h 9.364939 9.36497 l -3.16442,-3.73055 c -1.74043,-2.05179 -6.18044,-7.237801 -9.86669,-11.524454 z m 8.616,14.489754 c -2.39599,0 -2.50048,-0.039 -2.50048,-0.93396 0,-0.51369 0.17218,-1.04037 0.38263,-1.17043 0.6361,-0.39315 0.47099,-2.86966 -0.19133,-2.86966 -0.34315,0 -0.56979,-0.34615 -0.56364,-0.86089 0.0101,-0.787345 0.10658,-0.746485 1.13756,0.47827 0.62002,0.73655 1.13191,1.47942 1.13757,1.65083 0.006,0.17143 0.53072,0.74957 1.16678,1.2848 0.63608,0.53521 1.33086,1.29889 1.54394,1.69708 0.36173,0.67589 0.22138,0.72396 -2.11303,0.72396 z m -10.91812,-7.461072 c -1.76413,2.647232 -3.057719,4.267402 -3.054939,3.826192 0.006,-0.88956 5.537599,-9.442294 5.883599,-9.096305 0.39735,0.397351 0.30952,0.560973 -2.82866,5.270113 z M 98.826751,86.16017 c -0.21044,0 -0.38262,-0.182342 -0.38262,-0.405199 0,-0.222858 0.17218,-0.298785 0.38262,-0.168724 0.21044,0.130023 0.38261,0.312403 0.38261,0.405187 0,0.09272 -0.17217,0.168736 -0.38261,0.168736 z m 14.676289,124.84308 c -8.2464,-12.83842 -13.682669,-20.77771 -13.915919,-20.3232 -0.14374,0.2801 -0.47495,3.17805 -0.73603,6.43989 -0.26108,3.26183 -0.71623,7.99676 -1.01142,10.52205 -0.29519,2.52529 -0.53821,5.15102 -0.54003,5.83496 l -0.003,1.24351 h 9.182859 c 5.05058,0 9.18287,-0.0801 9.18287,-0.17798 0,-0.0979 -0.97154,-1.69055 -2.15901,-3.53923 z m -2.18226,2.95197 c -0.72404,0 -0.93199,-0.15477 -0.77114,-0.57393 0.12107,-0.31566 0.35291,-0.57393 0.51507,-0.57393 0.16216,0 0.50917,0.25827 0.77115,0.57393 0.40256,0.48505 0.32279,0.57393 -0.51508,0.57393 z m -0.77321,-1.24352 c -1.63072,1.58406 -2.49211,1.64335 -1.39006,0.0956 l 0.81735,-1.14786 h -5.95666 c -3.71604,0 -5.956669,-0.14393 -5.956669,-0.38261 0,-0.23794 2.152249,-0.38263 5.691469,-0.38263 3.13031,0 6.22953,-0.10758 6.88716,-0.23913 1.6058,-0.32116 1.57154,0.44006 -0.0926,2.05657 z m 0.33175,-3.03492 c -0.66924,-0.30492 -0.95243,-0.73343 -0.94281,-1.42662 l 0.0145,-0.99079 0.94089,1.14786 c 1.19674,1.45999 1.19339,1.8187 -0.0113,1.26955 z m -9.08026,-8.92194 c -1.27625,1.47308 -2.467219,2.73576 -2.646619,2.80596 -0.7044,0.27563 0.27931,-1.38612 2.114039,-3.57121 1.06021,-1.26264 1.98094,-2.37033 2.04607,-2.46152 0.0651,-0.0912 0.27335,-0.005 0.4627,0.19131 0.20765,0.2154 -0.57661,1.42001 -1.97619,3.03546 z M 105.09002,68.697094 C 99.591051,62.623925 94.700709,57.310625 94.222589,56.889754 l -0.869301,-0.765248 0.263851,1.339172 c 0.24574,1.247244 3.296551,22.304659 3.296551,22.753586 0,0.111996 4.14664,0.20362 9.21476,0.20362 5.23062,0 9.15962,-0.14737 9.08721,-0.340862 -0.0702,-0.187457 -4.62669,-5.309785 -10.12564,-11.382928 z m 6.29815,10.958542 c -1.62543,0 -2.25915,-0.124467 -1.99213,-0.391568 0.5486,-0.548602 0.1726,-2.669399 -0.47326,-2.669399 -0.29353,0 -0.53284,-0.384552 -0.53572,-0.860892 -0.002,-0.473493 -0.1033,-1.291338 -0.22302,-1.817439 -0.20018,-0.879184 -0.12447,-0.848231 0.93606,0.382611 0.63462,0.73655 1.26352,1.921196 1.39757,2.632538 0.18119,0.961586 0.35462,1.182415 0.67616,0.860879 0.62934,-0.62933 0.80972,-0.555569 1.74939,0.715398 l 0.84865,1.147872 z m -10.79035,-6.32582 c -1.737219,2.776292 -3.156699,4.690786 -3.222929,4.34685 -0.0652,-0.338052 1.02867,-2.484625 2.43061,-4.770165 2.754749,-4.491009 3.419709,-5.36252 3.709529,-4.861828 0.10305,0.178008 -1.20969,2.556345 -2.91721,5.285143 z M 96.17103,61.289868 c -0.643731,0 -1.170431,-0.172176 -1.170431,-0.382599 0,-0.210448 0.42028,-0.382624 0.933961,-0.382624 0.51369,0 1.04039,0.172176 1.17044,0.382624 0.137961,0.22321 -0.2511,0.382599 -0.93397,0.382599 z m 10.37478,171.130782 c -7.924159,-13.04498 -9.400359,-15.40447 -9.63765,-15.40447 -0.11904,0 -0.44146,1.93701 -0.71652,4.30447 -0.27503,2.36747 -0.996711,7.48978 -1.603721,11.38295 -0.60701,3.89316 -1.10683,7.46586 -1.11072,7.93936 l -0.007,0.8609 h 9.182861 c 5.05058,0 9.18287,-0.0843 9.18287,-0.1873 0,-0.10306 -2.38052,-4.10617 -5.29005,-8.89591 z m 1.10353,8.31796 h -2.35269 l 0.2589,-1.43482 c 0.14244,-0.78915 0.32786,-1.55639 0.41214,-1.70496 0.28345,-0.49971 1.52294,0.25956 2.78323,1.70496 l 1.25111,1.43482 z m 0.0763,-3.69581 c -0.17954,0.11099 -0.57646,0.0436 -0.88208,-0.14978 -0.3056,-0.19333 -3.21583,-0.35414 -6.46713,-0.35736 -3.75457,-0.004 -5.778191,-0.13917 -5.546141,-0.3712 0.20094,-0.20094 3.205462,-0.38994 6.676711,-0.42002 5.34128,-0.0462 6.32933,0.0338 6.42822,0.52098 0.0643,0.31661 -0.0301,0.66643 -0.20958,0.77738 z m -9.478389,-10.65243 c -1.369581,1.51146 -2.083381,2.06837 -2.089491,1.63019 -0.0101,-0.74397 3.625361,-4.94649 3.97599,-4.59584 0.38771,0.3877 0.24224,0.61637 -1.886499,2.96565 z m 22.490919,-31.05651 c -0.10646,1.0274 -0.305,1.40745 -0.66331,1.26996 -0.81896,-0.31428 -1.16642,2.34236 -0.41494,3.17272 0.89021,0.98369 0.32518,6.00658 -0.65694,5.83992 -0.5348,-0.0907 -0.66256,0.17689 -0.66256,1.38798 0,0.82522 0.22792,1.68957 0.5065,1.92077 0.37491,0.31113 0.43188,0.94465 0.21925,2.43821 -0.15799,1.10983 -0.29983,2.3492 -0.31519,2.75415 -0.0264,0.69802 -0.0747,0.69238 -0.92727,-0.1086 -0.4946,-0.46467 -2.16539,-2.83965 -3.71283,-5.27771 -2.45943,-3.87496 -2.79955,-4.62633 -2.7025,-5.97032 0.0614,-0.84994 -0.0825,-1.65707 -0.32173,-1.80492 -0.64345,-0.39766 -0.0779,-5.36656 0.61076,-5.36656 0.61448,0 0.73516,-2.50088 0.1384,-2.86966 -0.21044,-0.13006 -0.38261,-0.82893 -0.38261,-1.55305 v -1.31659 h 3.45584 c 2.15223,0 3.95642,0.20914 4.78277,0.55441 1.42579,0.59573 1.47257,0.81611 1.04628,4.92928 z m -4.73219,-0.52917 c -1.28393,-0.64814 -2.4013,-1.11156 -2.48303,-1.02982 -0.0818,0.0818 -0.2556,0.68351 -0.38636,1.33728 -0.22831,1.1416 -0.14553,1.23523 2.08952,2.36348 1.27999,0.64614 2.50434,1.1748 2.72077,1.1748 0.21645,0 0.39354,-0.60015 0.39354,-1.33367 0,-1.24864 -0.14881,-1.40879 -2.33444,-2.51207 z m -0.7743,8.63082 c -1.28893,-0.75541 -2.40628,-1.31069 -2.48304,-1.23394 -0.0767,0.0767 -0.24374,0.66055 -0.37111,1.29734 -0.21747,1.08741 -0.0839,1.25144 2.19608,2.69799 2.34235,1.48606 2.43639,1.51162 2.67647,0.72739 0.53721,-1.75482 0.33049,-2.11213 -2.0184,-3.48878 z m 5.16129,-97.49757 c -0.43666,0.16755 -1.12608,-0.32756 -2.28103,-1.63814 -0.91036,-1.03306 -1.66183,-2.01111 -1.66992,-2.17346 -0.009,-0.16233 0.41576,-0.49129 0.94185,-0.73099 0.77856,-0.35473 0.95655,-0.7092 0.95655,-1.904905 0,-0.807981 -0.12916,-1.466979 -0.28696,-1.464459 -0.15783,0.0025 -1.01482,0.420796 -1.90444,0.929452 l -1.61747,0.924837 -1.54263,-1.752523 c -0.84845,-0.96388 -1.52067,-1.941718 -1.49381,-2.172953 0.17535,-1.509995 -0.10217,-2.907458 -0.57725,-2.907458 -0.78135,0 -1.03448,-3.381358 -0.33839,-4.520462 0.72971,-1.194144 3.42129,-3.77663 4.76093,-4.567969 0.59781,-0.353132 1.08692,-0.777115 1.08692,-0.942186 0,-0.16507 0.20168,-0.300133 0.44815,-0.300133 0.24648,0 0.76303,-0.284952 1.14786,-0.633234 0.65446,-0.592279 0.7018,-0.586094 0.732,0.09562 0.0178,0.400878 0.15669,1.725411 0.30872,2.943416 0.20812,1.66726 0.14808,2.321079 -0.24295,2.645602 -0.75633,0.627691 -0.48208,3.206209 0.32703,3.074661 0.91381,-0.148554 1.42425,5.518 0.55541,6.165684 -0.73124,0.545087 -0.41085,3.35975 0.34922,3.06808 0.31689,-0.121695 0.55542,0.41291 0.71996,1.61327 0.39836,2.90646 0.3018,3.98666 -0.37975,4.2482 z m -3.16099,-16.283522 c -0.26159,-0.412909 -0.82295,-0.189548 -2.66157,1.059032 -2.2092,1.500249 -2.31784,1.646435 -2.0947,2.818999 0.12944,0.680162 0.26878,1.280504 0.30967,1.33407 0.0408,0.05354 1.13529,-0.588348 2.43206,-1.426475 2.37864,-1.5374 2.86263,-2.446895 2.01454,-3.785626 z m 0.91614,129.466172 c -0.0726,0.21044 -0.24512,1.38568 -0.38357,2.61166 -0.18462,1.63475 -0.38801,2.17676 -0.76285,2.03292 -0.90301,-0.34652 -1.39678,2.49958 -0.52692,3.03718 0.28951,0.17893 0.34872,1.06042 0.18114,2.69612 -0.31875,3.11125 -0.54908,3.73307 -1.18675,3.20385 -0.68452,-0.56809 -1.03073,2.27269 -0.3732,3.06223 0.36489,0.43814 0.38724,1.18941 0.0945,3.17531 -0.37557,2.54779 -0.39885,2.58743 -1.13045,1.92535 -0.41083,-0.3718 -2.11242,-2.94527 -3.7813,-5.71883 -2.8829,-4.79114 -3.72846,-6.99983 -2.49914,-6.5281 0.67689,0.25974 1.05098,-2.27929 0.41374,-2.80815 -0.29038,-0.241 -0.33753,-1.01793 -0.14417,-2.37596 0.15799,-1.10983 0.29982,-2.31377 0.31518,-2.67543 0.0179,-0.42231 0.23327,-0.57879 0.60186,-0.43734 0.44371,0.17026 0.57394,-0.0878 0.57394,-1.13729 0,-0.74664 -0.17218,-1.46394 -0.38262,-1.594 -0.21044,-0.13006 -0.38262,-0.41416 -0.38262,-0.63134 0,-0.25421 1.39697,-0.34839 3.92184,-0.26439 3.23768,0.10771 4.07204,0.26214 4.78275,0.88511 0.86906,0.76177 0.90703,0.84926 0.66866,1.5411 z m -5.03347,1.53091 c -2.24204,-1.82634 -2.79012,-1.81513 -2.80344,0.0573 -0.006,0.87553 4.26916,4.91384 4.72243,4.46055 0.13521,-0.13516 0.24576,-0.81022 0.24576,-1.50014 0,-1.06182 -0.33228,-1.52506 -2.16475,-3.01778 z m -1.23719,8.64458 c -1.7967,-1.55651 -2.30138,-1.82958 -2.48705,-1.34573 -0.49545,1.29115 -0.15694,1.98275 2.02953,4.1464 2.12995,2.10774 2.27256,2.18545 2.43492,1.32719 0.36296,-1.9186 0.21412,-2.2293 -1.9774,-4.12786 z m 5.85366,-150.376389 c -0.57199,0.474715 -0.82748,0.324484 -2.30628,-1.356066 l -1.66304,-1.88989 0.7588,-0.807703 c 0.7247,-0.771396 1.11053,-3.628038 0.49005,-3.628038 -0.14781,0 -0.83759,0.551348 -1.53284,1.225211 l -1.26409,1.225211 -1.74394,-1.703491 c -0.95917,-0.93692 -1.83798,-2.164285 -1.95293,-2.727488 -0.12612,-0.617916 -0.40123,-0.950236 -0.69378,-0.837976 -0.33804,0.129733 -0.56445,-0.451485 -0.74792,-1.919987 -0.28069,-2.246499 0.10393,-3.466343 1.37782,-4.370408 0.38747,-0.274975 0.70451,-0.755195 0.70451,-1.067145 0,-0.704513 3.47594,-5.065964 4.0663,-5.102221 0.2373,-0.01461 0.66568,-0.308725 0.95195,-0.653694 0.45425,-0.547329 0.58072,-0.267668 0.9933,2.196498 0.38042,2.27201 0.37773,2.918737 -0.0145,3.310155 -0.71793,0.717943 -0.35096,3.198612 0.45369,3.066888 0.88295,-0.144561 1.55463,4.643267 0.839,5.980448 -0.59514,1.112032 -0.20747,3.33874 0.53187,3.055009 0.35231,-0.135213 0.57658,0.354909 0.75412,1.647972 0.13898,1.012218 0.33992,2.286448 0.44652,2.831623 0.1267,0.647999 -0.0289,1.176104 -0.44943,1.525092 z m -3.92027,-15.817574 c -0.22406,-0.566453 -0.62686,-0.311017 -2.50927,1.591231 -2.13967,2.162245 -2.23008,2.331498 -1.97407,3.696193 l 0.26831,1.430192 2.26787,-2.244207 c 2.21212,-2.189028 2.54668,-2.957665 1.94716,-4.473409 z m 0.88509,73.852383 c -0.3209,0.17957 -1.68176,1.83419 -3.02415,3.67691 -1.41759,1.94597 -2.55028,3.17309 -2.70212,2.92742 -0.14374,-0.23265 0.70732,-1.71007 1.89133,-3.28317 2.99466,-3.97878 2.99667,-3.86441 -0.065,-3.72479 -1.42725,0.065 -3.71416,-0.0327 -5.08202,-0.21736 -2.15497,-0.29089 -1.68241,-0.3422 3.53922,-0.38424 5.71593,-0.046 6.92293,0.1769 5.44281,1.00523 z m -1.17851,111.40639 c -0.29549,1.35129 -0.58899,2.50861 -0.65221,2.57184 -0.11943,0.11942 -6.0977,-7.06302 -6.3223,-7.59585 -0.23238,-0.55122 4.53104,-0.32045 5.68317,0.27534 0.93618,0.48412 2.00735,1.72967 1.86704,2.17095 -0.021,0.0664 -0.28021,1.22641 -0.5757,2.57772 z m 0.0826,-136.44312 c -0.29231,0.11212 -1.45445,1.5391 -2.58256,3.17097 -1.31525,1.90257 -2.09487,2.73979 -2.17308,2.33364 -0.067,-0.34835 0.66462,-1.73569 1.626,-3.08296 0.96142,-1.34727 1.74802,-2.55685 1.74802,-2.68797 0,-0.13103 -1.88382,-0.23838 -4.18624,-0.23838 -2.3781,0 -4.28838,-0.16524 -4.42273,-0.38262 -0.15257,-0.24686 1.37348,-0.38261 4.30103,-0.38261 2.82163,0 4.69851,-0.16102 4.9633,-0.42581 0.2342,-0.23418 0.61299,-0.31011 0.84176,-0.16873 0.59279,0.36638 0.51496,1.62254 -0.11552,1.86447 z m 0.0377,-60.188717 c -0.25449,0.318223 -0.94432,0.791716 -1.53293,1.052191 -1.23364,0.545931 -4.8604,0.641877 -4.8604,0.128587 0,-0.189775 1.22853,-1.934663 2.73007,-3.877515 2.93845,-3.802091 3.09809,-3.835714 3.56802,-0.751491 0.14433,0.946973 0.32885,1.980041 0.41016,2.295707 0.0814,0.315653 -0.0603,0.834297 -0.31492,1.152533 z M 113.0004,109.5883 c -0.94167,0.26447 -1.48669,0.10633 -1.06988,-0.31054 0.1222,-0.1222 0.6244,-0.16174 1.11597,-0.0878 l 0.89375,0.13451 z m -2.20471,57.03749 c -1.44328,1.86063 -2.71555,3.16906 -2.9011,2.98353 -0.33333,-0.33333 4.58046,-6.92517 5.16226,-6.92517 0.64887,0 0.23015,0.72989 -2.26116,3.94164 z m 1.29905,-83.270572 c -0.5273,0.45646 -1.29729,1.011122 -1.71105,1.232555 -0.65931,0.352855 -0.78192,0.254541 -0.99191,-0.795395 -0.13175,-0.658896 -0.17082,-1.266797 -0.0868,-1.35085 0.084,-0.08415 0.96186,-0.09952 1.95066,-0.03452 l 1.79782,0.118294 z m -0.57836,3.187576 c -0.20656,0 -1.15142,1.212664 -2.0997,2.694835 -0.98395,1.537929 -1.83561,2.514432 -1.98381,2.274605 -0.14289,-0.231096 0.44174,-1.486832 1.29909,-2.790478 l 1.55881,-2.370274 -3.71908,-0.110609 c -5.23999,-0.155862 -5.50687,-0.829548 -0.36036,-0.909722 2.25172,-0.03515 4.39299,-0.07811 4.75838,-0.09562 0.36537,-0.01751 0.72236,0.269432 0.79327,0.637694 0.0709,0.368275 -0.0401,0.669593 -0.2466,0.669593 z m -3.18706,106.455236 c -1.42674,1.7273 -2.5651,2.79393 -2.76686,2.59249 -0.2018,-0.20148 0.49713,-1.33427 1.69945,-2.75434 1.12321,-1.32665 2.16634,-2.56059 2.31804,-2.7421 0.1517,-0.1815 0.47779,-0.26268 0.72465,-0.1804 0.2536,0.0845 -0.60557,1.42611 -1.97528,3.08435 z m 0.66146,-135.725652 c -0.70873,0.841755 -1.22135,1.640035 -1.13919,1.773939 0.16756,0.272972 -1.44078,0.772265 -1.68877,0.524275 -0.24018,-0.24018 -0.85347,-3.742981 -0.68486,-3.911579 0.081,-0.08101 1.19443,-0.09549 2.47434,-0.03225 l 2.3271,0.115145 z m -0.95968,4.400114 c -0.19864,0 -0.92543,0.943358 -1.61506,2.096358 -0.69624,1.164022 -1.3997,1.950561 -1.58172,1.768534 -0.18203,-0.182028 0.18886,-1.156918 0.83397,-2.192014 l 1.16179,-1.864177 -2.9481,-0.113382 c -3.956469,-0.152258 -4.595149,-0.843103 -0.77944,-0.843103 1.59408,0 3.43641,-0.107586 4.09404,-0.239134 1.03907,-0.207815 1.19569,-0.132618 1.19569,0.573924 0,0.447188 -0.16252,0.81307 -0.36117,0.81307 z M 104.56602,219.3119 c -1.2254,1.36786 -2.35382,2.36209 -2.50761,2.20939 -0.31301,-0.3108 3.09316,-4.46017 3.92257,-4.77844 1.06627,-0.40917 0.76809,0.13221 -1.41496,2.56905 z m -5.739279,-58.06363 c -0.31566,0.14027 -1.09047,0.30556 -1.721801,0.36723 l -1.14785,0.11212 -0.454811,9.7568 c -0.25015,5.36625 -0.50841,10.57477 -0.57393,11.57449 -0.0654,0.99972 -0.0331,1.81025 0.0722,1.80115 0.10517,-0.009 0.870971,-0.89725 1.701671,-1.97366 0.830701,-1.07643 1.579421,-1.75001 1.663811,-1.49684 0.0844,0.25317 -0.46614,1.25555 -1.2234,2.22753 -0.757271,0.97198 -1.376851,1.91115 -1.376851,2.08706 0,0.1759 0.51655,0.31983 1.14787,0.31983 1.763501,0 1.361101,0.70581 -0.47828,0.83889 l -1.626141,0.11766 -0.26908,2.48703 c -0.148,1.36787 -0.54197,5.58626 -0.87551,9.37419 -0.333531,3.78795 -0.700581,7.83415 -0.81567,8.99158 l -0.20925,2.10441 1.73963,-1.91311 c 1.08761,-1.19603 1.745171,-1.68231 1.754361,-1.29738 0.009,0.33864 -0.688651,1.41477 -1.548301,2.39137 l -1.563001,1.77567 h 1.371691 c 0.75443,0 1.371681,0.17217 1.371681,0.38262 0,0.21044 -0.678551,0.38261 -1.507891,0.38261 -0.829351,0 -1.59366,0.13877 -1.69847,0.30836 -0.10487,0.16959 -0.64714,3.8284 -1.20515,8.13067 -0.55802,4.30227 -1.24999,9.27874 -1.53771,11.0588 -0.28772,1.78006 -0.47033,3.28928 -0.40578,3.35382 0.0646,0.0645 0.91819,-0.73883 1.897,-1.78526 1.0892,-1.16444 1.779669,-1.66578 1.779669,-1.2922 0,0.33572 -0.731769,1.40446 -1.626139,2.37497 l -1.62613,1.76458 1.24351,0.11994 c 0.68394,0.0659 1.24352,0.28117 1.24352,0.47828 0,0.1971 -0.55958,0.36101 -1.24352,0.36423 -0.68393,0.003 -1.45088,0.13767 -1.70431,0.29874 -0.25344,0.16109 -0.66513,1.57893 -0.91486,3.15076 -0.42812,2.69447 -0.85534,3.81537 -1.28894,3.38176 -0.10474,-0.10469 0.0458,-1.54851 0.33451,-3.20853 0.28868,-1.66001 0.43828,-3.24383 0.33247,-3.51958 -0.1059,-0.27576 -0.0201,-0.7144 0.19036,-0.97478 0.21051,-0.26037 0.91406,-4.34743 1.56345,-9.08234 1.80968,-13.19516 1.93725,-14.27588 1.7256,-14.61833 -0.10835,-0.17535 -0.0209,-0.87503 0.19437,-1.55485 0.36614,-1.15626 1.757349,-15.3058 2.13419,-21.70619 0.0929,-1.57831 0.38777,-5.7967 0.65519,-9.37419 0.637,-8.52157 0.65193,-53.83904 0.0205,-62.17574 -0.24706,-3.26183 -0.53712,-7.39413 -0.64456,-9.18287 -0.401361,-6.68254 -1.77688,-20.500727 -2.1229,-21.326521 -0.19736,-0.471011 -0.2681,-1.092782 -0.15721,-1.38174 0.2434,-0.634293 -1.52003,-14.533506 -2.55586,-20.145162 -0.40786,-2.209638 -0.74252,-4.377841 -0.74368,-4.818252 -0.001,-0.440398 -0.23136,-2.119159 -0.51157,-3.730547 -0.3982,-2.289824 -0.4071,-2.929811 -0.0407,-2.929811 0.29387,0 0.66602,1.248895 0.99763,3.347923 l 0.52891,3.347923 1.62553,0.117665 c 1.93832,0.140278 2.19559,0.838896 0.30892,0.838896 -0.72412,0 -1.40832,0.148428 -1.52043,0.329826 -0.11211,0.181397 0.0415,1.860146 0.34139,3.730547 0.29989,1.870401 0.99651,6.842398 1.54809,11.048882 0.55156,4.206497 1.06358,7.708908 1.13784,7.783173 0.0743,0.0742 0.621379,-0.600039 1.21587,-1.498397 0.74325,-1.123205 1.11851,-1.43804 1.20142,-1.00801 0.0663,0.343948 -0.32469,1.278399 -0.86887,2.076553 l -0.989451,1.45118 1.347151,0.118799 c 1.734841,0.152926 1.759821,0.837799 0.0306,0.837799 -0.72412,0 -1.419411,0.166368 -1.545081,0.369724 -0.194559,0.314772 0.697371,11.50961 1.629351,20.45042 l 0.27577,2.64569 1.434821,-2.0535 c 1.034991,-1.48123 1.434831,-1.83467 1.434831,-1.26827 0,0.43186 -0.5051,1.48248 -1.122461,2.33471 -1.240351,1.71226 -1.178191,2.00888 0.421,2.00888 0.596241,0 1.084081,0.17219 1.084081,0.38263 0,0.21044 -0.6887,0.38262 -1.530481,0.38262 h -1.530431 l 0.0331,2.58269 c 0.0182,1.42048 0.23343,6.70423 0.47827,11.74169 l 0.445151,9.15903 1.339171,-1.97502 c 1.29303,-1.90698 2.01624,-2.51043 1.81745,-1.5165 -0.0526,0.26305 -0.65495,1.29612 -1.33854,2.29573 l -1.242881,1.8175 h 1.338531 c 0.7362,0 1.33854,0.17218 1.33854,0.38262 0,0.21043 -0.59246,0.3826 -1.31659,0.3826 -0.72413,0 -1.437801,0.19614 -1.585941,0.43584 -0.36433,0.5895 -0.4255,22.90407 -0.0627,22.90402 0.15783,-1e-5 0.28953,-0.12915 0.29265,-0.28699 0.003,-0.15784 0.5993,-0.97569 1.324811,-1.81746 1.7709,-2.05465 1.77809,-0.86483 0.009,1.45237 l -1.339071,1.75372 1.434721,0.13406 c 0.88032,0.0824 1.21294,0.23273 0.86079,0.38927 z"
       id="path3" /><g
       id="g5"
       transform="translate(3.7041668,4.9129986)"><text
         xml:space="preserve"
         transform="matrix(0,-0.94639093,0.94639093,0,-901.01175,323.01091)"
         id="text1"
         style="white-space:pre;shape-inside:url(#rect1);display:inline;fill:#000000;fill-opacity:1;fill-rule:evenodd;stroke:#000000;stroke-width:0.755906;stroke-opacity:1;paint-order:stroke fill markers"><tspan
           x="61.441406"
           y="981.85617"
           id="tspan5">1</tspan></text><text
         xml:space="preserve"
         transform="matrix(0,-0.94639093,0.94639093,0,-901.08081,225.49768)"
         id="text1-1"
         style="white-space:pre;shape-inside:url(#rect1-6);display:inline;fill:#000000;fill-opacity:1;fill-rule:evenodd;stroke:#000000;stroke-width:0.755906;stroke-opacity:1;paint-order:stroke fill markers"><tspan
           x="61.441406"
           y="981.85617"
           id="tspan6">6</tspan></text><text
         xml:space="preserve"
         transform="matrix(0,-0.94639093,0.94639093,0,-901.04653,284.49249)"
         id="text3"
         style="white-space:pre;shape-inside:url(#rect3);display:inline;fill:#000000;fill-opacity:1;fill-rule:evenodd;stroke:#000000;stroke-width:0.755906;stroke-opacity:1;paint-order:stroke fill markers"><tspan
           x="61.441406"
           y="981.85617"
           id="tspan7">3
</tspan></text><text
         xml:space="preserve"
         transform="matrix(0,-0.94639093,0.94639093,0,-900.94319,303.97074)"
         id="text3-1"
         style="white-space:pre;shape-inside:url(#rect3-2);display:inline;fill:#000000;fill-opacity:1;fill-rule:evenodd;stroke:#000000;stroke-width:0.755906;stroke-opacity:1;paint-order:stroke fill markers"><tspan
           x="61.441406"
           y="981.85617"
           id="tspan8">2</tspan></text><text
         xml:space="preserve"
         transform="matrix(0,-0.94639093,0.94639093,0,-901.04603,264.63162)"
         id="text3-9"
         style="white-space:pre;shape-inside:url(#rect3-7);display:inline;fill:#000000;fill-opacity:1;fill-rule:evenodd;stroke:#000000;stroke-width:0.755906;stroke-opacity:1;paint-order:stroke fill markers"><tspan
           x="61.441406"
           y="981.85617"
           id="tspan9">4</tspan></text><text
         xml:space="preserve"
         transform="matrix(0,-0.94639093,0.94639093,0,-901.02889,205.82534)"
         id="text3-8"
         style="white-space:pre;shape-inside:url(#rect3-0);display:inline;fill:#000000;fill-opacity:1;fill-rule:evenodd;stroke:#000000;stroke-width:0.755906;stroke-opacity:1;paint-order:stroke fill markers"><tspan
           x="61.441406"
           y="981.85617"
           id="tspan10">7</tspan></text><text
         xml:space="preserve"
         transform="matrix(0,-0.94639093,0.94639093,0,-901.04603,186.07538)"
         id="text3-6"
         style="white-space:pre;shape-inside:url(#rect3-6);display:inline;fill:#000000;fill-opacity:1;fill-rule:evenodd;stroke:#000000;stroke-width:0.755906;stroke-opacity:1;paint-order:stroke fill markers"><tspan
           x="61.441406"
           y="981.85617"
           id="tspan11">8</tspan></text><text
         xml:space="preserve"
         transform="matrix(0,-0.94639093,0.94639093,0,-901.14937,245.07574)"
         id="text3-3"
         style="white-space:pre;shape-inside:url(#rect3-04);display:inline;fill:#000000;fill-opacity:1;fill-rule:evenodd;stroke:#000000;stroke-width:0.755906;stroke-opacity:1;paint-order:stroke fill markers"><tspan
           x="61.441406"
           y="981.85617"
           id="tspan12">5</tspan></text><text
         xml:space="preserve"
         transform="matrix(0,-0.94639093,0.94639093,0,-901.08686,166.23669)"
         id="text3-82"
         style="white-space:pre;shape-inside:url(#rect3-4);display:inline;fill:#000000;fill-opacity:1;fill-rule:evenodd;stroke:#000000;stroke-width:0.755906;stroke-opacity:1;paint-order:stroke fill markers"><tspan
           x="61.441406"
           y="981.85617"
           id="tspan13">9</tspan></text><text
         xml:space="preserve"
         transform="matrix(0,-0.94639093,0.94639093,0,-901.06367,147.38506)"
         id="text3-91"
         style="white-space:pre;shape-inside:url(#rect3-9);display:inline;fill:#000000;fill-opacity:1;fill-rule:evenodd;stroke:#000000;stroke-width:0.755906;stroke-opacity:1;paint-order:stroke fill markers"><tspan
           x="61.441406"
           y="981.85617"
           id="tspan14">10</tspan></text><text
         xml:space="preserve"
         transform="matrix(0,-0.94639093,0.94639093,0,-900.99461,121.31349)"
         id="text3-98"
         style="white-space:pre;shape-inside:url(#rect3-66);display:inline;fill:#000000;fill-opacity:1;fill-rule:evenodd;stroke:#000000;stroke-width:0.755906;stroke-opacity:1;paint-order:stroke fill markers"><tspan
           x="61.441406"
           y="981.85617"
           id="tspan15">11</tspan></text><g
         id="g1"
         transform="translate(-7.3703744,-191.06415)"><text
           xml:space="preserve"
           transform="matrix(0,-0.94639093,0.94639093,0,-893.58996,286.76634)"
           id="text3-65"
           style="white-space:pre;shape-inside:url(#rect3-79);display:inline;fill:#000000;fill-opacity:1;fill-rule:evenodd;stroke:#000000;stroke-width:0.755906;stroke-opacity:1;paint-order:stroke fill markers"><tspan
             x="61.441406"
             y="981.85617"
             id="tspan16">12</tspan></text></g></g><text
       xml:space="preserve"
       transform="scale(0.26458333)"
       id="text4"
       style="white-space:pre;shape-inside:url(#rect4);display:inline;fill:#000000;fill-opacity:1;fill-rule:evenodd;stroke:#000000;stroke-width:0.755906;stroke-opacity:1;paint-order:stroke fill markers" /><rect
       style="fill:#000000;fill-opacity:0;fill-rule:evenodd;stroke:#ff0000;stroke-width:0.2;stroke-opacity:1;paint-order:stroke fill markers"
       id="rect5"
       width="172.88132"
       height="268.43466"
       x="9.4492102"
       y="14.282669" /><path
       id="path5"
       style="fill:#020202;stroke:none"
       d="m 122.08384,14.719136 c -1.22674,0.0091 -2.53379,-0.02263 -3.25931,0.4775 -1.72964,1.192319 -17.06289,5.755044 -17.78574,7.688272 -2.781808,7.439833 3.24002,8.228229 8.1623,17.237191 l 2.06137,4.618323 0.45837,0.0015 c 2.42903,7.314535 5.52438,14.087761 8.22999,21.323763 0.72285,1.933228 2.17503,7.519294 3.90467,8.711613 1.45104,1.000259 3.68315,0.305924 5.38313,0.305924 0,-2.506613 0.25121,-5.182695 -0.14727,-7.68997 0.23992,0.846361 0.41186,1.721922 0.41186,2.662887 4.91861,0 9.05686,-1.389093 13.49375,-3.270601 1.72991,-0.7336 3.26496,-2.46159 5.13922,-2.798279 6.41174,-1.151809 6.22511,-1.134665 12.61628,-2.155424 1.9107,-0.30516 2.73505,-0.862269 4.57957,-1.543059 3.31006,-1.221698 7.39914,-2.301917 10.8691,-2.717146 6.99497,-0.680791 2.03576,-6.097816 4.71824,-11.477835 l 0.83755,-2.433121 c -0.42083,-1.460789 -1.77961,-2.11453 -1.86402,-3.696238 -0.47968,-8.987879 5.20531,-20.725695 -0.7404,-21.411187 -3.46996,-0.415229 -2.29902,-1.680876 -5.60909,-2.902575 -1.84452,-0.680789 -5.41495,0.55269 -7.32565,0.24753 -6.39117,-1.020759 -9.77541,-0.388002 -16.84186,0.792717 -1.87822,0.313829 -3.95243,0.489686 -5.68235,-0.243913 -4.43688,-1.881508 -12.43804,0.851475 -17.41702,-0.202055 l -0.85801,-1.419414 c -0.84999,0 -2.10793,-0.115548 -3.33468,-0.106453 z"
       sodipodi:nodetypes="csscccsscccsssscccscssssccsc" /><path
       id="path5-1"
       style="fill:#020202;stroke:none"
       d="m 124.12369,218.11847 c -0.69459,0.0245 -4.12706,-1.04596 -4.6712,-0.67086 -1.72964,1.19232 -1.50555,9.43232 -2.2284,11.36555 -2.78182,7.43983 -0.95882,9.1487 -3.41647,16.70172 -0.26717,4.57208 0.0936,5.78469 -3.05389,5.79559 l -3.17942,2.62683 c -8.112319,-2.27121 -2.1264,16.81568 0.65542,24.25551 0.72284,1.93323 7.23606,-0.13413 8.9657,1.05819 1.45104,1.00026 4.78231,0.5364 6.48229,0.5364 l 0.97152,-1.973 c 4.97898,-1.05353 12.98066,1.67893 17.41754,-0.20257 1.72992,-0.7336 3.80361,-0.55775 5.68182,-0.24392 7.06646,1.18072 10.4507,1.81348 16.84187,0.79272 1.9107,-0.30516 5.48165,0.92884 7.32617,0.24805 3.31006,-1.2217 2.85937,-2.42905 6.32933,-2.84427 5.94571,-0.68549 -0.45953,-12.48213 0.0202,-21.47001 0.0844,-1.58171 2.28133,-3.56268 2.70216,-5.02347 l -1.048,0.004 c -3.41867,-5.48617 1.92578,-12.50722 -5.34334,-13.2147 -3.46996,-0.41523 -7.55955,-1.49493 -10.86962,-2.71663 -1.84452,-0.68079 -2.66835,-1.2379 -4.57905,-1.54306 -6.39117,-1.02076 -6.20974,-3.33633 -12.61628,-2.15594 -6.41522,1.18198 -2.58099,-2.84451 -5.13922,-2.79776 -4.81854,0.0881 -3.54225,-6.34507 -10.50264,-4.11701 0,0.93946 0.0499,-4.12201 -0.18941,-3.2769 0.39756,-2.50609 -3.06629,1.60095 -3.06629,-0.90429 -1.06248,0 -2.33308,-0.27086 -3.49074,-0.22996 z"
       sodipodi:nodetypes="ssscccssccsssscscccsssscccss" /></g></svg>
