<?xml version="1.0" encoding="UTF-8" standalone="no"?>
<!-- Created with Inkscape (http://www.inkscape.org/) -->

<svg
   width="210mm"
   height="297mm"
   viewBox="0 0 210 297"
   version="1.1"
   id="svg1"
   xml:space="preserve"
   inkscape:version="1.3.2 (091e20e, 2023-11-25, custom)"
   sodipodi:docname="wheight.svg"
   xmlns:inkscape="http://www.inkscape.org/namespaces/inkscape"
   xmlns:sodipodi="http://sodipodi.sourceforge.net/DTD/sodipodi-0.dtd"
   xmlns="http://www.w3.org/2000/svg"
   xmlns:svg="http://www.w3.org/2000/svg"><sodipodi:namedview
     id="namedview1"
     pagecolor="#ffffff"
     bordercolor="#000000"
     borderopacity="0.25"
     inkscape:showpageshadow="2"
     inkscape:pageopacity="0.0"
     inkscape:pagecheckerboard="0"
     inkscape:deskcolor="#d1d1d1"
     inkscape:document-units="mm"
     inkscape:zoom="1.0520974"
     inkscape:cx="397.30163"
     inkscape:cy="485.22125"
     inkscape:window-width="2560"
     inkscape:window-height="1377"
     inkscape:window-x="-8"
     inkscape:window-y="-8"
     inkscape:window-maximized="1"
     inkscape:current-layer="layer1" /><defs
     id="defs1" /><g
     inkscape:label="Calque 1"
     inkscape:groupmode="layer"
     id="layer1"><path
       style="fill:#000000"
       d="m 17.098665,219.67566 c -4.50226,-1.06127 -8.0656004,-5.52155 -8.0944804,-10.13198 -0.007,-1.07653 22.2076804,-125.573428 22.9001404,-128.339872 0.93508,-3.73572 4.07128,-6.683668 7.99652,-7.516518 0.964,-0.20454 7.35798,-0.297492 20.46384,-0.297492 h 19.06175 l -1.69519,-1.830963 c -7.62186,-8.232316 -11.14247,-20.711201 -9.05626,-32.100141 0.94688,-5.169155 3.31187,-10.76153 6.38103,-15.088923 2.2358,-3.152383 6.63052,-7.436797 9.77665,-9.531261 6.66352,-4.436085 13.121215,-6.3716571 21.267145,-6.3744361 4.89782,-0.0017 7.52766,0.392092 11.63072,1.7414521 6.26202,2.05937 10.68451,4.794169 15.32891,9.479164 14.07899,14.20206 14.67718,37.269766 1.34636,51.91917 l -1.62519,1.785938 h 19.05804 c 12.9316,0 19.50875,0.0943 20.46012,0.293345 3.0494,0.637995 5.81648,2.756593 7.2194,5.527488 0.33155,0.654844 0.79557,2.083594 1.03115,3.175001 0.23558,1.091406 5.43976,29.964068 11.56485,64.161468 12.43543,69.42906 11.63692,63.98857 9.90661,67.49747 -1.12556,2.28253 -2.70388,3.80953 -5.12136,4.95483 l -1.76731,0.83728 -88.50313,0.0405 c -52.761515,0.0242 -88.917955,-0.0572 -89.530315,-0.20157 z m 117.997425,-45.3398 c 4.61811,-0.65663 9.57687,-2.49399 13.42179,-4.97315 2.95663,-1.9064 2.82192,-1.38852 2.82394,-10.85636 0.002,-8.94976 -0.0552,-9.31569 -1.5771,-10.10269 -0.64294,-0.33248 -2.12917,-0.40119 -8.66062,-0.40037 -7.4008,9.3e-4 -7.9374,0.0333 -8.74681,0.52675 -2.56471,1.56372 -2.56035,5.07549 0.009,6.97874 0.65112,0.48238 1.21041,0.5558 4.96094,0.65125 l 4.22708,0.10758 v 2.98352 2.98351 l -1.26455,0.81146 c -4.42549,2.83983 -9.37506,3.84621 -13.79378,2.80466 -4.58249,-1.08016 -8.06012,-4.6951 -9.416,-9.7878 -0.62877,-2.36164 -0.91318,-6.70144 -0.63378,-9.67085 0.80658,-8.57224 5.64615,-13.21301 13.76922,-13.20361 3.88021,0.004 6.26457,0.95483 8.40971,3.35188 0.62778,0.70151 1.43868,1.60711 1.802,2.01245 1.07607,1.20054 2.077,1.58342 3.81137,1.45797 2.65617,-0.19213 4.52121,-2.24943 4.50018,-4.96411 -0.0136,-1.7624 -0.56073,-2.7056 -2.9232,-5.03983 -3.11481,-3.07757 -6.17313,-4.38696 -11.79393,-5.04946 -9.46848,-1.116 -17.39901,1.65295 -22.45618,7.84059 -1.61671,1.97811 -3.71659,6.23563 -4.39141,8.90362 -1.87087,7.39668 -1.01892,15.08767 2.4037,21.69953 1.3605,2.62823 5.03799,6.51213 7.40871,7.82455 5.39715,2.98783 11.54492,4.04363 18.11005,3.11017 z m -64.806595,-1.3464 c 0.72933,-0.42338 1.28563,-1.0234 1.65365,-1.78362 0.50761,-1.04859 0.55457,-1.60373 0.55457,-6.55548 v -5.40988 l 3.95938,-3.95277 c 2.17765,-2.17403 4.03806,-3.87409 4.13423,-3.77791 0.0962,0.0962 2.94804,4.9125 6.33748,10.70295 3.49654,5.97342 6.46622,10.75702 6.86438,11.05726 0.58676,0.44246 1.200854,0.54383 3.747535,0.61861 3.52275,0.10345 3.99859,0.0194 5.09012,-0.89906 0.91266,-0.76795 1.2793,-2.09705 0.88788,-3.21863 -0.14093,-0.40384 -3.84456,-6.24761 -8.230291,-12.98617 -4.385724,-6.73855 -7.974044,-12.32 -7.974044,-12.40322 0,-0.0832 2.82774,-3.06019 6.28386,-6.61548 3.456125,-3.5553 6.551755,-6.84064 6.879175,-7.30077 1.09085,-1.53299 0.5758,-3.65862 -1.1059,-4.56411 -0.65596,-0.35318 -1.40759,-0.41994 -3.904561,-0.34677 -3.020544,0.0885 -3.111524,0.109 -3.924214,0.88435 -0.45758,0.43656 -4.90014,5.23031 -9.87235,10.65277 l -9.04038,9.85902 -0.1323,-9.06527 c -0.14867,-10.1881 -0.14602,-10.17382 -2.13054,-11.48711 -1.45371,-0.96202 -3.26014,-1.11565 -4.66868,-0.39706 -1.22768,0.62631 -2.37066,1.87489 -2.65971,2.90544 -0.1091,0.38897 -0.19836,9.88376 -0.19836,21.09953 v 20.39232 l 0.72711,1.09865 c 1.60589,2.42649 4.14266,2.9897 6.72196,1.49241 z M 110.59773,62.504289 c 4.38954,-1.157879 8.49802,-4.55903 10.50163,-8.693658 1.37957,-2.846852 1.77715,-4.552931 1.75724,-7.540625 -0.0378,-5.668959 -2.73507,-10.760589 -7.32764,-13.832291 -3.37343,-2.256286 -6.71593,-3.166389 -10.60323,-2.887066 -7.60625,0.546548 -13.878525,6.111271 -15.379315,13.64445 -0.71599,3.593912 -0.24583,6.842407 1.53639,10.615532 0.8666,1.834662 1.45812,2.639095 3.211,4.366771 4.576205,4.510396 10.075455,5.96984 16.303925,4.326887 z"
       id="path1" /><rect
       style="fill:#000000;fill-opacity:0;fill-rule:evenodd;stroke:#ff0000;stroke-width:0.2;paint-order:stroke fill markers"
       id="rect1"
       width="196.91025"
       height="214.76546"
       x="7.5444536"
       y="6.7900085" /></g></svg>
