<?xml version="1.0" encoding="UTF-8" standalone="no"?>
<!-- Created with Inkscape (http://www.inkscape.org/) -->

<svg
   width="210mm"
   height="297mm"
   viewBox="0 0 210 297"
   version="1.1"
   id="svg1"
   xml:space="preserve"
   inkscape:version="1.3.2 (091e20e, 2023-11-25, custom)"
   sodipodi:docname="zebra.svg"
   xmlns:inkscape="http://www.inkscape.org/namespaces/inkscape"
   xmlns:sodipodi="http://sodipodi.sourceforge.net/DTD/sodipodi-0.dtd"
   xmlns="http://www.w3.org/2000/svg"
   xmlns:svg="http://www.w3.org/2000/svg"><sodipodi:namedview
     id="namedview1"
     pagecolor="#ffffff"
     bordercolor="#000000"
     borderopacity="0.25"
     inkscape:showpageshadow="2"
     inkscape:pageopacity="0.0"
     inkscape:pagecheckerboard="0"
     inkscape:deskcolor="#d1d1d1"
     inkscape:document-units="mm"
     inkscape:zoom="1.0343421"
     inkscape:cx="395.42044"
     inkscape:cy="377.53468"
     inkscape:window-width="1920"
     inkscape:window-height="1017"
     inkscape:window-x="-8"
     inkscape:window-y="-8"
     inkscape:window-maximized="1"
     inkscape:current-layer="layer1" /><defs
     id="defs1" /><g
     inkscape:label="Calque 1"
     inkscape:groupmode="layer"
     id="layer1"><path
       style="fill:#000000"
       d="m 123.1407,219.3329 c -1.192,-0.36171 -1.92766,-0.84558 -3.821,-2.51325 -1.01866,-0.89723 -4.29288,-3.6604 -7.27606,-6.14038 -10.32165,-8.58063 -14.159156,-13.57718 -15.489266,-20.16746 -0.52389,-2.59568 -0.45872,-3.58555 0.74245,-11.27699 0.7308,-4.67951 0.82768,-5.94973 0.83748,-10.98021 0.0109,-5.62319 0.002,-5.71133 -0.74174,-7.67291 -0.73776,-1.94467 -1.81828,-3.70417 -2.27476,-3.70417 -0.126589,0 -1.221299,0.61473 -2.432689,1.36606 -1.2114,0.75133 -3.397671,1.92413 -4.858401,2.60622 -3.11184,1.45309 -4.01015,2.34001 -6.36172,6.281 -1.63326,2.73717 -3.45636,4.89238 -4.66891,5.51941 -0.40485,0.20936 -1.3611,0.4986 -2.12499,0.64276 -2.31331,0.43655 -7.06899,3.45657 -11.07046,7.03012 -0.95924,0.85666 -3.58753,3.31657 -5.84065,5.46647 -3.80052,3.62641 -4.13097,4.0184 -4.57226,5.42396 -0.65415,2.08349 -2.33369,5.3708 -3.91781,7.66824 -5.66395,8.21435 -15.75409,11.48759 -25.72314,8.34457 -8.77555,-2.76674 -15.5009198,-9.97939 -17.8421998,-19.13492 -1.09359,-4.27648 -0.99408,-11.09374 0.20811,-14.25766 0.25683,-0.67592 1.1291,-2.2375 1.93838,-3.47019 1.68467,-2.56606 3.6954798,-6.49829 6.1442998,-12.01546 0.93613,-2.10909 2.22619,-4.82082 2.86681,-6.02608 3.33771,-6.27961 5.62828,-10.53582 7.67564,-14.26247 4.20231,-7.6491 6.39573,-12.40837 8.03298,-17.42994 1.40479,-4.30862 1.96656,-7.54755 2.22568,-12.8323 0.12844,-2.61937 0.41729,-5.47687 0.64191,-6.35 0.61791,-2.401976 2.57532,-6.144117 4.22109,-8.069787 2.65482,-3.10633 10.56799,-13.75833 10.22081,-13.75833 -0.13023,0 -1.40698,1.42418 -2.83723,3.16485 -1.43024,1.74067 -2.74364,3.11579 -2.91865,3.05582 -0.17501,-0.06 -0.87427,0.51014 -1.5539,1.26692 -2.52388,2.81034 -0.23794,-0.43216 3.55578,-5.04372 2.14226,-2.60408 2.82076,-3.19597 2.14502,-1.87122 -0.26947,0.52829 -0.1995,0.50278 0.48216,-0.17578 1.92586,-1.9171 5.61115,-6.04119 5.4988,-6.15354 -0.0678,-0.0678 -0.64688,0.30563 -1.28673,0.82994 -0.63986,0.52431 -1.23318,0.88349 -1.3185,0.79817 -0.37034,-0.37034 -1.98173,0.34122 -5.78468,2.5544 -2.23607,1.30132 -4.18016,2.36645 -4.32022,2.36697 -0.14005,5.2e-4 0.3362,-0.60056 1.05834,-1.33573 1.52243,-1.5499 4.59351,-3.68665 8.7213,-6.06796 3.56001,-2.053751 6.83865,-4.233462 6.65063,-4.421477 -0.0766,-0.0766 -1.12808,0.0043 -2.33662,0.179774 -1.20854,0.175478 -2.79265,0.278079 -3.52026,0.228004 l -1.32291,-0.09105 2.24895,-1.243626 c 1.23693,-0.683994 2.48709,-1.434299 2.77813,-1.667345 0.51523,-0.412565 0.51175,-0.418563 -0.13229,-0.227824 -0.3638,0.107742 -1.07818,0.210134 -1.5875,0.227535 -0.50933,0.0174 -1.40229,0.276196 -1.98438,0.575099 -4.06728,2.088567 -9.54708,2.599743 -13.51131,1.260384 -8.82234,-2.980725 -16.42988,-14.147635 -21.37463,-31.375275 -1.15065,-4.008874 -2.81719,-11.350915 -2.81719,-12.411253 0,-0.375656 0.74641,0.324092 2.47297,2.318375 5.19753,6.003437 7.83041,8.050318 17.28607,13.43867 3.745,2.134109 7.34994,4.330773 8.01097,4.881475 1.93082,1.608559 6.54341,4.607168 9.40396,6.113439 l 2.64583,1.39321 -0.85437,-0.908741 c -0.4699,-0.499807 -1.54146,-1.316925 -2.38125,-1.815816 -3.01332,-1.790127 -10.61524,-6.599859 -15.57543,-9.85457 -2.77899,-1.823484 -5.81509,-3.803654 -6.74688,-4.40038 -0.93179,-0.596725 -1.60777,-1.087454 -1.50218,-1.09051 0.90024,-0.02605 20.62936,9.237949 25.00959,11.743489 0.9095,0.520248 1.65364,0.817294 1.65364,0.660102 0,-0.157191 -1.10132,-1.383565 -2.44739,-2.725275 -2.63059,-2.622072 -5.55343,-4.677668 -11.12824,-7.826356 -1.86405,-1.052825 -3.34141,-1.961997 -3.28303,-2.020382 0.1949,-0.194899 5.3164,1.440099 7.95537,2.539691 1.43335,0.597237 4.40991,1.988168 6.61458,3.090957 2.96175,1.481481 3.87032,1.84201 3.47934,1.380635 -0.29104,-0.343441 -1.22453,-1.398943 -2.07442,-2.345561 -1.73882,-1.93673 -4.2417,-5.550972 -4.00676,-5.785908 0.0848,-0.08476 0.81364,0.53226 1.61975,1.37115 1.03597,1.078111 1.55729,1.449196 1.77825,1.265813 0.38444,-0.319056 2.17072,0.547662 4.49015,2.178657 1.90836,1.341935 2.29407,1.575283 2.29407,1.387883 0,-0.283382 -4.14132,-5.131796 -6.18033,-7.235554 -1.16359,-1.200547 -2.03911,-2.182813 -1.94561,-2.182813 0.0935,0 1.2038,0.666905 2.46731,1.482011 3.76581,2.429355 5.7098,3.582097 5.83304,3.458858 0.0639,-0.06389 -0.36594,-0.67318 -0.95517,-1.353981 -0.58923,-0.680802 -1.07132,-1.2943 -1.07132,-1.36333 0,-0.247449 0.93816,0.386645 1.56747,1.059439 0.72851,0.778844 1.21467,0.872492 1.44283,0.277925 0.13427,-0.349902 0.26519,-0.327466 0.92177,0.157966 1.45212,1.073595 2.38095,0.100462 1.53077,-1.603771 -0.45316,-0.908376 -0.39621,-0.951849 0.48796,-0.372519 0.35228,0.230824 0.76481,0.34286 0.91673,0.248968 0.45178,-0.279217 0.2639,-2.462767 -0.40166,-4.668113 -0.10062,-0.333417 0.0152,-0.400006 0.52612,-0.302347 0.611,0.116799 0.66721,0.03448 0.83376,-1.221018 0.10338,-0.779382 0.28838,-1.278404 0.43933,-1.18511 0.14341,0.08863 0.35598,0.0071 0.47239,-0.181291 0.16663,-0.269615 0.63456,-0.188195 2.20026,0.382848 1.09374,0.398909 2.20558,0.689553 2.47075,0.645877 0.26518,-0.04368 0.64065,0.01992 0.83437,0.141324 0.23139,0.145007 0.59945,-0.01611 1.07281,-0.469625 0.89029,-0.852946 0.98973,-0.855347 1.19715,-0.0289 0.0993,0.395805 0.35526,0.661458 0.63723,0.661458 0.25916,0 0.61525,0.144043 0.7913,0.320096 0.25041,0.250406 0.48636,0.221885 1.08375,-0.131001 0.88411,-0.522258 3.1517,-0.358004 3.38312,0.245059 0.0879,0.228952 0.36256,0.299103 0.77041,0.196739 0.4974,-0.124837 0.63514,-0.05322 0.63976,0.332612 0.005,0.453076 0.0418,0.44761 0.46302,-0.06957 0.51411,-0.631228 1.8748,-0.979595 2.4464,-0.62633 0.31732,0.196119 0.28092,0.454516 -0.23053,1.636294 -0.33405,0.771868 -0.67286,1.58199 -0.75292,1.800272 -0.0801,0.218281 0.47924,-0.228204 1.24288,-0.992188 1.18917,-1.189693 1.85235,-1.654472 1.85235,-1.298191 0,0.04998 -0.23812,0.782993 -0.52917,1.62892 -0.29104,0.845928 -0.52916,1.653052 -0.52916,1.793609 0,0.442096 0.84499,-0.422769 1.62315,-1.661317 0.82567,-1.314177 0.96135,-1.2632 0.37472,0.14079 -0.52017,1.244951 -0.11888,1.156661 0.8055,-0.177223 0.72061,-1.039845 0.76605,-1.063515 0.90573,-0.471826 0.1438,0.609146 0.17386,0.598234 1.357421,-0.492734 0.6657,-0.61362 1.39052,-1.115674 1.61072,-1.115674 0.4347,0 0.84555,1.435722 0.5567,1.945404 -0.0946,0.166955 0.1738,-0.01755 0.59649,-0.410014 0.77491,-0.7195 2.705899,-1.670582 2.932239,-1.444237 0.0672,0.06718 -0.12669,0.609939 -0.43085,1.206124 -0.30415,0.596185 -0.438539,1.083973 -0.29865,1.083973 0.13989,0 0.32898,-0.120764 0.4202,-0.268364 0.20133,-0.325762 2.10577,-1.319136 2.52897,-1.319136 0.16689,0 0.2349,0.178594 0.15114,0.396875 -0.0976,0.254299 0.005,0.396875 0.28578,0.396875 0.35574,0 0.31545,0.136748 -0.21437,0.727604 -0.35884,0.400183 -0.88713,1.01282 -1.17398,1.361416 l -0.52154,0.633812 0.56479,-0.296059 c 0.31064,-0.162832 1.06851,-0.897692 1.68417,-1.633023 0.61565,-0.73533 1.373516,-1.4678 1.684156,-1.62771 0.40302,-0.207467 0.31598,-0.02874 -0.30387,0.623983 -0.477766,0.503101 -0.806706,1.083582 -0.730986,1.289957 0.0789,0.215078 -1.21366,2.176334 -3.02847,4.595159 -4.854819,6.470625 -5.825829,8.833156 -5.819009,14.158054 0.005,3.664905 0.2271,4.670059 2.54891,11.519932 1.77935,5.249475 1.79442,5.318036 1.890259,8.598958 0.14907,5.103028 -1.125069,10.105488 -3.103659,12.185408 -1.45229,1.52668 -3.045131,1.45031 -4.849121,-0.23251 l -0.73159,-0.68244 1.11666,-0.542 c 1.41212,-0.68541 3.683111,-3.97193 4.480751,-6.484435 0.69092,-2.176331 0.91684,-5.895148 0.515,-8.477356 -0.58106,-3.73387 -3.179361,-14.997517 -4.003641,-17.355755 -2.73498,-7.824726 -8.09427,-14.187014 -14.80081,-17.570797 -2.1201,-1.069697 -5.29166,-2.170592 -5.29166,-1.836811 0,0.13573 1.45851,0.980034 3.24114,1.876232 1.78263,0.896198 3.08854,1.682203 2.90203,1.746678 -0.18961,0.06554 0.33532,0.587194 1.19062,1.183177 6.64187,4.628149 11.1314,11.424647 12.39907,18.770401 0.51841,3.004053 0.38089,3.431495 -0.40616,1.262385 -1.09277,-3.011708 -4.12943,-9.038524 -5.84615,-11.60278 -0.91792,-1.37109 -2.74898,-3.586002 -4.06902,-4.922026 -3.13266,-3.170586 -5.89651,-5.015229 -9.65303,-6.442594 -1.31111,-0.498181 -1.36125,-0.499002 -1.61416,-0.02644 -0.36326,0.67876 -0.31614,3.590533 0.1103,6.816552 0.5534,4.186478 1.30802,5.500985 5.55067,9.66897 1.90088,1.867424 3.49365,3.282795 3.53949,3.145268 0.17747,-0.532407 -1.09717,-3.326527 -2.76526,-6.06168 -2.55449,-4.188568 -4.05038,-6.78648 -4.05038,-7.034303 0,-0.120017 0.77391,0.323585 1.7198,0.985781 0.94588,0.662196 2.51126,1.758323 3.47861,2.435836 l 1.75882,1.231843 -0.18942,-0.768822 c -0.27362,-1.110586 -1.39579,-2.942431 -2.6083,-4.257857 -1.14981,-1.247398 -1.1248,-1.36273 0.15311,-0.706058 5.54448,2.849097 9.92529,8.573665 11.71436,15.307593 0.69727,2.624473 0.7042,8.138009 0.0129,10.244207 -0.64455,1.963717 -1.99784,3.549633 -3.33657,3.910116 -2.6921,0.724906 -6.3867,-2.222828 -9.63916,-7.690584 -1.79638,-3.01992 -1.73792,-3.218114 0.30666,-1.039781 1.0244,1.091406 1.95445,1.895669 2.06679,1.78725 0.39883,-0.384935 -3.72743,-9.242247 -6.49161,-13.934701 -1.19957,-2.036382 -1.99947,-4.310872 -2.25771,-6.419723 -0.13576,-1.108698 -0.3565,-1.662483 -0.84369,-2.116667 l -0.65983,-0.615117 0.17244,2.116667 c 1.09406,13.429162 3.48272,20.252106 8.99277,25.686877 4.91326,4.846136 9.61065,4.683575 11.89729,-0.411724 0.80219,-1.787515 1.47593,-4.946396 1.48789,-6.976033 0.006,-1.083887 0.0654,-1.267125 0.28612,-0.887774 0.50425,0.866806 0.56175,4.203382 0.12838,7.448497 -0.2324,1.740206 -0.42255,3.324811 -0.42255,3.521344 0,0.530128 0.51863,0.11224 0.85856,-0.691785 0.28083,-0.664225 0.30695,-0.623787 0.48668,0.753306 0.32708,2.506012 0.26733,5.777842 -0.12255,6.710949 -0.20065,0.480216 -0.70666,1.142867 -1.12448,1.472557 -1.02887,0.811858 -3.28622,0.686728 -4.60947,-0.255511 l -0.90479,-0.644263 0.96546,-0.156931 c 1.16629,-0.189574 2.33393,-0.910143 2.33393,-1.440303 0,-0.313315 -0.2919,-0.35621 -1.5378,-0.225987 -1.9415,0.202927 -2.50601,-0.07689 -5.16532,-2.560397 -1.11547,-1.041729 -2.02813,-1.765663 -2.02813,-1.608742 0,0.482929 2.31741,5.545167 4.11931,8.998352 2.06046,3.9487 4.38766,7.54249 6.94627,10.72678 1.51759,1.88871 1.899,2.54358 1.899,3.26055 0,1.44743 -0.73465,0.98385 -2.41673,-1.525 -2.2621,-3.37395 -4.87768,-8.0936 -8.75733,-15.802068 -2.07248,-4.117805 -3.59014,-6.8437 -3.73155,-6.70229 -0.39341,0.393402 0.58718,4.203938 1.69453,6.584941 0.56337,1.211336 2.29827,4.292907 3.85534,6.847927 1.55706,2.55503 3.27526,5.67159 3.81822,6.9257 0.54296,1.25411 1.47452,3.11051 2.07014,4.12535 2.15231,3.66719 2.28757,5.15899 0.82692,9.120487 -1.22323,3.317546 -1.63805,5.813496 -1.62946,9.804146 0.0122,5.68147 0.78204,9.21565 4.49521,20.63749 3.295721,10.13773 3.840971,12.61779 3.839221,17.4625 -10e-4,3.70008 -0.25647,5.32589 -1.26636,8.0698 -0.50314,1.36708 1.30471,-1.27991 2.34919,-3.43959 1.594029,-3.29599 1.867719,-4.63121 1.843939,-8.99583 -0.026,-4.76926 -0.63091,-7.45511 -3.975259,-17.6499 -3.626991,-11.05639 -3.936741,-12.42075 -3.921961,-17.2751 0.0112,-3.6721 0.087,-4.27529 1.0139,-8.069786 1.125561,-4.607657 1.594381,-9.939647 0.942951,-10.724567 -0.279791,-0.33713 -0.243351,-0.49376 0.21404,-0.91988 0.91567,-0.85307 2.86982,-3.72979 3.8659,-5.691 2.004549,-3.9468 2.828649,-7.38097 2.825939,-11.776178 -0.003,-4.288356 -0.87791,-8.093762 -2.685019,-11.673632 -0.42981,-0.851441 -0.72594,-1.548074 -0.65808,-1.548074 0.25741,0 1.820909,2.489664 2.791929,4.445764 3.46168,6.973467 4.083316,15.42393 1.94045,26.37819 -0.61918,3.16521 -0.66146,3.83005 -0.52997,8.33438 0.15878,5.439003 0.62356,8.920773 2.441026,18.285923 0.6605,3.40342 1.5033,8.03341 1.87291,10.28888 0.36961,2.25547 0.70285,4.13169 0.74054,4.16938 0.16458,0.16458 0.54853,-14.98313 0.5416,-21.36711 l -0.008,-7.011456 -0.99326,-4.262307 c -1.41197,-6.05912 -1.54478,-7.62694 -1.07334,-12.67102 0.56506,-6.04588 0.51757,-11.830838 -0.12172,-14.826661 -0.62209,-2.915225 -1.560726,-4.828985 -3.892066,-7.935417 -2.616469,-3.48635 -3.171659,-4.796918 -3.134999,-7.400421 0.0622,-4.414991 2.155959,-13.084636 4.020999,-16.649592 1.65143,-3.156636 4.583546,-5.768433 7.456496,-6.641891 0.59379,-0.180532 0.62294,-0.156565 0.29302,0.240962 -0.53712,0.647195 -0.23538,0.753561 0.85055,0.299827 1.77422,-0.741316 1.90047,-0.51214 0.61237,1.111595 -1.26264,1.591627 -1.36051,1.895956 -0.45361,1.410601 0.66378,-0.355246 0.71445,-0.101199 0.11247,0.563974 -0.75579,0.835138 -0.2188,0.791621 0.86169,-0.06983 1.08905,-0.868272 2.80754,-1.829187 3.27129,-1.829187 0.15132,0 0.27512,0.311543 0.27512,0.692317 0,0.550153 0.10334,0.665295 0.50322,0.560724 0.38491,-0.100657 0.61206,0.109793 0.96622,0.895183 0.52532,1.164935 0.56959,1.184011 1.39922,0.602914 1.67696,-1.174586 0.4239,0.34391 -4.10342,4.972648 -5.49896,5.62215 -6.56007,6.936208 -7.85023,9.721584 -0.47884,1.033771 -0.93869,1.811504 -1.02189,1.728297 -0.36944,-0.369431 -1.392736,2.47793 -1.489256,4.143893 -0.16578,2.861234 0.775196,5.477458 3.128056,8.697023 0.69125,0.945886 1.72299,2.553229 2.29274,3.571875 2.00289,3.580883 5.43954,11.377903 5.99018,13.590433 0.55037,2.21147 0.55045,2.22053 0.09,10.71562 -0.25348,4.67626 -0.80616,14.038682 -1.22817,20.805402 -1.24571,19.97416 -1.61733,26.51623 -1.51222,26.62134 0.0545,0.0545 0.35817,-1.35886 0.67481,-3.14081 1.49766,-8.42841 2.25249,-15.84811 3.07511,-30.22741 0.21645,-3.78354 0.54333,-9.498532 0.72639,-12.699992 0.66909,-11.70097 0.56535,-12.31933 -3.36315,-20.046691 -3.21042,-6.314907 -3.9472,-8.450924 -3.94556,-11.438725 0.002,-3.05018 1.387,-6.725935 3.83584,-10.177892 2.48246,-3.499345 7.89496,-8.038376 12.16608,-10.202709 2.44576,-1.239359 5.15023,-2.192031 5.8455,-2.059122 0.37643,0.07196 1.43219,-0.06074 2.34613,-0.294877 0.91394,-0.234142 1.70857,-0.378855 1.76584,-0.321585 0.0573,0.05727 -0.31768,0.352996 -0.83321,0.65717 -0.64968,0.383318 -0.93734,0.743449 -0.93734,1.173467 0,0.473981 -0.67107,1.146845 -2.84308,2.850687 -3.65399,2.866385 -8.1562,7.219506 -9.99869,9.667595 -1.84678,2.453804 -3.41732,5.703803 -3.98128,8.238708 -0.70362,3.162647 -0.40775,8.91478 0.79982,15.549804 2.40391,13.20828 2.3727,12.94734 2.37388,19.84375 0.001,7.365862 -0.12765,8.727742 -2.21647,23.415622 -0.85885,6.03911 -1.75428,12.94474 -1.98985,15.34583 -0.52547,5.35597 -1.2663,10.0696 -1.99603,12.7 -1.22473,4.41464 -3.70697,8.28535 -6.82938,10.64948 -1.37518,1.04122 -1.55105,1.25677 -1.02541,1.25677 1.09074,0 3.82176,-1.55655 4.91991,-2.80411 0.57273,-0.65065 1.5162,-2.10161 2.0966,-3.22434 2.23716,-4.32757 3.52935,-9.85353 5.4579,-23.3403 0.76686,-5.36284 1.56125,-9.79656 2.22806,-12.43541 2.94307,-11.64708 2.99503,-24.262202 0.15741,-38.222562 -0.35593,-1.75113 -0.64715,-3.28891 -0.64715,-3.4173 0,-0.40722 1.99142,2.27742 3.11649,4.20132 2.14252,3.66384 3.65722,8.46387 4.4417,14.0756 0.57536,4.115846 0.38521,13.106212 -0.36823,17.409812 -0.69662,3.97899 -1.96899,8.63084 -3.21867,11.76761 -1.26402,3.17273 -2.01864,6.10514 -3.41304,13.26283 -1.33711,6.8636 -2.43396,11.45293 -3.34495,13.9956 -2.2399,6.2518 -5.5903,10.08675 -9.71936,11.12502 -1.66638,0.41902 -1.83581,0.78123 -0.36542,0.78123 1.59316,0 4.11252,-0.81561 5.73462,-1.85651 2.30406,-1.4785 4.26106,-5.3879 6.58911,-13.16267 0.73895,-2.46783 2.7653,-8.70034 4.50301,-13.85003 5.89657,-17.4746 7.00511,-22.58971 7.01777,-32.38183 0.0106,-8.187612 -0.60966,-10.636892 -4.89117,-19.314572 -3.76706,-7.635 -3.91616,-8.35054 -2.76553,-13.271856 2.14646,-9.180654 4.88551,-14.320887 9.74725,-18.292172 1.5874,-1.296663 1.76343,-1.521141 1.25155,-1.595987 -1.24544,-0.182101 -4.45216,1.580307 -7.21382,3.964708 -3.65282,3.153812 -6.89982,8.942675 -7.50265,13.375982 -0.0948,0.696982 -0.241,1.505364 -0.32494,1.796406 -0.28664,0.993737 -0.83644,-0.914047 -0.84929,-2.946965 -0.0423,-6.688265 6.70486,-17.405262 14.05171,-22.319493 2.38723,-1.596787 5.39004,-2.776303 6.62307,-2.601561 0.52711,0.0747 0.3823,0.248472 -1.04139,1.249584 -0.9095,0.639548 -1.65365,1.252542 -1.65365,1.362209 0,0.109667 0.84813,0.284569 1.88474,0.388671 1.465,0.147125 1.91143,0.291379 2.00462,0.64775 0.0864,0.330401 0.31749,0.427063 0.82725,0.346029 0.40953,-0.0651 0.58481,-0.02017 0.4163,0.106708 -0.16008,0.120533 -0.40732,0.576339 -0.54943,1.012901 -0.15216,0.467493 -0.71878,1.104401 -1.3785,1.549533 -0.61608,0.415681 -1.07857,0.797361 -1.02775,0.848179 0.0508,0.05082 0.564,-0.07002 1.1404,-0.268528 1.64422,-0.566257 5.00589,-1.203142 6.35055,-1.203142 1.79411,0 1.38807,0.52153 -1.04992,1.34858 -1.51374,0.51351 -2.31175,0.963375 -3.02242,1.703814 -0.92073,0.959305 -0.92873,0.982747 -0.17188,0.50424 1.38956,-0.878534 3.11846,-1.704806 3.55056,-1.69688 0.23,0.0042 -0.41112,0.44987 -1.42471,0.990335 -2.14131,1.141791 -1.86361,1.315161 1.18137,0.737536 1.19063,-0.225857 2.48138,-0.341885 2.86836,-0.257839 1.03841,0.22553 2.16014,0.679309 2.14938,0.869501 -0.005,0.09149 -0.78853,0.642588 -1.7408,1.224671 -0.95226,0.582083 -3.29951,2.341615 -5.21611,3.910069 -1.91659,1.568455 -4.69523,3.681077 -6.17474,4.694716 -3.14034,2.151495 -4.7575,3.889143 -6.02049,6.469064 -1.24063,2.53426 -1.72798,4.530585 -1.90723,7.812607 -0.1425,2.60924 0.16574,5.16659 0.84511,7.01146 0.14127,0.38363 -0.0799,0.27447 -0.80428,-0.39687 -2.04719,-1.89742 -2.5455,-4.34033 -1.85666,-9.102096 0.24689,-1.706691 0.39024,-3.161735 0.31854,-3.233433 -0.2119,-0.211898 -1.22635,1.364178 -1.64887,2.561725 -0.5045,1.429924 -0.50213,4.806654 0.005,6.512924 0.22365,0.75311 1.39351,2.81722 2.68892,4.74438 4.87553,7.25318 7.09215,13.83249 7.81292,23.190052 0.85289,11.07275 -1.70173,24.92288 -7.33222,39.75248 -1.26408,3.32934 -2.1267,5.24257 -6.08393,13.49375 -2.83258,5.90613 -5.96245,8.89548 -9.86869,9.42556 -2.46734,0.33483 -2.18897,0.85275 0.69915,1.30086 2.29599,0.35623 5.53524,0.0132 7.31662,-0.77476 1.30557,-0.57752 2.58477,-2.0793 4.74295,-5.56825 6.21593,-10.0488 11.42998,-25.60369 14.15188,-42.21883 1.34279,-8.1967 1.71273,-12.5497 1.73137,-20.37292 0.0203,-8.501922 0.0623,-8.331632 -3.09262,-12.525712 -1.16676,-1.55106 -2.45792,-3.53448 -2.86924,-4.40761 -1.42952,-3.03452 -1.65615,-8.98649 -0.5138,-13.493749 1.11698,-4.407165 3.67417,-8.318944 8.75629,-13.394667 2.07657,-2.073952 2.96273,-2.750689 4.77338,-3.645276 1.44767,-0.715251 2.73114,-1.14962 3.67863,-1.244969 l 1.45521,-0.146443 -2.20818,1.275671 -2.20818,1.27567 0.88526,0.204975 c 0.48689,0.112736 2.13542,0.133231 3.66339,0.04554 2.48075,-0.142364 2.73564,-0.116515 2.38125,0.241483 -0.21828,0.220503 -2.65906,1.793222 -5.42396,3.494931 -5.53403,3.406025 -7.64178,4.990048 -9.49269,7.133961 -5.76268,6.674881 -7.39582,14.400939 -4.13044,19.540189 0.44987,0.70803 0.87347,1.2318 0.94133,1.16394 0.0679,-0.0679 -0.004,-1.00435 -0.15922,-2.08107 -1.04369,-7.22996 3.35592,-15.581479 10.9877,-20.857329 2.5836,-1.786047 6.85619,-3.786701 9.52624,-4.460699 2.14372,-0.541139 4.36562,-0.930384 4.36562,-0.764795 0,0.04977 -0.88614,0.540279 -1.96921,1.090015 -1.97869,1.004332 -3.55644,2.262282 -2.39641,1.910681 3.97258,-1.204086 12.04276,-3.168914 12.23326,-2.978408 0.081,0.08096 -8.1323,7.947247 -10.48889,10.045778 -0.95941,0.854343 -3.23265,2.712437 -5.05167,4.129098 -5.09803,3.970399 -7.72699,6.757989 -9.28595,9.846259 -1.52195,3.01497 -1.91074,5.89129 -1.17169,8.66836 0.21119,0.7936 0.34256,1.48434 0.29193,1.53497 -0.17521,0.17521 -1.75672,-1.92437 -2.34275,-3.11016 -0.49381,-0.99924 -0.58603,-1.61594 -0.57363,-3.83646 0.0128,-2.29624 0.113,-2.87307 0.75823,-4.36562 1.37618,-3.18334 3.4672,-6.09681 7.36293,-10.258913 1.12778,-1.204902 2.05052,-2.303647 2.05052,-2.441654 0,-0.328576 -1.06571,0.08255 -2.91042,1.12277 -1.82455,1.028856 -5.1381,4.369707 -6.32339,6.375487 -1.47251,2.49183 -2.69438,6.44676 -2.86254,9.26548 -0.17717,2.96952 0.17999,3.83311 2.69094,6.50663 2.1838,2.3252 2.89033,3.44429 3.68348,5.83436 3.65952,11.027606 1.81387,36.132986 -4.1042,55.827076 -4.95689,16.4955 -11.68542,26.17813 -19.13836,27.54088 -1.81579,0.33201 -2.76054,0.12791 -5.29905,-1.14476 -2.26173,-1.13391 -3.90205,-2.36985 -6.54844,-4.93407 -1.27331,-1.23377 -2.31511,-2.14796 -2.31511,-2.03152 0,0.11644 0.43677,0.94166 0.9706,1.83382 3.27888,5.47985 7.19843,9.78495 10.29778,11.31076 1.65775,0.8161 2.02702,0.89469 4.2042,0.89469 2.06267,0 2.58443,-0.0976 3.84202,-0.71839 5.16484,-2.5497 9.89643,-10.20236 14.03353,-22.69724 6.97354,-21.0615 10.53139,-53.5212 7.28638,-66.476556 -0.31893,-1.27331 -0.54102,-2.3151 -0.49352,-2.3151 0.0475,0 0.60713,0.80504 1.24364,1.78898 5.53117,8.550306 7.57913,24.976206 5.17047,41.470386 -0.89697,6.14229 -2.53755,12.71566 -4.17671,16.7349 -1.09973,2.69654 -0.24721,1.34001 1.66278,-2.64584 6.40867,-13.3739 9.93383,-26.9106 9.93383,-38.14615 0,-3.39657 -0.39759,-4.78689 -2.38911,-8.35437 -1.97046,-3.52973 -2.80766,-5.412656 -2.99986,-6.746866 -0.12546,-0.8709 -0.0436,-0.75375 0.46216,0.66146 0.90383,2.529016 1.55029,3.691196 4.41521,7.937496 3.08346,4.57019 4.33531,7.0785 4.72755,9.47247 1.93987,11.83948 1.9363,22.5041 -0.0107,32.06711 -3.10423,15.24684 -10.81092,28.52923 -23.95429,41.28497 -6.45389,6.26356 -11.75348,9.74514 -15.87374,10.4283 -1.69121,0.28041 -3.05737,-0.24219 -5.31467,-2.03304 -7.42367,-5.88967 -13.93711,-15.45996 -17.93371,-26.35026 -1.122786,-3.05947 -1.718406,-4.30427 -1.718406,-3.59133 0,0.67711 3.588066,13.21835 4.420536,15.45094 1.85297,4.96947 4.02399,8.63555 6.9724,11.77396 0.95698,1.01865 2.67544,3.04271 3.81879,4.49792 4.16401,5.29977 7.00536,7.54062 9.56132,7.54062 0.99886,0 1.79233,-0.29055 4.04369,-1.48073 18.49841,-9.77912 31.85815,-27.22833 38.87475,-50.77448 0.43364,-1.45521 1.70761,-4.96755 2.83105,-7.80521 2.72109,-6.87311 4.71382,-12.96289 5.55041,-16.96197 1.20317,-5.75145 1.19299,-12.39399 -0.0262,-17.07461 -0.21386,-0.82109 -0.34112,-1.54061 -0.28279,-1.59894 0.18065,-0.18065 2.45722,4.44408 3.16958,6.43886 1.77454,4.9691 2.00004,11.77423 0.56771,17.13229 -0.12251,0.45827 -0.0782,0.43972 0.25438,-0.10646 0.57422,-0.9431 1.89948,-5.11877 2.26399,-7.13346 0.33015,-1.82474 0.4132,-7.33634 0.12998,-8.62614 l -0.17059,-0.77686 0.51249,0.63169 c 0.28187,0.34743 0.96579,1.5362 1.51982,2.64173 0.80548,1.60727 1.03168,2.38947 1.12885,3.90364 0.22221,3.46252 -1.04523,7.55399 -4.16971,13.46044 -6.59733,12.47143 -9.30579,20.7224 -11.93251,36.35089 -0.74252,4.41779 -1.33996,7.15244 -1.85801,8.50452 -2.29017,5.97718 -10.3044,16.32592 -17.81951,23.01022 -7.11559,6.32895 -13.63359,10.34796 -19.0851,11.7679 -1.61616,0.42096 -5.05057,0.50499 -6.21373,0.15205 z M 32.805214,203.94904 c 2.53614,-0.94889 5.11546,-2.92104 8.95835,-6.84956 2.01332,-2.05818 3.5934,-3.80933 3.51128,-3.89145 -0.0821,-0.0821 -1.06346,0.82244 -2.18076,2.01013 -3.72064,3.95506 -8.21582,7.429 -11.21918,8.67035 -1.82994,0.75634 -1.06282,0.80626 0.93031,0.0605 z m -10.17069,-2.05487 c -0.26858,-0.50186 -1.42145,-1.3684 -1.79668,-1.35045 -0.18019,0.009 1.78358,1.82773 1.98438,1.83821 0.0415,0.002 -0.043,-0.21733 -0.1877,-0.48776 z m 6.46224,-5.13223 c 1.21903,-0.60506 2.5768,-1.65623 5.55626,-4.30161 4.38228,-3.8909 6.90586,-5.41967 8.94708,-5.42009 1.37011,-2.8e-4 1.79813,-0.26779 4.51988,-2.82492 1.29495,-1.21662 2.65284,-2.28693 3.01752,-2.37846 1.28716,-0.32306 2.15834,0.83293 2.16475,2.87245 0.002,0.68264 0.10312,1.30248 0.22438,1.37743 0.12127,0.0749 0.22707,-0.007 0.23511,-0.18283 0.008,-0.1755 0.20648,-1.02871 0.44097,-1.89603 0.90959,-3.36427 0.37922,-5.16993 -1.51854,-5.16993 -2.38144,0 -4.00326,1.16622 -5.26383,3.78511 -1.18912,2.47044 -2.04312,3.14262 -5.27701,4.15348 -2.90348,0.90757 -4.82637,2.17271 -8.68093,5.71151 -3.58204,3.28859 -5.28121,4.3431 -6.98635,4.33575 -2.33615,-0.0101 -4.12616,-1.14782 -4.12616,-2.62262 0,-0.30061 -0.11907,-0.54657 -0.26459,-0.54657 -0.66351,0 -0.17377,1.23605 0.89579,2.26088 1.81344,1.73758 3.77367,2.00889 6.11567,0.84645 z m 76.964546,-3.00284 c -1.27897,-1.99937 -4.54613,-8.79947 -5.77063,-12.01074 -0.527146,-1.38244 -1.137736,-2.87072 -1.356856,-3.30729 -0.37602,-0.74914 -0.39026,-0.65993 -0.25341,1.5875 0.25823,4.24067 1.420136,7.65847 3.680366,10.8259 1.15087,1.61279 4.33696,4.79466 4.56884,4.56278 0.0645,-0.0645 -0.3262,-0.81071 -0.86831,-1.65815 z m -95.616516,-0.96438 c -0.7049298,-1.34607 -1.4914898,-3.09679 -1.7478898,-3.8905 -0.25641,-0.79371 -0.5132,-1.30209 -0.57065,-1.12973 -0.17563,0.52688 0.72379,3.2829 1.57358,4.82179 0.6807398,1.23277 1.7277998,2.64583 1.9605298,2.64583 0.0364,0 -0.51063,-1.10132 -1.21557,-2.44739 z m 16.63294,-4.48285 c 0.50644,-0.94781 0.52082,-1.03119 0.0855,-0.49557 -0.8127,0.99993 -1.55192,2.33104 -1.08334,1.95077 0.21393,-0.17361 0.66297,-0.82845 0.99786,-1.4552 z m -9.79934,-6.56351 c 1.77367,-3.74158 4.73644,-6.43819 7.07366,-6.43819 0.99134,0 1.34162,0.14798 2.10757,0.89037 1.80177,1.74634 2.78023,6.4115 1.88281,8.97708 -0.51438,1.47054 -0.38354,1.71907 0.17289,0.32841 1.27695,-3.19139 1.16226,-6.15391 -0.35797,-9.24646 -1.27764,-2.59908 -3.24042,-3.70668 -5.3158,-2.99973 -3.23973,1.10359 -7.61268,8.70922 -7.6315,13.27307 -0.007,1.75938 0.38081,1.34936 0.81832,-0.8646 0.23912,-1.21009 0.80163,-2.97406 1.25002,-3.91995 z m 39.74593,1.45666 c 1.03721,-1.23169 1.84532,-2.34932 1.79581,-2.4836 -0.0792,-0.21492 -2.90871,2.85238 -4.30449,4.66632 l -0.51031,0.66319 0.56659,-0.30323 c 0.31162,-0.16678 1.4152,-1.31098 2.4524,-2.54268 z m -48.1987298,0.56453 c 0.217,-0.26147 0.22709,-1.05185 0.0368,-2.88661 -0.3071,-2.96155 -0.029,-5.75564 0.88797,-8.92151 0.3376098,-1.16562 0.5656198,-2.11932 0.5066898,-2.11932 -0.23192,0 -1.4431998,3.06092 -1.8182598,4.59473 -0.42027,1.71875 -0.82975,8.55474 -0.55527,9.27002 0.19866,0.5177 0.54526,0.54077 0.94203,0.0627 z m 3.2049798,-3.74098 c -0.10847,-3.04883 -0.1997,-3.78476 -0.39361,-3.175 -0.36107,1.13542 -0.29345,5.11054 0.1072,6.30158 0.18684,0.55546 0.35949,0.97218 0.38366,0.92605 0.0242,-0.0461 -0.0196,-1.86981 -0.0973,-4.05263 z m 32.71926,1.54953 c 0.50401,-0.23916 1.94261,-1.54646 3.1969,-2.90511 2.61806,-2.83589 3.78187,-3.42709 6.33034,-3.21575 2.43259,0.20173 3.37457,1.72282 2.44968,3.95569 -0.5184,1.25153 -0.10789,1.12427 0.76591,-0.23744 1.64041,-2.55635 1.92766,-3.76531 1.21987,-5.13402 -1.19322,-2.30745 -5.3586,-1.99855 -11.13298,0.8256 -4.02355,1.96785 -6.01391,2.46828 -9.27031,2.33079 -1.33606,-0.0564 -2.37274,-0.0112 -2.30374,0.10043 0.30737,0.49733 3.01898,1.01105 5.37627,1.01854 1.90135,0.006 2.41251,0.0774 2.05307,0.28645 -0.53758,0.31271 -2.62484,0.38222 -4.41745,0.14712 l -1.18937,-0.15599 1.05834,0.36602 c 0.58208,0.20131 1.39278,0.37517 1.80155,0.38635 0.47591,0.013 0.67762,0.12647 0.56083,0.31544 -0.11148,0.18039 -0.64078,0.24344 -1.36154,0.1622 -0.67082,-0.0756 -1.07968,-0.0334 -0.94841,0.0978 0.28189,0.28189 2.66704,0.75045 4.15087,0.81544 0.63893,0.028 0.26893,0.10992 -0.89601,0.19844 l -1.98438,0.15077 0.79375,0.45242 c 1.01405,0.578 2.57641,0.59416 3.74681,0.0388 z m 17.97023,-9.55063 c 0.85064,-2.29748 0.77573,-2.44916 -1.54707,-3.13244 -2.24595,-0.66067 -5.67655,-0.60379 -9.05747,0.15018 -1.79344,0.39996 -4.05228,0.64867 -7.01146,0.77201 -3.64108,0.15176 -4.5742,0.27624 -5.62239,0.75001 -0.69123,0.31242 -1.25677,0.6938 -1.25677,0.84751 0,0.16235 0.60981,0.27946 1.45521,0.27946 0.80036,0 1.4552,0.0899 1.4552,0.19978 0,0.31002 -2.90092,1.36027 -4.27889,1.54915 -0.70563,0.0967 -1.60319,0.0413 -2.09206,-0.12909 -0.84248,-0.29369 -0.84862,-0.29008 -0.38267,0.22479 1.67683,1.85287 5.68594,2.27168 9.44035,0.98618 1.1139,-0.3814 3.38108,-1.34773 5.03817,-2.14741 3.59512,-1.73492 5.93432,-2.24165 8.15227,-1.76599 2.65782,0.57 3.95329,1.92657 3.97767,4.16528 l 0.0111,1.01835 0.50478,-0.92604 c 0.27762,-0.50933 0.82394,-1.7881 1.21404,-2.84173 z m 8.08931,-3.54941 c 2.16952,-2.42372 4.23774,-4.59885 4.59605,-4.83362 1.15337,-0.75572 3.53035,-3.89252 4.77333,-6.29917 4.50944,-8.7311 3.36326,-21.00126 -3.49069,-37.3688 l -0.99367,-2.37294 -0.47156,1.05002 c -0.65572,1.46011 -0.63074,4.20725 0.0568,6.24825 0.29824,0.88531 1.17722,2.87585 1.9533,4.42342 0.77607,1.54757 1.60361,3.27477 1.83897,3.83821 l 0.42793,1.02445 -0.59529,-0.4269 c -1.79712,-1.28878 -4.34562,-2.65906 -5.76972,-3.10229 -2.09882,-0.65323 -5.33061,-0.65554 -7.79015,-0.006 -5.19245,1.37219 -10.47698,3.08023 -11.77396,3.80552 -0.80037,0.44757 -2.59696,1.95422 -3.99242,3.3481 -2.73729,2.73417 -5.12177,6.13425 -8.31629,11.85838 -0.99408,1.78125 -1.85592,3.19013 -1.91521,3.13084 -0.18857,-0.18857 0.94144,-2.50913 2.83036,-5.81239 2.23818,-3.91402 2.79406,-5.18558 3.27667,-7.49534 0.639,-3.05829 2.95634,-6.38737 6.39684,-9.1897 2.5248,-2.05647 5.13429,-3.11115 10.18672,-4.11717 5.97682,-1.19007 7.71902,-1.87977 9.66565,-3.8264 0.63398,-0.63398 1.49979,-1.84708 1.92404,-2.69579 0.8614,-1.72324 2.36565,-6.14462 3.30643,-9.7184 l 0.61979,-2.35447 0.32073,2.60978 c 0.35499,2.88862 0.89843,5.18401 2.43125,10.26904 0.56491,1.87406 1.45975,5.68406 1.98854,8.46667 0.52878,2.7826 1.57498,7.50005 2.32489,10.48323 1.32367,5.26566 1.3632,5.53207 1.35428,9.12813 -0.008,3.40747 -0.0676,3.85251 -0.73886,5.55625 -0.40132,1.01864 -1.21159,2.66486 -1.8006,3.65827 -0.589,0.9934 -1.0039,1.87321 -0.92198,1.95512 0.29615,0.29616 1.96956,-1.25619 2.95572,-2.74191 1.19829,-1.80529 2.26322,-4.45553 3.20434,-7.97443 0.63465,-2.373 0.67499,-2.84373 0.52629,-6.14185 -0.19486,-4.32224 -0.95893,-8.19986 -2.98508,-15.14915 -4.56581,-15.65977 -4.99826,-20.64815 -2.57458,-29.697716 0.0779,-0.29104 -1.14872,0.78052 -2.72592,2.381246 -1.5772,1.60073 -3.61468,3.54644 -4.52772,4.32381 -1.30056,1.10729 -2.06357,2.09524 -3.52316,4.56181 -2.085,3.52344 -4.13861,5.95018 -5.52579,6.52978 -0.64777,0.27066 -1.68196,0.36387 -3.44281,0.31029 -4.28316,-0.13033 -4.9704,-0.0832 -5.6934,0.39054 -1.27011,0.8322 -0.7711,1.31174 1.72435,1.65706 3.18867,0.44124 5.75931,0.41708 7.42339,-0.0698 1.89453,-0.55428 4.06102,-2.75181 6.17673,-6.2652 0.85602,-1.42154 1.6011,-2.53993 1.65571,-2.48531 0.0546,0.0546 -0.31903,1.07671 -0.83034,2.27131 -1.74009,4.06545 -3.67441,6.35689 -6.45931,7.65183 -1.32928,0.6181 -1.80962,0.69186 -4.52967,0.69553 -1.67349,0.002 -3.94148,-0.0999 -5.03999,-0.22696 -1.65892,-0.19192 -2.14078,-0.15686 -2.84427,0.20693 -0.85704,0.44319 -0.94564,0.39836 -0.86082,-0.43549 0.0879,-0.86426 -0.24175,-0.46769 -1.20968,1.4552 -1.1314,2.24765 -4.20289,7.23025 -9.01131,14.61823 -1.89422,2.91042 -3.90679,6.10019 -4.47237,7.08838 -0.56558,0.9882 -1.06732,1.67976 -1.11497,1.53682 -0.0777,-0.23325 1.2355,-5.02077 1.45389,-5.30027 0.0493,-0.0631 0.23048,0.0262 0.40268,0.19844 0.1722,0.1722 0.40295,0.31309 0.51277,0.31309 0.32592,0 0.56096,-1.77834 0.36976,-2.79755 -0.14741,-0.78577 -0.24185,-0.89195 -0.55915,-0.62861 -0.76061,0.63125 -6.87978,13.3435 -7.86432,16.33771 -1.49097,4.53436 -1.16171,4.3821 0.74352,-0.34384 1.72953,-4.29012 4.63458,-10.52809 4.81769,-10.34498 0.25273,0.25273 -0.92353,3.85321 -2.55849,7.83144 -1.88273,4.58112 -2.4856,6.27777 -2.89019,8.13388 -0.4042,1.85433 0.0908,1.05937 1.68696,-2.70895 0.83232,-1.96507 1.5558,-3.57285 1.60773,-3.57285 0.22738,0 -0.34443,2.00964 -1.65601,5.82013 -0.77624,2.25519 -1.40573,4.51737 -1.39886,5.02708 l 0.0125,0.92675 0.75022,-1.44953 c 0.55097,-1.06456 0.77637,-1.31375 0.84868,-0.93828 0.0602,0.31241 0.53879,-0.5645 1.2306,-2.25463 0.81576,-1.99294 1.09636,-2.48261 1.00407,-1.75222 -0.10849,0.85864 -0.07,0.96546 0.25178,0.69842 0.52662,-0.43705 0.0153,1.18922 -1.4266,4.53776 -0.60292,1.40012 -1.09622,2.71576 -1.09622,2.92364 0,1.12342 1.4753,1.29046 4.52174,0.51196 1.07831,-0.27556 4.56164,-0.76553 7.74074,-1.08883 5.70451,-0.58012 9.282,-0.60659 14.13884,-0.1046 2.00606,0.20734 3.37652,-0.23891 5.39767,-1.75757 2.40235,-1.80509 2.32746,-1.18387 -0.63202,5.24239 -1.15716,2.51268 -2.05922,4.70266 -2.00456,4.86661 0.1442,0.43262 3.78157,-5.24712 5.39937,-8.43112 2.17484,-4.28029 2.48998,-6.83897 0.89002,-7.22619 -0.41776,-0.1011 -1.62297,0.17334 -3.29154,0.74953 -2.47414,0.85437 -2.77645,0.89958 -5.02708,0.75183 -1.31705,-0.0865 -3.64479,-0.33699 -5.17276,-0.55672 -4.09195,-0.58846 -9.47115,-0.53845 -12.01314,0.11168 -2.63066,0.67281 -4.96071,1.92429 -6.55965,3.52323 -0.69903,0.69903 -1.27096,1.20848 -1.27096,1.13211 0,-0.45063 1.38409,-3.69793 1.97542,-4.63466 1.58779,-2.51523 4.46401,-4.52351 7.82616,-5.46453 2.28586,-0.63978 8.00038,-0.7652 12.26187,-0.26912 4.62548,0.53845 6.98212,0.53936 10.12344,0.004 2.7847,-0.47467 3.40821,-0.39779 4.54732,0.56071 1.57852,1.32823 1.27517,3.82963 -1.02387,8.44286 -0.71993,1.44461 -1.25701,2.67851 -1.19352,2.742 0.0635,0.0635 0.64044,-0.70174 1.28211,-1.70052 3.2276,-5.02381 4.25988,-11.33554 2.4567,-15.02111 -1.61943,-3.31 -5.07044,-4.10375 -10.34209,-2.37873 -1.83902,0.60177 -2.79341,0.72139 -7.27604,0.91195 -8.96398,0.38106 -12.23266,1.79623 -16.52047,7.15256 -2.28107,2.84951 -2.35693,2.90773 -1.62458,1.24688 3.17004,-7.18913 5.62801,-10.59938 8.79462,-12.20184 2.0261,-1.02531 3.14941,-1.25988 7.10147,-1.48296 3.18892,-0.18 4.0354,-0.32802 6.08542,-1.06414 1.30969,-0.47028 3.51234,-1.25983 4.89479,-1.75455 4.03635,-1.44444 5.9025,-1.19971 9.06628,1.18897 4.03259,3.04463 5.45659,7.18516 4.19633,12.20153 -1.11893,4.4538 -3.94617,9.30694 -10.07811,17.29972 -1.77115,2.30864 -3.41591,4.50847 -3.65502,4.88852 l -0.43475,0.691 0.61737,-0.52917 c 0.33955,-0.29104 2.39243,-2.51221 4.56196,-4.93593 z m -47.98783,-4.98314 c 2.99632,-3.49811 5.28107,-7.32279 10.03748,-16.80281 2.55514,-5.09266 5.14583,-10.09329 5.75708,-11.1125 0.61126,-1.01922 1.59747,-2.86515 2.1916,-4.10208 1.39582,-2.90601 3.23565,-5.81202 7.43089,-11.73713 5.29625,-7.4801 6.98288,-10.51473 8.43428,-15.1752 0.6948,-2.23102 0.72175,-2.53082 0.67275,-7.483496 -0.0627,-6.335331 -0.43836,-12.115141 -0.81176,-12.488541 -0.4088,-0.40879 -0.86402,1.45885 -2.43131,9.975 -1.81896,9.883637 -3.39213,14.484807 -6.7112,19.628757 -1.30215,2.0181 -3.18843,5.70375 -5.48903,10.72513 -0.84829,1.85151 -2.08436,4.32161 -2.74682,5.48911 -0.66246,1.1675 -1.58025,3.16497 -2.03952,4.43882 -0.45928,1.27385 -2.40241,5.42679 -4.31808,9.22876 -1.91567,3.80196 -3.87784,7.90962 -4.36036,9.12812 -1.54879,3.91109 -4.58899,8.48896 -8.10982,12.21158 -0.87609,0.92631 -1.69677,1.85409 -1.82372,2.06175 -0.53622,0.87704 2.75431,-2.16024 4.31754,-3.98527 z m -3.48791,-0.22344 c 2.28107,-1.65751 5.76338,-6.0701 6.94089,-8.79512 0.27823,-0.64389 2.35296,-5.04023 4.61051,-9.76966 2.25754,-4.72943 4.46789,-9.40263 4.9119,-10.3849 0.5026,-1.1119 0.96523,-1.78594 1.22579,-1.78594 0.30556,0 0.37695,-0.16556 0.26454,-0.61347 -0.19767,-0.78755 1.99891,-7.00957 5.43451,-15.39382 5.0974,-12.43971 6.31593,-15.68781 7.64797,-20.386287 0.92692,-3.26949 1.88922,-7.52725 1.70126,-7.52725 -0.37661,0 -4.95499,10.419601 -11.85832,26.987497 -5.04724,12.1133 -6.01832,14.31448 -5.77786,13.09688 0.31684,-1.60444 1.51624,-5.15383 3.43066,-10.1524 1.07962,-2.81892 2.49259,-7.13756 3.13992,-9.59696 1.29727,-4.92872 2.43772,-8.00312 5.66018,-15.258637 2.60566,-5.86676 3.49883,-8.04173 3.35959,-8.18097 -0.22276,-0.22276 -3.24518,4.99569 -4.93956,8.52855 -2.23808,4.666511 -3.86034,9.014367 -6.63399,17.779987 -1.20642,3.81264 -2.23327,6.89229 -2.28189,6.84366 -0.0486,-0.0486 0.15577,-1.04477 0.45421,-2.21365 0.57886,-2.26719 0.7172,-3.61642 0.25117,-2.44976 -0.14185,0.35511 -0.77672,2.73776 -1.41083,5.29477 -1.08047,4.35691 -2.57121,8.8386 -3.03541,9.12549 -0.1128,0.0697 0.2427,-1.208 0.79,-2.83937 0.97653,-2.91082 1.50752,-4.95339 1.21661,-4.68001 -0.22131,0.20798 -5.85482,14.92557 -6.54389,17.09595 -0.32973,1.03857 -0.82031,2.16966 -1.09017,2.51354 -0.54073,0.68902 -0.12547,-0.53979 2.73927,-8.10603 3.98238,-10.5181 5.7041,-15.98527 7.37404,-23.41562 1.89482,-8.43096 3.53808,-12.613647 7.01642,-17.859377 2.56142,-3.86291 0.68037,-1.89282 -2.44827,2.56416 -3.96447,5.647681 -4.64184,7.430317 -5.51026,14.501467 -0.51922,4.22777 -0.78631,5.58858 -1.76559,8.99583 -2.20678,7.67811 -6.45513,19.12748 -6.85642,18.47818 -0.26231,-0.42442 -0.16516,-0.55943 -1.7442,2.4239 -0.73171,1.38245 -2.48162,4.45723 -3.88868,6.83285 -3.57457,6.03511 -7.04667,13.09319 -6.64069,13.49917 0.074,0.074 0.50624,-0.21389 0.96044,-0.63985 l 0.82582,-0.77446 -0.17227,0.79375 c -0.38312,1.76536 -0.4927,5.07059 -0.18704,5.64171 0.43335,0.80972 1.57239,0.73975 2.82964,-0.1738 z m 0.12882,-13.5377 c 0.1777,-0.3638 1.65866,-2.92814 3.29102,-5.69852 1.63237,-2.77039 3.22969,-5.55013 3.5496,-6.17721 0.3199,-0.62707 0.64548,-1.0763 0.7235,-0.99828 0.40134,0.40134 -5.27035,10.34226 -7.34513,12.87401 l -0.54207,0.66146 z m 10.8384,6.69429 c 0.28404,-1.11059 0.46907,-2.06663 0.41117,-2.12453 -0.13842,-0.13842 -1.75068,4.70727 -1.73696,5.22048 0.0203,0.75982 0.81316,-1.09161 1.32579,-3.09595 z m 3.00342,-6.50936 c 0.94107,-2.28452 1.66079,-4.15368 1.59937,-4.15368 -0.33896,0 -3.04331,6.13086 -3.44291,7.80521 -0.34862,1.46072 0.11996,0.5326 1.84354,-3.65153 z m 66.57617,-4.3274 c 0.780016,-3.03127 1.090536,-7.47745 0.784126,-11.22769 -0.36157,-4.42551 -0.777676,-6.70873 -2.912806,-15.98296 -2.913069,-12.65329 -3.643209,-17.76682 -3.343389,-23.415627 0.2439,-4.5954 0.707029,-6.9178 2.476089,-12.41655 0.0736,-0.22866 -0.11849,-0.0585 -0.42679,0.37801 -0.75813,1.07356 -1.735809,4.27486 -2.141289,7.01146 -0.18327,1.23693 -0.41821,2.4093 -0.52208,2.60527 -0.10388,0.19596 -0.2611,-0.91932 -0.34939,-2.47842 -0.0883,-1.5591 -0.22595,-2.90014 -0.3059,-2.98009 -0.38188,-0.38188 -0.5214,0.55902 -0.70723,4.76956 -0.11055,2.50473 -0.32163,6.045021 -0.46906,7.867301 -0.52576,6.498636 -0.58046,8.645076 -0.29633,11.630016 0.42302,4.44401 1.11785,7.31857 3.590609,14.85451 3.15151,9.60445 3.58474,11.47001 3.74339,16.11935 0.10086,2.95601 0.0338,4.25009 -0.29209,5.63881 -0.23264,0.9913 -0.4165,1.88427 -0.40856,1.98438 0.0331,0.41774 1.13008,-2.60613 1.5807,-4.35733 z m -55.66894,-11.94148 c 1.1501,-2.39623 3.26541,-5.83472 7.28184,-11.83678 5.64736,-8.4393 8.24027,-12.74551 9.63417,-16.0001 1.74038,-4.06358 2.30848,-4.35216 8.5828,-4.35991 4.11929,-0.005 4.7324,-0.0635 5.55625,-0.52939 l 0.92605,-0.52367 -2.11667,-0.18043 c -1.16417,-0.0992 -2.758,-0.310076 -3.54184,-0.468516 -2.10862,-0.42623 -4.4561,-0.34435 -6.24774,0.21791 -0.87313,0.274006 -1.64351,0.444456 -1.71196,0.378766 -0.0685,-0.0657 0.88472,-1.101726 2.11815,-2.302316 1.92503,-1.873771 2.31468,-2.405651 2.75163,-3.756101 0.78312,-2.42029 0.86302,-6.1577 0.18735,-8.7643 -0.45926,-1.77179 -2.42811,-6.88481 -3.85328,-10.00683 l -0.36234,-0.79375 -0.3169,0.79375 c -0.61697,1.54533 -0.18192,4.67822 1.21247,8.73125 1.18345,3.4399 1.27521,3.89292 1.28608,6.35 0.0108,2.44512 -0.0519,2.77629 -0.82661,4.36562 l -0.83832,1.719791 -0.0216,-1.267921 c -0.0384,-2.25653 -0.82557,-5.24192 -2.52416,-9.57302 -0.91464,-2.33217 -1.73402,-4.44867 -1.82085,-4.70333 -0.25492,-0.74765 -0.66343,-0.53235 -0.75303,0.39688 -0.13924,1.44411 0.27742,3.88015 1.23318,7.20989 1.70264,5.9318 1.80757,8.551041 0.52051,12.992407 -1.1958,4.12648 -2.98111,7.51383 -8.00367,15.18572 -3.65682,5.58574 -5.75541,9.11072 -7.34951,12.34493 -1.16336,2.3603 -1.94672,3.46094 -2.8121,3.95109 -0.34821,0.19722 -0.39852,0.56141 -0.27992,2.02637 0.0795,0.98227 0.21759,1.78445 0.30681,1.78262 0.0892,-0.002 0.89165,-1.52311 1.78319,-3.38063 z m 62.774346,-9.44834 c 1.51209,-9.43371 1.90791,-22.9357 0.98829,-33.712777 -0.64118,-7.51401 -1.69476,-15.74261 -2.30481,-18.000851 -0.59334,-2.196373 -2.06498,-5.254232 -4.31241,-8.960577 -3.141606,-5.180984 -4.092196,-7.586442 -4.305726,-10.895583 -0.10243,-1.587339 -0.0201,-2.779192 0.27991,-4.051314 0.58337,-2.473733 0.54234,-2.609317 -0.3754,-1.240353 -1.74198,2.59847 -2.010449,5.820765 -0.74224,8.9088 0.3688,0.898017 1.70806,3.302677 2.97614,5.343688 2.616596,4.211513 3.939476,7.221961 4.709366,10.717044 0.46434,2.107956 0.56652,4.028806 0.80402,15.114846 0.14964,6.985 0.26322,15.617027 0.25239,19.182287 -0.0225,7.40464 0.0901,6.86489 1.01385,-4.86044 0.31951,-4.055686 0.67564,-7.687097 0.79139,-8.069787 0.11575,-0.3827 0.21805,3.114191 0.22733,7.770847 0.0153,7.65489 -0.10188,11.74899 -0.65478,22.88646 -0.0975,1.96453 -0.11461,3.51235 -0.038,3.43958 0.0766,-0.0728 0.38743,-1.6801 0.69066,-3.57187 z m -39.789076,-9.88678 c 1.34216,-0.61182 2.64734,-1.71122 3.61126,-3.04187 1.12232,-1.54932 0.92297,-1.63456 -0.71073,-0.3039 -2.69255,2.19312 -4.25325,2.71385 -6.86928,2.29198 -1.64205,-0.2648 -2.66585,0.0428 -1.29504,0.38913 1.02902,0.25997 3.75232,0.26357 4.73463,0.006 0.65709,-0.17212 0.73395,-0.14775 0.44642,0.14154 -0.2541,0.25565 -1.15961,0.33529 -3.37344,0.2967 -1.66436,-0.029 -3.02611,0.052 -3.02611,0.18003 0,0.66309 5.04717,0.69432 6.48229,0.0401 z m -0.26458,-3.7072 c 1.24912,-0.57301 2.46557,-1.73319 2.6696,-2.54612 0.0799,-0.3185 0.1073,-1.03216 0.0608,-1.58592 -0.12936,-1.5404 -1.05349,-2.09172 -3.70817,-2.21228 -1.51815,-0.0689 -2.0803,-0.0121 -1.9509,0.19729 0.1,0.16177 0.68078,0.30437 1.29065,0.31688 0.92952,0.0191 1.0016,0.0554 0.4457,0.22447 -1.25238,0.38095 -2.3022,1.05004 -3.13402,1.99743 -1.08614,1.23706 -1.10493,2.28665 -0.0596,3.33196 0.64374,0.64374 0.98751,0.77242 2.05052,0.76758 0.70242,-0.003 1.75338,-0.22428 2.33546,-0.49129 z m -3.23587,-0.20846 c -0.32453,-0.068 -0.82237,-0.41896 -1.10633,-0.77995 -0.42116,-0.53543 -0.46721,-0.79711 -0.24995,-1.42034 0.65948,-1.89179 2.78849,-2.99709 4.68086,-2.43013 1.43173,0.42896 2.12365,2.16378 1.29194,3.2392 -0.82153,1.06223 -3.02176,1.72529 -4.61652,1.39122 z m 0.98691,-2.86631 c 0,-0.22049 -0.23518,-0.39687 -0.52917,-0.39687 -0.29398,0 -0.52916,0.17638 -0.52916,0.39687 0,0.22049 0.23518,0.39688 0.52916,0.39688 0.29399,0 0.52917,-0.17639 0.52917,-0.39688 z m 12.0941,-8.325036 c 1.87096,-1.14078 2.80829,-3.563951 2.81813,-7.285381 0.008,-3.23195 -0.64991,-5.91166 -2.1866,-8.89876 -1.84691,-3.59012 -1.88702,-4.08522 -0.138,-1.70359 3.39577,4.62399 5.05594,8.45054 4.80862,11.08346 -0.0984,1.04751 -0.44911,1.89594 -1.48648,3.59602 -0.81104,1.329171 -1.35769,2.534281 -1.35769,2.993081 v 0.76803 l 1.35171,-0.73569 c 2.76501,-1.50491 4.1726,-4.195231 3.82099,-7.303071 -0.44704,-3.95124 -3.49513,-9.66299 -8.25675,-15.47208 -1.71541,-2.09277 -1.97615,-2.66521 -3.04468,-6.684481 -0.44494,-1.673603 -0.87181,-3.147502 -0.94861,-3.275329 -0.24275,-0.404052 -0.53094,0.432885 -0.85441,2.481372 -0.47161,2.986569 0.0211,4.873368 2.75458,10.549418 2.62176,5.444 3.10608,7.19487 3.15645,11.411 0.0424,3.55014 -0.1544,4.10839 -2.2999,6.523681 -2.36004,2.65679 -2.31969,2.4723 -0.54042,2.47116 1.07538,-6.8e-4 1.81524,-0.16042 2.40306,-0.51884 z m -7.59618,-1.06707 c 2.35373,-0.32712 3.70941,-1.16148 4.8515,-2.985881 1.64136,-2.62196 1.15628,-5.88977 -2.04245,-13.75927 -3.07365,-7.56177 -3.43503,-8.82898 -3.44926,-12.095031 -0.0105,-2.406571 0.0696,-2.932358 0.59867,-3.93133 0.84546,-1.596339 0.17583,-1.275004 -1.04798,0.502893 -1.23106,1.788433 -1.8209,3.578926 -1.8209,5.527465 0,1.923153 0.43393,3.359703 2.41088,7.981333 2.50569,5.85769 2.84918,8.66113 1.54234,12.5882 -0.54885,1.64929 -2.65271,5.168601 -3.51071,5.872691 -0.57945,0.4755 -0.56728,0.90202 0.0205,0.71893 0.25466,-0.0793 1.35599,-0.26833 2.44739,-0.42 z M 110.18344,65.827272 c -1.21643,-5.957299 -0.93693,-7.641555 2.15957,-13.013364 0.73913,-1.282235 1.29081,-2.384395 1.22596,-2.449244 -0.24367,-0.243665 -2.33711,1.511671 -3.38721,2.840144 -2.18293,2.761613 -3.34941,6.05863 -3.0744,8.689712 0.14368,1.374719 2.27175,7.049748 3.30512,8.813973 l 0.44054,0.752101 0.0805,-0.782938 c 0.0443,-0.430616 -0.29326,-2.613289 -0.75006,-4.850384 z m -60.719936,1.182176 c 2.65177,-0.671432 3.43757,-1.303025 1.06431,-0.855444 -2.89769,0.546488 -6.09509,0.74318 -7.93273,0.487992 -3.02181,-0.419628 -4.8276,-1.482598 -8.05701,-4.742717 -3.20061,-3.231038 -5.28271,-6.017758 -7.14728,-9.566024 -1.22661,-2.334242 -2.80287,-6.525695 -2.54941,-6.779155 0.17538,-0.175384 0.85646,1.251101 1.49796,3.137407 0.62309,1.832158 1.53267,3.232548 2.4017,3.697634 0.6895,0.369005 5.81304,1.303876 7.08129,1.292092 l 0.94736,-0.0088 -0.62026,-0.516826 c -0.34114,-0.284254 -2.12707,-0.990621 -3.96875,-1.569705 -2.42503,-0.76251 -3.60389,-1.279872 -4.27454,-1.875957 -0.56323,-0.500607 -0.72989,-0.760872 -0.42537,-0.664304 0.27538,0.08733 2.29945,0.518192 4.49793,0.957479 4.25718,0.850644 5.70039,1.25337 9.68578,2.702807 4.84859,1.763369 5.99795,1.490364 2.22794,-0.529198 -1.15261,-0.617443 -1.94872,-1.124851 -1.76913,-1.127574 0.34996,-0.0053 6.39935,1.247378 7.15658,1.481958 1.1998,0.371678 -2.21204,-2.181106 -4.3081,-3.223379 -2.89996,-1.442017 -5.92208,-2.223129 -12.17083,-3.145728 -2.61938,-0.386739 -5.69903,-0.940792 -6.84367,-1.231229 -1.14464,-0.290437 -2.13603,-0.473203 -2.20309,-0.406145 -0.23154,0.231543 1.99614,6.453483 3.10272,8.665947 4.74462,9.486187 12.04046,14.909815 19.3055,14.351443 0.94588,-0.0727 2.43138,-0.312355 3.3011,-0.532571 z m -2.11048,-6.417602 c 2.29924,-0.557303 6.72585,-2.072012 7.13052,-2.439946 0.34729,-0.315751 -0.14599,-0.284963 -2.6326,0.164318 -1.16417,0.210342 -3.62156,0.386593 -5.46088,0.39167 -5.38311,0.01486 -8.96208,-0.876107 -14.0576,-3.499569 -1.42183,-0.732038 -2.65754,-1.258587 -2.74602,-1.170108 -0.27093,0.270935 1.44248,2.705557 2.79337,3.969157 1.5495,1.449378 3.52792,2.486497 5.68681,2.981113 2.08617,0.477956 6.44648,0.291721 9.2864,-0.396635 z M 35.579064,43.182571 c -0.50932,-0.225572 -2.89057,-0.747534 -5.29166,-1.159916 -3.86344,-0.663533 -5.33735,-1.004557 -7.27605,-1.683493 -0.37422,-0.13105 -0.29674,0.01516 0.26458,0.499322 1.69124,1.458755 6.78731,2.752275 10.84793,2.7535 2.37251,7.16e-4 2.37785,-7.85e-4 1.4552,-0.409413 z m -9.83357,-6.402746 c -1.06722,-0.714886 -2.93881,-2.228488 -4.1591,-3.36356 -1.88884,-1.756942 -2.14858,-1.927559 -1.74704,-1.147602 0.70342,1.366316 3.49735,3.975529 5.29401,4.944009 2.41249,1.300434 2.79542,1.029654 0.61213,-0.432847 z M 166.11923,147.8817 c 0.99511,-4.91264 1.5522,-13.82728 1.2229,-19.56918 -0.3952,-6.89117 -1.1648,-11.33599 -3.43757,-19.85374 -2.04707,-7.67187 -2.27445,-10.415106 -1.08597,-13.101847 0.95241,-2.15309 3.90687,-4.72643 7.43339,-6.47452 1.35614,-0.67223 1.28047,-0.57201 -0.96357,1.27627 -2.05549,1.69297 -4.14291,4.77596 -4.88263,7.211351 -0.42672,1.40488 -0.53589,2.35222 -0.46464,4.031956 0.0874,2.06051 0.18658,2.38182 1.61171,5.22152 1.68421,3.35593 1.85396,3.9682 2.45744,8.86415 0.66326,5.3809 1.02526,6.68369 1.77698,6.39522 0.62316,-0.23913 1.1105,-2.53264 1.10961,-5.22201 -8.2e-4,-2.49161 -0.0116,-2.53317 -1.2312,-4.7625 -1.90254,-3.47757 -2.66468,-6.00811 -2.66948,-8.86355 -0.003,-1.83432 0.13054,-2.72773 0.58178,-3.889796 0.60042,-1.54628 2.33637,-3.715141 3.81803,-4.770181 l 0.83319,-0.59328 -0.5578,0.79017 c -1.11389,1.57792 -1.94328,3.566541 -2.24208,5.375831 -0.4193,2.538936 0.12754,5.612936 2.01553,11.330226 2.1831,6.61093 2.33417,7.28661 2.35708,10.54245 l 0.0205,2.91042 -2.03155,6.2177 c -1.11735,3.41974 -2.76797,8.59896 -3.66804,11.50938 -1.50146,4.85504 -2.35809,7.17405 -2.00359,5.42396 z m -12.34807,-26.51325 c -0.15115,-11.87902 -0.39385,-15.3564 -1.27958,-18.33363 -0.64414,-2.16519 -0.95922,-2.816 -2.53782,-5.241896 -1.84987,-2.842801 -2.26655,-4.286441 -2.26722,-7.854971 -4.8e-4,-2.54813 0.11602,-3.42953 0.71669,-5.4225 2.82831,-9.38406 10.56237,-18.490847 18.51535,-21.801684 1.13407,-0.472113 2.1092,-0.81113 2.16695,-0.753372 0.0578,0.05776 -0.71302,0.66396 -1.71286,1.347115 -3.90255,2.666495 -8.21562,7.312989 -12.32792,13.280911 -0.99821,1.44865 -2.62725,3.77753 -3.6201,5.1753 -1.58903,2.2371 -2.60392,4.04773 -2.60392,4.64556 0,0.10588 0.68273,-0.81303 1.51717,-2.04202 2.86521,-4.21994 7.02495,-7.74734 11.81625,-10.02003 2.26501,-1.07438 5.98948,-2.480821 6.14849,-2.321811 0.0518,0.05179 -0.76802,0.680241 -1.82181,1.396571 -6.73386,4.57748 -12.52781,10.57434 -14.47961,14.9867 -0.82765,1.87106 -1.32841,4.1535 -1.32841,6.05489 0,2.622091 0.80549,4.878371 2.76741,7.751917 3.30385,4.83901 3.97256,6.89871 3.95975,12.19641 -0.006,2.42539 -0.16989,4.52623 -0.47512,6.08541 -0.46521,2.37641 -2.77662,11.82632 -2.93024,11.97995 -0.0446,0.0446 -0.14513,-4.95439 -0.22345,-11.10882 z m -20.3466,-4.31071 c -0.0814,-0.87312 -0.0859,-5.15937 -0.01,-9.525 0.14728,-8.471786 -0.0943,-12.357457 -0.98205,-15.792707 -0.27492,-1.06391 -0.5898,-2.16226 -0.69972,-2.4408 -0.14927,-0.37822 -0.11278,-0.4526 0.14414,-0.29381 0.57991,0.3584 2.31069,4.39144 2.77242,6.46024 0.96108,4.306141 0.81281,10.207007 -0.47939,19.078537 -0.57569,3.95237 -0.60271,4.04349 -0.74537,2.51354 z M 32.960474,105.83483 c -0.74608,-3.24237 -0.80499,-5.78705 -0.17007,-7.346306 0.25247,-0.62001 1.1102,-1.73014 1.95039,-2.524321 0.82485,-0.77968 2.76473,-2.78197 4.31084,-4.44953 2.40585,-2.59483 4.46493,-4.3646 4.46493,-3.83759 0,0.0827 -1.43408,1.66698 -3.18685,3.52069 -3.43184,3.62948 -4.81653,5.491771 -5.58278,7.508381 -0.42287,1.11292 -0.85366,4.563486 -1.08544,8.694296 -0.0606,1.08068 -0.12536,0.93612 -0.70102,-1.56562 z m 126.734606,-0.86012 c -2.66016,-3.28766 -3.99519,-6.634666 -3.99519,-10.016277 0,-5.1003 3.03253,-9.16744 8.90253,-11.93986 1.18561,-0.55997 2.31643,-1.01812 2.51293,-1.01812 0.19649,0 -0.71907,0.70432 -2.03459,1.56516 -2.67372,1.74961 -4.37767,3.28734 -5.0208,4.53102 -0.23669,0.45769 -0.38955,0.87295 -0.3397,0.9228 0.0499,0.0498 0.90006,-0.61705 1.88935,-1.482 2.08307,-1.82124 4.24899,-3.33219 6.12883,-4.27546 2.33744,-1.1729 2.69771,-1.07779 0.79375,0.20954 -2.40725,1.62763 -5.55876,4.86939 -6.82003,7.01535 -2.56592,4.36572 -2.9803,9.742147 -1.10887,14.387217 0.34893,0.86607 0.5909,1.61819 0.53771,1.67138 -0.0532,0.0532 -0.70385,-0.65365 -1.44592,-1.57075 z M 84.514274,75.583403 c -0.4866,-0.32791 -1.09356,-0.95379 -1.3488,-1.39083 l -0.46409,-0.79462 2.03728,-0.0198 c 1.38953,-0.0135 2.3185,-0.16638 2.92176,-0.48076 0.48647,-0.25352 0.95203,-0.393397 1.03458,-0.31084 0.33168,0.33167 -0.52357,2.27338 -1.28268,2.91213 -0.99555,0.8377 -1.74809,0.8597 -2.89805,0.0847 z M 107.09022,48.927535 c 0.13036,-4.358526 0.6097,-5.828008 2.6472,-8.115384 2.84047,-3.188821 5.44525,-5.105983 7.86247,-5.786925 l 0.66146,-0.186336 -0.64143,0.694323 -0.64143,0.694323 h 1.2479 c 0.68634,0 2.14831,-0.185984 3.2488,-0.413297 1.1005,-0.227313 2.059,-0.355198 2.13001,-0.284189 0.2981,0.298103 -3.93946,4.160902 -6.1376,5.594791 -5.02978,3.281043 -6.84363,5.100607 -9.29382,9.323103 l -1.1904,2.051466 z"
       id="path1" /><path
       id="path1-4"
       style="fill:#000000;fill-opacity:0;stroke:#ff0000;stroke-width:0.2;stroke-dasharray:none;stroke-opacity:1"
       d="m 65.94438,21.259333 c -4.744508,6.406182 -8.308024,10.88077 -15.881568,5.671747 -2.549285,4.743951 -5.692677,10.057424 -10.977064,4.42408 -8.994356,5.891736 -16.834778,-3.002642 -23.225475,-9.27009 -8.3878724,2.306398 0.468815,16.272976 1.326381,22.79923 3.736297,10.210613 9.95612,20.837142 20.211911,25.430448 3.584507,0.748797 15.709194,0.309292 6.305089,4.391841 -8.160452,3.482416 0.960639,12.415593 -7.870256,16.224668 -10.43057,6.24097 -2.642816,16.980103 -4.924731,25.970483 -4.413004,14.60761 -13.435016,27.28516 -19.760659,41.09666 -4.0522892,8.94844 -11.13293325,17.62374 -8.5310953,28.11912 2.1666114,16.78287 21.0700923,29.93629 37.2585983,23.22446 8.275126,-2.98595 13.545343,-10.54419 16.714933,-18.33622 6.936657,-11.18621 22.046097,-13.42033 28.511844,-24.63273 4.396865,-7.19634 13.776071,-5.34839 10.415096,3.7184 -1.68962,12.26017 -4.400204,26.87563 7.095656,35.55109 8.87749,7.39614 18.52394,21.43633 31.63989,14.65982 13.79858,-7.19055 25.69822,-18.69362 33.15167,-32.3929 4.53933,-9.49574 3.59622,-20.49036 7.66644,-30.19781 2.749,-9.4162 8.17382,-17.76184 11.68049,-26.79268 2.57938,-11.80537 -10.14105,-17.47432 -14.39967,-25.64953 -0.51494,-6.005616 6.16414,-20.086896 -3.61451,-18.617508 10.9499,-8.412952 -6.92127,-5.656321 -9.8134,-3.726146 1.25942,-3.238607 18.19069,-11.488976 7.95193,-12.977401 -9.02258,1.009786 10.68294,-6.488626 3.22337,-12.302819 -3.40479,-4.719503 -20.66564,1.770109 -12.94282,-8.104603 -5.34978,-0.207455 -12.17687,-1.141278 -13.83076,-5.758677 -6.27911,-2.756653 -9.89051,-10.595767 -17.61259,-8.964623 -3.59057,-3.854044 4.18756,-6.761985 -3.00318,-3.495761 -8.70949,1.485924 -15.69928,-5.813407 -24.127952,-6.853126 -8.351208,0.123739 -15.63193,-1.252916 -24.163205,-2.185407 -2.860205,-0.07255 -5.648365,-0.668603 -8.474363,-1.024016 z"
       sodipodi:nodetypes="cccccccccccccccccccccccccccccccc" /></g></svg>
